<?xml version="1.0" encoding="utf-8"?>
<!-- Generator: Adobe Illustrator 20.0.0, SVG Export Plug-In . SVG Version: 6.00 Build 0)  -->
<svg version="1.1" id="Layer_1" xmlns="http://www.w3.org/2000/svg" xmlns:xlink="http://www.w3.org/1999/xlink" x="0px" y="0px"
	 viewBox="0 0 788 1138" style="enable-background:new 0 0 788 1138;" xml:space="preserve">
<style type="text/css">
	.st0{fill:#ABABAB;stroke:#000000;stroke-width:0.9666;stroke-miterlimit:10;}
	.st1{fill:none;}
	.st2{fill:#2D2A25;}
	.st3{fill:#2F2A27;}
	.st4{fill:#497841;}
	.st5{fill:#393531;}
	.st6{fill:#F1F0F0;}
	.st7{fill:#8C8886;}
	.st8{fill:#3C3834;}
	.st9{fill:#44403D;}
	.st10{fill:#B2B1B0;}
	.st11{fill:#868482;}
	.st12{fill:#979492;}
	.st13{fill:#ABAAA8;}
	.st14{fill:#BCBAB8;}
	.st15{fill:#55524F;}
	.st16{fill:#979694;}
	.st17{fill:#918E8D;}
	.st18{fill:#497941;}
	.st19{fill:#AEACAB;}
	.st20{fill:#FFFFFF;}
	.st21{fill:#2F2A25;}
	.st22{fill:#2E2925;}
	.st23{fill:#2D2A25;stroke:#2D2A25;stroke-width:5.76;stroke-miterlimit:10;}
	.st24{font-family:'Arial-BoldMT';}
	.st25{font-size:50.0293px;}
	.st26{letter-spacing:5.3;}
	.st27{font-family:'Kelmscott-Regular';}
	.st28{font-size:46.3146px;}
	.st29{letter-spacing:4.7;}
</style>
<rect class="st0" width="788" height="1138"/>
<path class="st1" d="M325.7,980.5c-0.1,0.1-0.2,0.1-0.4,0.2c-0.1,0.1-0.1,0.1-0.2,0.2C325.3,980.8,325.5,980.6,325.7,980.5z"/>
<path class="st2" d="M198.1,1039.5c40.6,0.5,81.2-0.9,121.8,0c4.5,0.1,9.7,0.5,5.5-6.7c-1.2-2.1-0.3-4,1.2-5.1c5-3.6,4-7.9,2.6-12.9
	c-3.7-14.1-1.5-27,9.5-37.7c-6,12.4-6.5,25.4-2.5,38.1c2.7,8.5,3.5,15.8-3.5,22.4c-0.2,0.2,0,0.8,0.1,1.7c4.8,0,9.8-0.2,14.6,0.1
	c4.7,0.2,5-1.4,3.2-5.2c-1.4-3-3.8-6.7-0.7-9.6c6-5.4,4.2-11.6,3.5-18.2c-1.2-11.5,2-21.9,10.8-30.1c-5.6,11.8-6.3,24.1-3.6,36.5
	c1.6,7.4,2.2,14.1-3.1,20.2c-0.8,0.9-1.1,2.3-1.5,3.5c-0.7,1.9,0.1,2.9,2.1,2.8c6.1-0.2,12.2,0.6,18.4-0.6c-1.1-3.3-1.9-6.2-3-8.9
	c-1.7-4.1-2.3-8.3,1.8-11c8.3-5.5,11.4-13.6,13.5-22.8c0.8-3.5,2.8-6.7,4.6-9.8c2.9-5,3.7-5.6,8-7.8c-7.7,11.9-10.4,24.6-10.8,38.8
	c6.1-3.9,12-6.3,18.2-7.7c17.1-3.7,34.5-4.4,51.8-5.5c14.1-0.9,28.3,0.1,42.4-2.5c4.7-0.9,9.8-2.2,11.6-7c1.6-4.4,4.5-4.5,7.9-4.5
	c26.9-0.3,53.6-2.1,80.2-5.5c20.4-2.6,40.7-6,59.8-14.2c3.3-1.4,6.6-3,9-6c25.3-31.7,43.1-66.9,50.4-107c2.4-13.1,1.7-26.5,3.2-39.6
	c2.3-20.4,3.1-40.7-1.1-60.8c-4.7-23-13.9-43.2-36.3-54.8c-5.7-3-9.2-8.1-8.9-16.2c1.1-25.1-2.7-49.6-12.9-72.9
	c-8.8-20.1-23.8-34.5-41.7-46.9c-9-6.2-19.1-12.3-19.9-26.6c-1.2-20.7-15.1-31.7-34.1-36.9c-1.7-0.5-3.2-0.9-4.6-2
	c-3.8-3.1-7.7-8.6-11.9-0.3c-0.2,0.4-1.1,0.6-1.7,0.6c-6.2-0.3-12.3,1.4-18.4,1.9c19-55.2,21.6-108.6-13.5-158.6
	c-0.7,0.7-0.9,1.4-0.8,2c7.6,28.8,7.7,58.2,6.1,87.6c-1.1,19-6.9,36.6-18,52.2c-10.3,14.5-23.4,25.8-38.9,34.4
	c1.8-2.1,3.9-3.7,5.9-5.4c20.4-16.9,34.5-38,37.8-64.5c3.7-29.7,3.3-59.6-2.7-89.1c-4.5-22.5-13.2-43.2-28.6-60.8
	c2.4-1.4,4.6-2.1,6.1-3.5c4.4-4.2,6.9-2.2,10,1.8c6.1,7.8,11.3,16.1,15,26.4c5.3-15.4,9.4-29.9,9.8-45.1c0.2-8,0-17.2-6.2-22.3
	c-7.8-6.3-8-14.3-9.1-22.5c-0.4-3.2-0.9-6.4-1.7-9.5c-3.5-15.1-9.8-20.5-25.3-21.4c-4-0.2-5-1.9-4-5.2c1-3,2.3-6,3.7-8.9
	c1.8-3.7,4-7.8,2.6-11.7c-2.7-7.6,0.6-14.2,2-21.2c0.3-1.7,1.6-3.5,0.1-5.5c-3.1,1.5-6.1,2.9-9.5,4.5c-0.3-9.4,0.2-18.2-3.6-26.5
	c-7.2-15.5-17.9-27.7-32.6-36.3c-16.8-9.8-35.4-15-53.5-21.7c-20.1-7.5-40.6-13.6-59.7-23.6c-14.6-7.7-27.4-17.7-37.8-30.6
	c-1.2-1.5-2.1-4.7-4.6-3.5c-2.1,1.1-0.5,3.9-0.3,5.9c0.1,2.6,0.7,5.1,1.1,7.6c3.2,22.3,11.7,42.1,27.4,58.4
	c10.5,11,23.8,18.1,36.7,25.9c20.5,12.5,41.8,23.6,61.8,37c11,7.3,21.1,15.7,26.8,28c3.1,6.7,4.6,13.8,3.4,21.5
	c-2.7-0.9-3.4-2.5-4.3-3.9c-7.6-11.7-15.2-23.3-22.6-35.1c-3.9-6.2-9-9.9-16.5-10.7c-12.8-1.4-25.7-2.6-38.2-5.3
	c-11-2.3-16.9,1.7-22.4,10.9c-13.5,22.5-28,44.5-42.7,67.5c-2.9-6.2-5.4-11.3-7.9-16.5c-1.3-2.9-3.2-4.7-6.6-5.2
	c-13.7-1.9-31.6,7.9-36.9,20.7c-3,7.2-4.5,14.7-4.7,22.5c-0.1,2.9-0.1,5.6-3.6,7.5c-9.1,4.8-13.2,13.1-14.3,23.1
	c-1.3,12.3-0.2,24.6,3.8,36.1c4.4,12.5,2.9,22.7-3.7,34.6c-23.3,41.6-20.7,82.9,6.1,122.5c15.7,23.1,36.3,41.1,59.1,56.8
	c12.8,8.7,26.4,16,40.1,23.2c-1.4,0.2-2.7,0.1-3.9-0.2c-31.9-8.3-60.4-23.4-84.5-45.8c-22.4-20.8-38.2-45.4-40.2-77.2
	c-2.1,0.1-3.5,1.8-4.4,3.2c-6.7,10.1-17,16.2-25.8,23.9c-5.4,4.8-11.5,8-18.4,10c-12.9,3.8-24.8,10.2-30.4,22.9
	c-3.8,8.7-9.6,15.5-15.3,22.7c-6,7.6-11.9,15.2-17.2,23.3C54,575.6,39.9,626.2,38.7,680.6c-0.2,11.1,0.6,22.1,6,32.2
	c0.5-3.8,0.3-7.6,0.5-11.4c0.5-13.1,2.6-26.4,12.1-35.8c9.6-9.5,17.8-19.7,25.1-31c5.6-8.6,14-9.8,23.4-5.3
	c3.8,1.8,7.4,4.2,11.4,6.5c1.1-13.3,4.5-26,5.1-39c0.5-10.5,5.1-15.8,14-17.1c6.8-1,13.6-1.6,20.5-0.6c7.8,1.1,15.7,2,23.6,3
	c-3.8-13.5-10.7-25.6-17.8-37.6c-10.7-17.9-22.8-34.7-36.9-50c-2.3-2.5-2.4-4.5-0.6-7.4c5.4-8.8,13.9-13.1,22.9-16.8
	c3.8-1.6,4.3,1.8,4.8,4.2c4.4,21.4,12.5,41.3,22.7,60.5c11.5,21.4,25.4,41.1,42.2,58.7c10.8,4.3,14.3,12.5,13,23.6
	c-1.7,14.8-6.7,28.8-10.3,43.1c-4.9,19.1-14,36.7-21.4,55c-10.3,25.7-18,51.7-11.6,79.7c1.2,5.2-0.2,8.7-4.5,11.4
	c-9.6,6.8-20.2,6-31,3.8c-3.6-0.3-2.8,2.5-2.9,4.4c-0.5,8.6-0.6,17.2-1.2,25.7c-0.9,12.2-1.2,24.4-4.9,36.2c-1.2,3.7-2.5,7.5-7,8.4
	c-25.1,5.1-44.2,19.3-60.5,38.6c-12,14.2-11.2,28.9-6.5,45.6c5.1-6.1,8.5-11.6,6.2-19.5c-1.3-4.2-0.6-9.1,2.1-14.4
	c0.2,11.2,1.1,21.2,5.3,30.4c4.8-8.8,13.2-15.8,14.6-26.1c0,8.5,0.3,16.6,2.9,24.1c11.7-7.7,11.1-23.1,21-32.2
	c-3.9,11.3-7.7,22.4-8.9,35.1c5.1-4.3,10.5-5.2,16.1-5.9c12.6-1.6,25.3-0.2,37.9-0.5c15.7-0.4,31-4.7,46.8-3.8
	c3.5,0.2,5.9,0.6,8.2,3.5c3.3,4.1,7,8,12.4,10.3c-0.5-6.2-1.3-11.9-1.4-17.6c-0.5-31,10.6-58.6,25.3-85.2c3.4-6.2,6.5-10.2,14-5.8
	c1.6,0.9,3.7,1.1,5.6,1.2c5.6,0.3,6.8,2.6,4.9,7.9c-2.6,7.2-1.1,9.9,5.8,13.2c4.4,2.2,9.1,1.3,14.3,1.5
	c-3.6,11.8-12.3,18.6-21.9,25.4c8.2,2.7,15.7,0.8,23.7,0.3c-4.4,9.9-12.5,16-19.7,23.5c7.3,2.2,13.5,0,20-0.5
	c-3,10.5-12.1,16.2-17.7,24.4c5.2,1.4,9.6,1.1,14.3-3.7c-4.6,17.6-13.9,30-27.3,40.1c1.4,0.4,2,0.8,2.6,0.8c6,0.4,12.1,0.2,18,1.1
	c10.5,1.7,19.3,0.3,24-10.7c0.1-0.2,0.3-0.3,0.5-0.4l0,0c2.7-4.2,6.8-6.6,10.2-8.8c-1,1.2-2.1,2.4-3.2,3.7c0.1-0.1,0.2-0.2,0.4-0.2
	c-0.2,0.1-0.4,0.3-0.5,0.4c-1.8,2-3.6,4.2-5.5,6.3c-5.4,8.1-8.6,17-7,26.7c1,6-0.8,6.9-6.3,6.9c-91.1-0.2-182.2-0.1-273.3-0.1
	c-11.3,0-10.8,0-11.4,11.4c-0.4,6.6,2,7.5,7.8,7.5C85.6,1039.2,141.9,1038.8,198.1,1039.5z M636.2,698.7
	c9.1-5.9,12.9-14.4,13.5-24.9c1.5-28.7-7.2-55.4-16.6-81.9c-1-2.8-2.6-5.4-2.6-9.4c14.4,10.6,23.4,24.2,29.3,40
	c7.7,20.3,11.9,41.6,9.8,62.9c-1.4,13.7,6.3,20.1,14.5,25.1c14.6,8.9,23.2,21.3,28,36.9c4.8,15.5,6.5,31.4,5.8,48.3
	c-26.4-17.6-53.5-12.1-80.4-4.8c-26.2,7.1-50.4,19.3-74.3,32.1c-0.9,0.5-1.8,0.9-4.4,2.3c3.4-9.4,6.3-17.3,9.2-25.2
	c8.8-23.5,17.8-46.9,26.2-70.5c1.8-5.1,4.8-8.3,9.3-10.7C614.8,712.9,625.4,705.7,636.2,698.7z M600,557.8
	c6.9,62.3,1.9,123.3-20.4,182.4c-11.4,30.2-22.2,60.5-33.2,90.8c-0.9,2.7-1.8,5.4-2.7,8.2c-0.9-3.4-0.3-6.5,1.4-9.5
	c8-33.1,17.7-65.7,27.5-98.4c12.8-42.7,16.1-86.3,13.1-130.6c-1.2-17.6-3.3-35-6.7-52.3c-0.5-2.7,0-3.5,3-3.9
	C596.7,542.6,598.4,543.4,600,557.8z M527.6,514.6c16.7-5.6,33.8-7.7,50.5,0.9c6.3,3.2,11.2,7.8,14.3,14.2c1.6,3.2,2,4.9-2.7,5
	c-29.2,0.8-57.2,7.1-84.2,18.1c-28.8,11.7-54.9,27.9-78.8,47.8c-25.9,21.5-47.5,46.8-67,74c-1.4,2-2.9,4.8-5,1.1
	c-5.3-9.4-9.7-19.1-10.9-30.7c0.7-8.1,7-13.7,12.2-19.8c27.5-32.5,61.4-56.9,98.3-77.5C478,534.5,502.2,523.1,527.6,514.6z
	 M334.2,474.7c-6-7.9-4-13.6,5.7-15.9c6.1-1.4,12.3-1.9,18.5-1.7c10.2,1.2,20.6,0.3,30.7,2.9c10.3,2.7,12.8,7.3,9.7,17.3
	c-5.5,17.9-25.2,26.2-41.7,16.9C348.3,489.3,340.4,482.9,334.2,474.7z M410.2,355.5c-3.3-3-6.6-6-11-10.1
	c15.2-3.8,28.2-4.2,41.4-0.7c3,0.8,5.4,2.1,7.2,4.9c3.5,5.7,3,8.2-3,11.1C429.5,368.3,423.1,367.3,410.2,355.5z M436.9,157.9
	c-6.2-7.4-14.6-11.8-22.6-16.9c-26.6-16.9-54.1-32.4-79.3-51.5c-16-12.1-30.1-26.2-39-44.7c-0.7-1.4-2.3-2.7-0.8-4.9
	c2.6,0.5,4.2,2.5,6,4.1c19.4,17.2,41.5,28.4,67.1,33.3c23.2,4.4,23.2,4.8,35.9,26.7c0-5.1,0-9.3,0-13.6c4.8,0.5,7.5,3.4,8.8,7.5
	c1.3,3.8,2.1,7.8,3.2,12.4c0.9-0.9,1.4-1.2,1.5-1.7c4.1-10.1,4.1-10.2,13.3-4.1c11.1,7.4,21.6,15.5,29.7,26.3
	c6.9,9.2,9,19.4,5.7,30.4c-1.4,4.6-1.5,9.1-1.3,13.9c3.6-0.3,4.5-4.6,8.9-4.1c-2.2,5-4.3,9.7-6.3,14.5c-0.7,1.7-2.9,3.9,1.5,4.1
	c4.2,0.2,1.1,3.3,0.8,4.1c-3.9,10-10.5,18-19.4,25.6c-1.4-8.4-1.9-15.9-2.4-23.5C447.6,182.4,446.2,169,436.9,157.9z M305.5,226.6
	c12-22.2,24.1-44.4,36.4-66.4c4.3-7.8,10.5-10.3,19.5-8.5c10.2,2,20.4,4.4,30.6,6.6c4.2,0.9,7.1,3.4,9.4,7.1
	c13.5,21.9,27,43.7,40.6,65.4c2.5,4,1.1,6.7-2.6,8.3c-16,6.8-30.9,15.7-46.6,23.1c-6.2,2.9-11.8,6.9-17.8,10.2c-2,1.1-3.8,2-5.5,1.7
	c-2.3,0-3.8-0.3-5.4-1.2c-18.4-10.9-37.2-21.2-54.9-33.2C302.5,235.2,301.8,233.5,305.5,226.6z M255.4,246.9c-8.3,0.6-9.3-1-7.7-9.1
	c0.6-3.1,1.5-6.2,2.1-9.4c2.1-10.2,8.6-16.9,18.5-18.6c4.5-0.8,8.4,0.1,9,5.5c2,16.9,13.2,26,27.2,33.1
	c20.9,10.5,40.1,23.8,60.3,35.6c13.7,8,24.2,7.9,33.6-4.9c9.6-13,22.5-19,36.6-24.5c11-4.3,21.5-9.5,32.3-14.4
	c5.3-2.4,7.8-6.6,7.1-12.4c-0.3-2.9-0.6-6.1-4.9-3.1c-0.9,0.6-2.3,1.9-3.4,0.7c-1.4-1.4-0.1-2.8,0.9-3.9c3-3.3,6-6.7,10.5-8.2
	c6.4-2.1,11.8-0.7,14.8,5.2c4.6,9.1,6.2,19,5.6,29.1c-0.3,5.3-0.2,10.6-1.3,15.9c-3.3,15.6-14.9,27.8-30.7,30.8
	c-2.6,0.5-5.2,2.1-8.7,1c8.2-4,16.5-6.4,23.4-12c8.3-6.6,14.8-27.6,10.6-41c-0.6-1.9-2-2.1-3.5-1.8c-0.8,0.2-1.5,0.8-2.3,1.1
	c-8,3.4-13,7.1-11.4,18.1c2.1,15.1-4.7,23.5-20.7,28.9c-19.4,6.6-39.4,11.2-60.1,12.3c-10.3,0.5-11.5,1.3-14.1,11
	c-2,7.2-7.2,9.1-15.9,6.2c-13.5-4.5-25.8-11.6-38.1-18.5c-9.8-5.4-19.6-10.7-30-14.7c-4.3-1.6-4-2.7-0.5-5.1
	c7-4.8,13.6-10.1,21.9-16.3c-10.1,0.6-18,3.2-25.3,6.8c-7.2,3.5-13.8,8.1-20.9,11.9c9-9.3,20-15.4,32.3-20.7
	C287.9,252,273,245.6,255.4,246.9z M282.7,358.6c-4.3-2.7-0.9-11,5.7-13.3c10.1-3.5,20.6-3.5,31.1-2.3c3.3,0.4,6.9,0.4,10.7,2.6
	c-7.6,7.9-14,16.4-24.8,19.3C296.5,367.3,289.5,362.8,282.7,358.6z M316.9,428.8c2.3-19.3,10.1-36.9,20.5-52.9
	c11.4-17.6,35.8-20.1,52.9-7c15.6,12,24.9,33.3,24.8,58.2c0.4,5.7-0.9,12.5-2.8,19.1c-2.5,8.5-7,11.4-15.9,10
	c-3.4-0.5-6.8-1.2-10-2.4c-14.4-5.6-28.9-4.9-43.6-1.5C324.1,456.8,314.5,448,316.9,428.8z M204.6,553.6c-17-15.7-29.7-34.3-34-57.6
	c-2-10.8-0.6-25.4,3.8-34.3c-1,16.2,1.3,30.9,6.7,45c10.6,27.5,31.4,45.5,55.9,60c24.2,14.3,50.5,24.4,76.2,35.5
	c10.3,4.5,16.7,9.4,17.5,22.1c1.8,26.5,13,50.8,21.4,75.6c6.7,19.7,12.7,39.4,15.7,60.2c3.4,23.8,12.9,46.2,22.5,68.1
	c8.2,18.7,9.5,37.5,6.3,57.2c-3.1,19-6.5,38-10.9,56.8c-2.4,10.4-2.4,10.5-14.3,10.1c10.7-24.2,12-50.4,17.7-75.6
	c0.7-3.1,0.6-4.6-3.6-3.8c-11.4,2.1-23,3-35.8,3c11-4.9,21.4-7.4,32.2-8.9c10.2-1.4,11.5-3.3,10.4-13.6c-0.8-7.9-4.9-14.6-8.1-21.6
	c-11.5-25.2-21.3-51.1-28.4-77.6c-7-26.5-14.1-52.9-23.2-78.8c-6.2-17.5-14.4-34.4-18.4-52.6c-1.3-6-4.4-8.7-9.9-10.8
	C267.8,598.3,233.5,580.4,204.6,553.6z M225.9,666.2c2.1-14.9,18.1-27.6,33.1-28.6c15-1,27.8,2.4,38.2,14.1
	c3.4,3.8,8.5,6.4,14.1,6.7c2.9,0.1,4.8,1.4,5.7,4.3c2.1,6.7,4.2,13.5,6.6,20.1c1.2,3.2-0.1,4.5-2.8,4.9c-3,0.4-6,0.2-9,0.4
	c-7.1,0.5-13.2,1.8-18.8,7.5c-15.2,15.3-43.4,14-58.6-2.1c-3.6-3.8-6.7-7-13.9-4.3C225.2,681,224.8,673.5,225.9,666.2z M327.2,868.6
	c-16.6,0.1-30-2.7-40.9-12.8c-2.8-2.5-6.4-2.1-9.7-2.6c-9.7-1.6-17-5.2-21-15.3c-3.7-9.3-13-13.4-21.4-17.6
	c-9.7-5-19.7-9.5-29.9-13.4c-4.9-1.9-6.4-4.9-7.3-9.3c-2.9-13.1-0.4-26,2.1-38.7c1.7-8.8,4.7-17.3,8-25.7c1.4-3.7,2.9-4.1,6.1-2.2
	c19.2,11.2,39.9,18.6,61.8,22.3c21.7,3.7,42.7,2,62.1-9.2c3.7-2.1,4.1-0.7,5.1,2.2c9.2,26,18.5,52,27.7,78.1
	c2.7,7.7,5.3,15.4,8.2,23c1.5,3.8,0.5,5.9-3,7.7C359.4,863.4,343,869.1,327.2,868.6z"/>
<path class="st2" d="M181.7,805.4c5.9-6.2,3.2-13,0.7-19.2c-3.3-8-4.2-15.9-2.5-24.5c2.8-13.7,5.9-27.3,11.1-40.2
	c7.3-18.3,11.8-37.9,22.9-54.7c1.7-2.5,2.7-5.8,2.2-10.8c-3.3,10.2-11.4,6.5-17.5,8.6c0.4,1.6,2.4,3.2,1.1,5.1
	c-1.2,1.7-0.3,2.6,1.1,2.5c4-0.4,3,1.8,2.3,3.9c-0.6,1.8-1.4,3.6-2,5.4c-11.1,31-24.5,61.3-25.9,94.9c-0.2,3.9-2.7,6.9-6.4,8.1
	c-5.5,1.8-11.1,2.4-16.7,0v0c-0.9-0.1-1.7-0.1-2.6-0.2c-0.9,0.5-1.8,0.4-2.6-0.2c-6.2-0.5-12.2-1.4-18.5-4.1
	c8.5-4.1,18-5.3,24.9-11.8c8.3-7.8,15.6-16.1,14.3-28.7c-0.7-3.7,0.8-7,1.4-10.5c0.1-2.4,0.6-4.8,0.3-7.1
	c-1.2-8.6,0.8-17.1-2.2-25.9c-5.7-16.7-15.3-29.9-28.9-40.6c-1.5-1.2-2.3-2.4-2.2-4.3c0.6-11.2,1.6-22.3,4.6-33.1
	c0.3-1.2,1.1-3.4,2-2.5c3.9,3.7,5.8-2,9.1-1.5c1.6,0.2,3-0.8,5,0.5c5.9,3.9,7,9.7,8.2,15.9c0.2,0.9-2.9,3.3,0.3,2.8
	c4.7-0.6,6.5,2.3,8.3,5.6c5.7-5.8,5.7-5.8-0.3-9.8c-0.3-0.2-0.5-0.7-0.8-1c-2-2.3-6.7-2.8-4.6-8.1c0.4-1.1-4.7-3.6-5.2-7.7
	c-0.6-5.2-5.2-6.2-9.8-6.8c-3.9-0.5-8.2,6.4-11.6-0.8c-0.7,0.5-1.4,1-2.1,1.4c-1.2,0.8-2.3,2.2-3.6,2.5c-11.4,2.6-12.2,3.4-13.3,14
	c-0.6,5.5-1.5,11.1-1.8,16.6c-0.2,3.4-0.9,3.7-4.2,2.7c-11.6-3.5-17-1.3-24.1,8.8c-1.8,2.6-2.8,5.8-6,7.4
	c-13,6.7-20.4,17.9-23.1,31.7c-5,25.5-1.7,50.8,3.3,75.9c1.9,9.5,9.3,14.4,18.7,16.4c7.2,1.5,14.5,0.7,21.7,1.2
	c-1.5,9,1.4,14.3,9.9,17.9c11.2,4.8,23,6.9,35,8c5.7,0,11.5,0,17.2-0.1C173.7,809.3,177.8,807.7,181.7,805.4z"/>
<path class="st3" d="M756.8,1106.6c-240.6,0.2-481.3,0.2-721.9,0.2c-11.8,0-11.5,0-12,12.1c-0.2,5.8,1.4,7.4,7.3,7.4
	c121.2-0.2,242.4-0.1,363.5-0.1c119.7,0,239.4,0,359,0c11.9,0,11.4,0,12-11.6C765.2,1108,763.1,1106.6,756.8,1106.6z"/>
<path class="st2" d="M409.2,1020.6c-3.5,0-7,0.2-10.5,0c-11.3-0.7-15.1,1.5-19.8,11.9c-2.8,6.2-2.5,6.7,4.3,6.8
	c61.9,0,123.7,0,185.6,0c0,0.2,0,0.3,0,0.5c61,0,121.9,0,182.9,0c11.7,0,11.3,0,11.8-11.6c0.3-6.1-1.1-7.7-7.5-7.7
	C640.4,1020.7,524.8,1020.6,409.2,1020.6z"/>
<path class="st4" d="M152.7,474.6c-0.5-2.4-1-5.8-4.8-4.2c-9,3.7-17.5,8-22.9,16.8c-1.8,2.9-1.6,5,0.6,7.4
	c14.1,15.3,26.2,32.2,36.9,50c7.1,11.9,14,24,17.8,37.6c12.5,3.5,25.2,6.6,37.3,11.6l0,0c-16.8-17.6-30.8-37.3-42.2-58.7
	C165.2,515.9,157.1,496,152.7,474.6z"/>
<path class="st5" d="M175.5,646.3c-0.3-0.5-0.7-0.6-1.5-0.1c-3.8,2.3-8.1,4.2-6.1,10.3c2.3-0.6,4.9-0.4,7-2.9c0,4.1,0,7.2,0,10.3
	c1.6-5.7,4.3-4.9,7.8-2.1c1.2,1,3.3,1.5,3.9,2.8c3,6,2.9,0,4.2-1c-1.8-0.7-3.6-1.4-2.7-4C184.9,654.2,178.5,651.9,175.5,646.3z"/>
<path class="st6" d="M146.8,784.2c0.4-1.6-0.8-4.7,2.1-4.2c2.9,0.5,1.1,2.8,0.5,4.4c0.9,0.1,1.7,0.1,2.6,0.2v0
	c1.5-5.3,1-10.9,1.3-16.3c-6.9,6.5-16.4,7.7-24.9,11.8C134.6,782.9,140.7,783.8,146.8,784.2z"/>
<path class="st7" d="M190.7,639c2.8,2.9-0.4,6.2,0.5,9.4c1.9-0.8,2.7-2.4,3.9-3.4c2.6-2.2,3.3-3.6,0.8-4.5c-4.4-1.7-0.4-2.8-0.5-4
	c-0.2-2.6,6.1-5.2,0.3-7.8c-2.6-0.8-3.5,2-5.5,2.6c-0.7,0-1,0.4-0.9,1.1C190.8,634.3,190.8,636.7,190.7,639z"/>
<path class="st8" d="M195.7,628.7c0.7-3.3,2-5.8,5.7-6.6c1.5-0.3,2.7-2.3,3.7-3.7c0.1-0.2-1.3-2.1-2.4-2.5c-2.1-0.7-2.4,1.3-3.5,2.4
	c-3,2.8-6.6,4.9-11.4,5c1.7,2.5,1.9,5.2,2.3,8C192.2,630.7,193.1,627.8,195.7,628.7z"/>
<path class="st9" d="M194.6,662.8C194.6,662.9,194.6,662.9,194.6,662.8L194.6,662.8c6-1.2,4.6-1.5,5.5-5.3c2.2-8.5-7.1-2.2-7.5-6.6
	c-2.7,1.9-3.2,4.6-2.4,7.6C193.7,658,194.9,659.7,194.6,662.8z"/>
<path class="st10" d="M182.9,806.6c-0.4-0.4-0.8-0.8-1.2-1.2c-3.9,2.3-8,3.8-12.6,3.8c-5.7,0-11.5,0-17.2,0.1c0,0.4,0.1,0.7,0.1,1.1
	C162.7,812.6,173.3,813.4,182.9,806.6z"/>
<path class="st11" d="M190.8,663.6c1.6,0.7,0.9,3.9,3.4,3.2c0.5-0.1,0.3-2.6,0.4-4c0,0,0,0,0,0c0.3-3.2-0.9-4.8-4.3-4.2
	c-0.7,0.3-1.5,0.7-2.2,1C187.1,662.2,189,662.9,190.8,663.6z"/>
<path class="st12" d="M152,614.4c-5.5,5.4-4.1,11.4-7.2,17.6c3.1-2.2,4.7-3.2,6.2-4.3C145.8,623.6,151.5,620.1,152,614.4z"/>
<path class="st13" d="M167.6,739.6c1.4-0.2,4,1.1,3.2-2c-0.7-2.8,2.9-6.6-1.8-8.5C168.4,732.6,166.9,736,167.6,739.6z"/>
<path class="st14" d="M325.3,980.7c1.1-1.3,2.2-2.5,3.2-3.7c-3.4,2.2-7.5,4.6-10.2,8.8v0c0.5,0.5,0.9,0.9,1.4,1.4
	c1.9-2.1,3.7-4.3,5.5-6.3C325.2,980.8,325.3,980.8,325.3,980.7z"/>
<path class="st15" d="M187.1,643.9c1.4-1.9,2.5-3.4,3.6-4.9c0.1-2.4,0.2-4.7-1.4-6.7C185.9,635.7,186.7,639.6,187.1,643.9z"/>
<path class="st16" d="M139.4,641.5c3.9,0.2,7.4,0.5,6.7-4.9C143.6,637.4,141.1,638.2,139.4,641.5z"/>
<path class="st17" d="M153.4,650c-1,2.9-1.8,5-2.7,7.9C154.6,655,154.6,655,153.4,650z"/>
<path class="st18" d="M375.1,855c3.5-1.9,4.5-4,3-7.7c-2.9-7.6-5.4-15.3-8.2-23c-9.2-26-18.5-52-27.7-78.1c-1-2.8-1.4-4.3-5.1-2.2
	c-19.4,11.3-40.4,12.9-62.1,9.2c-21.9-3.7-42.6-11.1-61.8-22.3c-3.2-1.9-4.7-1.5-6.1,2.2c-3.3,8.4-6.3,16.9-8,25.7
	c-2.4,12.8-5,25.6-2.1,38.7c1,4.4,2.5,7.5,7.3,9.3c10.2,3.9,20.2,8.4,29.9,13.4c8.3,4.3,17.7,8.4,21.4,17.6
	c4,10.1,11.3,13.8,21,15.3c3.2,0.5,6.9,0.1,9.7,2.6c11,10,24.3,12.9,40.9,12.8C343,869.1,359.4,863.4,375.1,855z"/>
<path class="st18" d="M594.1,729.6c-8.4,23.6-17.4,47-26.2,70.5c-2.9,7.9-5.8,15.8-9.2,25.2c2.6-1.4,3.5-1.8,4.4-2.3
	c23.8-12.8,48-24.9,74.3-32.1c26.9-7.3,54-12.8,80.4,4.8c0.7-16.9-1-32.9-5.8-48.3c-4.8-15.6-13.5-28-28-36.9
	c-8.2-5-15.8-11.4-14.5-25.1c2.2-21.3-2.1-42.6-9.8-62.9c-6-15.8-15-29.3-29.3-40c0.1,4,1.6,6.6,2.6,9.4
	c9.4,26.5,18.1,53.1,16.6,81.9c-0.6,10.5-4.4,19-13.5,24.9c-10.8,7-21.5,14.2-32.8,20.2C598.9,721.3,595.9,724.5,594.1,729.6z"/>
<path class="st4" d="M291.1,270.5c7.3-3.6,15.1-6.1,25.3-6.8c-8.3,6.2-15,11.5-21.9,16.3c-3.5,2.4-3.8,3.4,0.5,5.1
	c10.4,4,20.2,9.3,30,14.7c12.3,6.9,24.6,14,38.1,18.5c8.7,2.9,13.9,1,15.9-6.2c2.7-9.7,3.8-10.5,14.1-11
	c20.6-1.1,40.6-5.7,60.1-12.3c16-5.4,22.8-13.8,20.7-28.9c-1.6-11.1,3.4-14.8,11.4-18.1c0.8-0.3,1.5-1,2.3-1.1
	c1.5-0.3,2.9-0.1,3.5,1.8c4.2,13.4-2.3,34.4-10.6,41c-6.9,5.6-15.3,8-23.4,12c3.5,1.1,6.1-0.5,8.7-1c15.8-3,27.4-15.3,30.7-30.8
	c1.1-5.3,1-10.6,1.3-15.9c0.6-10.1-1-20-5.6-29.1c-3-5.9-8.4-7.3-14.8-5.2c-4.6,1.5-7.5,4.9-10.5,8.2c-1,1.1-2.3,2.5-0.9,3.9
	c1.1,1.2,2.5-0.1,3.4-0.7c4.3-3,4.6,0.2,4.9,3.1c0.7,5.8-1.7,10-7.1,12.4c-10.7,4.8-21.3,10.1-32.3,14.4c-14,5.5-27,11.5-36.6,24.5
	c-9.4,12.8-19.9,12.9-33.6,4.9c-20.1-11.8-39.4-25-60.3-35.6c-14-7.1-25.2-16.2-27.2-33.1c-0.6-5.4-4.5-6.3-9-5.5
	c-9.9,1.7-16.4,8.4-18.5,18.6c-0.6,3.1-1.5,6.2-2.1,9.4c-1.6,8.1-0.6,9.7,7.7,9.1c17.6-1.2,32.5,5.1,47.2,14.8
	c-12.3,5.3-23.4,11.4-32.3,20.7C277.3,278.6,283.9,274,291.1,270.5z"/>
<path class="st4" d="M356.2,625.1c-5.1,6.1-11.5,11.7-12.2,19.8c1.2,11.6,5.6,21.4,10.9,30.7c2.1,3.7,3.6,0.9,5-1.1
	c19.5-27.2,41.1-52.5,67-74c23.9-19.9,50-36.1,78.8-47.8c26.9-11,55-17.3,84.2-18.1c4.7-0.1,4.3-1.9,2.7-5c-3.2-6.4-8-11-14.3-14.2
	c-16.7-8.6-33.8-6.5-50.5-0.9c-25.4,8.5-49.7,19.9-73.1,33C417.6,568.2,383.6,592.5,356.2,625.1z"/>
<path class="st4" d="M309.2,239.7c17.7,12,36.5,22.3,54.9,33.2c1.6,0.9,3.1,1.3,5.4,1.2c1.7,0.3,3.5-0.6,5.5-1.7
	c6-3.3,11.6-7.2,17.8-10.2c15.7-7.4,30.6-16.3,46.6-23.1c3.6-1.6,5.1-4.3,2.6-8.3c-13.6-21.8-27.2-43.6-40.6-65.4
	c-2.3-3.7-5.2-6.2-9.4-7.1c-10.2-2.3-20.4-4.6-30.6-6.6c-9-1.8-15.1,0.7-19.5,8.5c-12.3,22-24.5,44.2-36.4,66.4
	C301.8,233.5,302.5,235.2,309.2,239.7z M378.6,265c-0.6,1.7-1,4.1-3.7,3.6c-2-0.4-3.7-1.4-3.7-3.8c0.2-17.5-2.6-34.9-1-54.1
	c5.1,17.5,8.8,33.6,8.7,50.4C379,262.4,379,263.8,378.6,265z M392.3,190c2.4-4.3,4.2-8.9,6.2-13.4c1.5-3.4,3-3.8,5.1-0.2
	c11.4,19.1,22.8,38.2,34.3,57.2c1.5,2.5,0.1,3.4-1.8,4.2c-11.5,5.1-23,10.2-35.5,15.7c1.7-9.6,4.5-17.4,5.5-25.7
	c1.2-10.3-2.5-17.8-10.8-23.4C387.5,199.1,387.5,198.5,392.3,190z M359.4,161.9c1.9,0.2,3.9,0,5.8,0c3.6,0.1,8.5-1.3,10.6,0.6
	c3.1,2.7-1.9,5.8-2.6,9.1c-0.8,3.9,0.4,4.6,3.7,4.6c2.2,0,4.2-0.5,6.2-1.4c1.7-0.8,3.1-2.3,6.4-1.8c-6,10.2-11.7,20-17.9,30.4
	c-8.3-11.4-14.1-23.1-17.1-36.2C353.6,163.4,355.3,161.5,359.4,161.9z"/>
<path class="st4" d="M234.3,693.4c15.2,16.1,43.4,17.3,58.6,2.1c5.6-5.7,11.8-7,18.8-7.5c3-0.2,6,0,9-0.4c2.8-0.3,4-1.7,2.8-4.9
	c-2.4-6.6-4.5-13.4-6.6-20.1c-0.9-2.8-2.7-4.1-5.7-4.3c-5.6-0.3-10.7-2.9-14.1-6.7C286.8,640,274,636.6,259,637.6
	c-15.1,1-31,13.8-33.1,28.6c-1,7.3-0.7,14.8-5.4,23C227.6,686.5,230.8,689.6,234.3,693.4z"/>
<path class="st19" d="M543.7,839.2c0.9-2.7,1.8-5.4,2.7-8.2c-0.4-0.4-0.8-0.9-1.3-1.3C543.4,832.6,542.8,835.7,543.7,839.2z"/>
<path class="st20" d="M148.9,780c-2.9-0.5-1.7,2.6-2.1,4.2c0.8,0.5,1.7,0.7,2.6,0.2C150,782.8,151.9,780.4,148.9,780z"/>
<path class="st2" d="M395.3,204.3c8.3,5.6,12,13.1,10.8,23.4c-0.9,8.3-3.8,16.1-5.5,25.7c12.5-5.5,24-10.6,35.5-15.7
	c1.9-0.9,3.3-1.7,1.8-4.2c-11.5-19-23-38.1-34.3-57.2c-2.1-3.6-3.5-3.1-5.1,0.2c-2,4.5-3.8,9.1-6.2,13.4
	C387.5,198.5,387.5,199.1,395.3,204.3z"/>
<path class="st2" d="M371.5,203.3c6.1-10.5,11.8-20.2,17.9-30.4c-3.3-0.5-4.8,1-6.4,1.8c-2,0.9-4,1.4-6.2,1.4
	c-3.3,0-4.5-0.7-3.7-4.6c0.7-3.3,5.7-6.4,2.6-9.1c-2.1-1.8-7-0.5-10.6-0.6c-1.9,0-3.9,0.1-5.8,0c-4.1-0.4-5.7,1.5-4.9,5.3
	C357.4,180.2,363.2,191.9,371.5,203.3z"/>
<path class="st21" d="M370.2,210.8c-1.6,19.1,1.2,36.6,1,54.1c0,2.4,1.7,3.4,3.7,3.8c2.7,0.5,3.1-1.9,3.7-3.6
	c0.4-1.2,0.3-2.5,0.3-3.8C379.1,244.4,375.4,228.2,370.2,210.8z"/>
<path class="st22" d="M453.6,174.1c1.2-0.4,1.2-1.6,1.2-3.2c-1.3-3.5-1.2-7.9-3-11.9c-6.6-14.8-17.6-25.1-31.8-32.4
	c-8.2-4.2-16.5-8.1-24.7-12.3C371.2,102,348.7,87,326.4,71.9c-1.5-1-3.5-4.1-5.3-2c-2.1,2.4,1.4,4,2.7,5.5
	c4.9,5.4,10.7,9.8,16.5,14.3c20.4,15.6,43.3,26.8,65.7,38.9c13.6,7.4,26.3,16.1,35.9,28.7c3.5,4.6,6.5,9.5,9.1,14.8
	C451.5,173.1,451.9,174.6,453.6,174.1z"/>
<path class="st2" d="M350.6,442.5c-0.3-2.4,1.1-5.4,3.6-6.4c2.8-1.1,4.7,1.4,6.5,3.1c2.1,2.1,4,4.5,6.2,7c3.6-3.5,7.1-6.3,11.3-8
	c2.5-1.1,6.1-2.4,4.5,3c-1.1,3.9,1.2,4.9,4.3,5.4c4.5,0.7,8.1-0.9,10.9-4.2c3.7-4.4,5.6-9.6,5.7-15.4c0.1-8.6-3.3-12.6-11.7-14
	c-4.8-0.8-9.7-0.9-13.9,1.1c-8.1,3.8-15,2.5-21.9-2.6c-2.9-2.1-6.4-3.6-10.3-3c-8.3,1.2-16.9,13.3-17.1,24.1
	c-0.2,7.8,4.7,12.3,15.1,14.4C347.5,447.7,351.3,449.2,350.6,442.5z"/>
<text transform="matrix(1.1334 0 0 1 247.0444 692.5938)" class="st23 st24 st25 st26">7</text>
<text transform="matrix(1.2657 0 0 1 24.8018 1090.9785)"><tspan x="0" y="0" class="st2 st27 st28">7 </tspan><tspan x="51.7" y="0" class="st2 st27 st28 st29">LOCKS BREWING</tspan></text>
</svg>
