<?xml version="1.0" encoding="utf-8"?>
<!-- Generator: Adobe Illustrator 20.0.0, SVG Export Plug-In . SVG Version: 6.00 Build 0)  -->
<svg version="1.1" id="Layer_1" xmlns="http://www.w3.org/2000/svg" xmlns:xlink="http://www.w3.org/1999/xlink" x="0px" y="0px"
	 viewBox="0 0 153 126.6" style="enable-background:new 0 0 153 126.6;" xml:space="preserve">
<style type="text/css">
	.st0{fill:none;stroke:#8aa9b3;stroke-width:2.9988;stroke-miterlimit:10;}
</style>
<g>
	<path class="st0" d="M48.1,84.2c0-12.9-10.4-23.3-23.3-23.3S1.5,71.4,1.5,84.2s10.4,23.3,23.3,23.3h103.4
		c12.9,0,23.3-10.4,23.3-23.3s-10.4-23.3-23.3-23.3c-12.9,0-23.3,10.4-23.3,23.3"/>
	<path class="st0" d="M115.3,100.8h12.9c1.1,0,2.3-0.1,3.3-0.3c1.1-0.2,2.1-0.5,3.1-1c1-0.4,1.9-0.9,2.8-1.5c0.9-0.6,1.7-1.3,2.4-2
		c0.7-0.7,1.4-1.6,2-2.4s1.1-1.8,1.5-2.8c0.4-1,0.7-2,1-3.1c0.2-1.1,0.3-2.2,0.3-3.3c0-1.1-0.1-2.3-0.3-3.3c-0.2-1.1-0.5-2.1-1-3.1
		c-0.4-1-0.9-1.9-1.5-2.8c-0.6-0.9-1.3-1.7-2-2.4s-1.6-1.4-2.4-2c-0.9-0.6-1.8-1.1-2.8-1.5c-1-0.4-2-0.7-3.1-1
		c-1.1-0.2-2.2-0.3-3.3-0.3"/>
	<path class="st0" d="M24.8,67.7c-1.1,0-2.3,0.1-3.3,0.3c-1.1,0.2-2.1,0.5-3.1,1c-1,0.4-1.9,0.9-2.8,1.5c-0.9,0.6-1.7,1.3-2.4,2
		c-0.7,0.7-1.4,1.6-2,2.4c-0.6,0.9-1.1,1.8-1.5,2.8c-0.4,1-0.7,2-1,3.1c-0.2,1.1-0.3,2.2-0.3,3.3c0,1.1,0.1,2.3,0.3,3.3
		c0.2,1.1,0.5,2.1,1,3.1s0.9,1.9,1.5,2.8c0.6,0.9,1.3,1.7,2,2.4c0.7,0.7,1.6,1.4,2.4,2c0.9,0.6,1.8,1.1,2.8,1.5s2,0.7,3.1,1
		c1.1,0.2,2.2,0.3,3.3,0.3h12.9"/>
	<path class="st0" d="M138,105.6v9.7c0,5.4-4.4,9.8-9.8,9.8h0c-5.4,0-9.8-4.4-9.8-9.8V108"/>
	<path class="st0" d="M125.2,115.2c0,1.7,1.4,3,3,3c1.7,0,3-1.4,3-3"/>
	<path class="st0" d="M21.8,115.2c0,1.7,1.4,3,3,3s3-1.4,3-3"/>
	<path class="st0" d="M15,105.6v9.7c0,5.4,4.4,9.8,9.8,9.8h0c5.4,0,9.8-4.4,9.8-9.8V108"/>
	<path class="st0" d="M25.1,59.5c-0.2-2-0.3-4-0.3-6c0-28.7,23.3-52,52-52s52,23.3,52,52c0,2.5-0.2,5-0.5,7.4"/>
	<path class="st0" d="M76.8,8.3c-12.5,0-23.8,5.1-32,13.3S31.6,41,31.6,53.5"/>
	<path class="st0" d="M104.9,94.4H48.1V76.6c0-1.8,1.5-3.3,3.3-3.3h50.2c1.8,0,3.3,1.5,3.3,3.3V94.4z"/>
	<path class="st0" d="M54.1,83.2c0-2.2,1.8-3.9,3.9-3.9h37"/>
	<circle class="st0" cx="76.5" cy="46.8" r="4.6"/>
	<path class="st0" d="M89.6,47.9c-4,0-7.2,3.2-7.2,7.2"/>
	<path class="st0" d="M63.4,47.9c4,0,7.2,3.2,7.2,7.2"/>
</g>
</svg>
