<?xml version="1.0" encoding="utf-8"?>
<!-- Generator: Adobe Illustrator 20.0.0, SVG Export Plug-In . SVG Version: 6.00 Build 0)  -->
<svg version="1.1" id="Layer_1" xmlns="http://www.w3.org/2000/svg" xmlns:xlink="http://www.w3.org/1999/xlink" x="0px" y="0px"
	 viewBox="0 0 154.2 151.7" style="enable-background:new 0 0 154.2 151.7;" xml:space="preserve">
<style type="text/css">
	.st0{fill:none;stroke:#8aa9b3;stroke-width:2.8079;stroke-miterlimit:10;}
	.st1{fill:none;stroke:#8aa9b3;stroke-width:2.8079;stroke-linecap:square;stroke-miterlimit:10;}
</style>
<g>
	<line class="st0" x1="1.4" y1="73" x2="4.3" y2="0.1"/>
	<path class="st1" d="M120.6,122.9l-7.6,7c-6.8,6.2-18.1,6.5-25.4,0.8L1.8,63.5L4,7.7l115.8,93.7C127,107.1,127.4,116.8,120.6,122.9
		z"/>
	<path class="st1" d="M10.4,63.2l81.4,63.7c4.8,3.8,12.3,3.5,16.8-0.5"/>
	<polygon class="st1" points="134.8,125.8 117.4,141.7 108.8,135 126.3,119 	"/>
	<polygon class="st1" points="151.4,143.2 133.5,150.1 120,139.3 132.3,128.1 	"/>
	<polyline class="st1" points="135.5,144.2 141.3,141.9 133.4,135.7 	"/>
</g>
</svg>
