<?xml version="1.0" encoding="utf-8"?>
<!-- Generator: Adobe Illustrator 20.0.0, SVG Export Plug-In . SVG Version: 6.00 Build 0)  -->
<svg version="1.1" id="Layer_1" xmlns="http://www.w3.org/2000/svg" xmlns:xlink="http://www.w3.org/1999/xlink" x="0px" y="0px"
	 viewBox="0 0 252.3 69.3" style="enable-background:new 0 0 252.3 69.3;" xml:space="preserve">
<style type="text/css">
	.st0{display:none;fill:#191919;}
	.st1{display:none;}
	.st2{display:inline;}
	.st3{fill:#191919;stroke:#FFFFFF;stroke-miterlimit:10;}
	.st4{fill:none;stroke:#FFFFFF;stroke-width:5.472;}
	.st5{fill:#191919;}
	.st6{display:inline;fill:#191919;}
</style>
<path class="st0" d="M245.9,130c-2.7-0.3-5,0.3-7,1.8c-0.7,0.6-1.3,1.2-2,1.9c-0.2-0.2-0.4-0.4-0.6-0.6c-0.7-0.7-2-0.9-2.9-0.6
	c-1.4,0.4-2.2,1.9-1.8,3.2c0.2,0.6,0,1-0.4,1.5c-0.2,0.3-0.4,0.5-0.6,0.8c-0.3,0.4-0.2,1,0.2,1.1c1,0.3,1.2,0.9,1.3,1.7
	c0,0.5,0.4,1,0.6,1.4c0.1,0.2,0.1,0.4-0.2,0.5c-0.6,0.3-1,0.7-0.9,1.3c0.2,0.7,0.5,1.4,0.8,2.1c0.1,0.3,0.4,0.3,0.7,0.1
	c0.4-0.3,0.8-0.7,1.1-1.1c0.2-0.2,0.4-0.4,0.6-0.6c0.4,0.4,0.4,0.8-0.1,1.2c-0.7,0.8-1.8,1.2-2.9,1.5c-1.8,0.4-3.1,1.3-3.8,2.8
	c-0.5,1-0.5,2,0.4,3c0.2,0.2,0.3,0.4,0.6,0.7c-0.4-0.1-0.6,0-0.8-0.1c-0.5-0.4-0.9-0.8-1.3-1.2c-0.6,0.1-1.3,0.2-2,0.2
	c-1.9,0-3.4,0.7-4.3,2.2c-0.6,0.9-1.5,1.4-2.6,1.9c-1,0.4-1,0.4-0.7,1.3c0.1,0.3,0.1,0.4-0.3,0.5c-0.1-0.2-0.2-0.4-0.3-0.5
	c-0.5-0.8-0.9-1.7-1.4-2.4c-0.4-0.5-1-0.9-1.6-1.2c-0.7-0.4-1.5,0.1-1.5,0.8c0,0.8,0.6,1.4,1.4,1.8c-0.4,0.2-0.8,0.1-1.1-0.1
	c-0.6-0.4-0.7-0.9-0.7-1.5c0-0.3-0.1-0.3-0.4-0.4c-0.8,0-1.3,0.3-1.6,0.8c-0.3,0.6-0.1,1,0.6,1.4c0.3,0.1,0.6,0.3,1,0.4
	c0.4,0.1,0.7,0.2,1.1,0.3c-1.3,0.6-2.8,0-3.4-1.5c-0.9,0.1-1.5,0.9-1.4,1.6c0.1,0.8,0.7,1.4,1.6,1.5c0.2,0,0.4,0,0.4,0.1
	c0.4,0.6,1.1,0.8,1.8,0.9c1.1,0.3,1.9,1,2,1.9c0.1,0.3,0.1,0.6,0.3,0.9c0.1,0.3,0.3,0.6,0.6,0.8c1,0.7,3,0.3,3.7-0.6
	c0.2-0.3,0.4-0.6,0.7-0.9c0.3-0.3,0.7-0.5,1.1-0.3c0.2,0.1,0.5,0.2,0.7,0.2c0.3,0,0.6,0,0.8-0.1c0.4-0.3,0.7-0.7,0.7-1.2
	c-0.1-0.5-0.4-0.9-1.1-1c-0.7-0.3-1.5-0.2-2.1,0.1c-0.2,0.1-0.4,0.1-0.6,0.2c0,0-0.1-0.1-0.1-0.2c0.3-0.1,0.5-0.4,0.8-0.5
	c0.4-0.1,0.8-0.1,1.1-0.1c0.5,0,0.7,0,1-0.4c1.1-1.7,2.8-3.1,5.1-3.7c1.7-0.5,3.4-0.5,4.9,0.6c0.2,0.2,0.3,0.3,0.2,0.5
	c-0.4,0.6-0.9,1.2-1.3,1.8c-0.2,0.3-0.4,0.4-0.7,0.6c0.9,0.3,1.7-0.1,2.6-0.1c-0.6,1.4-1.1,1.9-1.8,2.1c0.3-0.4,0.5-0.9,0.7-1.3
	c-0.8-0.2-1.8,0-2.3-0.8c0.3-0.1,0.5-0.1,0.6-0.3c0.1-0.1,0.2-0.3,0.2-0.4c-0.6-0.5-1.4-0.6-2.1-0.2c-0.5,0.3-1,0.7-1.4,1
	c-0.4,0.3-0.8,0.3-1.3,0.1c-0.6-0.3-0.9-0.1-1.1,0.3c-0.4,0.9,0.7,1.9,1.8,1.8c0.6,0,0.7,0,0.5,0.5c-0.2,0.7-0.4,1.3-0.7,2
	c-0.2,0.6-0.1,1.1,0.5,1.5c0.8,0.6,1.8,0.9,2.8,1c0.6,0,1.1-0.3,1.2-0.8c0-0.6-0.4-0.9-1.1-1.1c0.6-0.3,1.1-0.1,1.5,0.3
	c0.6,0.6,0.5,1.1-0.2,1.6c0.6,0.3,1.7,0.3,2,0c0.9-1-0.3-1.4-1-2c0.6-0.1,1,0,1.3,0.3c0.7,0.6,0.6,1.3,0.2,2c0.7-0.1,0.8-0.5,1-0.9
	c0.2-0.3-0.2-0.4-0.4-0.5c-0.4-0.4-0.8-0.8-1.1-1.2c-0.5-0.6-0.7-1.4-0.5-2.1c0.1-0.2,0.3-0.4,0.4-0.4c1.4-0.3,2.4-1,3.1-2.1
	c0.5-0.8,1-1.5,1.5-2.3c0.6-0.8,1.3-1.4,2.5-1.8c0,0.2,0.1,0.3,0,0.5c-0.2,0.4-0.4,0.8-0.7,1.2c-0.4,0.5-0.9,0.9-1.4,1.4
	c-0.2,0.3-0.4,0.5-0.6,0.7c-0.5,0.7-0.3,1.4,0.4,2c0.6,0.4,1.1,0.9,1.3,1.5c0.1,0.5-0.1,0.9-0.6,1.2c-0.5,0.3-1,0.3-1.5,0
	c-0.5-0.3-0.8-0.6-0.7-1.1c0-0.1,0.1-0.3,0.1-0.5c0.1-0.4-0.3-0.8-0.6-0.9c-0.9-0.1-1.7,0.4-1.4,1.2c0.3,1.1,1,1.9,2.4,2.3
	c1.4,0.4,2.8,0,3.5-1.1c0.5-0.7,0.6-1.8-0.8-2.6c-0.7-0.4-0.8-1-0.4-1.7c0.2-0.3,0.4-0.5,0.6-0.8c0.6-0.6,1.3-1.2,1.9-1.8
	c0.7-0.7,1.1-1.5,0.6-2.5c0-0.1,0.1-0.3,0.2-0.3c0.5-0.5,1.1-1,1.6-1.5c0.6-0.7,0.9-1.4,1.4-2.2c0.4-0.7,1-1.3,1.9-1.8
	c0.2,0.4,0.4,0.9,0.4,1.3c0.2,1.2,0.2,2.3,0.4,3.4c0.2,1.1,0.2,2.2-0.2,3.2c-0.4,1.1-0.9,2.2-1.3,3.4c0.9-0.5,1.8-0.9,2.7-1.4
	c0.2,0.4,0.3,0.8,0.4,1.2c0.3-0.1,0.5-0.3,0.7-0.4c0.1,0,0.1,0.1,0.2,0.2c-0.4,0.3-0.7,0.7-1.1,1c-0.1,0-0.2-0.1-0.3-0.2
	c0-0.1-0.1-0.2-0.1-0.3c0-0.1,0-0.3,0-0.4c-0.1-0.4-0.2-0.5-0.7-0.3c-0.5,0.3-1,0.6-1.4,1c-0.3,0.3-0.6,0.6-0.8,0.9
	c-0.2-0.1-0.3-0.1-0.4-0.2c-0.7-0.2-1.4,0.1-1.6,0.7c-0.2,0.5,0.2,1,1,1.1c0.4,0,0.7,0,1.1-0.1c0.4-0.1,0.8-0.4,1.2-0.5
	c0.2-0.1,0.4-0.1,0.6-0.1c-0.3,0.4-0.6,0.7-1,1c-0.6,0.6-1.1,1.2-0.4,1.9c0.1,0,0,0.3,0,0.3c-0.1,0-0.3,0-0.4,0
	c-0.6-0.1-1.1-0.4-1.6-0.5c-0.3-0.1-0.7,0-1.1,0c0-0.3,0-0.7,0-1c-0.1-0.6-0.5-0.9-1.2-1c-0.4,0-0.8,0.3-1,0.8
	c-0.3,1-0.1,1.9,0.6,2.8c0.1,0.1,0.4,0.3,0.6,0.3c1.4,0,2.8,0,4.2,0c0.7,0,1.4-0.4,1.7-1c0.6-1.2,1-2.3,1.5-3.5
	c0.9-2.4,1.9-4.8,2.8-7.2c0.1-0.4,0.2-0.7,0.2-1.1c0-2-0.1-4.1-0.1-6.1c0-1.1,0.1-2.3,0.1-3.4c0-0.5-0.1-1.1-0.3-1.7
	c-0.2-0.6-0.7-0.9-1.5-0.9c-1.3,0-2.4,0.6-2.8,1.9c-0.2,0.7-0.2,1.5-0.3,2.3c-0.3-0.2-0.7-0.4-1.2-0.7c0.3-0.6,0.5-1.2,0.9-1.8
	c0.3-0.4,0.7-0.8,1.2-1.1c0.9-0.5,0.9-0.5,0.4-1.3c-0.1-0.3-0.2-0.5,0.2-0.7c0.1,0.2,0.3,0.4,0.4,0.6c0.2,0.4,0.5,0.5,1,0.5
	c0.7-0.1,1.3-0.6,1.1-1.4c-0.1-0.6,0.3-1,0.8-1.3c0.4-0.3,0.8-0.5,1.2-0.8c0.6-0.5,0.8-1.4,0.4-1.9c-0.6-0.7-1.3-0.9-2.3-0.5
	c-0.3,0.1-0.6,0.2-0.9,0.3c0.1-0.6,0.1-1.2,0.1-1.7c0-1.1-0.6-2.1-1.3-3c-0.3-0.3-0.2-0.5,0.2-0.8c0.2-0.1,0.4-0.3,0.6-0.4
	c0,0-0.1-0.1-0.1-0.1c-0.5,0.1-1,0.2-1.5,0.3c-0.2-0.6-0.3-1.3-0.5-1.9c-0.1,0-0.1,0-0.2,0c0,0.3-0.1,0.6-0.1,0.9
	C246.6,129.9,246.3,130.1,245.9,130z M231.2,151.4c-0.2-0.1-0.1-0.5,0-0.7c0.1-0.3,0.4-0.5,0.6-0.8c0.1,0.1,0.2,0.2,0.3,0.3
	c-0.5,0.4-0.4,0.4,0,0.8c0.2,0.1,0.2,0.5,0.2,0.8C231.9,152,231.5,151.7,231.2,151.4z M241.1,133.1c0.9-0.3,1.4,0,1.8,0.7
	c-0.9,0.3-1.8,0.5-2.7,0.8C239.9,133.9,240.3,133.3,241.1,133.1z M240.1,135.2c0.4-0.2,0.9-0.4,1.3-0.6c0,0,0,0.1,0,0.1
	c0.2,0.1,0.4,0.3,0.6,0.5c0.2-0.3,0.4-0.6,0.7-0.9c0,0,0.2,0.1,0.2,0.2c0.1,0.5-0.2,1-0.5,1.4c-0.1,0.1-0.4,0.1-0.5,0.1
	c-0.6-0.1-1.1-0.3-1.7-0.5C239.8,135.6,239.9,135.4,240.1,135.2z M234.5,135.5c-0.1,0.4-0.3,0.4-0.7,0.2c-0.1,0-0.2-0.1-0.4-0.2
	c-0.1,0-0.2,0-0.4,0c0.2-0.1,0.2-0.3,0.4-0.3c0.5-0.1,0.4-0.4,0.2-0.6c-0.2-0.2-0.3-0.4-0.6-0.7C234,134.1,234.7,134.9,234.5,135.5z
	 M237.3,154.8c-0.4,1-2.2,1.8-3.6,1.5c0.7-0.3,1.3-0.5,1.9-0.7c0.6-0.3,1.1-0.5,1.4-1c0-0.1,0.2-0.1,0.3-0.1
	C237.3,154.5,237.4,154.7,237.3,154.8z M245.6,143.7c-0.9,0.9-2.2,1.3-3.5,1.4c-1.7,0.3-3.4,0.2-5.1-0.2c-2.1-0.5-3.3-1.8-4.1-3.5
	c-0.2-0.5-0.3-1.1-0.4-1.7c0.1-1.7,1-2.6,3.2-3.2c2.3-0.7,4.6-0.5,6.8,0.3c0.8,0.3,1.6,0.6,2.3,0.9c1.3,0.5,1.8,1.4,1.9,2.5
	C247,141.5,246.6,142.7,245.6,143.7z M244.5,135.6c0.1,0.4,0.6,0.5,1.1,0.3c0.1,0.1,0.2,0.3,0.3,0.4c0.2,0.4,0.1,0.8-0.6,0.8
	c-0.8,0.1-1.4-0.1-2-0.6c-0.1,0-0.1-0.1-0.1-0.3c0.2-0.5,0.3-0.9,0.6-1.4c0.1-0.1,0.3-0.3,0.4-0.3c0.2,0,0.4,0,0.6,0.1
	c0.1,0,0,0.3,0,0.4C244.6,135.3,244.5,135.5,244.5,135.6z M244.7,134.1c0,0,0.1-0.1,0.1-0.1c0.3,0,0.6,0,0.8,0
	c0.6,0.1,0.8,0.3,0.8,0.8c0,0.2,0,0.4,0,0.6c0,0.1-0.1,0.3-0.1,0.5C245.7,135.2,245.3,134.7,244.7,134.1z M251.6,137.5
	c-0.7,0.5-1.7,0.4-2.2,1.1c0.3,0.1,0.6,0.3,0.9,0.4c-0.7,0.1-1.3,0.2-1.9,0.3C248.2,138.4,250,137.3,251.6,137.5z M248.2,132.2
	c0.3,0.2,0.6,0.5,0.8,0.7c0,0-0.1,0.1-0.1,0.1c-0.3-0.1-0.6-0.3-1-0.4c-0.6-0.3-1.3-0.4-2-0.3c-0.5,0-0.9,0.2-1.2,0.5
	c-0.1,0.1-0.4,0.2-0.7,0.4c0.3-1.4-1.1-1.9-2.2-2.6c1.4-0.1,1.9,0.3,2.6,1.5C245.7,131.7,247,131.7,248.2,132.2z"/>
<path class="st0" d="M223.9,140.3c-0.6,0.6-0.6,0.6-0.8,1.4c0,0.1-0.1,0.2-0.2,0.3c-0.4,0.4-0.5,0.9-0.3,1.3c0.6,1.3,1.7,2.3,3.2,3
	c0.5,0.2,0.8,0.4,1,0.8c0.1,0.3,0.3,0.5,0.4,0.8c0.2,0.4,0.3,0.8,0.5,1.3c0.7-1.4,2-1.8,3.4-2.3c0,0,0-0.1-0.1-0.1
	c-0.4,0-0.8,0-1.3,0c-0.1-0.7-0.1-1.3,0.4-1.8c1.2-1.4,0.9-2.8,0.4-4.3c-0.1-0.2-0.4-0.4-0.6-0.4c-0.3-0.1-0.6,0-0.9,0
	c-0.7,0.1-0.8,0.1-0.8-0.5c0-0.9,0-1.8-0.2-2.8c-0.1-0.6-0.3-1.3-0.6-1.9c-0.2-0.5-0.9-0.7-1.4-0.6c-0.5,0.1-1,0.4-1,1
	c-0.1,0.8,0,1.5,0.1,2.2c0.1,0.6,0.2,1.3,0.4,1.9c-0.2,0-0.3-0.1-0.3-0.3c-0.5-0.8-1-1.7-1.5-2.5c-0.3-0.5-0.6-0.9-1.1-1.3
	c-0.3-0.3-0.8-0.3-1.1-0.1c-0.2,0.1-0.4,0.5-0.4,0.7c0,0.2,0.1,0.4,0.2,0.7C221.9,138,222.7,139.2,223.9,140.3z M226.2,144.7
	c0.3-0.5,0-0.8-0.4-1c-0.6-0.4-1.2-0.8-1.8-1.3c-0.1-0.1-0.4,0-0.5,0c-0.2,0.1-0.3,0.3-0.4,0.3c0,0-0.1,0-0.1,0
	c0.2-0.2,0.3-0.4,0.5-0.5c0.1-0.1,0.4-0.1,0.5,0c0.7,0.5,1.4,1,2.1,1.5C226.6,144,226.7,144.4,226.2,144.7z M224.3,140.6
	c0.1,0,0.4,0.2,0.6,0.3c0.5,0.3,0.9,0.6,1.4,1c0.8-0.4,1.6-0.8,2.4-1.2c0.3-0.1,0.6-0.3,1.1-0.1c-1.1,0.1-1.9,0.7-2.7,1.1
	c-0.4,0.2-0.8,0.5-0.5,1c-0.1,0-0.1,0-0.2,0c-0.1-0.1-0.3-0.3-0.2-0.4c0.2-0.3-0.1-0.4-0.4-0.6c-0.4-0.2-0.7-0.4-1-0.7
	c-0.4-0.4-0.5-0.4-0.9,0c0,0-0.1,0.1-0.1,0.1c0,0,0,0-0.2,0C223.9,141,224.1,140.7,224.3,140.6z"/>
<path class="st0" d="M244.6,163.7c0,0-0.1-0.1-0.1-0.1c-0.3,0.1-0.6,0.2-0.9,0.3c0,0,0,0.1,0,0.1c0.2,0.1,0.3,0.2,0.5,0.3
	C244.2,164.1,244.4,163.9,244.6,163.7z"/>
<path class="st0" d="M244.2,142.3c0,0.1-0.2,0.2-0.1,0.3c0.1,0.3-0.1,0.4-0.4,0.5c-1.1,0.3-2.1,0.7-3.3,0.8c-2,0.2-3.2-0.3-4-1.8
	c-0.3-0.5-0.5-1.1-0.7-1.6c-0.2-0.3-0.2-0.5,0.2-0.8c0.1-0.1,0.2-0.3,0.4-0.4c-0.9,0-1.6,0.3-1.8,1c0.3-0.1,0.5-0.1,0.8-0.3
	c0.3,0.7,0.6,1.4,0.9,2.1c0.8,1.4,2.1,2.2,4.1,2.1c1.2,0,2.3-0.4,3.3-0.8c0.4-0.1,0.8-0.3,1.3-0.4c-0.1-0.1-0.1-0.4-0.3-0.6
	C244.6,142.4,244.4,142.4,244.2,142.3z"/>
<path class="st0" d="M242.5,137.9c-0.3-0.3-0.4-0.4-0.6-0.5c-0.1,0-0.1,0-0.2,0.1c0.1,0.1,0.1,0.3,0.2,0.4
	C242,137.9,242.3,137.9,242.5,137.9z"/>
<g class="st1">
	<g class="st2">
		<path class="st3" d="M194.6,112.5c0-6.5,0.2-13,0.3-19.5c0.1-1.1-0.2-2.2-0.7-3.3c-0.1-0.4-1-1-1.8-1.1c-2.6-0.4-3.6,0.1-4.7,1.8
			c-2.1,3.2-4.2,6.4-6.3,9.6c-0.1,0.2-0.5,0.4-1,0.9c-0.9-1.8-1.9-3.3-2.5-4.8c-0.6-1.2-0.7-2.5-1-3.8c-0.1-0.8-0.6-1.4-1.6-2
			c-0.9-0.6-1.8-1.1-2.8-0.6c-0.6,0.2-0.8,1.1-0.8,1.7c0.2,6.1,0.5,12.2-0.7,18.3c-0.5,2.7-0.5,5.3-0.5,8c0,1.2,1.1,1.8,2.4,1.3
			c0.7-0.2,1.3-1.1,1.3-1.6c0.4-3.1,0.3-6.2,0.6-9.4c0.2-2.6,0.6-5.2,0.8-7.9c1.4,1.9,2.6,3.8,3.5,5.7c0.7,1.4,2.2,0.8,3.3,0.7
			c0.6,0,1.5-0.8,1.6-1.2c1.2-2.2,2.2-4.3,3.3-6.5c0.2,0,0.5,0,0.7,0.1c0.1,1.4,0.2,2.7,0.3,4.1c0.1,4.2,0.3,8.5,0.1,12.6
			c-0.1,2,3,2.4,3.9,3.7c0,0.1,0.6,0.1,0.9,0.1c1.7-0.1,2.5-0.8,2.3-2.2C195.2,115.9,194.6,114.2,194.6,112.5z"/>
		<path class="st3" d="M291.8,132c4.1,0.1,6.1-1.1,6.9-3.7c2.7-8,5.6-16.1,8.5-24.1c0.6-1.7,1.2-3.5,1.9-5.2
			c0.6-1.7-2.4-1.1-3.3-1.8c-0.3-0.2-1.5,0-2.3,0.2c-0.3,0.1-0.5,0.5-0.6,0.9c-0.3,0.9-0.6,1.7-0.8,2.6c-0.9,3.2-1.7,6.5-2.6,9.6
			c-0.2,0-0.5,0-0.8,0c-0.2-0.4-0.5-0.7-0.7-1.1c-1.7-2.7-3.5-5.4-5.2-8.2c-0.3-0.6-0.9-1.2-1.5-1.5c-0.3-0.3-1.2-0.3-1.8-0.3
			c-0.2,0-0.7,0.6-0.7,0.9c0.2,0.9,0.7,1.7,1.1,2.5c2.4,4.2,4.8,8.3,7,12.4c0.3,0.6,0.2,1.4,0,2c-0.7,2.1-1.8,4.2-2.5,6.3
			c-0.7,2-1.6,3.9-5.2,4.8c-0.6,0.1-1.4,0.5-1.6,0.9c-0.2,0.4-0.4,1.3,0.1,1.5C289.1,131.5,290.5,132,291.8,132z"/>
		<path class="st3" d="M246.9,109.6c0-0.8,0.2-1.5,2-1.8c0.5,0.4,0.9,0.9,1.5,1.3c2.7,3.1,5.6,6.2,8.3,9.2c0.9,1.1,2.5,1.5,3.6,1
			c1.5-0.8,0.7-1.5,0-2.2c-3.2-3.7-6.3-7.3-9.6-10.9c-0.8-0.9-0.8-1.6,0.5-2.3c3.1-2.1,6-4.3,9.1-6.4c1-0.7,0.9-1.3,0.1-2
			c-0.8-0.7-1.8-0.3-2.6,0.1c-1.9,1.2-3.8,2.4-5.4,3.6c-2.3,1.7-4.4,3.5-6.7,5.1c-0.1-0.1-0.2-0.1-0.3-0.1c0-0.6,0-1.1,0-1.7
			c0-5.3,0.1-10.6,0.2-15.9c0-0.9-0.6-1.4-1.8-1.4c-1.5,0-1.5,0.9-1.6,1.5c0,0.1,0,0.2,0,0.4c-0.1,5.1,0,10.1-0.2,15.2
			c-0.1,4.7-0.5,9.5-0.8,14.2c-0.1,0.9,0,1.9,0.2,2.7c0.2,0.9,1.8,1,2.8,0.3c0.5-0.3,0.7-0.8,0.6-1.2
			C246.6,115.4,246.8,112.5,246.9,109.6z"/>
		<path class="st3" d="M279.4,97.9c-3.2-0.6-6.2-0.2-8.6,1.2c-3.1,1.8-4.7,4.1-4.6,6.8c0,0.9-0.1,1.7-0.1,2.7c0.1,2.7,0.1,5.3,0.5,8
			c0.3,1.7,2.7,3,4.9,3.1c1.4-0.1,2.8,0,4.3-0.1c6-0.3,8.3-3.4,8.6-6.2c0.1-0.4-0.8-0.9-1.4-1.3c-0.7,0.3-1.5,0.6-2,1
			c-0.6,0.4-0.7,1.1-1.2,1.7c-1.2,1.8-4.6,2.8-7.4,2.2c-0.8-0.2-1.6-0.6-1.9-1.1c-0.6-1.3-0.8-2.6-1.1-3.9c-0.1-0.9,0.5-1.4,2-1.6
			c3.9-0.6,7.9-1.3,11.8-1.9c1.6-0.2,2.3-0.8,2-1.8c-0.4-1.7-0.8-3.5-1.1-5.3C283.7,99.5,282.3,98.3,279.4,97.9z M276.9,106.4
			c-2.3,0.3-4.6,0.6-7.1,0.8c-0.3-2.3,0.5-4.1,2.7-5.7c1.4-1,3.1-1.1,4.9-1c0.3,0.1,0.8,0.6,0.8,0.9c0.1,1.4,0,2.8-0.1,4.2
			C278.2,105.7,277.4,106.4,276.9,106.4z"/>
		<path class="st3" d="M225.3,111.2c-0.1-3,0.3-5.9,2.1-8.8c0.7-1.2,2.3-1.8,4.4-1.7c0.1,4.8,0.3,9.6,0.5,14.4
			c0,0.9,0.3,1.7,1.8,1.6c4.9,0,5.3,0.3,5.9-3c0-0.2,0-0.4,0-0.6c-0.1-2.8-0.1-5.6-0.5-8.4c-0.2-1.6-0.9-3.2-1.8-4.5
			c-1.5-2.1-4.2-3-7.9-2.1c-2,0.5-3.6,1.4-5.4,1.9c-0.6-0.1-1.6-0.5-2.2-0.3c-0.6,0.1-0.8,0.9-1.1,1.5c-0.1,0.1,0,0.3,0,0.5
			c1.1,4.7,1.1,9.5,0.7,14.2c-0.1,0.8,0.2,1.6,1.8,1.6c1.8,0,2-1,1.9-1.8C225.4,114.1,225.4,112.7,225.3,111.2z"/>
		<path class="st3" d="M214.2,100c-0.7-1.1-1.9-2.3-4.2-2.4c-4.1-0.1-8.1,1.8-9.2,4.3c-2.2,4.9-2.1,9.8-0.3,14.7
			c0.6,1.5,2.1,2.6,4.5,2.8c2.6,0.3,5.8,0.6,7.4-1.3c2.2-2.6,3.8-5.3,5.6-7.9c-0.2-0.1-0.5-0.1-0.7-0.1
			C218.8,106.4,216.2,103.2,214.2,100z M207.7,116.9c-1.6,0.3-2.5-0.3-3.3-1.1c-1.7-1.6-1.9-3.5-1.8-5.4c-0.1-1.4,0.4-2.9,0.5-4.3
			c-0.1-0.1-0.2-0.1-0.3-0.1c0.8-1.4,1.4-3,2.6-4.1c1.4-1.5,2.5-1.3,4.3-0.1c1.6,1.2,2.3,2.4,1.7,4.2c-0.6,1.8-0.1,3.8-0.2,5.6
			c-0.1,1-0.4,2.1-0.5,3.1C210.3,115.9,209.1,116.6,207.7,116.9z"/>
	</g>
	<g class="st2">
		<path class="st4" d="M194.6,112.5c0-6.5,0.2-13,0.3-19.5c0.1-1.1-0.2-2.2-0.7-3.3c-0.1-0.4-1-1-1.8-1.1c-2.6-0.4-3.6,0.1-4.7,1.8
			c-2.1,3.2-4.2,6.4-6.3,9.6c-0.1,0.2-0.5,0.4-1,0.9c-0.9-1.8-1.9-3.3-2.5-4.8c-0.6-1.2-0.7-2.5-1-3.8c-0.1-0.8-0.6-1.4-1.6-2
			c-0.9-0.6-1.8-1.1-2.8-0.6c-0.6,0.2-0.8,1.1-0.8,1.7c0.2,6.1,0.5,12.2-0.7,18.3c-0.5,2.7-0.5,5.3-0.5,8c0,1.2,1.1,1.8,2.4,1.3
			c0.7-0.2,1.3-1.1,1.3-1.6c0.4-3.1,0.3-6.2,0.6-9.4c0.2-2.6,0.6-5.2,0.8-7.9c1.4,1.9,2.6,3.8,3.5,5.7c0.7,1.4,2.2,0.8,3.3,0.7
			c0.6,0,1.5-0.8,1.6-1.2c1.2-2.2,2.2-4.3,3.3-6.5c0.2,0,0.5,0,0.7,0.1c0.1,1.4,0.2,2.7,0.3,4.1c0.1,4.2,0.3,8.5,0.1,12.6
			c-0.1,2,3,2.4,3.9,3.7c0,0.1,0.6,0.1,0.9,0.1c1.7-0.1,2.5-0.8,2.3-2.2C195.2,115.9,194.6,114.2,194.6,112.5z"/>
		<path class="st4" d="M291.8,132c4.1,0.1,6.1-1.1,6.9-3.7c2.7-8,5.6-16.1,8.5-24.1c0.6-1.7,1.2-3.5,1.9-5.2
			c0.6-1.7-2.4-1.1-3.3-1.8c-0.3-0.2-1.5,0-2.3,0.2c-0.3,0.1-0.5,0.5-0.6,0.9c-0.3,0.9-0.6,1.7-0.8,2.6c-0.9,3.2-1.7,6.5-2.6,9.6
			c-0.2,0-0.5,0-0.8,0c-0.2-0.4-0.5-0.7-0.7-1.1c-1.7-2.7-3.5-5.4-5.2-8.2c-0.3-0.6-0.9-1.2-1.5-1.5c-0.3-0.3-1.2-0.3-1.8-0.3
			c-0.2,0-0.7,0.6-0.7,0.9c0.2,0.9,0.7,1.7,1.1,2.5c2.4,4.2,4.8,8.3,7,12.4c0.3,0.6,0.2,1.4,0,2c-0.7,2.1-1.8,4.2-2.5,6.3
			c-0.7,2-1.6,3.9-5.2,4.8c-0.6,0.1-1.4,0.5-1.6,0.9c-0.2,0.4-0.4,1.3,0.1,1.5C289.1,131.5,290.5,132,291.8,132z"/>
		<path class="st4" d="M246.9,109.6c0-0.8,0.2-1.5,2-1.8c0.5,0.4,0.9,0.9,1.5,1.3c2.7,3.1,5.6,6.2,8.3,9.2c0.9,1.1,2.5,1.5,3.6,1
			c1.5-0.8,0.7-1.5,0-2.2c-3.2-3.7-6.3-7.3-9.6-10.9c-0.8-0.9-0.8-1.6,0.5-2.3c3.1-2.1,6-4.3,9.1-6.4c1-0.7,0.9-1.3,0.1-2
			c-0.8-0.7-1.8-0.3-2.6,0.1c-1.9,1.2-3.8,2.4-5.4,3.6c-2.3,1.7-4.4,3.5-6.7,5.1c-0.1-0.1-0.2-0.1-0.3-0.1c0-0.6,0-1.1,0-1.7
			c0-5.3,0.1-10.6,0.2-15.9c0-0.9-0.6-1.4-1.8-1.4c-1.5,0-1.5,0.9-1.6,1.5c0,0.1,0,0.2,0,0.4c-0.1,5.1,0,10.1-0.2,15.2
			c-0.1,4.7-0.5,9.5-0.8,14.2c-0.1,0.9,0,1.9,0.2,2.7c0.2,0.9,1.8,1,2.8,0.3c0.5-0.3,0.7-0.8,0.6-1.2
			C246.6,115.4,246.8,112.5,246.9,109.6z"/>
		<path class="st4" d="M279.4,97.9c-3.2-0.6-6.2-0.2-8.6,1.2c-3.1,1.8-4.7,4.1-4.6,6.8c0,0.9-0.1,1.7-0.1,2.7c0.1,2.7,0.1,5.3,0.5,8
			c0.3,1.7,2.7,3,4.9,3.1c1.4-0.1,2.8,0,4.3-0.1c6-0.3,8.3-3.4,8.6-6.2c0.1-0.4-0.8-0.9-1.4-1.3c-0.7,0.3-1.5,0.6-2,1
			c-0.6,0.4-0.7,1.1-1.2,1.7c-1.2,1.8-4.6,2.8-7.4,2.2c-0.8-0.2-1.6-0.6-1.9-1.1c-0.6-1.3-0.8-2.6-1.1-3.9c-0.1-0.9,0.5-1.4,2-1.6
			c3.9-0.6,7.9-1.3,11.8-1.9c1.6-0.2,2.3-0.8,2-1.8c-0.4-1.7-0.8-3.5-1.1-5.3C283.7,99.5,282.3,98.3,279.4,97.9z M276.9,106.4
			c-2.3,0.3-4.6,0.6-7.1,0.8c-0.3-2.3,0.5-4.1,2.7-5.7c1.4-1,3.1-1.1,4.9-1c0.3,0.1,0.8,0.6,0.8,0.9c0.1,1.4,0,2.8-0.1,4.2
			C278.2,105.7,277.4,106.4,276.9,106.4z"/>
		<path class="st4" d="M225.3,111.2c-0.1-3,0.3-5.9,2.1-8.8c0.7-1.2,2.3-1.8,4.4-1.7c0.1,4.8,0.3,9.6,0.5,14.4
			c0,0.9,0.3,1.7,1.8,1.6c4.9,0,5.3,0.3,5.9-3c0-0.2,0-0.4,0-0.6c-0.1-2.8-0.1-5.6-0.5-8.4c-0.2-1.6-0.9-3.2-1.8-4.5
			c-1.5-2.1-4.2-3-7.9-2.1c-2,0.5-3.6,1.4-5.4,1.9c-0.6-0.1-1.6-0.5-2.2-0.3c-0.6,0.1-0.8,0.9-1.1,1.5c-0.1,0.1,0,0.3,0,0.5
			c1.1,4.7,1.1,9.5,0.7,14.2c-0.1,0.8,0.2,1.6,1.8,1.6c1.8,0,2-1,1.9-1.8C225.4,114.1,225.4,112.7,225.3,111.2z"/>
		<path class="st4" d="M214.2,100c-0.7-1.1-1.9-2.3-4.2-2.4c-4.1-0.1-8.1,1.8-9.2,4.3c-2.2,4.9-2.1,9.8-0.3,14.7
			c0.6,1.5,2.1,2.6,4.5,2.8c2.6,0.3,5.8,0.6,7.4-1.3c2.2-2.6,3.8-5.3,5.6-7.9c-0.2-0.1-0.5-0.1-0.7-0.1
			C218.8,106.4,216.2,103.2,214.2,100z M207.7,116.9c-1.6,0.3-2.5-0.3-3.3-1.1c-1.7-1.6-1.9-3.5-1.8-5.4c-0.1-1.4,0.4-2.9,0.5-4.3
			c-0.1-0.1-0.2-0.1-0.3-0.1c0.8-1.4,1.4-3,2.6-4.1c1.4-1.5,2.5-1.3,4.3-0.1c1.6,1.2,2.3,2.4,1.7,4.2c-0.6,1.8-0.1,3.8-0.2,5.6
			c-0.1,1-0.4,2.1-0.5,3.1C210.3,115.9,209.1,116.6,207.7,116.9z"/>
	</g>
	<g class="st2">
		<path class="st5" d="M194.6,112.5c0-6.5,0.2-13,0.3-19.5c0.1-1.1-0.2-2.2-0.7-3.3c-0.1-0.4-1-1-1.8-1.1c-2.6-0.4-3.6,0.1-4.7,1.8
			c-2.1,3.2-4.2,6.4-6.3,9.6c-0.1,0.2-0.5,0.4-1,0.9c-0.9-1.8-1.9-3.3-2.5-4.8c-0.6-1.2-0.7-2.5-1-3.8c-0.1-0.8-0.6-1.4-1.6-2
			c-0.9-0.6-1.8-1.1-2.8-0.6c-0.6,0.2-0.8,1.1-0.8,1.7c0.2,6.1,0.5,12.2-0.7,18.3c-0.5,2.7-0.5,5.3-0.5,8c0,1.2,1.1,1.8,2.4,1.3
			c0.7-0.2,1.3-1.1,1.3-1.6c0.4-3.1,0.3-6.2,0.6-9.4c0.2-2.6,0.6-5.2,0.8-7.9c1.4,1.9,2.6,3.8,3.5,5.7c0.7,1.4,2.2,0.8,3.3,0.7
			c0.6,0,1.5-0.8,1.6-1.2c1.2-2.2,2.2-4.3,3.3-6.5c0.2,0,0.5,0,0.7,0.1c0.1,1.4,0.2,2.7,0.3,4.1c0.1,4.2,0.3,8.5,0.1,12.6
			c-0.1,2,3,2.4,3.9,3.7c0,0.1,0.6,0.1,0.9,0.1c1.7-0.1,2.5-0.8,2.3-2.2C195.2,115.9,194.6,114.2,194.6,112.5z"/>
		<path class="st5" d="M291.8,132c4.1,0.1,6.1-1.1,6.9-3.7c2.7-8,5.6-16.1,8.5-24.1c0.6-1.7,1.2-3.5,1.9-5.2
			c0.6-1.7-2.4-1.1-3.3-1.8c-0.3-0.2-1.5,0-2.3,0.2c-0.3,0.1-0.5,0.5-0.6,0.9c-0.3,0.9-0.6,1.7-0.8,2.6c-0.9,3.2-1.7,6.5-2.6,9.6
			c-0.2,0-0.5,0-0.8,0c-0.2-0.4-0.5-0.7-0.7-1.1c-1.7-2.7-3.5-5.4-5.2-8.2c-0.3-0.6-0.9-1.2-1.5-1.5c-0.3-0.3-1.2-0.3-1.8-0.3
			c-0.2,0-0.7,0.6-0.7,0.9c0.2,0.9,0.7,1.7,1.1,2.5c2.4,4.2,4.8,8.3,7,12.4c0.3,0.6,0.2,1.4,0,2c-0.7,2.1-1.8,4.2-2.5,6.3
			c-0.7,2-1.6,3.9-5.2,4.8c-0.6,0.1-1.4,0.5-1.6,0.9c-0.2,0.4-0.4,1.3,0.1,1.5C289.1,131.5,290.5,132,291.8,132z"/>
		<path class="st5" d="M246.9,109.6c0-0.8,0.2-1.5,2-1.8c0.5,0.4,0.9,0.9,1.5,1.3c2.7,3.1,5.6,6.2,8.3,9.2c0.9,1.1,2.5,1.5,3.6,1
			c1.5-0.8,0.7-1.5,0-2.2c-3.2-3.7-6.3-7.3-9.6-10.9c-0.8-0.9-0.8-1.6,0.5-2.3c3.1-2.1,6-4.3,9.1-6.4c1-0.7,0.9-1.3,0.1-2
			c-0.8-0.7-1.8-0.3-2.6,0.1c-1.9,1.2-3.8,2.4-5.4,3.6c-2.3,1.7-4.4,3.5-6.7,5.1c-0.1-0.1-0.2-0.1-0.3-0.1c0-0.6,0-1.1,0-1.7
			c0-5.3,0.1-10.6,0.2-15.9c0-0.9-0.6-1.4-1.8-1.4c-1.5,0-1.5,0.9-1.6,1.5c0,0.1,0,0.2,0,0.4c-0.1,5.1,0,10.1-0.2,15.2
			c-0.1,4.7-0.5,9.5-0.8,14.2c-0.1,0.9,0,1.9,0.2,2.7c0.2,0.9,1.8,1,2.8,0.3c0.5-0.3,0.7-0.8,0.6-1.2
			C246.6,115.4,246.8,112.5,246.9,109.6z"/>
		<path class="st5" d="M279.4,97.9c-3.2-0.6-6.2-0.2-8.6,1.2c-3.1,1.8-4.7,4.1-4.6,6.8c0,0.9-0.1,1.7-0.1,2.7c0.1,2.7,0.1,5.3,0.5,8
			c0.3,1.7,2.7,3,4.9,3.1c1.4-0.1,2.8,0,4.3-0.1c6-0.3,8.3-3.4,8.6-6.2c0.1-0.4-0.8-0.9-1.4-1.3c-0.7,0.3-1.5,0.6-2,1
			c-0.6,0.4-0.7,1.1-1.2,1.7c-1.2,1.8-4.6,2.8-7.4,2.2c-0.8-0.2-1.6-0.6-1.9-1.1c-0.6-1.3-0.8-2.6-1.1-3.9c-0.1-0.9,0.5-1.4,2-1.6
			c3.9-0.6,7.9-1.3,11.8-1.9c1.6-0.2,2.3-0.8,2-1.8c-0.4-1.7-0.8-3.5-1.1-5.3C283.7,99.5,282.3,98.3,279.4,97.9z M276.9,106.4
			c-2.3,0.3-4.6,0.6-7.1,0.8c-0.3-2.3,0.5-4.1,2.7-5.7c1.4-1,3.1-1.1,4.9-1c0.3,0.1,0.8,0.6,0.8,0.9c0.1,1.4,0,2.8-0.1,4.2
			C278.2,105.7,277.4,106.4,276.9,106.4z"/>
		<path class="st5" d="M225.3,111.2c-0.1-3,0.3-5.9,2.1-8.8c0.7-1.2,2.3-1.8,4.4-1.7c0.1,4.8,0.3,9.6,0.5,14.4
			c0,0.9,0.3,1.7,1.8,1.6c4.9,0,5.3,0.3,5.9-3c0-0.2,0-0.4,0-0.6c-0.1-2.8-0.1-5.6-0.5-8.4c-0.2-1.6-0.9-3.2-1.8-4.5
			c-1.5-2.1-4.2-3-7.9-2.1c-2,0.5-3.6,1.4-5.4,1.9c-0.6-0.1-1.6-0.5-2.2-0.3c-0.6,0.1-0.8,0.9-1.1,1.5c-0.1,0.1,0,0.3,0,0.5
			c1.1,4.7,1.1,9.5,0.7,14.2c-0.1,0.8,0.2,1.6,1.8,1.6c1.8,0,2-1,1.9-1.8C225.4,114.1,225.4,112.7,225.3,111.2z"/>
		<path class="st5" d="M214.2,100c-0.7-1.1-1.9-2.3-4.2-2.4c-4.1-0.1-8.1,1.8-9.2,4.3c-2.2,4.9-2.1,9.8-0.3,14.7
			c0.6,1.5,2.1,2.6,4.5,2.8c2.6,0.3,5.8,0.6,7.4-1.3c2.2-2.6,3.8-5.3,5.6-7.9c-0.2-0.1-0.5-0.1-0.7-0.1
			C218.8,106.4,216.2,103.2,214.2,100z M207.7,116.9c-1.6,0.3-2.5-0.3-3.3-1.1c-1.7-1.6-1.9-3.5-1.8-5.4c-0.1-1.4,0.4-2.9,0.5-4.3
			c-0.1-0.1-0.2-0.1-0.3-0.1c0.8-1.4,1.4-3,2.6-4.1c1.4-1.5,2.5-1.3,4.3-0.1c1.6,1.2,2.3,2.4,1.7,4.2c-0.6,1.8-0.1,3.8-0.2,5.6
			c-0.1,1-0.4,2.1-0.5,3.1C210.3,115.9,209.1,116.6,207.7,116.9z"/>
	</g>
</g>
<g class="st1">
	<g class="st2">
		<path class="st3" d="M125.5,127.7c2,1.8,4.6,2.2,7.3,1.1c0.8-0.3,1.6-0.7,3-1.3c0.6,1.8,1.1,3.1,1.7,4.5c0.2,0.4,0.8,1,1.4,1.2
			c0.9,0.2,2.1,0.2,2.4-0.6c0.2-0.7,0.8-1.4,0.7-2.1c-0.4-5.1-0.6-10.1-1.4-15.2c-0.9-5.8-2.3-11.6-3.4-17.5
			c-0.2-0.9-1.5-1.5-3.4-1.6c-1.6-0.1-1.8,0.6-1.7,1.4c0,0.7,0.1,1.4,0.4,2.1c0.5,3.7,0.9,7.3,1.4,11.2c-1.7-0.1-3-0.1-4.4-0.1
			c-3.3,0-6.1,1.1-7.4,2.7c-2.3,3.1-2.2,6.5-0.8,10C121.9,125,123.8,126.3,125.5,127.7z M124.7,116.2c0.7-1.6,2.4-2.8,5.4-2.7
			c2.2-0.1,3.5,0.5,3.7,1.9c0.5,2.1,0.8,4,1,6c-0.1,0-0.3,0-0.5-0.1c0.4,2.2-1.2,3.6-3.6,4.7c-0.9,0.4-1.6,0.3-2.4-0.3
			C124,122.8,123.4,119.5,124.7,116.2z"/>
		<path class="st3" d="M-14.2,116.2c-0.7,4.3,0.8,8.4,4.2,12.4c0.7,0.8,1.9,1.9,3,2c2.5,0.4,5.2,0.5,7.6,0.2c1.8-0.2,4-0.6,5.4-1.4
			c2.7-1.7,3-4,2.7-6.5c-0.1-0.4-0.8-1-1.4-1.1c-0.7-0.1-1.6,0.1-2.1,0.5c-0.3,0.3-0.2,0.9-0.3,1.3c-0.3,0.9-0.3,2-1,2.7
			c-1.5,1.8-4.3,1.8-7,2c-1.6,0-2.9-0.5-3.3-1.8c-1.6-4.8-2.8-9.6-2.2-14.3c0-1.4,0-2.7,0.2-4c0.5-2.6,1.8-4.9,4.7-6.8
			c1.5-1,3.6-1,5.6-0.6c1.8,0.4,3.2,1.2,3.5,2.6c0.2,0.9,0.5,1.9,1.1,2.7c0.3,0.4,1.4,0.8,2.1,1.1c0.2-0.4,0.9-0.8,0.8-1.2
			c-0.4-1.7-0.9-3.3-1.6-5c-0.6-1.6-2.9-2.7-5.3-3c-4.6-0.6-8.4-0.2-10.9,2.4c-0.1,0.2-0.6,0.3-0.8,0.5c-1.4,2.1-3.4,4.2-4,6.5
			C-14,110.5-13.6,113.5-14.2,116.2z"/>
		<path class="st3" d="M74.8,108.4c0.7,5.6,1.2,11.2,1.8,16.8c0.1,1.7,0.2,3.4,0.5,5.2c0.1,0.7,0.5,1.6,2.2,1.4
			c1.4-0.1,1.7-0.7,1.6-1.5c-0.4-3-0.8-5.9-1.2-8.9c-0.1-0.9,0.1-1.5,1.7-1.7c0.6,0.5,1.1,0.9,1.6,1.4c3.3,3.2,6.5,6.3,9.7,9.6
			c1.2,1,2.7,1.6,3.7,1.1c1.4-0.7,0.4-1.5-0.4-2.3c-3.5-3.6-7.1-7.2-10.6-10.7c-1.8-1.8-2.3-1.4,0.2-3.3c2.5-1.9,4.9-3.8,7.5-5.7
			c0.9-0.6,0.7-1.3-0.1-2c-0.9-0.7-2-0.4-2.6,0c-1.3,0.7-2.4,1.2-3.3,2.1c-2.3,2-4.4,3.9-6.7,5.9c-0.2,0.2-0.5,0.3-1,0.7
			c-0.1-0.4-0.1-0.5-0.1-0.7c-0.8-5.5-1.6-11-2.5-16.7c-0.1-0.9-0.1-2.1-2.2-2.1c-1.8,0-1.4,1.2-1.2,2
			C73.5,102,74.4,105.2,74.8,108.4z"/>
		<path class="st3" d="M100.5,129.1c0.5,1.5,2.2,2.7,4.6,3c1.7,0.3,3.6,0.2,5.3,0.1c4.6-0.2,8.1-3.2,7.1-6.1c-0.2-0.4-0.9-1-1.6-1.3
			c-0.3-0.1-1.3,0.4-1.7,0.7c-0.6,0.5-0.7,1.1-1,1.8c-1,1.8-3.9,2.7-6.9,2c-0.8-0.2-1.7-0.7-2.1-1.1c-0.8-1.3-1.2-2.6-1.8-3.9
			c-0.4-0.9,0.1-1.4,1.7-1.6c3.9-0.5,7.7-1.1,11.4-1.6c1.4-0.2,2.1-0.7,1.8-1.5c-0.5-1.6-1.2-3.1-1.7-4.8c-0.7-2.6-3.2-4.2-7.3-4.6
			c-0.9,0-2,0.1-2.9,0.2c-4.4,0.6-6.5,2.6-6.9,5.2c-0.4,2.5,0.1,5,0.5,7.6C99.2,125.1,99.7,127.1,100.5,129.1z M104.2,113.8
			c1.1-0.9,2.9-0.9,4.6-0.7c0.3,0,0.9,0.5,0.9,0.8c0.3,1.4,0.5,2.9,0.5,4.4c0,0.4-0.8,0.8-1.4,1c-2.1,0.3-4.4,0.4-6.7,0.6
			C101.4,117.4,102,115.4,104.2,113.8z"/>
		<path class="st3" d="M61.5,130.5c2.8,0.3,6,0.7,7.2-1.1c1.8-2.4,3-5,4.4-7.6c-0.2,0-0.5-0.1-0.7-0.2c1.2-3.8-1.8-7.1-4.4-10.4
			c-0.9-1.1-2.3-2.4-4.7-2.5c-4-0.3-7.8,1.5-8.6,3.9c-1.4,5-0.6,9.9,1.9,14.9C57.2,129,58.9,130.2,61.5,130.5z M61.3,111.9
			c1.6,0.6,2.9,1.7,4.2,2.8c0.5,0.4,0.5,1,0.8,1.4c-0.1,0-0.2,0-0.3,0.1c0.3,2.3,0.5,4.7,0.7,7c0.1,1,0,2,0,3c0,1.1-1,1.6-2.5,1.9
			c-1.4,0.2-2.4-0.4-3.2-1c-2-1.6-2.5-3.6-2.7-5.4c-0.3-2.2-0.1-4.3-0.1-6.5C58,113.4,59.9,111.4,61.3,111.9z"/>
		<path class="st3" d="M39.5,130.1c2.9,0.4,6.1,1,7.6-1.1c1.7-2.3,2.9-4.9,3.7-7.5c1.1-3.7-1.6-7.3-4.7-10.6c-0.9-1-2.9-2.3-4.5-2.5
			c-4-0.3-7.5,0.9-8.6,3.5c-0.5,1.5-0.6,3-1,4.5c0.1,1.7,0.2,3.4,0.6,5.2c0.4,1.8,1.1,3.4,1.9,5.1C35.4,128.4,37,129.8,39.5,130.1z
			 M39.5,111.5c1.5,0.6,2.8,1.7,4.1,2.7c0.6,0.5,0.6,1,0.8,1.5c-0.1,0-0.2,0-0.3,0.1c0.2,2.5,0.5,5.2,0.7,7.8c0,0.8,0,1.6-0.1,2.4
			c-0.1,1-1.1,1.6-2.5,1.7c-1.3,0.3-2.3-0.2-3.1-0.9c-2-1.6-2.6-3.4-2.8-5.2c-0.4-2.4-0.2-4.6-0.1-6.9
			C36.4,113,38.3,111.2,39.5,111.5z"/>
		<path class="st3" d="M15,124c0.1,0.9,0.5,2.1,2.4,2.1c1.9,0,1.5-1.2,1.4-2.1c-0.4-2.7-0.9-5.2-1.4-7.9c-0.4-2.2,1.4-3.7,4.4-4.3
			c1.1,0.8,2.1,1.6,3.3,2.4c0.6,0.4,1.4,0.8,1.9,0.6c0.7-0.1,1.4-0.7,1.5-1.1c0.2-0.8,0-1.6-0.2-2.4c-0.3-1.4-1.9-2.6-4-2.6
			c-1.5-0.1-3.1,0.3-4.6,0.5c-1.5,0.2-3.1,0.6-4.5,1.1c-0.7,0.2-1.4,0.7-1.5,1.1c-0.3,0.5-0.2,1.1-0.1,1.7
			C13.9,116.6,14.4,120.3,15,124z"/>
	</g>
	<g class="st2">
		<path class="st4" d="M125.5,127.7c2,1.8,4.6,2.2,7.3,1.1c0.8-0.3,1.6-0.7,3-1.3c0.6,1.8,1.1,3.1,1.7,4.5c0.2,0.4,0.8,1,1.4,1.2
			c0.9,0.2,2.1,0.2,2.4-0.6c0.2-0.7,0.8-1.4,0.7-2.1c-0.4-5.1-0.6-10.1-1.4-15.2c-0.9-5.8-2.3-11.6-3.4-17.5
			c-0.2-0.9-1.5-1.5-3.4-1.6c-1.6-0.1-1.8,0.6-1.7,1.4c0,0.7,0.1,1.4,0.4,2.1c0.5,3.7,0.9,7.3,1.4,11.2c-1.7-0.1-3-0.1-4.4-0.1
			c-3.3,0-6.1,1.1-7.4,2.7c-2.3,3.1-2.2,6.5-0.8,10C121.9,125,123.8,126.3,125.5,127.7z M124.7,116.2c0.7-1.6,2.4-2.8,5.4-2.7
			c2.2-0.1,3.5,0.5,3.7,1.9c0.5,2.1,0.8,4,1,6c-0.1,0-0.3,0-0.5-0.1c0.4,2.2-1.2,3.6-3.6,4.7c-0.9,0.4-1.6,0.3-2.4-0.3
			C124,122.8,123.4,119.5,124.7,116.2z"/>
		<path class="st4" d="M-14.2,116.2c-0.7,4.3,0.8,8.4,4.2,12.4c0.7,0.8,1.9,1.9,3,2c2.5,0.4,5.2,0.5,7.6,0.2c1.8-0.2,4-0.6,5.4-1.4
			c2.7-1.7,3-4,2.7-6.5c-0.1-0.4-0.8-1-1.4-1.1c-0.7-0.1-1.6,0.1-2.1,0.5c-0.3,0.3-0.2,0.9-0.3,1.3c-0.3,0.9-0.3,2-1,2.7
			c-1.5,1.8-4.3,1.8-7,2c-1.6,0-2.9-0.5-3.3-1.8c-1.6-4.8-2.8-9.6-2.2-14.3c0-1.4,0-2.7,0.2-4c0.5-2.6,1.8-4.9,4.7-6.8
			c1.5-1,3.6-1,5.6-0.6c1.8,0.4,3.2,1.2,3.5,2.6c0.2,0.9,0.5,1.9,1.1,2.7c0.3,0.4,1.4,0.8,2.1,1.1c0.2-0.4,0.9-0.8,0.8-1.2
			c-0.4-1.7-0.9-3.3-1.6-5c-0.6-1.6-2.9-2.7-5.3-3c-4.6-0.6-8.4-0.2-10.9,2.4c-0.1,0.2-0.6,0.3-0.8,0.5c-1.4,2.1-3.4,4.2-4,6.5
			C-14,110.5-13.6,113.5-14.2,116.2z"/>
		<path class="st4" d="M74.8,108.4c0.7,5.6,1.2,11.2,1.8,16.8c0.1,1.7,0.2,3.4,0.5,5.2c0.1,0.7,0.5,1.6,2.2,1.4
			c1.4-0.1,1.7-0.7,1.6-1.5c-0.4-3-0.8-5.9-1.2-8.9c-0.1-0.9,0.1-1.5,1.7-1.7c0.6,0.5,1.1,0.9,1.6,1.4c3.3,3.2,6.5,6.3,9.7,9.6
			c1.2,1,2.7,1.6,3.7,1.1c1.4-0.7,0.4-1.5-0.4-2.3c-3.5-3.6-7.1-7.2-10.6-10.7c-1.8-1.8-2.3-1.4,0.2-3.3c2.5-1.9,4.9-3.8,7.5-5.7
			c0.9-0.6,0.7-1.3-0.1-2c-0.9-0.7-2-0.4-2.6,0c-1.3,0.7-2.4,1.2-3.3,2.1c-2.3,2-4.4,3.9-6.7,5.9c-0.2,0.2-0.5,0.3-1,0.7
			c-0.1-0.4-0.1-0.5-0.1-0.7c-0.8-5.5-1.6-11-2.5-16.7c-0.1-0.9-0.1-2.1-2.2-2.1c-1.8,0-1.4,1.2-1.2,2
			C73.5,102,74.4,105.2,74.8,108.4z"/>
		<path class="st4" d="M100.5,129.1c0.5,1.5,2.2,2.7,4.6,3c1.7,0.3,3.6,0.2,5.3,0.1c4.6-0.2,8.1-3.2,7.1-6.1c-0.2-0.4-0.9-1-1.6-1.3
			c-0.3-0.1-1.3,0.4-1.7,0.7c-0.6,0.5-0.7,1.1-1,1.8c-1,1.8-3.9,2.7-6.9,2c-0.8-0.2-1.7-0.7-2.1-1.1c-0.8-1.3-1.2-2.6-1.8-3.9
			c-0.4-0.9,0.1-1.4,1.7-1.6c3.9-0.5,7.7-1.1,11.4-1.6c1.4-0.2,2.1-0.7,1.8-1.5c-0.5-1.6-1.2-3.1-1.7-4.8c-0.7-2.6-3.2-4.2-7.3-4.6
			c-0.9,0-2,0.1-2.9,0.2c-4.4,0.6-6.5,2.6-6.9,5.2c-0.4,2.5,0.1,5,0.5,7.6C99.2,125.1,99.7,127.1,100.5,129.1z M104.2,113.8
			c1.1-0.9,2.9-0.9,4.6-0.7c0.3,0,0.9,0.5,0.9,0.8c0.3,1.4,0.5,2.9,0.5,4.4c0,0.4-0.8,0.8-1.4,1c-2.1,0.3-4.4,0.4-6.7,0.6
			C101.4,117.4,102,115.4,104.2,113.8z"/>
		<path class="st4" d="M61.5,130.5c2.8,0.3,6,0.7,7.2-1.1c1.8-2.4,3-5,4.4-7.6c-0.2,0-0.5-0.1-0.7-0.2c1.2-3.8-1.8-7.1-4.4-10.4
			c-0.9-1.1-2.3-2.4-4.7-2.5c-4-0.3-7.8,1.5-8.6,3.9c-1.4,5-0.6,9.9,1.9,14.9C57.2,129,58.9,130.2,61.5,130.5z M61.3,111.9
			c1.6,0.6,2.9,1.7,4.2,2.8c0.5,0.4,0.5,1,0.8,1.4c-0.1,0-0.2,0-0.3,0.1c0.3,2.3,0.5,4.7,0.7,7c0.1,1,0,2,0,3c0,1.1-1,1.6-2.5,1.9
			c-1.4,0.2-2.4-0.4-3.2-1c-2-1.6-2.5-3.6-2.7-5.4c-0.3-2.2-0.1-4.3-0.1-6.5C58,113.4,59.9,111.4,61.3,111.9z"/>
		<path class="st4" d="M39.5,130.1c2.9,0.4,6.1,1,7.6-1.1c1.7-2.3,2.9-4.9,3.7-7.5c1.1-3.7-1.6-7.3-4.7-10.6c-0.9-1-2.9-2.3-4.5-2.5
			c-4-0.3-7.5,0.9-8.6,3.5c-0.5,1.5-0.6,3-1,4.5c0.1,1.7,0.2,3.4,0.6,5.2c0.4,1.8,1.1,3.4,1.9,5.1C35.4,128.4,37,129.8,39.5,130.1z
			 M39.5,111.5c1.5,0.6,2.8,1.7,4.1,2.7c0.6,0.5,0.6,1,0.8,1.5c-0.1,0-0.2,0-0.3,0.1c0.2,2.5,0.5,5.2,0.7,7.8c0,0.8,0,1.6-0.1,2.4
			c-0.1,1-1.1,1.6-2.5,1.7c-1.3,0.3-2.3-0.2-3.1-0.9c-2-1.6-2.6-3.4-2.8-5.2c-0.4-2.4-0.2-4.6-0.1-6.9
			C36.4,113,38.3,111.2,39.5,111.5z"/>
		<path class="st4" d="M15,124c0.1,0.9,0.5,2.1,2.4,2.1c1.9,0,1.5-1.2,1.4-2.1c-0.4-2.7-0.9-5.2-1.4-7.9c-0.4-2.2,1.4-3.7,4.4-4.3
			c1.1,0.8,2.1,1.6,3.3,2.4c0.6,0.4,1.4,0.8,1.9,0.6c0.7-0.1,1.4-0.7,1.5-1.1c0.2-0.8,0-1.6-0.2-2.4c-0.3-1.4-1.9-2.6-4-2.6
			c-1.5-0.1-3.1,0.3-4.6,0.5c-1.5,0.2-3.1,0.6-4.5,1.1c-0.7,0.2-1.4,0.7-1.5,1.1c-0.3,0.5-0.2,1.1-0.1,1.7
			C13.9,116.6,14.4,120.3,15,124z"/>
	</g>
	<g class="st2">
		<path class="st5" d="M125.5,127.7c2,1.8,4.6,2.2,7.3,1.1c0.8-0.3,1.6-0.7,3-1.3c0.6,1.8,1.1,3.1,1.7,4.5c0.2,0.4,0.8,1,1.4,1.2
			c0.9,0.2,2.1,0.2,2.4-0.6c0.2-0.7,0.8-1.4,0.7-2.1c-0.4-5.1-0.6-10.1-1.4-15.2c-0.9-5.8-2.3-11.6-3.4-17.5
			c-0.2-0.9-1.5-1.5-3.4-1.6c-1.6-0.1-1.8,0.6-1.7,1.4c0,0.7,0.1,1.4,0.4,2.1c0.5,3.7,0.9,7.3,1.4,11.2c-1.7-0.1-3-0.1-4.4-0.1
			c-3.3,0-6.1,1.1-7.4,2.7c-2.3,3.1-2.2,6.5-0.8,10C121.9,125,123.8,126.3,125.5,127.7z M124.7,116.2c0.7-1.6,2.4-2.8,5.4-2.7
			c2.2-0.1,3.5,0.5,3.7,1.9c0.5,2.1,0.8,4,1,6c-0.1,0-0.3,0-0.5-0.1c0.4,2.2-1.2,3.6-3.6,4.7c-0.9,0.4-1.6,0.3-2.4-0.3
			C124,122.8,123.4,119.5,124.7,116.2z"/>
		<path class="st5" d="M-14.2,116.2c-0.7,4.3,0.8,8.4,4.2,12.4c0.7,0.8,1.9,1.9,3,2c2.5,0.4,5.2,0.5,7.6,0.2c1.8-0.2,4-0.6,5.4-1.4
			c2.7-1.7,3-4,2.7-6.5c-0.1-0.4-0.8-1-1.4-1.1c-0.7-0.1-1.6,0.1-2.1,0.5c-0.3,0.3-0.2,0.9-0.3,1.3c-0.3,0.9-0.3,2-1,2.7
			c-1.5,1.8-4.3,1.8-7,2c-1.6,0-2.9-0.5-3.3-1.8c-1.6-4.8-2.8-9.6-2.2-14.3c0-1.4,0-2.7,0.2-4c0.5-2.6,1.8-4.9,4.7-6.8
			c1.5-1,3.6-1,5.6-0.6c1.8,0.4,3.2,1.2,3.5,2.6c0.2,0.9,0.5,1.9,1.1,2.7c0.3,0.4,1.4,0.8,2.1,1.1c0.2-0.4,0.9-0.8,0.8-1.2
			c-0.4-1.7-0.9-3.3-1.6-5c-0.6-1.6-2.9-2.7-5.3-3c-4.6-0.6-8.4-0.2-10.9,2.4c-0.1,0.2-0.6,0.3-0.8,0.5c-1.4,2.1-3.4,4.2-4,6.5
			C-14,110.5-13.6,113.5-14.2,116.2z"/>
		<path class="st5" d="M74.8,108.4c0.7,5.6,1.2,11.2,1.8,16.8c0.1,1.7,0.2,3.4,0.5,5.2c0.1,0.7,0.5,1.6,2.2,1.4
			c1.4-0.1,1.7-0.7,1.6-1.5c-0.4-3-0.8-5.9-1.2-8.9c-0.1-0.9,0.1-1.5,1.7-1.7c0.6,0.5,1.1,0.9,1.6,1.4c3.3,3.2,6.5,6.3,9.7,9.6
			c1.2,1,2.7,1.6,3.7,1.1c1.4-0.7,0.4-1.5-0.4-2.3c-3.5-3.6-7.1-7.2-10.6-10.7c-1.8-1.8-2.3-1.4,0.2-3.3c2.5-1.9,4.9-3.8,7.5-5.7
			c0.9-0.6,0.7-1.3-0.1-2c-0.9-0.7-2-0.4-2.6,0c-1.3,0.7-2.4,1.2-3.3,2.1c-2.3,2-4.4,3.9-6.7,5.9c-0.2,0.2-0.5,0.3-1,0.7
			c-0.1-0.4-0.1-0.5-0.1-0.7c-0.8-5.5-1.6-11-2.5-16.7c-0.1-0.9-0.1-2.1-2.2-2.1c-1.8,0-1.4,1.2-1.2,2
			C73.5,102,74.4,105.2,74.8,108.4z"/>
		<path class="st5" d="M100.5,129.1c0.5,1.5,2.2,2.7,4.6,3c1.7,0.3,3.6,0.2,5.3,0.1c4.6-0.2,8.1-3.2,7.1-6.1c-0.2-0.4-0.9-1-1.6-1.3
			c-0.3-0.1-1.3,0.4-1.7,0.7c-0.6,0.5-0.7,1.1-1,1.8c-1,1.8-3.9,2.7-6.9,2c-0.8-0.2-1.7-0.7-2.1-1.1c-0.8-1.3-1.2-2.6-1.8-3.9
			c-0.4-0.9,0.1-1.4,1.7-1.6c3.9-0.5,7.7-1.1,11.4-1.6c1.4-0.2,2.1-0.7,1.8-1.5c-0.5-1.6-1.2-3.1-1.7-4.8c-0.7-2.6-3.2-4.2-7.3-4.6
			c-0.9,0-2,0.1-2.9,0.2c-4.4,0.6-6.5,2.6-6.9,5.2c-0.4,2.5,0.1,5,0.5,7.6C99.2,125.1,99.7,127.1,100.5,129.1z M104.2,113.8
			c1.1-0.9,2.9-0.9,4.6-0.7c0.3,0,0.9,0.5,0.9,0.8c0.3,1.4,0.5,2.9,0.5,4.4c0,0.4-0.8,0.8-1.4,1c-2.1,0.3-4.4,0.4-6.7,0.6
			C101.4,117.4,102,115.4,104.2,113.8z"/>
		<path class="st5" d="M61.5,130.5c2.8,0.3,6,0.7,7.2-1.1c1.8-2.4,3-5,4.4-7.6c-0.2,0-0.5-0.1-0.7-0.2c1.2-3.8-1.8-7.1-4.4-10.4
			c-0.9-1.1-2.3-2.4-4.7-2.5c-4-0.3-7.8,1.5-8.6,3.9c-1.4,5-0.6,9.9,1.9,14.9C57.2,129,58.9,130.2,61.5,130.5z M61.3,111.9
			c1.6,0.6,2.9,1.7,4.2,2.8c0.5,0.4,0.5,1,0.8,1.4c-0.1,0-0.2,0-0.3,0.1c0.3,2.3,0.5,4.7,0.7,7c0.1,1,0,2,0,3c0,1.1-1,1.6-2.5,1.9
			c-1.4,0.2-2.4-0.4-3.2-1c-2-1.6-2.5-3.6-2.7-5.4c-0.3-2.2-0.1-4.3-0.1-6.5C58,113.4,59.9,111.4,61.3,111.9z"/>
		<path class="st5" d="M39.5,130.1c2.9,0.4,6.1,1,7.6-1.1c1.7-2.3,2.9-4.9,3.7-7.5c1.1-3.7-1.6-7.3-4.7-10.6c-0.9-1-2.9-2.3-4.5-2.5
			c-4-0.3-7.5,0.9-8.6,3.5c-0.5,1.5-0.6,3-1,4.5c0.1,1.7,0.2,3.4,0.6,5.2c0.4,1.8,1.1,3.4,1.9,5.1C35.4,128.4,37,129.8,39.5,130.1z
			 M39.5,111.5c1.5,0.6,2.8,1.7,4.1,2.7c0.6,0.5,0.6,1,0.8,1.5c-0.1,0-0.2,0-0.3,0.1c0.2,2.5,0.5,5.2,0.7,7.8c0,0.8,0,1.6-0.1,2.4
			c-0.1,1-1.1,1.6-2.5,1.7c-1.3,0.3-2.3-0.2-3.1-0.9c-2-1.6-2.6-3.4-2.8-5.2c-0.4-2.4-0.2-4.6-0.1-6.9
			C36.4,113,38.3,111.2,39.5,111.5z"/>
		<path class="st5" d="M15,124c0.1,0.9,0.5,2.1,2.4,2.1c1.9,0,1.5-1.2,1.4-2.1c-0.4-2.7-0.9-5.2-1.4-7.9c-0.4-2.2,1.4-3.7,4.4-4.3
			c1.1,0.8,2.1,1.6,3.3,2.4c0.6,0.4,1.4,0.8,1.9,0.6c0.7-0.1,1.4-0.7,1.5-1.1c0.2-0.8,0-1.6-0.2-2.4c-0.3-1.4-1.9-2.6-4-2.6
			c-1.5-0.1-3.1,0.3-4.6,0.5c-1.5,0.2-3.1,0.6-4.5,1.1c-0.7,0.2-1.4,0.7-1.5,1.1c-0.3,0.5-0.2,1.1-0.1,1.7
			C13.9,116.6,14.4,120.3,15,124z"/>
	</g>
</g>
<g class="st1">
	<path class="st6" d="M317.5,158.1v-13.4h2.9v11.1h5.5v2.4L317.5,158.1L317.5,158.1z"/>
	<path class="st6" d="M328.5,145.1c0-0.9,0.5-1.4,1.5-1.4s1.5,0.5,1.5,1.4c0,0.4-0.1,0.8-0.4,1s-0.6,0.4-1.1,0.4
		C329,146.5,328.5,146.1,328.5,145.1z M331.4,158.1h-2.8v-10.3h2.8V158.1z"/>
	<path class="st6" d="M337.4,158.1l-3.9-10.3h2.9l2,5.9c0.2,0.7,0.4,1.4,0.4,2.1h0.1c0-0.6,0.2-1.3,0.4-2.1l2-5.9h2.9l-3.9,10.3
		H337.4z"/>
	<path class="st6" d="M346.2,145.1c0-0.9,0.5-1.4,1.5-1.4s1.5,0.5,1.5,1.4c0,0.4-0.1,0.8-0.4,1s-0.6,0.4-1.1,0.4
		C346.7,146.5,346.2,146.1,346.2,145.1z M349.1,158.1h-2.8v-10.3h2.8V158.1z"/>
	<path class="st6" d="M362.2,158.1h-2.8v-6c0-0.7-0.1-1.3-0.4-1.7s-0.7-0.6-1.3-0.6c-0.8,0-1.4,0.3-1.7,0.8
		c-0.3,0.5-0.5,1.4-0.5,2.6v4.8h-2.8v-10.3h2.1l0.4,1.3h0.2c0.3-0.5,0.7-0.9,1.3-1.1c0.5-0.3,1.2-0.4,1.9-0.4c1.2,0,2.1,0.3,2.7,1
		c0.6,0.6,0.9,1.6,0.9,2.8L362.2,158.1L362.2,158.1z"/>
	<path class="st6" d="M368,144.6l0.1,0.2c-0.3,1.2-0.8,2.7-1.6,4.4h-2c0.4-1.8,0.7-3.4,0.9-4.6H368z"/>
	<path class="st6" d="M380.3,156c0.5,0,1.1-0.1,1.8-0.3v2.1c-0.7,0.3-1.6,0.5-2.6,0.5c-1.1,0-1.9-0.3-2.5-0.9s-0.8-1.4-0.8-2.6v-5
		h-1.3v-1.2l1.5-0.9l0.8-2.2h1.8v2.2h2.9v2.1H379v5c0,0.4,0.1,0.7,0.3,0.9C379.7,155.9,380,156,380.3,156z"/>
	<path class="st6" d="M394.3,158.1h-2.8v-6c0-1.5-0.6-2.2-1.7-2.2c-0.8,0-1.4,0.3-1.7,0.8c-0.3,0.5-0.5,1.4-0.5,2.6v4.8h-2.8v-14.3
		h2.8v2.9c0,0.2,0,0.8-0.1,1.6l-0.1,0.8h0.1c0.6-1,1.6-1.5,3-1.5c1.2,0,2.1,0.3,2.8,1c0.6,0.7,0.9,1.6,0.9,2.8v6.7H394.3z"/>
	<path class="st6" d="M402.5,158.3c-1.7,0-3-0.5-3.9-1.4s-1.4-2.2-1.4-3.9s0.4-3.1,1.3-4c0.9-0.9,2.1-1.4,3.6-1.4s2.6,0.4,3.4,1.2
		c0.8,0.8,1.2,2,1.2,3.4v1.4h-6.6c0,0.8,0.3,1.4,0.7,1.9c0.4,0.4,1.1,0.7,1.9,0.7c0.6,0,1.2-0.1,1.8-0.2c0.6-0.1,1.1-0.3,1.7-0.6
		v2.2c-0.5,0.2-1,0.4-1.6,0.5C404,158.2,403.3,158.3,402.5,158.3z M402.1,149.6c-0.6,0-1.1,0.2-1.4,0.6c-0.3,0.4-0.5,0.9-0.6,1.6
		h3.9c0-0.7-0.2-1.2-0.5-1.6C403.2,149.8,402.7,149.6,402.1,149.6z"/>
	<path class="st6" d="M426.5,151.2c0,2.2-0.6,3.9-1.9,5.1c-1.3,1.2-3.1,1.8-5.5,1.8h-3.8v-13.4h4.2c2.2,0,3.9,0.6,5.1,1.7
		C425.9,147.5,426.5,149.1,426.5,151.2z M423.6,151.3c0-2.9-1.3-4.3-3.8-4.3h-1.5v8.8h1.2C422.2,155.7,423.6,154.2,423.6,151.3z"/>
	<path class="st6" d="M435.5,147.6c0.4,0,0.7,0,0.9,0.1l-0.2,2.6c-0.2-0.1-0.5-0.1-0.8-0.1c-0.9,0-1.6,0.2-2.1,0.7s-0.8,1.1-0.8,1.9
		v5.2h-2.8v-10.3h2.1l0.4,1.7h0.1c0.3-0.6,0.8-1,1.3-1.4C434.2,147.8,434.8,147.6,435.5,147.6z"/>
	<path class="st6" d="M443.6,158.3c-1.7,0-3-0.5-3.9-1.4s-1.4-2.2-1.4-3.9s0.4-3.1,1.3-4c0.9-0.9,2.1-1.4,3.6-1.4s2.6,0.4,3.4,1.2
		c0.8,0.8,1.2,2,1.2,3.4v1.4h-6.6c0,0.8,0.3,1.4,0.7,1.9c0.4,0.4,1.1,0.7,1.9,0.7c0.6,0,1.2-0.1,1.8-0.2c0.6-0.1,1.1-0.3,1.7-0.6
		v2.2c-0.5,0.2-1,0.4-1.6,0.5C445.1,158.2,444.4,158.3,443.6,158.3z M443.2,149.6c-0.6,0-1.1,0.2-1.4,0.6c-0.3,0.4-0.5,0.9-0.6,1.6
		h3.9c0-0.7-0.2-1.2-0.5-1.6C444.3,149.8,443.8,149.6,443.2,149.6z"/>
	<path class="st6" d="M457.2,158.1l-0.5-1.4h-0.1c-0.5,0.6-1,1-1.5,1.2s-1.2,0.3-2,0.3c-1,0-1.8-0.3-2.3-0.8s-0.9-1.4-0.9-2.4
		c0-1.1,0.4-1.9,1.1-2.4s1.9-0.8,3.5-0.9l1.8-0.1v-0.5c0-1-0.5-1.6-1.6-1.6c-0.8,0-1.8,0.2-2.9,0.7l-0.9-1.9
		c1.2-0.6,2.5-0.9,3.9-0.9s2.4,0.3,3.2,0.9c0.7,0.6,1.1,1.5,1.1,2.7v6.9h-1.9V158.1z M456.4,153.3h-1.1c-0.8,0-1.4,0.2-1.8,0.4
		c-0.4,0.3-0.6,0.7-0.6,1.2c0,0.8,0.5,1.2,1.4,1.2c0.6,0,1.2-0.2,1.6-0.6s0.6-0.9,0.6-1.5v-0.7H456.4z"/>
	<path class="st6" d="M471.9,158.1h-2.8v-6c0-0.7-0.1-1.3-0.4-1.7s-0.6-0.6-1.2-0.6c-0.7,0-1.2,0.3-1.6,0.8
		c-0.3,0.5-0.5,1.4-0.5,2.6v4.8h-2.8v-10.3h2.1l0.4,1.3h0.2c0.3-0.5,0.7-0.8,1.2-1.1c0.5-0.3,1.1-0.4,1.8-0.4c1.5,0,2.6,0.5,3.1,1.5
		h0.2c0.3-0.5,0.7-0.8,1.2-1.1c0.5-0.3,1.1-0.4,1.8-0.4c1.2,0,2,0.3,2.6,0.9c0.6,0.6,0.9,1.6,0.9,2.9v6.7h-2.8v-6
		c0-0.7-0.1-1.3-0.4-1.7s-0.6-0.6-1.2-0.6c-0.7,0-1.2,0.2-1.5,0.7s-0.5,1.3-0.5,2.3v5.4H471.9z"/>
	<path class="st6" d="M481.5,156.8c0-0.5,0.1-0.9,0.4-1.2s0.7-0.4,1.2-0.4s0.9,0.1,1.2,0.4c0.3,0.3,0.4,0.7,0.4,1.2
		s-0.1,0.9-0.4,1.1c-0.3,0.3-0.7,0.4-1.2,0.4s-0.9-0.1-1.2-0.4C481.6,157.6,481.5,157.3,481.5,156.8z"/>
</g>
<g>
	<g>
		<path class="st5" d="M130.4,5.9c1.3,0,2.7,0,4,0.2c1.8,0.3,3.6,0.7,5.4,1.3c2.9,1,5.5,2.4,8,4.2c1.7,1.2,3.1,2.7,4.5,4.2
			c1.5,1.7,2.7,3.6,3.8,5.6c0.6,1.2,1.1,2.4,1.6,3.7c0.5,1.5,0.9,3,1.2,4.6c0.4,2.3,0.5,4.7,0.3,7.1c-0.2,2.2-0.6,4.4-1.3,6.6
			c-0.6,2-1.5,3.9-2.5,5.7c-1.6,2.7-3.5,5.1-5.9,7.2c-2,1.7-4.1,3.2-6.5,4.3c-1.3,0.6-2.6,1.2-4,1.6c-1.4,0.4-2.7,0.8-4.2,1
			c-1.5,0.2-3,0.4-4.6,0.4c-1.3,0-2.7-0.1-4-0.3c-2.2-0.3-4.3-0.9-6.4-1.7c-0.1-0.1-3.3-1.6-4-2c-2.2-1.2-4.2-2.8-6-4.7
			c-2.5-2.5-4.4-5.4-5.9-8.6c-0.8-1.9-1.5-3.9-1.9-5.9c-0.2-1-0.3-1.9-0.4-2.9c-0.2-1.6-0.2-3.3-0.1-4.9c0.1-2,0.6-4,1.3-6
			c0.7-1.8,1.8-3.3,3.2-4.6c0.3-0.2,0.6-0.5,0.8-0.7c0.2-0.1,0.2-0.3,0.2-0.5c0-0.2-0.2-0.3-0.3-0.3c-1.3-0.5-2-1.4-2.4-2.7
			c-0.5-1.5,0.5-3.2,1.9-3.5c0.6-0.2,1.2-0.1,1.7,0.1c0.2,0.1,0.4,0.1,0.5-0.2c0.8-1.1,1.8-1.9,3.1-2.3c0.9-0.2,1.7-0.3,2.6-0.2
			c2.3,0.3,4.3,1.4,6,2.8c1.2,0.9,2.1,2.1,2.5,3.5c0.4,1.3,0.3,2.6-0.3,3.9c-0.2,0.5-0.2,0.5,0.2,0.9c1.5,1.4,1.1,3.6-0.7,4.5
			c-1.3,0.7-3.1,0.4-4.1-0.6c-0.2-0.2-0.3-0.2-0.5-0.1c-0.4,0.2-0.9,0.3-1.3,0.4c-0.2,0.1-0.3,0.2-0.4,0.4c-0.1,0.2,0.1,0.3,0.3,0.4
			c1.5,1.2,3,2.3,4.6,3.3c0.5,0.3,1.1,0.6,1.7,0.8c0.4,0.1,0.9,0.1,1.3,0c1.3-0.2,2.5-0.5,3.8-0.6c2.1-0.1,3.9,0.7,5.3,2.3
			c0.3,0.3,0.6,0.7,0.8,1.1c0.2,0.4,0.3,0.7,0.4,1.1c0.1,1-0.5,1.4-1.3,1.6c-0.6,0.2-1.1-0.1-1.6-0.5c-0.4-0.4-0.8-0.8-1.1-1.3
			c-0.3-0.3-0.5-0.6-0.8-0.9c-0.2-0.2-0.5-0.3-0.8-0.3c-1.1,0.1-2.1,0.5-3.1,0.8c-0.9,0.2-1.7,0.5-2.6,0.7c-0.8,0.1-1.5-0.2-2.2-0.4
			c-2.8-1.1-5.5-2.4-8.3-3.8c-0.1,0-0.2-0.1-0.3-0.1c-0.1-0.1-0.2-0.1-0.3,0.1c-0.1,0.1,0,0.2,0.1,0.3c0.5,0.2,1,0.5,1.5,0.7
			c0.1,0.1,0.2,0.1,0.3,0.2c0.2,0.1,0.3,0.2,0.2,0.4c-0.3,1.2-0.5,2.4-0.6,3.6c0,0.5-0.1,1-0.1,1.5c0,0.1-0.1,0.3,0.1,0.3
			c0.1,0.1,0.2-0.1,0.3-0.2c1-1,2-1.9,3.2-2.7c0.4-0.3,0.9-0.6,1.4-0.8c0.2-0.1,0.3-0.1,0.5,0c1,0.4,2,0.9,3,1.2
			c0.5,0.2,0.9,0.1,1.4,0.1c0.3,0,0.3,0,0.3,0.3c-0.1,1-0.4,1.9-0.8,2.8c-0.6,1.7-1.4,3.2-1.9,4.9c-0.2,0.6-0.3,1.1-0.3,1.7
			c0,1.2,0.5,1.7,1.7,1.7c0.9,0,1.6-0.3,2.3-0.8c0.9-0.6,1.6-1.4,2.3-2.2c0.5-0.5,0.9-1.1,1.5-1.5c0.6-0.4,1.2-0.2,1.5,0.6
			c0.1,0.4,0.1,0.9-0.1,1.3c-0.4,1.1-1.1,2.1-1.9,2.9c-1.2,1.4-2.5,2.7-3.8,4c-0.5,0.5-1,0.9-1.5,1.3c-1,0.7-1.9,0.6-2.6-0.4
			c-0.2-0.3-0.4-0.7-0.7-1.1c-0.3-0.5-0.8-0.7-1.4-0.4c-0.7,0.3-0.9,0.7-0.8,1.3c0.1,0.7,0.5,1.4,1,1.9c1.3,1.5,3,2.4,4.8,3.1
			c1.4,0.5,2.9,0.9,4.4,1.1c0.6,0.1,1.3,0.2,1.9,0.2c0.5,0,1,0.1,1.5,0.1c1.2,0,2.3-0.1,3.5-0.2c4.1-0.5,7.8-2,11.2-4.4
			c2.9-2,5.2-4.6,7-7.6c1-1.7,1.8-3.5,2.4-5.4c0.4-1.3,0.7-2.5,0.8-3.8c0.3-2.2,0.3-4.4,0.1-6.5c-0.1-1.2-0.4-2.4-0.7-3.6
			c-0.8-2.9-2.1-5.5-3.8-7.9c-1.5-2-3.2-3.8-5.2-5.3c-2-1.5-4.3-2.7-6.6-3.6c-1.1-0.4-2.2-0.7-3.4-0.9c-1.7-0.4-3.5-0.5-5.3-0.5
			c-1.5,0-2.9,0.1-4.3,0.4c-0.7,0.2-1.6-0.3-2-1c-0.4-0.7-0.3-1.6,0.2-2.2c0.4-0.4,0.8-0.7,1.4-0.8c0.8-0.1,1.6-0.3,2.4-0.3
			c0.4,0,0.9-0.1,1.3-0.1C129.5,5.9,130,5.9,130.4,5.9z M108.2,19.9c0,0.4,0,0.8,0.1,1.2c0.2,1.2,0.7,2.2,1.5,3
			c1.5,1.6,3.3,2.4,5.5,2.1c1.7-0.2,3.2-0.9,4.3-2.3c0.9-1.2,1.1-2.5,0.4-3.8c-0.8-1.6-2.6-2.2-4.3-1.6c-0.3,0.1-0.4,0.1-0.4-0.3
			c0-0.2-0.1-0.5-0.2-0.7c-0.7-1.6-2-2.3-3.7-2.1c-1.1,0.1-1.9,0.7-2.5,1.6C108.4,17.8,108.1,18.8,108.2,19.9z M105.3,16.9
			c0,0.2,0.1,0.5,0.2,0.8c0.2,0.6,0.5,1.1,1,1.4c0.1,0.1,0.3,0.2,0.5,0.1c0.2-0.1,0.1-0.3,0.1-0.4c0-0.5,0.1-1.1,0.2-1.6
			c0.2-0.7-0.3-1.4-1-1.5c-0.3-0.1-0.6,0.1-0.7,0.4C105.4,16.3,105.3,16.6,105.3,16.9z M120.5,26.8c0.4-0.1,0.7-0.1,1.1-0.3
			c0.4-0.1,0.7-0.4,0.9-0.7c0.1-0.2,0.2-0.5,0-0.7c-0.3-0.6-1.3-0.7-1.8-0.3c-0.5,0.4-1,0.8-1.5,1.2c-0.3,0.2-0.3,0.3,0,0.5
			C119.5,26.7,120,26.7,120.5,26.8z"/>
		<path class="st5" d="M110.7,18.9c0-0.7,0.5-1.3,1.2-1.5c0.3-0.1,0.8,0.2,1,0.5c0.1,0.1,0,0.2-0.1,0.3c-0.5,0.3-0.6,0.7-0.1,1
			c0.1,0.1,0.1,0.2,0,0.3c-0.2,0.4-0.8,0.6-1.2,0.5C111,19.8,110.7,19.4,110.7,18.9z"/>
		<path class="st5" d="M115.8,21.8c0-0.6,0.5-1.3,1.1-1.4c0.4-0.1,0.8,0.1,1,0.4c0.1,0.2,0.1,0.3-0.1,0.4c-0.5,0.2-0.5,0.6-0.1,0.9
			c0.1,0.1,0.1,0.1,0,0.2c-0.2,0.4-0.8,0.6-1.3,0.5C116.1,22.8,115.8,22.3,115.8,21.8z"/>
		<path class="st5" d="M113.6,22.8c-0.2,0-0.4,0-0.4-0.2c0-0.2,0.1-0.3,0.3-0.3c0.2-0.1,0.4-0.2,0.6-0.2c0.1,0,0.3,0.1,0.3,0.2
			c0,0.1-0.1,0.2-0.2,0.3C114.1,22.8,113.9,22.9,113.6,22.8z"/>
		<path class="st5" d="M113,22c0,0.2,0,0.4-0.2,0.4c-0.2,0-0.3-0.1-0.3-0.3c-0.1-0.2-0.2-0.4-0.2-0.6c0-0.1,0.1-0.3,0.2-0.3
			c0.1,0,0.2,0.1,0.3,0.2C112.9,21.6,113,21.8,113,22z"/>
	</g>
	<g>
		<path class="st5" d="M11.5,30.6c-1-1-1.9-1.3-2.8-1.3c-2.8,0-4.6,2.1-4.6,4.8c0,2.9,1.8,5,4.6,5c1.1,0,2.1-0.5,3-1.6l2,1.4
			c-1.2,1.7-3,2.4-5,2.4c-4.1,0-7.1-2.8-7.1-7c0-4.3,2.9-7.1,7.1-7.1c1.8,0,3.4,0.6,4.7,2.1L11.5,30.6z"/>
		<path class="st5" d="M15.3,27.5h4.6c2.6,0,5,0.8,5,3.8c0,1.9-1.1,3.3-3.1,3.6l3.6,5.9h-2.9l-3.1-5.7h-1.7v5.7h-2.4V27.5z
			 M19.5,33.2c1.3,0,2.9-0.1,2.9-1.9c0-1.6-1.5-1.8-2.7-1.8h-2.1v3.6H19.5z"/>
		<path class="st5" d="M33.5,27.2c4.2-0.1,7.1,2.7,7.1,7c0,4.2-2.9,7-7.1,7c-4.1,0-7.1-2.8-7.1-7C26.4,30,29.4,27.2,33.5,27.2z
			 M33.5,39.1c2.8,0,4.6-2.1,4.6-5c0-2.7-1.8-4.8-4.6-4.8c-2.8,0-4.6,2.1-4.6,4.8C28.9,36.9,30.8,39.1,33.5,39.1z"/>
		<path class="st5" d="M49.2,27.2c4.2-0.1,7.1,2.7,7.1,7c0,4.2-2.9,7-7.1,7c-4.1,0-7.1-2.8-7.1-7C42.2,30,45.1,27.2,49.2,27.2z
			 M49.3,39.1c2.8,0,4.6-2.1,4.6-5c0-2.7-1.8-4.8-4.6-4.8c-2.8,0-4.6,2.1-4.6,4.8C44.7,36.9,46.5,39.1,49.3,39.1z"/>
		<path class="st5" d="M58.6,27.5H61v5.7h0.1l5.5-5.7h3.2l-6.3,6.2l6.7,7.2h-3.3l-5.8-6.6H61v6.6h-2.4V27.5z"/>
		<path class="st5" d="M71.6,27.5h8.9v2.2h-6.5v3.3h6.1v2.2h-6.1v3.6h6.8v2.2h-9.2V27.5z"/>
		<path class="st5" d="M83.1,27.5h5.3c3.5,0,6.8,2.2,6.8,6.7c0,4.6-3.9,6.7-7.1,6.7h-5V27.5z M87.3,38.7c3,0,5.4-1.3,5.4-4.5
			s-2.1-4.5-5-4.5h-2.2v9.1H87.3z"/>
	</g>
	<g>
		<path class="st5" d="M168.2,27.5h3.6l3.6,9.4l3.6-9.4h3.6v13.4h-2.3V29.8h0l-4.1,11.1h-1.7l-4.1-11.1h0v11.1h-2.3V27.5z"/>
		<path class="st5" d="M191.9,27.2c4.2-0.1,7.1,2.7,7.1,7c0,4.2-2.9,7-7.1,7c-4.1,0-7.1-2.8-7.1-7C184.9,30,187.8,27.2,191.9,27.2z
			 M192,39.1c2.8,0,4.6-2.1,4.6-5c0-2.7-1.8-4.8-4.6-4.8c-2.8,0-4.6,2.1-4.6,4.8C187.4,36.9,189.2,39.1,192,39.1z"/>
		<path class="st5" d="M201.3,27.5h3.2l6.5,9.9h0v-9.9h2.4v13.4h-3l-6.6-10.3h0v10.3h-2.4V27.5z"/>
		<path class="st5" d="M216.4,27.5h2.4v5.7h0.1l5.5-5.7h3.2l-6.3,6.2l6.7,7.2h-3.3l-5.8-6.6h-0.1v6.6h-2.4V27.5z"/>
		<path class="st5" d="M229.3,27.5h8.9v2.2h-6.5v3.3h6.1v2.2h-6.1v3.6h6.8v2.2h-9.2V27.5z"/>
		<path class="st5" d="M244.1,35.1l-5-7.7h3l3.3,5.3l3.3-5.3h2.8l-5,7.7v5.7h-2.4V35.1z"/>
	</g>
</g>
</svg>
