<?xml version="1.0" encoding="utf-8"?>
<!-- Generator: Adobe Illustrator 20.0.0, SVG Export Plug-In . SVG Version: 6.00 Build 0)  -->
<svg version="1.1" id="Layer_1" xmlns="http://www.w3.org/2000/svg" xmlns:xlink="http://www.w3.org/1999/xlink" x="0px" y="0px"
	 viewBox="0 0 484.8 135.3" style="enable-background:new 0 0 484.8 135.3;" xml:space="preserve">
<style type="text/css">
	.st0{fill:#484545;}
</style>
<g>
	<path class="st0" d="M365.1,68.9c0.3-6.5,0.8-13,1.2-19.5c0.1-1.1-0.1-2.2-0.6-3.3c-0.1-0.4-1-1-1.7-1.2c-2.6-0.5-3.6-0.1-4.8,1.6
		c-2.2,3.1-4.5,6.2-6.7,9.3c-0.1,0.2-0.5,0.4-1,0.9c-0.8-1.8-1.7-3.4-2.3-4.9c-0.5-1.2-0.6-2.5-0.8-3.8c-0.1-0.8-0.5-1.4-1.5-2.1
		c-0.9-0.6-1.7-1.2-2.8-0.7c-0.6,0.2-0.9,1.1-0.9,1.7c-0.1,6.1-0.1,12.2-1.5,18.3c-0.6,2.7-0.7,5.3-0.9,8c-0.1,1.2,1,1.8,2.3,1.4
		c0.7-0.2,1.3-1,1.4-1.5c0.5-3.1,0.6-6.2,1-9.4c0.3-2.6,0.8-5.2,1.2-7.9c1.3,2,2.4,3.9,3.2,5.9c0.6,1.4,2.2,0.9,3.3,0.9
		c0.6,0,1.5-0.7,1.7-1.1c1.3-2.1,2.4-4.2,3.6-6.3c0.2,0,0.5,0,0.7,0.1c0,1.4,0.1,2.7,0.1,4.1c-0.1,4.2-0.1,8.5-0.5,12.6
		c-0.2,2,2.9,2.5,3.7,3.9c0,0.1,0.6,0.1,0.9,0.1c1.7,0,2.5-0.7,2.4-2.1C365.5,72.3,365,70.6,365.1,68.9z"/>
	<path class="st0" d="M461.3,92.8c4.1,0.3,6.1-0.8,7.1-3.4c3.1-7.9,6.3-15.8,9.6-23.7c0.7-1.7,1.4-3.4,2.1-5.1
		c0.7-1.7-2.3-1.2-3.2-1.9c-0.3-0.2-1.5-0.1-2.3,0.1c-0.3,0.1-0.5,0.5-0.6,0.9c-0.3,0.9-0.7,1.7-0.9,2.6c-1,3.2-2,6.4-3,9.5
		c-0.2,0-0.5,0-0.8,0c-0.2-0.4-0.5-0.7-0.7-1.1c-1.6-2.8-3.2-5.6-4.8-8.4c-0.3-0.6-0.8-1.2-1.4-1.6c-0.3-0.3-1.2-0.4-1.8-0.4
		c-0.2,0-0.7,0.6-0.7,0.9c0.2,0.9,0.6,1.7,1,2.5c2.2,4.3,4.4,8.5,6.4,12.7c0.3,0.6,0.1,1.4-0.1,2c-0.8,2.1-2,4.1-2.8,6.2
		c-0.8,2-1.8,3.8-5.4,4.6c-0.6,0.1-1.4,0.4-1.6,0.8s-0.5,1.3,0,1.5C458.6,92.1,460,92.7,461.3,92.8z"/>
	<path class="st0" d="M417.4,68.3c0-0.8,0.3-1.5,2.1-1.7c0.5,0.4,0.9,0.9,1.4,1.4c2.6,3.2,5.3,6.4,7.9,9.6c0.9,1.1,2.4,1.6,3.5,1.2
		c1.5-0.7,0.8-1.5,0.1-2.2c-3-3.8-6-7.6-9.1-11.3c-0.8-0.9-0.7-1.6,0.6-2.3c3.2-2,6.2-4,9.4-6c1-0.7,1-1.3,0.2-2s-1.8-0.4-2.6,0
		c-2,1.1-3.9,2.2-5.6,3.3c-2.4,1.6-4.6,3.3-6.9,4.8c-0.1-0.1-0.2-0.1-0.3-0.1c0-0.6,0-1.1,0.1-1.7c0.2-5.3,0.6-10.6,0.9-15.9
		c0-0.9-0.5-1.4-1.7-1.5c-1.5-0.1-1.5,0.8-1.7,1.4c0,0.1,0,0.2,0,0.4c-0.3,5.1-0.5,10.1-0.9,15.2c-0.3,4.7-0.9,9.5-1.4,14.2
		c-0.1,0.9-0.1,1.9,0.1,2.7c0.2,0.9,1.8,1.1,2.8,0.4c0.5-0.3,0.7-0.8,0.7-1.2C416.9,74.1,417.2,71.2,417.4,68.3z"/>
	<path class="st0" d="M450.4,58.1c-3.2-0.7-6.2-0.5-8.6,0.8c-3.2,1.7-4.9,3.9-4.9,6.6c0,0.9-0.2,1.7-0.2,2.7c0,2.7-0.1,5.3,0.1,8
		c0.2,1.7,2.6,3.1,4.8,3.3c1.4,0,2.8,0.1,4.3,0.1c6,0,8.4-3,8.9-5.8c0.1-0.4-0.8-0.9-1.3-1.4c-0.7,0.3-1.5,0.5-2,0.9
		c-0.6,0.4-0.8,1.1-1.3,1.6c-1.3,1.7-4.7,2.6-7.5,1.9c-0.8-0.2-1.6-0.7-1.8-1.2c-0.5-1.3-0.7-2.6-0.9-3.9c-0.1-0.9,0.6-1.4,2.1-1.5
		c3.9-0.4,7.9-0.9,11.9-1.4c1.6-0.1,2.3-0.7,2.1-1.7c-0.3-1.7-0.6-3.5-0.9-5.3C454.7,59.9,453.3,58.7,450.4,58.1z M447.6,66.5
		c-2.3,0.2-4.6,0.4-7.1,0.5c-0.2-2.3,0.7-4.1,3-5.6c1.4-0.9,3.1-1,4.9-0.8c0.3,0.1,0.8,0.6,0.8,0.9c0,1.4-0.1,2.8-0.3,4.2
		C448.9,65.9,448.1,66.5,447.6,66.5z"/>
	<path class="st0" d="M395.8,69c0-3,0.6-5.9,2.5-8.7c0.8-1.2,2.4-1.7,4.5-1.5c-0.1,4.8-0.1,9.6-0.2,14.4c0,0.9,0.2,1.7,1.7,1.7
		c4.9,0.2,5.3,0.5,6-2.7c0-0.2,0-0.4,0-0.6c0-2.8,0.2-5.6-0.1-8.4c-0.1-1.6-0.8-3.2-1.6-4.6c-1.4-2.2-4.1-3.2-7.8-2.5
		c-2,0.4-3.7,1.2-5.5,1.7c-0.6-0.1-1.6-0.6-2.2-0.4c-0.6,0.1-0.8,0.9-1.2,1.4c-0.1,0.1,0,0.3,0,0.5c0.9,4.7,0.7,9.5,0.1,14.2
		c-0.1,0.8,0.1,1.6,1.7,1.7c1.8,0.1,2-0.9,2-1.7C395.8,71.9,395.8,70.5,395.8,69z"/>
	<path class="st0" d="M385.2,57.3c-0.7-1.1-1.8-2.4-4.1-2.6c-4.1-0.3-8.2,1.4-9.4,3.9c-2.4,4.8-2.5,9.7-1,14.7c0.5,1.5,2,2.7,4.4,3
		c2.6,0.4,5.8,0.9,7.5-1c2.3-2.5,4-5.1,6-7.6c-0.2-0.1-0.5-0.1-0.7-0.1C389.5,63.9,387.1,60.6,385.2,57.3z M377.9,73.9
		c-1.6,0.2-2.5-0.4-3.2-1.2c-1.6-1.7-1.7-3.6-1.6-5.5c0-1.4,0.5-2.9,0.7-4.3c-0.1-0.1-0.2-0.1-0.3-0.1c0.9-1.4,1.5-2.9,2.8-4
		c1.5-1.4,2.6-1.2,4.3,0.1c1.5,1.3,2.2,2.5,1.5,4.3c-0.7,1.8-0.3,3.8-0.5,5.6c-0.1,1-0.5,2.1-0.6,3.1
		C380.6,73,379.4,73.6,377.9,73.9z"/>
</g>
<g>
	<path class="st0" d="M140,71.7c2.2,1.6,4.8,1.7,7.4,0.3c0.8-0.4,1.5-0.9,2.8-1.6c0.8,1.7,1.4,3,2.2,4.3c0.2,0.4,0.9,0.9,1.5,1
		c0.9,0.1,2.1,0,2.3-0.9c0.1-0.7,0.6-1.5,0.5-2.2c-0.9-5-1.7-10-3-15c-1.5-5.7-3.5-11.3-5.2-17c-0.3-0.9-1.6-1.3-3.5-1.2
		c-1.6,0.1-1.7,0.8-1.5,1.6c0.1,0.7,0.3,1.4,0.6,2c0.9,3.6,1.7,7.2,2.6,11c-1.7,0.1-3,0.2-4.4,0.4c-3.3,0.4-6,1.7-7.1,3.5
		c-2,3.3-1.5,6.7,0.3,10C136.2,69.4,138.2,70.5,140,71.7z M138,60.4c0.5-1.7,2.1-3,5.1-3.3c2.2-0.3,3.5,0.1,3.9,1.5
		c0.7,2,1.2,3.9,1.6,5.9c-0.1,0-0.3,0-0.5,0c0.6,2.1-0.8,3.7-3.1,5.1c-0.9,0.5-1.6,0.5-2.4,0C138,67,137.1,63.8,138,60.4z"/>
	<path class="st0" d="M-0.1,75.2c-0.2,4.3,1.7,8.3,5.5,11.9c0.8,0.7,2.1,1.7,3.2,1.7c2.5,0.1,5.2-0.1,7.6-0.6c1.8-0.4,3.9-1,5.2-2
		c2.5-2,2.6-4.3,2-6.8c-0.1-0.4-0.9-0.9-1.5-0.9c-0.7,0-1.6,0.3-2,0.7c-0.3,0.3-0.1,0.9-0.2,1.3c-0.2,0.9-0.1,2-0.7,2.8
		c-1.3,1.9-4.1,2.2-6.8,2.7c-1.6,0.2-2.9-0.2-3.5-1.4C6.6,80,4.9,75.4,5,70.6c-0.1-1.4-0.3-2.7-0.2-4C5,64,6.1,61.5,8.7,59.3
		c1.4-1.2,3.5-1.4,5.5-1.2c1.8,0.2,3.3,0.9,3.8,2.2c0.3,0.9,0.7,1.8,1.4,2.6c0.3,0.4,1.5,0.6,2.2,0.9c0.2-0.4,0.8-0.9,0.7-1.3
		c-0.6-1.6-1.2-3.2-2.1-4.8c-0.8-1.5-3.2-2.4-5.6-2.4C10,55.2,6.2,56,4,58.8c-0.1,0.2-0.6,0.4-0.7,0.6c-1.2,2.2-2.9,4.5-3.3,6.9
		C-0.5,69.5,0.2,72.4-0.1,75.2z"/>
	<path class="st0" d="M87.6,57.9c1.3,5.5,2.4,11,3.6,16.5c0.3,1.7,0.6,3.4,1,5.1c0.2,0.7,0.7,1.5,2.3,1.2c1.4-0.3,1.6-0.9,1.4-1.7
		c-0.7-2.9-1.4-5.8-2.1-8.7c-0.2-0.9-0.1-1.5,1.5-1.9c0.6,0.4,1.2,0.8,1.7,1.2c3.6,2.8,7.1,5.6,10.7,8.5c1.3,0.9,2.9,1.3,3.8,0.7
		c1.3-0.8,0.2-1.5-0.6-2.2c-3.9-3.2-7.8-6.4-11.7-9.5c-2-1.6-2.4-1.2-0.2-3.3c2.3-2.2,4.5-4.3,6.8-6.5c0.8-0.7,0.6-1.4-0.3-2
		c-1-0.6-2-0.2-2.6,0.3c-1.2,0.8-2.3,1.5-3.1,2.4c-2.1,2.2-4,4.4-6,6.6c-0.2,0.2-0.5,0.4-0.9,0.8c-0.1-0.4-0.2-0.5-0.2-0.7
		c-1.4-5.4-2.8-10.8-4.3-16.3c-0.2-0.9-0.3-2.1-2.4-1.9c-1.8,0.2-1.3,1.3-1,2.1C85.6,51.7,86.8,54.8,87.6,57.9z"/>
	<path class="st0" d="M115.3,75.8c0.7,1.4,2.5,2.4,4.9,2.5c1.7,0.1,3.6-0.2,5.3-0.5c4.6-0.7,7.7-4,6.4-6.8c-0.2-0.4-1-0.9-1.7-1.1
		c-0.3-0.1-1.3,0.5-1.6,0.9c-0.5,0.6-0.6,1.2-0.8,1.9c-0.8,1.9-3.6,3.1-6.7,2.7c-0.8-0.1-1.8-0.5-2.2-0.9c-0.9-1.2-1.5-2.5-2.2-3.7
		c-0.5-0.9,0-1.4,1.5-1.8c3.8-0.9,7.5-1.9,11.2-2.8c1.4-0.4,2-0.9,1.6-1.7c-0.7-1.5-1.5-3-2.2-4.6c-1-2.5-3.6-3.8-7.7-3.8
		c-0.9,0.1-2,0.3-2.9,0.5c-4.3,1.1-6.2,3.3-6.3,5.9c-0.1,2.5,0.6,5,1.3,7.5C113.6,71.9,114.3,73.9,115.3,75.8z M117.4,60.2
		c1-1,2.8-1.2,4.5-1.2c0.3,0,0.9,0.4,1,0.7c0.5,1.4,0.8,2.8,1,4.3c0,0.4-0.7,0.9-1.3,1.1c-2.1,0.5-4.3,0.9-6.6,1.3
		C115,64,115.4,62,117.4,60.2z"/>
	<path class="st0" d="M76.7,81.3c2.8,0,6,0.1,7-1.9c1.5-2.6,2.4-5.3,3.6-8c-0.2,0-0.5,0-0.7-0.1c0.8-3.9-2.5-6.9-5.5-9.9
		c-1-1-2.5-2.1-4.9-2c-4,0.1-7.6,2.3-8.1,4.8c-0.9,5.1,0.5,9.9,3.5,14.6C72.3,80.3,74.1,81.3,76.7,81.3z M74.5,62.8
		c1.7,0.4,3.1,1.4,4.5,2.3c0.5,0.3,0.6,0.9,0.9,1.3c-0.1,0-0.2,0-0.3,0.1c0.5,2.3,1,4.6,1.4,6.9c0.2,1,0.2,2,0.3,3
		c0.1,1.1-0.8,1.7-2.3,2.2c-1.4,0.4-2.4-0.1-3.3-0.7c-2.2-1.4-2.9-3.3-3.3-5.1c-0.5-2.2-0.6-4.3-0.8-6.5
		C71.4,64.7,73.1,62.5,74.5,62.8z"/>
	<path class="st0" d="M54.8,83.3c2.9,0.1,6.2,0.3,7.4-1.9c1.4-2.5,2.4-5.2,2.9-7.9c0.7-3.8-2.4-7.1-5.8-10c-1-0.9-3.1-2-4.7-2
		c-4,0.1-7.4,1.7-8.2,4.4c-0.3,1.5-0.3,3-0.5,4.6c0.3,1.7,0.6,3.4,1.2,5.1c0.6,1.7,1.5,3.3,2.4,4.9C50.5,82,52.3,83.2,54.8,83.3z
		 M52.8,64.8c1.6,0.4,3,1.4,4.4,2.2c0.6,0.4,0.7,0.9,1,1.4c-0.1,0-0.2,0-0.3,0.1c0.5,2.5,1,5.1,1.5,7.7c0.1,0.8,0.2,1.6,0.2,2.4
		c0,1-0.9,1.7-2.3,2C56,81,55,80.6,54.1,80c-2.2-1.4-2.9-3.1-3.3-4.9c-0.6-2.3-0.7-4.6-0.8-6.9C49.9,66.6,51.6,64.6,52.8,64.8z"/>
	<path class="st0" d="M29.8,79.8c0.2,0.9,0.7,2,2.6,1.8c1.9-0.2,1.4-1.4,1.2-2.2c-0.7-2.6-1.5-5.1-2.2-7.7c-0.6-2.1,1-3.8,3.9-4.7
		c1.2,0.7,2.3,1.4,3.5,2c0.6,0.3,1.5,0.6,2,0.4c0.7-0.2,1.3-0.8,1.4-1.3c0.1-0.8-0.2-1.6-0.5-2.4c-0.5-1.4-2.2-2.4-4.3-2.2
		c-1.5,0.1-3.1,0.6-4.5,1c-1.5,0.4-3,0.9-4.4,1.6c-0.7,0.3-1.3,0.8-1.4,1.3c-0.2,0.5-0.1,1.1,0.1,1.7C27.9,72.6,28.8,76.2,29.8,79.8
		z"/>
</g>
<g>
	<path class="st0" d="M299,6.9c-9.7-0.9-18.1,0.7-25.2,4.9c-2.6,1.6-4.8,3.4-7.2,5.2c-0.7-0.6-1.3-1.2-2.1-1.8
		c-2.6-2-7.2-2.6-10.5-1.8c-5.1,1.2-7.8,5.3-6.3,8.9c0.7,1.7,0,2.9-1.4,4.1c-0.8,0.7-1.6,1.4-2.3,2.2c-0.9,1.1-0.7,2.7,0.7,3
		c3.7,0.8,4.4,2.5,4.5,4.6c0.1,1.4,1.3,2.7,2,4c0.3,0.6,0.3,1-0.8,1.4c-2.3,0.7-3.7,2-3.2,3.5c0.6,2,1.8,4,2.8,5.9
		c0.5,0.9,1.5,0.9,2.4,0.4c1.5-0.9,2.9-2,4.1-3c0.7-0.5,1.3-1.2,2-1.7c1.4,1.2,1.3,2.1-0.2,3.4c-2.6,2.2-6.3,3.4-10.5,4.1
		c-6.6,1.2-11.3,3.6-13.8,7.7c-1.8,2.9-1.7,5.6,1.6,8.2c0.7,0.5,1.2,1.1,2.1,2c-1.3-0.2-2.3-0.1-2.9-0.4c-1.7-1-3.1-2.2-4.8-3.4
		c-2.2,0.2-4.6,0.6-7.1,0.6c-7,0.1-12.3,2-15.5,6c-2,2.5-5.5,4-9.3,5.2c-3.7,1.2-3.7,1.2-2.5,3.6c0.3,0.7,0.2,1.2-1.2,1.4
		c-0.3-0.5-0.8-1-1.2-1.5c-1.7-2.2-3.1-4.6-5.2-6.6c-1.4-1.4-3.7-2.5-5.9-3.3c-2.6-1-5.3,0.2-5.3,2.2c0.1,2.2,2,3.8,4.9,5
		c-1.5,0.5-2.8,0.2-3.9-0.4c-2.1-1.1-2.6-2.5-2.4-4.1c0.1-0.8-0.3-0.9-1.4-1c-2.9-0.1-4.8,0.7-5.6,2.2c-1,1.8-0.3,2.9,2.3,4
		c1,0.4,2.3,0.7,3.5,1c1.3,0.3,2.6,0.6,4.1,0.9c-4.6,1.8-9.9-0.1-12.2-4.1c-3.1,0.2-5.3,2.5-5.2,4.5c0.2,2.2,2.6,4,5.9,4.3
		c0.6,0.1,1.4,0.1,1.5,0.4c1.5,1.7,4,2.1,6.6,2.6c4.1,0.9,6.7,2.7,7.2,5.4c0.2,0.9,0.5,1.7,0.9,2.5s1,1.7,2,2.2
		c3.7,1.9,10.8,0.9,13.3-1.6c0.8-0.8,1.5-1.7,2.4-2.5c1-0.9,2.4-1.3,4.1-0.7c0.8,0.3,1.7,0.5,2.6,0.6c0.9,0.1,2.2,0.1,2.9-0.2
		c1.6-0.8,2.6-2,2.4-3.3c-0.2-1.4-1.6-2.4-3.8-2.9c-2.6-0.7-5.3-0.5-7.7,0.4c-0.7,0.2-1.4,0.4-2.1,0.5c-0.1-0.1-0.3-0.3-0.5-0.5
		c0.9-0.4,1.7-1.1,2.9-1.3c1.3-0.3,2.8-0.3,4.1-0.2c1.7,0.1,2.5-0.1,3.5-1.1c4.1-4.8,10.1-8.5,18.4-10.3c6.2-1.4,12.3-1.5,17.7,1.6
		c0.8,0.5,1,0.9,0.6,1.4c-1.6,1.7-3.1,3.4-4.8,5c-0.7,0.7-1.6,1.2-2.5,1.8c3.3,0.9,6.2-0.4,9.2-0.4c-2.1,3.9-3.8,5.4-6.4,5.7
		c0.9-1.2,1.7-2.4,2.6-3.5c-2.9-0.6-6.3,0.1-8.2-2.1c0.9-0.3,1.7-0.4,2.2-0.7c0.5-0.3,0.8-0.9,0.6-1.1c-2.1-1.4-5.2-1.7-7.7-0.5
		c-1.8,0.9-3.5,1.9-5.1,2.9c-1.4,0.9-2.8,0.9-4.5,0.3c-2-0.7-3.2-0.4-4.1,0.9c-1.5,2.4,2.4,5.3,6.4,4.9c2.1-0.1,2.4,0.1,1.8,1.3
		c-0.8,1.9-1.6,3.7-2.4,5.6c-0.8,1.7-0.5,3.1,1.7,4.3c3,1.7,6.4,2.4,10.2,2.7c2.3,0.1,4.1-0.7,4.3-2.2c0.1-1.7-1.5-2.5-3.8-3
		c2-0.7,3.9-0.3,5.3,0.9c2,1.6,1.7,3-0.6,4.5c2.1,0.8,6.1,0.9,7.1-0.1c3.1-2.7-1-3.9-3.6-5.5c2.1-0.2,3.5,0.1,4.7,0.9
		c2.6,1.6,2.2,3.5,0.8,5.5c2.5-0.3,2.9-1.4,3.6-2.5c0.7-0.9-0.7-1.1-1.3-1.5c-1.4-1.1-2.9-2.2-4-3.3c-1.8-1.8-2.5-3.8-1.7-5.9
		c0.2-0.5,0.9-1.1,1.6-1.2c5.2-0.8,8.6-2.8,11-5.7c1.7-2.1,3.5-4.2,5.3-6.3c2.1-2.2,4.7-4,9.1-4.9c0,0.5,0.2,0.9,0,1.3
		c-0.8,1.2-1.5,2.3-2.5,3.3c-1.5,1.4-3.3,2.5-5.1,3.8c-0.8,0.7-1.5,1.3-2.1,2c-1.7,2-1.2,4,1.4,5.6c2,1.2,4.1,2.4,4.5,4.3
		c0.2,1.3-0.2,2.5-2,3.2s-3.7,0.7-5.4,0.1c-1.8-0.7-2.8-1.7-2.5-3c0.1-0.4,0.2-0.9,0.3-1.3c0.3-1-0.9-2.3-2.2-2.5
		c-3.3-0.4-6,1.2-5.2,3.3c1,3,3.7,5.4,8.6,6.5c5.2,1.2,9.9,0.1,12.7-3c1.7-2,2.2-4.9-2.9-7.2c-2.6-1.2-3-2.7-1.5-4.6
		c0.6-0.7,1.4-1.4,2.2-2.1c2.2-1.7,4.5-3.3,6.7-5c2.5-2,3.8-4.3,2.2-6.9c-0.1-0.2,0.3-0.7,0.7-0.9c1.8-1.4,4-2.7,5.6-4.3
		c2-2,3.3-4,4.9-6.1c1.6-2,3.6-3.7,7-5.1c0.6,1.2,1.4,2.4,1.6,3.5c0.6,3.2,0.7,6.4,1.3,9.5c0.6,3,0.7,6-0.8,8.9
		c-1.6,3-3.1,6.1-4.7,9.3c3.2-1.3,6.4-2.5,9.8-3.8c0.6,1.2,1,2.3,1.6,3.4c1-0.4,1.8-0.7,2.6-1c0.2,0.1,0.3,0.3,0.6,0.5
		c-1.3,0.9-2.5,1.9-3.8,2.8c-0.3-0.1-0.7-0.3-0.9-0.5c-0.1-0.3-0.2-0.6-0.2-0.9c0-0.4,0-0.7-0.1-1.1c-0.2-1.2-0.8-1.4-2.4-0.8
		c-1.8,0.8-3.7,1.7-5.2,2.7c-1.2,0.7-2,1.7-2.9,2.5c-0.6-0.2-1.2-0.4-1.6-0.5c-2.4-0.6-5.1,0.3-5.9,2c-0.7,1.4,0.8,2.7,3.5,3
		c1.3,0.1,2.6-0.1,3.8-0.4c1.5-0.4,2.9-1,4.4-1.5c0.7-0.2,1.4-0.2,2.2-0.4c-1,1.2-2.3,2-3.5,2.9c-2,1.6-4,3.2-1.6,5.3
		c0.2,0.1,0.1,0.7,0,0.7c-0.3,0.1-0.9,0.1-1.4,0c-2-0.4-3.9-1-5.9-1.4c-1.2-0.2-2.4,0.1-3.8,0.1c0-0.9,0.1-1.9,0-2.7
		c-0.2-1.6-1.8-2.6-4.3-2.7c-1.5-0.1-3,0.8-3.5,2.3c-1,2.7-0.2,5.3,2.1,7.7c0.3,0.4,1.3,0.7,2,0.7c4.9,0.1,10,0.1,15,0
		c2.6-0.1,5.2-1,6.2-2.7c2-3.2,3.6-6.4,5.3-9.7c3.3-6.6,6.7-13.3,9.9-19.9c0.5-1,0.8-2,0.8-3c0-5.6-0.2-11.3-0.2-17
		c0-3.1,0.3-6.3,0.3-9.4c0-1.5-0.3-3.1-1-4.6c-0.7-1.7-2.5-2.5-5.3-2.5c-4.8,0-8.7,1.8-10,5.2c-0.8,2-0.8,4.2-1.2,6.3
		c-1.2-0.5-2.5-1.2-4.4-2c0.9-1.6,1.7-3.4,3.2-5.1c1-1.2,2.6-2.3,4.4-3.1c3.1-1.4,3.2-1.4,1.5-3.5c-0.5-0.7-0.7-1.3,0.8-2
		c0.5,0.6,1,1.2,1.3,1.7c0.6,1.2,1.7,1.4,3.5,1.3c2.6-0.3,4.5-1.7,3.9-3.8c-0.5-1.8,0.9-2.7,2.9-3.5c1.5-0.7,3-1.4,4.3-2.2
		c2.2-1.4,2.8-3.9,1.4-5.2c-2-1.9-4.7-2.4-8.4-1.5c-1.2,0.2-2.2,0.5-3.3,0.7c0.2-1.7,0.5-3.2,0.5-4.8c-0.1-3-2.1-5.8-4.6-8.3
		c-0.9-0.9-0.6-1.5,0.6-2.2c0.7-0.4,1.4-0.8,2.2-1.2c-0.1-0.1-0.2-0.3-0.3-0.4c-1.8,0.3-3.7,0.5-5.5,0.8c-0.6-1.7-1.2-3.5-1.7-5.3
		c-0.2,0-0.5,0-0.8,0c-0.1,0.9-0.2,1.7-0.3,2.5C301.8,6.6,300.7,7.1,299,6.9z M246.4,66.3c-0.6-0.4-0.3-1.4,0.1-2
		c0.5-0.8,1.5-1.4,2.3-2.3c0.5,0.3,0.8,0.5,1.2,0.7c-1.8,1.2-1.6,1.2,0.1,2.2c0.8,0.4,0.6,1.5,0.8,2.3
		C248.7,67.9,247.4,67,246.4,66.3z M281.8,15.3c3.1-0.7,5.2-0.1,6.3,2c-3.1,0.7-6.3,1.4-9.6,2.1C277.4,17.7,278.9,16,281.8,15.3z
		 M278.3,21.3c1.5-0.6,3.1-1.1,4.6-1.6c0,0.1,0,0.3,0,0.4c0.7,0.4,1.5,0.9,2.2,1.3c0.8-0.8,1.6-1.6,2.5-2.6c0.1,0.1,0.7,0.3,0.7,0.6
		c0.5,1.5-0.6,2.8-1.8,4c-0.2,0.2-1.3,0.4-1.7,0.2c-2.1-0.4-4.1-0.9-6.2-1.3C277.3,22.2,277.4,21.7,278.3,21.3z M258.3,22.1
		c-0.5,1.2-0.9,1.2-2.4,0.6c-0.5-0.1-0.8-0.4-1.3-0.5c-0.3-0.1-0.8-0.1-1.6-0.1c0.6-0.4,0.8-0.7,1.3-0.9c1.8-0.4,1.3-1,0.6-1.7
		c-0.6-0.6-1.2-1.2-2.1-2C256.4,18.1,259,20.4,258.3,22.1z M268.4,75.5c-1.4,2.7-7.8,5-12.9,4.3c2.5-0.7,4.6-1.4,6.7-2
		c2.1-0.7,3.8-1.4,4.9-2.7c0.1-0.2,0.8-0.2,1.2-0.4C268.2,74.9,268.5,75.2,268.4,75.5z M297.9,44.7c-3.2,2.5-7.8,3.5-12.7,4
		c-6.2,0.7-12.3,0.6-18.4-0.6c-7.6-1.5-12-5.1-14.6-9.6c-0.8-1.4-1-3-1.6-4.6c0.2-4.7,3.5-7.2,11.5-9c8.4-1.9,16.6-1.3,24.6,0.7
		c2.9,0.7,5.6,1.7,8.4,2.5c4.5,1.5,6.4,4,7,7C303,38.7,301.5,41.9,297.9,44.7z M294.1,22.4c0.3,1.2,2,1.5,3.8,0.7
		c0.3,0.4,0.7,0.9,1,1.2c0.8,1.2,0.2,2.1-2,2.3c-2.9,0.4-5.2-0.4-7.2-1.6c-0.2-0.1-0.3-0.4-0.2-0.7c0.6-1.3,1.2-2.5,2-3.8
		c0.2-0.3,0.9-0.7,1.5-0.7c0.6-0.1,1.5,0,2,0.2c0.2,0.1,0,0.7-0.1,1.1C294.6,21.6,294,22.1,294.1,22.4z M295,18.1
		c0.1-0.1,0.2-0.2,0.3-0.4c1,0,2-0.1,3,0c2.1,0.2,2.8,0.8,2.8,2.2c0,0.6,0,1.2-0.1,1.7c0,0.4-0.2,0.7-0.3,1.3
		C298.6,21.2,296.9,19.7,295,18.1z M319.7,27.5c-2.5,1.4-6.2,1.2-7.9,3c1,0.4,2.1,0.8,3.2,1.2c-2.5,0.3-4.6,0.5-6.7,0.7
		C307.4,30.1,314,27,319.7,27.5z M307.5,13c1.2,0.5,2,1.3,3,2c-0.1,0.1-0.3,0.2-0.5,0.3c-1.2-0.4-2.3-0.9-3.6-1.2
		c-2.3-0.7-4.6-1.2-7.1-0.9c-1.7,0.1-3.1,0.5-4.3,1.4c-0.5,0.4-1.3,0.6-2.4,1.2c0.9-4-3.9-5.3-7.9-7.2c4.9-0.3,7,0.7,9.4,4.2
		C298.6,11.6,303.2,11.4,307.5,13z"/>
	<path class="st0" d="M219.9,35.4c-2.3,1.6-2.3,1.6-2.8,3.8c-0.1,0.3-0.3,0.6-0.7,0.8c-1.5,1.1-1.8,2.4-1,3.6
		c2.2,3.6,6,6.4,11.5,8.2c1.7,0.5,2.9,1.1,3.5,2.2c0.5,0.7,0.9,1.5,1.3,2.2c0.6,1.1,1,2.2,1.8,3.6c2.4-3.8,7.1-5.1,12.3-6.3
		c-0.1-0.1-0.1-0.2-0.2-0.3c-1.5,0-3,0-4.5,0c-0.2-1.9-0.2-3.5,1.6-5.1c4.4-3.8,3.2-7.9,1.6-12c-0.2-0.5-1.3-1-2.1-1.2
		c-1-0.2-2.3-0.1-3.3,0c-2.6,0.3-2.8,0.2-2.9-1.4c-0.1-2.5-0.1-5.1-0.6-7.7c-0.3-1.8-1-3.6-2-5.3c-0.7-1.3-3.2-2-4.9-1.8
		c-1.8,0.2-3.5,1.2-3.6,2.7c-0.2,2.1-0.1,4.1,0.2,6.2c0.2,1.7,0.8,3.5,1.3,5.3c-0.6-0.1-0.9-0.4-1.2-0.7c-1.8-2.3-3.6-4.6-5.5-6.9
		c-1.2-1.3-2.3-2.5-3.8-3.7c-1-0.8-2.8-0.9-4-0.4c-0.8,0.4-1.3,1.3-1.4,2c-0.1,0.6,0.2,1.2,0.6,1.9
		C212.8,28.9,215.8,32.3,219.9,35.4z M228.3,47.5c1.2-1.3,0.1-2.2-1.3-2.9c-2.2-1.2-4.4-2.3-6.6-3.5c-0.3-0.2-1.3-0.1-1.7,0
		c-0.6,0.2-0.9,0.7-1.4,0.9c-0.1-0.1-0.2-0.1-0.3-0.1c0.6-0.5,1.2-1,1.8-1.4c0.3-0.2,1.4-0.2,1.7,0c2.6,1.3,5.2,2.7,7.7,4.1
		C229.9,45.5,230,46.7,228.3,47.5z M221.6,36.2c0.3-0.1,1.5,0.5,2.2,0.9c1.7,0.9,3.3,1.8,4.9,2.7c3-1.2,5.8-2.2,8.5-3.3
		c1.2-0.4,2.3-0.8,3.9-0.2c-4,0.4-6.7,2-9.8,3.1c-1.6,0.5-2.8,1.4-1.7,2.9c-0.2,0-0.5,0-0.7,0c-0.2-0.4-0.9-0.9-0.8-1.2
		c0.6-0.9-0.5-1.2-1.4-1.7c-1.3-0.6-2.4-1.2-3.5-1.9c-1.6-1.1-1.8-1.1-3.2,0.1c-0.1,0.1-0.3,0.2-0.5,0.4c0,0-0.1,0-0.8,0
		C219.9,37.2,220.7,36.5,221.6,36.2z"/>
	<path class="st0" d="M294.4,100.3c-0.1-0.1-0.2-0.2-0.5-0.4c-1.2,0.3-2.3,0.6-3.3,0.9c0,0.1-0.1,0.3-0.1,0.4
		c0.6,0.3,1.2,0.6,1.8,0.9C293,101.5,293.7,100.9,294.4,100.3z"/>
	<path class="st0" d="M293.2,40.9c-0.1,0.2-0.6,0.5-0.5,0.7c0.5,0.8-0.3,1.2-1.3,1.3c-3.9,0.8-7.7,2-11.7,2.2
		c-7.2,0.5-11.5-0.8-14.4-5c-1-1.4-1.7-3-2.6-4.5c-0.6-0.9-0.6-1.5,0.7-2.1c0.5-0.2,0.8-0.7,1.3-1.1c-3.2-0.1-5.6,0.9-6.6,2.9
		c1-0.2,1.8-0.4,2.8-0.7c1.2,2,2,3.9,3.2,5.7c2.8,3.9,7.5,6.1,14.6,5.9c4.3-0.1,8.2-1.2,12-2.2c1.4-0.4,2.9-0.7,4.7-1.1
		c-0.2-0.4-0.5-1.2-0.9-1.8C294.4,41.1,293.7,41.1,293.2,40.9z"/>
	<path class="st0" d="M287,28.7c-0.9-0.7-1.5-1.1-2.1-1.4c-0.2,0.1-0.5,0.1-0.7,0.2c0.2,0.4,0.2,0.9,0.7,1.2
		C285.3,28.8,286.1,28.6,287,28.7z"/>
</g>
<g>
	<path class="st0" d="M159.2,132.2v-13.4h2.9v11.1h5.5v2.4H159.2z"/>
	<path class="st0" d="M170.2,119.2c0-0.9,0.5-1.4,1.5-1.4s1.5,0.5,1.5,1.4c0,0.4-0.1,0.8-0.4,1s-0.6,0.4-1.1,0.4
		C170.7,120.6,170.2,120.2,170.2,119.2z M173.1,132.2h-2.8v-10.3h2.8V132.2z"/>
	<path class="st0" d="M179.1,132.2l-3.9-10.3h2.9l2,5.9c0.2,0.7,0.4,1.4,0.4,2.1h0.1c0-0.6,0.2-1.3,0.4-2.1l2-5.9h2.9l-3.9,10.3
		H179.1z"/>
	<path class="st0" d="M187.9,119.2c0-0.9,0.5-1.4,1.5-1.4s1.5,0.5,1.5,1.4c0,0.4-0.1,0.8-0.4,1s-0.6,0.4-1.1,0.4
		C188.4,120.6,187.9,120.2,187.9,119.2z M190.8,132.2H188v-10.3h2.8V132.2z"/>
	<path class="st0" d="M203.9,132.2h-2.8v-6c0-0.7-0.1-1.3-0.4-1.7c-0.3-0.4-0.7-0.6-1.3-0.6c-0.8,0-1.4,0.3-1.7,0.8
		s-0.5,1.4-0.5,2.6v4.8h-2.8v-10.3h2.1l0.4,1.3h0.2c0.3-0.5,0.7-0.9,1.3-1.1c0.5-0.3,1.2-0.4,1.9-0.4c1.2,0,2.1,0.3,2.7,1
		c0.6,0.6,0.9,1.6,0.9,2.8V132.2z"/>
	<path class="st0" d="M209.7,118.7l0.1,0.2c-0.3,1.2-0.8,2.7-1.6,4.4h-2c0.4-1.8,0.7-3.4,0.9-4.6H209.7z"/>
	<path class="st0" d="M222,130.1c0.5,0,1.1-0.1,1.8-0.3v2.1c-0.7,0.3-1.6,0.5-2.6,0.5c-1.1,0-1.9-0.3-2.5-0.9s-0.8-1.4-0.8-2.6v-5
		h-1.3v-1.2l1.5-0.9l0.8-2.2h1.8v2.2h2.9v2.1h-2.9v5c0,0.4,0.1,0.7,0.3,0.9C221.4,130,221.7,130.1,222,130.1z"/>
	<path class="st0" d="M236,132.2h-2.8v-6c0-1.5-0.6-2.2-1.7-2.2c-0.8,0-1.4,0.3-1.7,0.8c-0.3,0.5-0.5,1.4-0.5,2.6v4.8h-2.8v-14.3
		h2.8v2.9c0,0.2,0,0.8-0.1,1.6l-0.1,0.8h0.1c0.6-1,1.6-1.5,3-1.5c1.2,0,2.1,0.3,2.8,1c0.6,0.7,0.9,1.6,0.9,2.8V132.2z"/>
	<path class="st0" d="M244.2,132.4c-1.7,0-3-0.5-3.9-1.4c-0.9-0.9-1.4-2.2-1.4-3.9c0-1.7,0.4-3.1,1.3-4s2.1-1.4,3.6-1.4
		c1.5,0,2.6,0.4,3.4,1.2c0.8,0.8,1.2,2,1.2,3.4v1.4h-6.6c0,0.8,0.3,1.4,0.7,1.9c0.4,0.4,1.1,0.7,1.9,0.7c0.6,0,1.2-0.1,1.8-0.2
		c0.6-0.1,1.1-0.3,1.7-0.6v2.2c-0.5,0.2-1,0.4-1.6,0.5C245.7,132.3,245,132.4,244.2,132.4z M243.8,123.7c-0.6,0-1.1,0.2-1.4,0.6
		c-0.3,0.4-0.5,0.9-0.6,1.6h3.9c0-0.7-0.2-1.2-0.5-1.6S244.4,123.7,243.8,123.7z"/>
	<path class="st0" d="M268.2,125.3c0,2.2-0.6,3.9-1.9,5.1c-1.3,1.2-3.1,1.8-5.5,1.8h-3.8v-13.4h4.2c2.2,0,3.9,0.6,5.1,1.7
		C267.6,121.6,268.2,123.2,268.2,125.3z M265.3,125.4c0-2.9-1.3-4.3-3.8-4.3h-1.5v8.8h1.2C263.9,129.8,265.3,128.3,265.3,125.4z"/>
	<path class="st0" d="M277.2,121.7c0.4,0,0.7,0,0.9,0.1l-0.2,2.6c-0.2-0.1-0.5-0.1-0.8-0.1c-0.9,0-1.6,0.2-2.1,0.7s-0.8,1.1-0.8,1.9
		v5.2h-2.8v-10.3h2.1l0.4,1.7h0.1c0.3-0.6,0.8-1,1.3-1.4C275.9,121.9,276.5,121.7,277.2,121.7z"/>
	<path class="st0" d="M285.3,132.4c-1.7,0-3-0.5-3.9-1.4c-0.9-0.9-1.4-2.2-1.4-3.9c0-1.7,0.4-3.1,1.3-4s2.1-1.4,3.6-1.4
		c1.5,0,2.6,0.4,3.4,1.2c0.8,0.8,1.2,2,1.2,3.4v1.4h-6.6c0,0.8,0.3,1.4,0.7,1.9c0.4,0.4,1.1,0.7,1.9,0.7c0.6,0,1.2-0.1,1.8-0.2
		c0.6-0.1,1.1-0.3,1.7-0.6v2.2c-0.5,0.2-1,0.4-1.6,0.5C286.8,132.3,286.1,132.4,285.3,132.4z M284.9,123.7c-0.6,0-1.1,0.2-1.4,0.6
		c-0.3,0.4-0.5,0.9-0.6,1.6h3.9c0-0.7-0.2-1.2-0.5-1.6S285.5,123.7,284.9,123.7z"/>
	<path class="st0" d="M298.9,132.2l-0.5-1.4h-0.1c-0.5,0.6-1,1-1.5,1.2c-0.5,0.2-1.2,0.3-2,0.3c-1,0-1.8-0.3-2.3-0.8
		s-0.9-1.4-0.9-2.4c0-1.1,0.4-1.9,1.1-2.4s1.9-0.8,3.5-0.9l1.8-0.1v-0.5c0-1-0.5-1.6-1.6-1.6c-0.8,0-1.8,0.2-2.9,0.7l-0.9-1.9
		c1.2-0.6,2.5-0.9,3.9-0.9c1.4,0,2.4,0.3,3.2,0.9c0.7,0.6,1.1,1.5,1.1,2.7v6.9H298.9z M298.1,127.4l-1.1,0c-0.8,0-1.4,0.2-1.8,0.4
		c-0.4,0.3-0.6,0.7-0.6,1.2c0,0.8,0.5,1.2,1.4,1.2c0.6,0,1.2-0.2,1.6-0.6s0.6-0.9,0.6-1.5V127.4z"/>
	<path class="st0" d="M313.6,132.2h-2.8v-6c0-0.7-0.1-1.3-0.4-1.7s-0.6-0.6-1.2-0.6c-0.7,0-1.2,0.3-1.6,0.8
		c-0.3,0.5-0.5,1.4-0.5,2.6v4.8h-2.8v-10.3h2.1l0.4,1.3h0.2c0.3-0.5,0.7-0.8,1.2-1.1c0.5-0.3,1.1-0.4,1.8-0.4c1.5,0,2.6,0.5,3.1,1.5
		h0.2c0.3-0.5,0.7-0.8,1.2-1.1c0.5-0.3,1.1-0.4,1.8-0.4c1.2,0,2,0.3,2.6,0.9c0.6,0.6,0.9,1.6,0.9,2.9v6.7h-2.8v-6
		c0-0.7-0.1-1.3-0.4-1.7s-0.6-0.6-1.2-0.6c-0.7,0-1.2,0.2-1.5,0.7c-0.3,0.5-0.5,1.3-0.5,2.3V132.2z"/>
	<path class="st0" d="M323.2,130.9c0-0.5,0.1-0.9,0.4-1.2s0.7-0.4,1.2-0.4c0.5,0,0.9,0.1,1.2,0.4c0.3,0.3,0.4,0.7,0.4,1.2
		c0,0.5-0.1,0.9-0.4,1.1c-0.3,0.3-0.7,0.4-1.2,0.4c-0.5,0-0.9-0.1-1.2-0.4C323.3,131.7,323.2,131.4,323.2,130.9z"/>
</g>
</svg>
