<?xml version="1.0" encoding="utf-8"?>
<!-- Generator: Adobe Illustrator 20.0.0, SVG Export Plug-In . SVG Version: 6.00 Build 0)  -->
<svg version="1.1" id="Layer_1" xmlns="http://www.w3.org/2000/svg" xmlns:xlink="http://www.w3.org/1999/xlink" x="0px" y="0px"
	 viewBox="0 0 304.6 267.6" style="enable-background:new 0 0 304.6 267.6;" xml:space="preserve">
<style type="text/css">
	.st0{fill:#FFFFFF;}
</style>
<path class="st0" d="M164.5,92.1c-0.8-2.3-2.3-3.6-4.6-4.3c-3.9-1.2-7.9-1.8-12-1.8c-16.6,0.1-32.1,4.2-46.7,12.2
	c-0.6-2.7-0.2-5.4-0.9-8c-1.1-3.8-2-4.6-5.9-4.9c-4.5-0.4-8.8,0.7-13.1,1.7c-9.1,2.1-9,2.2-10.4,11.2c-0.1,0.4-0.1,0.7-0.1,1.1
	c-1.9,18.7-1.8,37.5-2.1,56.2c-0.3,21.5,0.3,43.1,0.8,64.6c0.1,2.6,1.3,4.2,3.4,5.2c4.9,2.5,10.3,2.5,15.7,2.8
	c1.8,0.1,2-1.3,2.1-2.6c1.8-16.2,2.6-32.4,3.9-48.6c1.3-17.1,2.3-34.3,3.5-51.4c0.1-1.4,0.6-2.4,1.6-3.4c6-5.7,12.4-10.8,19.2-15.5
	c4-2.7,8.1-5.1,12.8-6.4c6.7-1.9,10.6,0.5,12.5,7.1c1.6,5.7,1.8,11.5,1.3,17.3c-1.7,20.3-5.8,40.2-12.5,59.5
	c-3,8.6-5.7,17.4-12.3,24.2c-10.6,10.8-22.2,20.4-35.6,27.5c-4.1,2.2-8.2,3.9-13.2,2.6c-3.6-0.9-5.2,1-4.9,4.6
	c0.3,3.4,1.5,6.5,4,8.9c3.7,3.7,8,6.5,12.6,8.9c5.8,3.1,10.6,2.6,15.8-1.8c18.9-15.7,36.2-33,52.6-51.2c3.4-3.8,5.7-8.1,6.7-13.2
	c1.5-7.7,3-15.4,4.1-23.2c2.9-19.8,5.1-39.6,4.8-59.6C167.3,105.2,166.8,98.5,164.5,92.1z M78.7,132.9c-1.4,0.4-2.7,0.7-4.8-0.4
	C76,132,77.4,132,78.7,132.9z M73.7,138.1c2.3-0.4,1.3-3.2,3.3-3.6c-0.2,2.9,2.5,1.3,3.6,2.3C78.5,137.3,76.9,140.3,73.7,138.1z"/>
<path class="st0" d="M248.2,84.2c-5.4-0.6-10.9-0.4-16.3,0.1c-12.2,1-24.1,3.2-35.5,7.9c-7.2,3-12.3,7.7-14.1,15.7
	c-2.8,12.2-4.9,24.6-6.2,37.1c-1,9.1-1.3,18.3-1,27.4c0.2,8.6,1.1,17.2,4,25.4c1.6,4.7,3.7,9.2,8.3,11.7c5.1,2.7,10.6,4,16.3,3.4
	c14.2-1.4,23.4-10.2,30-22c4.5-8.1,1.6-16-6.6-20.1c-6.7-3.3-12-1.1-14.2,6.1c-1.4,4.6-1.9,9.4-2.7,14.1c-0.5,2.5-1,4.9-2.3,7.1
	c-0.8,1.5-2,2.5-3.7,2.5c-1.6,0-2.3-1.3-3-2.5c-1.6-3-2.3-6.2-2.8-9.5c-1.2-8-1.4-16-1.2-22.3c-0.6-11.7,0.8-21.5,2.1-31.3
	c1.1-8.2,2.8-16.4,6.4-24c2.1-4.5,4.7-8.6,8.6-11.7c2.8-2.2,5.9-3.4,9.5-2.7c2.6,0.4,3.4,1.8,2.8,4.3c-1.2,4.9-2.3,9.9-3.4,14.8
	c-1.3,5.4-2.7,10.8-2.6,16.4c0,3.6,0.7,4.3,4.3,4.8c5.1,0.6,9.9-0.5,14.8-1.8c3.3-0.8,6.1-2.6,7.7-5.4c6.1-10.5,10.7-21.5,11.1-33.8
	C258.7,87.1,256.8,85.1,248.2,84.2z M180.5,158.4c-1.2-0.2-2.1,0.7-3.4,1c0.1-1.7,2.4-1.2,1.9-3c-0.1-0.5,1.1-0.4,1.7-0.3
	c0.5,0.1,1.1,0.4,1,1.1C181.8,158,181.1,158.5,180.5,158.4z M192,99.4c0.3,0.4,0.1,0.8-0.1,0.9c-1.4,0.5-2-1-3.2-1.3
	C189.8,98.8,191,98.3,192,99.4z M190.7,192.8c-0.7-0.3-1.4-0.8-2.5-0.8c1.4-1,2.6-1.4,3.7-0.2C192.7,192.7,192,193.3,190.7,192.8z
	 M223.5,171.8c0.1-0.2,0.7-0.6,0.8-0.5c0.8,0.7,0.8,1.7,0.6,3.2C224.1,173.4,223,173,223.5,171.8z M224,194.6
	c1.4-0.2,0.5,0.9,0.6,1.4c0.1,0.4,0.3,0.9,0.7,1.1c0.7,0.4,1.7,0.7,1.1,1.7c-0.4,0.7-1.2,1.4-1.9,1.5c-1.1,0-0.8-1.3-1.2-2
	c-0.3-0.5-0.3-1.2-0.4-1.6C222.9,195.7,223.1,194.7,224,194.6z M198,208.5c0.2-0.6,0.6-1,1.2-1c1.3-0.1,2.5,1.1,3.9,0.1
	c0,0,0.3,0.3,0.4,0.5c-0.2,1-1.1,1.2-1.7,1.3c-1,0.2-2.1-1.1-3.2-0.1C198.4,209.4,197.9,208.9,198,208.5z M198.2,116.6
	c0-0.2-0.1-0.5,0-0.7c0.4-0.7,1-1.2,1.8-0.9c0.9,0.4,1.7,0.6,2.9,0.4C201.4,117.9,199.5,115.5,198.2,116.6z M226.7,111.6
	c-1-0.3-1.4-1.1-0.9-2.2c0.7,0.6,1.9,0.4,2,1.6C227.7,111.6,227.1,111.7,226.7,111.6z M246,109.3c-0.8,0-1.8,0.2-2.1-0.8
	c-0.3-0.8,0.5-1.1,1.2-1.1c0.8,0,1.6,0.2,2.1,0.9C247.1,109.1,246.6,109.3,246,109.3z"/>
<path class="st0" d="M43.9,41.4c-1.7-0.7-2.6,0.4-3.2,1.7c-0.4,1-0.8,2.1-1.3,3.1c-2.2,5.2-4.4,10.4-6.8,15.9
	c-1.8-4.3-3.4-8.1-5-11.9c-0.5-1.2-1.1-2.4-2.7-2.4c-1.6,0-2.1,1.2-2.7,2.4c-1.6,3.8-3.2,7.6-4.8,11.5c-1-0.7-1.1-1.7-1.5-2.5
	c-2.2-5.3-4.4-10.5-6.7-15.8c-0.6-1.4-1.4-2.7-3.3-1.9c-1.8,0.8-1.6,2.2-1,3.7c3.3,7.6,6.5,15.3,9.7,22.9c0.5,1.2,1,2.4,2.7,2.4
	c1.5-0.1,1.9-1.2,2.4-2.4c1.6-3.9,3.3-7.7,5.1-12.1c1.9,4.5,3.5,8.5,5.2,12.4c0.4,1,0.9,2.1,2.3,2.1c1.5,0,2.1-0.9,2.6-2.1
	c1.7-4.1,3.4-8.2,5.1-12.3c1.6-3.7,3.2-7.5,4.7-11.2C45.5,43.5,45.6,42.1,43.9,41.4z"/>
<path class="st0" d="M205,46.8c1.5,0.9,2.9,1.4,4-0.3c1-1.6,0.1-2.7-1.3-3.7c-5.6-4-13.8-3.7-19.3,0.9c-5.2,4.3-6.9,11.8-4.1,17.8
	c3.1,6.5,10.2,10.1,17.2,8.7c6.6-1.3,7.9-2.9,7.9-9.6c0-1.5,0-3,0-4.4c0-1.6-0.9-2.5-2.4-2.5c-3-0.1-5.9-0.1-8.9,0
	c-1.2,0-2.1,0.8-2.1,2.1c-0.1,1.4,0.8,2.3,2.1,2.4c1.3,0.1,2.6-0.1,3.9,0.1c0.8,0.1,2.4-0.8,2.4,0.9c-0.1,1.8,1.1,4-0.9,5.3
	c-2.8,1.8-8.3,1.3-11.3-0.9c-3.5-2.6-5.2-6.8-4.2-10.7C190.1,45.6,198.1,42.6,205,46.8z"/>
<path class="st0" d="M259.5,39.9c-8-0.1-14.8,6.7-14.9,15.2c-0.1,8.3,6.6,15.4,14.6,15.4c7.8,0,14.5-6.9,14.6-15.1
	C274,47.2,267.3,40.1,259.5,39.9z M259.4,65.6c-5.4,0.1-9.8-4.4-9.9-10.1c-0.1-5.9,4.2-10.6,9.7-10.6c5.3-0.1,9.7,4.5,9.8,10.2
	C269,60.8,264.7,65.5,259.4,65.6z"/>
<path class="st0" d="M304.6,44.7c0-1.7-0.1-3.4-2.3-3.3c-2.1,0.1-2.3,1.7-2.2,3.4c0,5.1,0,10.3,0,16.2c-4.6-6.3-8.7-12.1-12.8-17.8
	c-0.8-1.1-1.6-2.4-3.3-1.9c-1.7,0.5-1.7,2-1.7,3.4c0,7.4,0,14.8,0,22.2c0,1.7,0.1,3.4,2.2,3.5c2.3,0.1,2.4-1.7,2.4-3.5
	c0-5.1,0-10.3,0-16.1c1,1.2,1.5,1.9,2,2.6c3.7,5.1,7.4,10.2,11,15.3c0.8,1.1,1.6,2.2,3.1,1.7c1.5-0.5,1.6-1.8,1.6-3.2
	C304.6,59.7,304.6,52.2,304.6,44.7z"/>
<path class="st0" d="M174,44.7c0-1.7-0.1-3.4-2.3-3.3c-2.1,0.1-2.3,1.7-2.2,3.4c0,5.1,0,10.3,0,16.2c-4.6-6.3-8.7-12-12.8-17.8
	c-0.8-1.1-1.6-2.5-3.3-1.9c-1.7,0.5-1.7,1.9-1.7,3.4c0,7.4,0,14.8,0,22.2c0,1.8,0.2,3.6,2.4,3.5c2.1-0.1,2.2-1.8,2.2-3.5
	c0-5.1,0-10.3,0-15.5c1.2,0.4,1.5,1.3,2,2c3.7,5.1,7.4,10.2,11,15.3c0.8,1.1,1.6,2.2,3.1,1.7c1.5-0.5,1.6-1.8,1.6-3.2
	C174,59.7,174,52.2,174,44.7z"/>
<path class="st0" d="M96.5,64.2c-2.5,2.1-5.3,2.3-8.4,1.5c-2-0.5-3.7-1.6-5.4-2.8c-1.1-0.7-2.3-0.8-3.2,0.4c-0.7,1.1-0.4,2.1,0.5,3
	c4.4,4.5,13.2,5.4,18.3,1.9c5.4-3.8,5.2-10.2-0.6-13.5c-2-1.1-4.1-1.7-6.3-2.1c-1.5-0.3-3.1-0.7-4.5-1.3c-1.3-0.5-2.6-1.2-2.6-2.9
	c0-1.7,1.2-2.7,2.6-3.3c2.1-1,4.2-1.1,6.5-0.4c1.4,0.5,2.6,1.3,3.9,2.1c1.2,0.7,2.4,0.8,3.1-0.5c0.7-1.2,0.5-2.3-0.8-3.1
	c-2.7-1.8-5.6-3.2-9.2-3.3c-2.4,0.1-4.9,0.7-7.1,2.2c-4.8,3.5-4.6,9.5,0.6,12.5c2.2,1.3,4.6,1.8,7.1,2.3c1.7,0.3,3.4,0.8,4.9,1.7
	C98.4,60.2,98.6,62.4,96.5,64.2z"/>
<path class="st0" d="M108.4,55.8c0,3.9,0,7.8,0,11.6c0,1.7,0.6,3,2.5,2.9c1.7-0.1,2.2-1.3,2.2-2.9c0-2.6,0-5.2,0-7.8
	c0-1.3,0.3-1.9,1.7-1.8c2.5,0.1,5,0.1,7.5,0c1.3,0,1.8,0.4,1.7,1.7c-0.1,2.4,0,4.8,0,7.2c0,1.8,0.1,3.6,2.4,3.6
	c2.1,0,2.3-1.7,2.3-3.4c0-7.5,0-15,0-22.5c0-1.7-0.2-3.4-2.2-3.4c-2.3-0.1-2.4,1.7-2.5,3.5c-0.1,2.8,1.2,6.8-0.5,8.2
	c-1.9,1.4-5.6,0.3-8.6,0.5c-1.6,0.1-1.8-0.6-1.8-1.9c0.1-2.4,0-4.8,0-7.2c0-1.7-0.5-3.1-2.4-3c-1.9,0-2.4,1.4-2.3,3.1
	C108.4,48.1,108.4,52,108.4,55.8z"/>
<path class="st0" d="M69.8,68.3c0.3,1.5,1.4,2.6,3,2c1.7-0.6,2-1.9,1.3-3.6c-1.4-3.4-2.6-6.9-3.9-10.4c-1.7-4.5-3.4-9-5.1-13.5
	c-0.4-1-1-1.8-2.1-1.9c-1-0.1-2,0.2-2.3,1.1c-3.3,8.5-6.5,17.1-9.5,24.9c-0.3,2,0.3,2.9,1.5,3.3c1.1,0.4,2.1,0,2.6-1
	c0.5-1,1.1-2,1.3-3.1c0.5-2.4,1.9-3.1,4.1-2.8c0.5,0.1,1.1,0.1,1.7,0C66.4,62.7,69,63.9,69.8,68.3z M59.4,58.7c1-2.8,2.1-5.5,3.3-9
	c1.3,3.4,2.3,6.1,3.4,9C63.8,58.7,61.8,58.7,59.4,58.7z"/>
<path class="st0" d="M219,45.7c1.5,0.1,3,0.1,4.4,0c1.7-0.2,2.2,0.4,2.2,2.2c-0.1,6.3,0,12.6-0.1,18.9c0,1.8,0.1,3.6,2.3,3.7
	c2.3,0.1,2.4-1.8,2.4-3.5c0-3.1,0-6.1,0-9.2c0-2.2,0-4.4,0-6.7c0-5.3,0-5.3,5.4-5.3c0.4,0,0.7,0,1.1,0c1.5,0,2.5-0.9,2.6-2.3
	c0-1.5-1-2.3-2.5-2.3c-5.9,0-11.8,0-17.8,0c-1.4,0-2.3,0.7-2.4,2.2C216.6,44.8,217.5,45.6,219,45.7z"/>
<path class="st0" d="M141.7,41.1c-2.1-0.1-2.4,1.5-2.4,3.3c0,3.7,0,7.4,0,11.1c0,3.9,0,7.8,0,11.7c0,1.7,0.3,3.3,2.4,3.3
	c1.8,0,2.3-1.4,2.3-3.1c0-7.7,0-15.4,0-23C144,42.6,143.5,41.2,141.7,41.1z"/>
<path class="st0" d="M136.3,7.5c4.8,6.5,9.2,12.6,14.1,19.3c0-7.7,0-14.4,0-21.2c-0.2,0-0.4,0-0.7,0c0,5.9,0,11.7,0,17.6
	c-0.2,0-0.4,0.1-0.6,0.1c-4.4-6-8.8-12-13.6-18.5c0,7.6,0,14.4,0,21.2c0.2,0,0.5,0,0.7,0C136.3,19.9,136.3,13.9,136.3,7.5z"/>
<path class="st0" d="M236.9,7.5c4.8,6.5,9.2,12.6,14.1,19.3c0-7.7,0-14.4,0-21.2c-0.2,0-0.4,0-0.7,0c0,5.9,0,11.7,0,17.6
	c-0.2,0-0.4,0.1-0.6,0.1c-4.4-6-8.8-12-13.2-18c-0.2,0.1-0.3,0.2-0.5,0.3c0,6.8,0,13.6,0,20.4c0.3,0,0.6,0,0.9,0
	C236.9,19.9,236.9,13.9,236.9,7.5z"/>
<path class="st0" d="M94.8,26.4c5.6,0.1,10.2-4.7,10.2-10.8c0-5.9-4.5-10.7-10-10.7c-5.6,0-10,4.7-10.1,10.6
	C85,21.5,89.3,26.4,94.8,26.4z M94.9,6c5.1,0,9.1,4.3,9,9.8c0,5.2-4.2,9.6-9.1,9.6c-4.9,0-8.9-4.4-8.9-9.8C86.1,10.2,89.9,6,94.9,6z
	"/>
<path class="st0" d="M158,22.6c0,3.6,0,3.6,3.5,3.5c5.9-0.1,10.1-3.2,11.2-8.3c1-4.6-1.5-9.3-5.9-11.4c-2.2-1-4.5-0.9-6.8-1
	c-1.8-0.1-2.2,0.6-2.1,2.2C158,12.6,158,17.6,158,22.6z M162,6.4c6.2,0.4,10.3,4.5,9.7,10.3c-0.5,5.5-5.7,9.2-11.7,8.4
	c-1.3-0.2-1.1-0.9-1.1-1.7c0-2.6,0-5.2,0-7.8c0-2,0.2-4.1,0-6.1C158.7,7.1,159.4,6.3,162,6.4z"/>
<path class="st0" d="M196.8,15.5c0,3,0,5.9,0,8.9c0,0.7-0.1,1.4,0.9,1.7c5.3,1.6,11.9-2,13.5-7.4c1.2-4,0.2-7.5-2.7-10.4
	c-3.1-3.1-7-3.1-10.9-2.8c-1.1,0.1-0.8,1.1-0.8,1.8C196.8,10,196.8,12.8,196.8,15.5z M198.8,6.5c3.7-0.2,7.2,0.3,9.8,3.5
	c2.3,2.9,2.7,6.2,1.3,9.6c-1.7,4-6.8,6.4-11.1,5.6c-1.2-0.2-0.9-0.9-0.9-1.6c0-2.6,0-5.2,0-7.8c0-2.6,0-5.2,0-7.8
	C197.9,7.3,197.7,6.5,198.8,6.5z"/>
<path class="st0" d="M180.3,26.1c3.5,0,7.1,0,10.6,0c-1.2-1.5-2.7-1-4.1-1c-6.9-0.1-6.8,0-6.8-6.9c0-1.7,0.3-2.3,2.1-2.2
	c2.4,0.2,4.9,0,7.4,0c-0.9-1.2-1.9-1-2.9-1c-6.7,0-6.6,0-6.6-6.6c0-1.8,0.6-2.1,2.2-2.1c2.9,0.1,5.8,0,8.7,0c0-0.4,0-0.7,0-1.1
	c-3.5,0-7,0-10.5,0c-1.4,0-1.4,0.8-1.4,1.8c0,5.7,0,11.5,0,17.2C179.1,25.3,179,26.1,180.3,26.1z"/>
<path class="st0" d="M118.8,26.1c4.2,0.2,7.9-2.3,8.6-6.3c0.8-4.6,0.5-9.4,0.1-14c0,0-0.3-0.1-0.7-0.1c0,4,0.1,8,0,11.9
	c-0.1,4.5-3.3,7.6-7.5,7.5c-4.1,0-7.2-3.1-7.3-7.4c-0.1-4,0-8,0-12.6c-0.6,0.7-0.9,0.9-0.9,1.1c0,4.3-0.2,8.5,0.1,12.7
	C111.2,22.9,114.8,25.9,118.8,26.1z"/>
<path class="st0" d="M68.1,24.2c0,0.6-0.2,1.3,0.9,2c0-2,0-3.6,0-5.3c0-4.8,0-4.8,4.6-4.8c1.6,0,3.3,0,5.6,0c-1.6-1.5-2.8-1-3.8-1
	c-6.5-0.1-6.4,0-6.5-6.4c0-1.9,0.7-2.3,2.4-2.2c2.9,0.1,5.7,0,8.6,0c0-0.4,0-0.7,0-1.1c-3.2,0-6.5,0.1-9.7,0C68.4,5.3,68,5.9,68,7.6
	C68.1,13.1,68,18.7,68.1,24.2z"/>
<path class="st0" d="M227.8,5.6c-0.1,0-0.2,0-0.4,0c0,6.7,0,13.5,0,20.2c0.1,0,0.2,0,0.4,0C227.8,19.1,227.8,12.4,227.8,5.6z"/>
</svg>
