<?xml version="1.0" encoding="utf-8"?>
<!-- Generator: Adobe Illustrator 20.0.0, SVG Export Plug-In . SVG Version: 6.00 Build 0)  -->
<svg version="1.1" id="Layer_1" xmlns="http://www.w3.org/2000/svg" xmlns:xlink="http://www.w3.org/1999/xlink" x="0px" y="0px"
	 viewBox="0 0 869.8 217.2" style="enable-background:new 0 0 869.8 217.2;" xml:space="preserve">
<style type="text/css">
	.st0{fill:#FFFFFF;}
</style>
<path class="st0" d="M78.8,88.5c-4-0.4-9,3.9-9.5,8.7c-1.7,15.8-3.2,31.7-4.7,47.5c-0.4,4.6-0.8,9.1-2.9,14.6
	c-2.3-8.7-2.4-16.4-3.5-23.8c-1.5-10.1-5.6-19.8-5.4-30.3c0.1-4-1.1-8.2-3.3-11.9c-1.2-2.1-2.1-4.4-5-4c-2.7,0.4-4.4,1.7-5.7,4.6
	c-5.3,11.3-4.1,23.8-6.8,35.5c-2.1,9.5-3.3,19.1-4.9,28.8c-1.2-0.4-1.8-1-1.9-1.8c-1.1-9.2-2.3-18.4-3.1-27.7
	C21.2,117.8,21,106.8,19,96c-0.9-4.9-4.8-7.8-9.1-7.1c-5.4,0.9-7.1,3.2-6.5,9.2c0.4,3.6,1.1,7.2,1.6,10.8
	c1.4,10.9,1.3,21.9,3.1,32.8c2.3,14,3,28.3,5.1,42.4c1.3,8.4,2.6,16.8,3.1,25.3c0.2,4,4,6.9,7.4,7c3.1,0.1,7.5-0.9,8.4-5.7
	c1.6-8.3,3.4-16.5,4.8-24.8c2-11.9,3.6-23.9,5.4-35.8c0.2-1.2,0.3-2.9,1.9-2.9c0.6,0,1.6,1.3,1.7,2.1c1.9,10.5,3.8,21,5.6,31.5
	c1.5,9.3,2.9,18.8,3.1,28.4c0.1,3.7,5.1,8.5,8.1,7.4c3.4-1.2,8.8-0.7,9.3-5.8c0.8-7.7,1.7-15.5,2.5-23.2c0.5-4.7,2.3-9.1,2.3-13.7
	c0.1-9.4,1.4-18.8,3-28c2.7-15.4,2.6-31.2,6.2-46.4C87.2,94.2,83.2,89,78.8,88.5z"/>
<path class="st0" d="M664.7,99c-0.1-5.7-3.2-9.8-7.5-10.3c-3.7-0.4-8.1,4.3-8.1,8.9c-0.1,11,0,22,0,33c0,9.6,0,19.1,0,29.2
	c-4.1-1.5-3-5.1-3.7-7.4c-5.1-18-12.6-35.2-16.5-53.5c-0.5-2.5-2.1-4.9-3.8-6.9c-3.5-4.2-9.9-3.5-13,0.8c-2.7,3.7-2.6,8.1-2.2,11.9
	c1.3,11.9,0.2,23.8,0.6,35.8c0.5,13.1,0,26.3-0.1,39.4c0,8.3,1.5,16.6,0.2,24.9c-0.7,4.3,0.4,7.7,4,9.9c2,1.2,4.4,2.9,6.9,1.3
	c3.7-2.4,5.4-5.7,5.1-10.5c-0.5-9.8,0.1-19.6-0.3-29.4c-0.4-9.2,2.3-18.5-0.7-27.7c-0.4-1.1-0.2-2.1,0.8-2.5
	c1.4-0.6,1.5,0.8,1.8,1.6c0.4,0.9,0.8,1.8,1.1,2.8c3.6,12.1,8.2,23.9,11.3,36.3c1.9,7.7,5.2,15.1,7.1,22.9c1,4.3,5.5,6.8,10,6.1
	c5.8-0.9,7.1-2.3,7.1-8.2c0-6,0-11.9,0-17.9c0-19.9,0-39.8,0-59.7C664.7,119.6,664.8,109.3,664.7,99z"/>
<path class="st0" d="M388.7,100.4c0-2.9-0.6-5.6-2.1-8c-2.7-4.5-6.9-4.8-10.6-1.2c-2.2,2.1-3.1,4.4-3,7.5
	c0.1,20.1,0.1,40.3,0.1,60.7c-1.9-0.1-2.5-0.9-2.8-2.2c-4.6-17.5-10.2-34.6-16.2-51.6c-1.3-3.7-0.7-7.7-3.4-11.2
	c-2.7-3.6-7-6.6-10.7-5c-3.5,1.4-5.5,4.6-5.5,8.6c0,15.9,0.3,31.8-0.1,47.6c-0.5,20.6,1.5,41.2,0.1,61.8c-0.3,4.7,4.7,9.4,9.3,9.2
	c3-0.1,7.2-4.9,6.9-8.7c-1.8-20,1.8-40-1.2-60c-0.1-0.9,0.2-1.7,1.1-2c1.1-0.4,1.4,0.6,1.7,1.3c0.4,0.9,0.8,1.8,1.1,2.8
	c3.3,11.5,7.9,22.6,10.7,34.4c2.1,8.7,5.9,17,8.1,25.7c1.1,4.4,5.8,6.2,10.8,5.4c4.8-0.8,6.3-3.7,6-8.1c-0.2-3-0.6-6-0.5-9
	c1.2-19.9-0.1-39.8,0.4-59.7C389,126,388.6,113.2,388.7,100.4z"/>
<path class="st0" d="M785,91.9c-8.7-3.3-18.2-4.3-27.6-3.1c-5.2,0.6-8.6,5.1-7.9,10.5c1.7,11.9,0.1,23.8,0,35.6
	c-0.1,10.4,1.4,20.8,0.1,31.2c-1.2,9.9,0.5,19.9,0.7,29.8c0,4.8,0.3,9.7-0.1,14.4c-0.2,2.6,0.6,3.7,2.8,4.5
	c9.8,3.3,19.5,2.1,29.1-0.7c6.4-1.9,11.7-5.2,14-12c3.9-11.6,3.7-23.6,3.7-35.6c0-5.4-0.1-10.9,0-16.3c0.3-12.2,1.1-24.6-0.9-36.6
	C797.6,104.6,794.2,95.4,785,91.9z M784.2,143.6c-0.2,9.7,0.4,21.3-0.7,32.9c-0.3,3.1,0.7,6.3,0.7,9.4c0.1,7.7-5.4,13.6-12.9,13.4
	c-2.7-0.1-4.1-2.8-4.8-5.1c-1.1-3.4-2.2-6.9-1.3-10.6c1.5-6.3-0.4-12.6,0-18.9c0.6-10.2,1.1-20.4,0.3-30.6c-0.5-6.6,1.3-13.3-0.8-20
	c-0.9-2.9,0.9-5.5,4-6.6c4.4-1.4,8.7-1.6,11.7,2.6c2.3,3.2,3.9,6.9,3.9,11.1C784.2,128.1,784.2,134.9,784.2,143.6z"/>
<path class="st0" d="M283.2,94.2c-1-3.7-3.4-4.7-6.7-4.3c-6.5,0.9-9.3,4.8-8.6,11.8c1.1,11.1,0.5,22.3,0.4,33.4
	c-0.1,7.4-2.8,9.1-11.2,8.6c-5.2-0.3-8.9-4.5-8.2-9.8c1.2-9.2-0.7-18.5,0.3-27.7c0.4-3.4,0-6.9-0.4-10.3c-0.7-5.6-4-7.9-9.3-7
	c-3.8,0.7-7.4,6.4-6.2,10.5c0.8,2.5,1.1,4.9,0.8,7.3c-1.4,9.8,0.5,19.6,0.1,29.3c-0.3,6-1.1,12-0.7,17.9c0.8,10.5,1.3,20.8-0.7,31.2
	c-0.7,3.9-1.4,8.3,1,12.1c0.4,0.6,0.6,1,0.1,1.7c-2.8,3.5-1.3,7.3-0.3,11c1.5,5.9,3.5,7.3,8.5,6.8c3.6-0.4,7.4-5.2,7.2-9.5
	c-0.6-12.4,0.7-24.8-0.4-37.1c-0.4-5.1,3.5-9.7,8.2-10.4c4.9-0.7,10.7,2.2,11,6.4c0.4,4.4,1.2,8.7,0.8,13.3
	c-0.9,10.4-0.6,21-0.2,31.4c0.2,4.6,3,6.3,8.1,5.8c5.4-0.4,8.3-2.7,7.3-7.2c-1.2-5.6-0.1-10.9,0-16.3c0.1-10.6-0.6-21.3-0.5-31.8
	c0.1-11.4,0.2-22.9,0.7-32.5c0-5.9,0.1-9.9,0-13.9C283.9,108.1,285,101.1,283.2,94.2z"/>
<path class="st0" d="M594.2,116.4c-0.4-8.6-2.8-17-10.7-22.4c-2.3-1.6-4.5-3.5-7.1-4.6c-6.1-2.7-13.6-2.4-18.2,0.5
	c-11.5,7.2-16.7,18.8-15.4,32.7c0.6,7.2,0.8,14.4-0.1,21.6c-0.3,2.5-0.4,5-0.4,7.5c0,10.7,0,21.5,0,32.2c-0.5,21.4,7.6,30.5,29,32.6
	c7.1,0.7,11.3-3.5,14.9-7.7c5.9-6.9,8-15.6,7.9-24.8c-0.2-10.8-0.1-21.5,0-32.3C594.1,139.8,594.8,128.1,594.2,116.4z M570.2,197.9
	c-4,0.5-9.6-3.7-10.9-8.8c-1.9-7.5-2.4-15-1-22.9c1.1-6.2,0-12.9-0.5-19.4c-0.4-4.9-1.1-9.7,0.6-14.7c0.9-2.8,0.1-6.2-0.5-9.3
	c-1.4-8,3.9-15,12.4-15.2c4.2-1.1,5.9,1.6,7.4,5.5c1.8,4.8,1.8,9.5,0.7,14.3c-0.3,1.4-0.3,3-0.3,4.5c0.3,10.9,0.8,21.9,0.8,32.8
	c-0.1,7.3-1.8,14.9,0.6,22.3C580,189,572.3,197.6,570.2,197.9z"/>
<path class="st0" d="M446,145.5c-4,0-7.8,1.9-11.9,1.2c-2.8-0.5-4,1.1-5,3.1c-2.3,4.5-0.6,9.7,4,11.8c3.2,1.4,6.3,3.1,6.5,6.8
	c0.4,7.3,1.5,14.6-0.2,21.8c-1,4.3-3,7.6-7.6,8c-5.4,0.5-10.7-3.3-11.5-8.3c-0.8-5.4-1.8-11-1-16.3c1.5-9.5-0.7-18.8,0.4-28.3
	c1-8.1-0.8-16.6,0.1-24.9c0.9-8.1,5.1-15.9,13.2-13.3c4.3,1.4,8.6,6.4,8.1,12c-0.6,6.3,3.7,5.8,7.2,5.9c3.9,0.2,7.4-1,7.4-6
	c0-5.9-1.5-11.1-4-16.6c-7.8-17-31.3-18.1-41.8-4.1c-3.6,4.8-4.8,9.9-5,16.3c-0.4,14.5-2.3,29-0.5,43.6c0.2,1.5,1,3,0.8,4.3
	c-1.6,10.4-1.2,20.9-0.1,31.3c1.3,12.2,11.5,21.8,23.3,23c14.6,1.5,22.1-7.5,26-18.5c0.6-1.7,0.8-3.6,0.9-5.4c0.1-6.5,0-13,0-19.5
	c0.1,0,0.2,0,0.3,0c0-6.2,0-12.3,0-18.5C455.7,147.6,453.4,145.5,446,145.5z"/>
<path class="st0" d="M148.8,187.4c-3.3-20.5-9.4-40.4-11.4-61.2c-1-10.2-5.1-19.8-6-30c-0.4-4.1-4.7-7.2-9.5-7.3
	c-2.9-0.1-7.2,4.2-8.1,7.3c-2.4,8-2,16.5-4.1,24.6c-2.8,10.9-3.5,22.3-6.4,33.2c-1.3,5-2.6,9.9-2.7,15.1c-0.1,3.7-0.9,7.2-1.6,10.8
	c-1.8,8.9-4,17.8-4.7,26.9c0,3.6-0.4,7.5,3.9,8.7c4.1,1.1,8.1,0.2,10.7-3.5c1.7-2.4,2.9-5.3,2.6-8.4c-0.3-2.5,0.1-4.7,1.1-7.1
	c2.5-6.2,5-8.2,11.4-7.9c6,0.2,9.3,3,10.9,9c0.9,3.3,0.4,6.6,0.7,9.9c0.4,4.1,2.7,7.1,6.7,8.5c3,1.1,5.9,1.3,8.3-1.2
	c2.9-3,3.5-6.7,2.6-10.7C151.6,198.6,149.7,193.1,148.8,187.4z M123.4,171.7c-2.6,0.8-6.3-4.1-6.2-8.1c0.2-1.3,0.6-3.1,0.9-4.8
	c1.4-7.5,4-14.8,3.3-22.5c-0.1-0.9-0.3-2.2,1.3-2.1c0.9,0.1,1.2,0.9,1.4,1.8c1.8,9.9,3.9,19.7,5.4,29.6
	C130,169.3,126.4,170.8,123.4,171.7z"/>
<path class="st0" d="M194.4,144.1c-7.7-8.5-15.3-16.7-13.3-29.5c0.6-4.1,5.6-9.9,9.5-9.9c4.6,0.1,9.2,5.3,8.9,10.2
	c-0.2,4.4,3,7.5,8.2,7.8c4.4,0.3,7.1-2.1,7.3-6.8c0.3-5.9-1.4-11.5-3.8-16.8c-4.6-10.1-14-9.9-22.3-10.5
	c-12.9,0.6-19.1,5.6-22.5,17.2c-1.9,6.5-0.7,13-1,19.5c-0.7,14.3,9.1,23,17,31.9c7.7,8.7,15.6,16.4,17.2,28.6
	c0.7,5-2.2,11.8-6.6,13.8c-3.4,1.5-10.9-0.6-11.1-3.7c-0.4-3.9-2.6-7.2-2.8-11.1c-0.3-4.8-2.7-6.9-7.4-6.6c-3.7,0.2-8.7,4.2-8.2,7.6
	c1.2,8.8,1.9,18.1,8.9,24.5c7.7,7,17.1,6.7,26.8,5c7.9-1.4,12.5-6.3,14.6-13.3c2.3-8,1.9-16.4,1-24.7
	C213,163,203.1,153.8,194.4,144.1z"/>
<path class="st0" d="M843.2,107.1c4,1.1,6.9,3.2,7.2,7.7c0.1,2,0.6,3.9,0.8,5.9c0.6,5.3,4.5,5.1,8.2,4.8c3.8-0.3,6.2-1.9,6.9-6.3
	c1.7-10.8-3.8-18.7-10.5-25.5c-6.3-6.4-14.7-6.9-22.8-3.4c-8.5,3.6-15.1,9.6-15.7,19.5c-0.7,12.2-1.2,24.5-0.9,36.8
	c0.5,16.1,1.3,32.3,1.2,48.4c-0.1,10.1,8,17,16.6,20.5c8.2,3.4,16.2,1.7,22.8-5.1c7.3-7.6,10.5-16.3,9.1-26.7
	c-0.3-2.3-1.5-4-3.7-3.8c-3.6,0.3-7.6-1.6-10.9,1.4c-0.3,0.2-0.3,0.9-0.2,1.4c0.4,3.7-1.5,6.7-2.3,10.1c-0.9,4.3-3.9,5.5-7.7,5.4
	c-5.4-0.2-9-4.7-9-11.1c0-13,0-25.9,0-38.9c-0.1,0-0.2,0-0.2,0c0-9,0-18,0-27c0-3.6,0.8-6.7,2.6-10
	C836.8,107.6,839.2,105.9,843.2,107.1z"/>
<path class="st0" d="M518.6,89.7c-4.3-1.1-8.6,0.3-12.6-0.2c-7.5-1-15.1,1.5-21.1-1c-1.9,0-2.4,0-2.9,0c-5.4,0.1-8.8,3.1-9.6,8.7
	c-0.7,4.7,1.9,8.1,7.2,9.4c1.9,0.5,3.9,0.7,5.9,0.9c2.7,0.3,4.2,1.9,4.6,4.5c1.4,10.5,0.4,21,0.5,31.5c0,4.4,0.9,8.8,0.4,13.1
	c-0.6,5.1,1.3,10.4-1.6,15.3c-0.4,0.7,0.1,2.4,0.7,3.3c1.5,2,1.4,3.9,0.7,6.1c-1,2.9-0.6,5.9-0.4,8.9c0.4,6.3,0.8,12.5,0.9,18.8
	c0,4.4,2.2,7.3,6.6,7.7c5.7,0.5,8.2-2.4,8.2-9.7c0-30,0.1-59.9-0.1-89.9c0-3.9,0.9-7.1,4.1-9c2.4-1.4,5.2-1.8,8.1-2.2
	c4.2-0.6,6.6-3.2,6.5-7.4C524.6,94.1,523.2,90.9,518.6,89.7z"/>
<path class="st0" d="M318.5,186.9c-1.2-9.4,1.1-18.8-1-28.1c-0.2-0.9-0.2-2,0-2.9c2.5-10.3-0.4-20.8,1.2-31.1
	c0.5-3.1-2.6-7.7-1.9-8.7c3.9-6.5,0.3-13.2,1.6-19.6c0.6-3-4.5-7.5-7.6-7.5c-3.3,0-9.1,4.9-8.6,7.6c2,9.6,0.1,19.2,0.4,28.8
	c0.8,26.9,0.8,53.8-0.3,80.7c-0.3,6.2,2.7,11.1,6.9,10.8c6.1-0.4,9.6-1.9,9.5-10.5C318.6,199.8,319.4,193.3,318.5,186.9z"/>
<path class="st0" d="M348.8-192.7c2.9,0,5.5-0.9,7.9-2.6c8.8-6.5,7.2-17.7-3.6-24c5.5-6.2,6.9-11.5,4.3-17
	c-3.1-6.5-8.6-8.2-15.3-7.9c-4.8,0.2-9.6,0.2-14.5,0c-2.8-0.1-4.1,0.4-4.1,3.7c0.2,14.8,0.2,29.6,0,44.4c0,3,1.1,3.5,3.7,3.4
	C334.5-192.8,341.7-192.7,348.8-192.7z M337.1-241.9c3.2,0,6.3-0.1,9.5,0.2c5.8,0.6,9.9,5.5,9.8,11.2c-0.1,5.7-4.6,10.4-10.4,10.7
	c-2.8,0.1-5.6,0-8.5,0c-11.3,0-11.3,0-11.3-11.1C326.2-241.9,326.2-241.9,337.1-241.9z M328.2-194.9c-1.5,0-2.1-0.6-2-2.1
	c0-6,0.1-12,0-18c0-2.2,1.2-2.4,2.8-2.3c3.5,0.1,7,0,10.5,0c3.2,0,6.3-0.1,9.5,0c6.3,0.3,10.8,4.8,11,10.7
	c0.2,5.7-3.8,10.8-9.8,11.3C342.9-194.7,335.6-195,328.2-194.9z"/>
<path class="st0" d="M480.3-192.7c1,0,2.8,0.7,2.9-0.9c0.1-2.1-1.9-1.3-3-1.3c-7.2-0.1-14.3-0.3-21.5,0.1c-3.9,0.2-4.8-1.1-4.5-4.7
	c0.3-4.3,0.4-8.7,0-13c-0.4-4.2,1.3-4.9,5-4.7c6.3,0.3,12.6,0.1,19,0.1c1,0,2.2,0.1,2.2-1.3c0-1.5-1.3-1.2-2.2-1.2
	c-6.7,0-13.3-0.1-20,0c-2.9,0.1-4.2-0.4-4-3.7c0.3-5,0.3-10,0-15c-0.1-2.9,0.8-3.6,3.6-3.6c7.7,0.2,15.3,0.1,23,0
	c0.9,0,2.3,0.4,2.5-0.9c0.2-1.9-1.4-1.4-2.5-1.4c-8.7,0-17.3,0.1-26-0.1c-3-0.1-3.1,1.5-3.1,3.7c0.1,7.3,0,14.6,0,22
	c0,7.5,0.1,15,0,22.5c0,2.4,0.4,3.6,3.2,3.5C463.3-192.8,471.8-192.6,480.3-192.7z"/>
<path class="st0" d="M604.3-240c0-1.4,0.9-3.3-1.9-4.4c0,16.2,0,32.1,0,47.9c-0.3,0.1-0.7,0.2-1,0.3c-0.6-0.8-1.2-1.5-1.7-2.3
	c-10-14.3-19.9-28.7-29.8-43c-1.2-1.8-2.5-3.3-4.8-2.5c-2.3,0.8-1.2,2.8-1.3,4.3c-0.1,14.5-0.1,29,0,43.5c0,1.2-0.8,3.2,1,3.3
	c2.5,0.1,1.3-2.2,1.3-3.4c0.1-13.8,0-27.6,0.1-41.5c0-1.1-0.8-2.6,0.8-3.6c10.6,15.3,21.3,30.6,31.9,45.9c1.1,1.5,2,3.3,4.2,2.6
	c2.4-0.7,1.2-2.8,1.2-4.2C604.4-211.3,604.4-225.6,604.3-240z"/>
<path class="st0" d="M501.2-244.1c-3.3,0-5.4,0.2-7.3,0c-4-0.5-5.5,0.7-5.3,5c0.4,9.8,0,19.6,0.2,29.4c0.1,5.6-2.5,13.4,1,16.1
	c3.7,2.8,11.1,1.1,16.9,0.8c10-0.5,17.3-5.6,21.6-14.5c4.2-8.7,3.6-17.5-1.9-25.5C520.1-242.2,510.8-245.2,501.2-244.1z
	 M509.6-195.5c-5.3,1-10.6,0.4-15.9,0.6c-2.6,0.1-2.5-1.4-2.5-3.2c0-6.8,0-13.7,0-20.5c0-6.7,0.1-13.3,0-20c0-2.4,0.4-3.6,3.2-3.4
	c4.1,0.3,8.3,0,12.5,0.2c11.4,0.7,20.9,10,21.5,21.1C529-207.9,521.5-197.8,509.6-195.5z"/>
<path class="st0" d="M409.4-194.9c0.2,1,0.7,2.6,2.2,2c1.8-0.7,0.3-1.9-0.1-2.8c-6.2-15.2-12.5-30.4-18.8-45.6
	c-0.6-1.6-1.2-3-3.4-2.9c-2.3,0-2.6,1.5-3.3,3.1c-6.6,16-13.3,31.9-20.4,49.2c4.5-1.7,4.7-5,5.6-7.5c1.3-3.7,3.1-5.3,7.2-4.9
	c5.1,0.5,10.4,0.5,15.5,0C401.5-205.1,408-204.4,409.4-194.9z M374.4-206.8c4.9-12,9.8-23.6,15-36.2c5.2,12.7,10.1,24.3,15,36.2
	C394.3-206.8,384.7-206.8,374.4-206.8z"/>
<path class="st0" d="M426.8-217.8c3.5,1.1,7.1,1.7,10.5,2.9c4.8,1.7,7.1,5.2,6.8,10.4c-0.3,4.9-3.4,8.5-8.5,9.8
	c-6.1,1.6-11.5-0.1-16.4-3.9c-0.8-0.6-1.8-2-2.8-0.5c-0.8,1.1,0.5,1.7,1.2,2.3c4,3.4,8.5,5.1,14.7,5c7.1,0,13-4.5,13.9-11.2
	c1.1-7.9-2.3-12.6-11-15.2c-2.7-0.8-5.5-1.2-8.2-2.1c-6.9-2.3-9.9-7.1-8.4-13.1c1.5-6.1,7-9.5,13.8-8.6c3.5,0.5,6.7,1.7,9.6,3.8
	c0.9,0.7,2.1,2.6,3.2,0.9c0.9-1.4-1-2.2-2-2.9c-2.8-2.2-6-3.4-9.5-4c-8.1-1.5-15.4,2.6-17.3,9.8
	C414.3-226.9,418.4-220.4,426.8-217.8z"/>
<path class="st0" d="M554.8-195.3c0,1.1-0.4,2.7,1.5,2.5c1.4-0.1,0.9-1.5,0.9-2.4c0-7.7,0-15.3,0-23c0-7.7,0-15.3,0-23
	c0-1,0.6-2.7-1.1-2.7c-1.8-0.1-1.3,1.6-1.3,2.7C554.7-225.9,554.7-210.6,554.8-195.3z"/>
<g>
	<path class="st0" d="M284.7,20.3h14.5c6.5,0,11.3,1.1,14.4,3.3c3.1,2.2,4.6,5.6,4.6,10c0,3.1-0.9,5.6-2.8,7.6
		c-1.9,2-4.6,3.3-8.2,3.9v0.2c4.2,0.6,7.3,2,9.3,4c2,2,3,4.9,3,8.5c0,4.9-1.6,8.6-4.8,11.2c-3.2,2.6-7.8,3.9-13.7,3.9h-16.2V20.3z
		 M288.3,43.8H300c5,0,8.6-0.8,10.8-2.5c2.3-1.6,3.4-4.2,3.4-7.8c0-3.5-1.3-6.1-3.8-7.7c-2.5-1.6-6.3-2.4-11.4-2.4h-10.7V43.8z
		 M288.3,47v22.8h12.4c9.8,0,14.7-4,14.7-11.9c0-7.3-5.2-10.9-15.5-10.9H288.3z"/>
	<path class="st0" d="M356.5,54.5H335l-7.4,18.6h-4.1l21.2-53h2.3l20.8,53h-4.2L356.5,54.5z M336.4,51.1h18.9l-7.2-19
		c-0.6-1.5-1.3-3.6-2.2-6.2c-0.7,2.3-1.4,4.4-2.1,6.3L336.4,51.1z"/>
	<path class="st0" d="M404.6,59.5c0,4.4-1.6,7.9-4.9,10.5c-3.2,2.6-7.5,3.9-12.9,3.9c-6.5,0-11.4-0.7-14.9-2.1V68
		c3.8,1.6,8.7,2.4,14.6,2.4c4.3,0,7.8-1,10.3-3c2.5-2,3.8-4.6,3.8-7.8c0-2-0.4-3.7-1.3-5c-0.8-1.3-2.2-2.5-4.1-3.6
		c-1.9-1.1-4.7-2.3-8.4-3.5c-5.4-1.9-9.1-3.9-11.2-6c-2.1-2.2-3.1-5-3.1-8.6c0-4,1.5-7.2,4.6-9.7c3.1-2.5,7.1-3.7,11.9-3.7
		c5,0,9.6,0.9,14,2.8l-1.3,3.2c-4.4-1.8-8.6-2.7-12.6-2.7c-3.9,0-7,0.9-9.3,2.7s-3.5,4.3-3.5,7.4c0,2,0.4,3.6,1.1,4.8
		c0.7,1.3,1.9,2.4,3.5,3.4c1.6,1,4.4,2.2,8.3,3.6c4.1,1.4,7.2,2.8,9.3,4.1c2.1,1.3,3.6,2.9,4.5,4.6C404.1,55,404.6,57.1,404.6,59.5z
		"/>
	<path class="st0" d="M444.7,73.1h-28.9V20.3h28.9v3.4h-25.2v20h23.8V47h-23.8v22.7h25.2V73.1z"/>
	<path class="st0" d="M496.7,46.2c0,8.9-2.3,15.6-7,20.1c-4.6,4.5-11.5,6.8-20.5,6.8h-12.6V20.3h14.3c8.4,0,14.8,2.2,19.2,6.6
		C494.5,31.3,496.7,37.7,496.7,46.2z M492.7,46.3c0-7.6-1.9-13.3-5.8-17.1c-3.8-3.8-9.5-5.7-16.9-5.7h-9.7v46.3h8.7
		C484.8,69.8,492.7,62,492.7,46.3z"/>
	<path class="st0" d="M528.1,73.1V20.3h3.7v52.8H528.1z"/>
	<path class="st0" d="M585.1,73.1h-3.7l-31.3-46.9h-0.3c0.3,5.6,0.4,9.8,0.4,12.6v34.3h-3.5V20.3h3.7l31.3,46.8h0.2
		c-0.2-4.3-0.3-8.5-0.3-12.4V20.3h3.6V73.1z"/>
</g>
</svg>
