<?xml version="1.0" encoding="utf-8"?>
<!-- Generator: Adobe Illustrator 20.0.0, SVG Export Plug-In . SVG Version: 6.00 Build 0)  -->
<svg version="1.1" id="Layer_1" xmlns="http://www.w3.org/2000/svg" xmlns:xlink="http://www.w3.org/1999/xlink" x="0px" y="0px"
	 viewBox="0 0 153.5 174.3" style="enable-background:new 0 0 153.5 174.3;" xml:space="preserve">
<style type="text/css">
	.st0{fill:none;stroke:#8aa9b3;stroke-width:3.4808;stroke-miterlimit:10;}
</style>
<g>
	<circle class="st0" cx="77" cy="88.9" r="73.9"/>
	<path class="st0" d="M31.9,9.1c6.1,7.2-20.1,29.2-26.2,22S0.6,13.1,7.8,7S25.9,1.9,31.9,9.1z"/>
	<path class="st0" d="M12.3,12.4c1.8-1.6,4.1-2.4,6.5-2.4c2.5,0,4.9,0.9,6.8,2.6"/>
	<line class="st0" x1="77" y1="15" x2="77" y2="25.5"/>
	<line class="st0" x1="40.1" y1="24.9" x2="45.3" y2="34"/>
	<line class="st0" x1="13" y1="51.9" x2="22.1" y2="57.2"/>
	<line class="st0" x1="3.1" y1="88.9" x2="13.6" y2="88.9"/>
	<line class="st0" x1="13" y1="125.9" x2="22.1" y2="120.6"/>
	<line class="st0" x1="40.1" y1="152.9" x2="45.3" y2="143.8"/>
	<line class="st0" x1="77" y1="162.8" x2="77" y2="152.3"/>
	<line class="st0" x1="114" y1="152.9" x2="108.7" y2="143.8"/>
	<line class="st0" x1="141" y1="125.9" x2="131.9" y2="120.6"/>
	<line class="st0" x1="150.9" y1="88.9" x2="140.4" y2="88.9"/>
	<line class="st0" x1="141" y1="51.9" x2="131.9" y2="57.2"/>
	<line class="st0" x1="114" y1="24.9" x2="108.7" y2="34"/>
	<circle class="st0" cx="77" cy="88.9" r="7.4"/>
	<line class="st0" x1="77" y1="81.5" x2="77" y2="33.2"/>
	<line class="st0" x1="81.4" y1="95.8" x2="94.2" y2="116.5"/>
	<line class="st0" x1="40.1" y1="152.9" x2="27.9" y2="173.4"/>
	<line class="st0" x1="114" y1="152.9" x2="126.2" y2="173.4"/>
	<line class="st0" x1="22.8" y1="24.7" x2="29.2" y2="32.5"/>
	<line class="st0" x1="3.9" y1="1.1" x2="9.5" y2="8"/>
	<path class="st0" d="M147.7,30.6c-6.1,7.2-32.3-14.7-26.2-22c6.1-7.2,16.8-8.2,24.1-2.1C152.9,12.6,153.8,23.4,147.7,30.6z"/>
	<path class="st0" d="M127.9,12.1c1.8-1.7,4.2-2.6,6.8-2.6c2.4,0,4.7,0.8,6.5,2.4"/>
	<line class="st0" x1="130.8" y1="24.4" x2="124.2" y2="32"/>
	<line class="st0" x1="150.8" y1="1.6" x2="144.9" y2="8.4"/>
</g>
</svg>
