<?xml version="1.0" encoding="utf-8"?>
<!-- Generator: Adobe Illustrator 20.0.0, SVG Export Plug-In . SVG Version: 6.00 Build 0)  -->
<svg version="1.1" id="Layer_1" xmlns="http://www.w3.org/2000/svg" xmlns:xlink="http://www.w3.org/1999/xlink" x="0px" y="0px"
	 viewBox="0 0 869.8 217.6" style="enable-background:new 0 0 869.8 217.6;" xml:space="preserve">
<style type="text/css">
	.st0{fill:#FFFFFF;}
</style>
<g>
	<path class="st0" d="M130.1,122.5l-1.7-6.5h-11.2l-1.7,6.5h-10.3l11.3-34.7h12.5l11.4,34.7H130.1z M126.5,108.3l-1.5-5.7
		c-0.3-1.3-0.8-2.9-1.3-4.9c-0.5-2-0.8-3.4-1-4.3c-0.1,0.8-0.4,2.1-0.8,4c-0.4,1.8-1.3,5.5-2.8,10.9H126.5z"/>
	<path class="st0" d="M169.1,98.9c0,3.9-1.1,6.8-3.4,8.9c-2.3,2.1-5.5,3.2-9.7,3.2h-2.6v11.5h-9.3V87.9h12c4.4,0,7.6,1,9.8,2.9
		C168.1,92.7,169.1,95.4,169.1,98.9z M153.4,103.4h1.7c1.4,0,2.5-0.4,3.3-1.2c0.8-0.8,1.2-1.9,1.2-3.3c0-2.3-1.3-3.5-3.9-3.5h-2.4
		V103.4z"/>
	<path class="st0" d="M199.7,98.9c0,3.9-1.1,6.8-3.4,8.9c-2.3,2.1-5.5,3.2-9.7,3.2H184v11.5h-9.3V87.9h12c4.4,0,7.6,1,9.8,2.9
		C198.6,92.7,199.7,95.4,199.7,98.9z M184,103.4h1.7c1.4,0,2.5-0.4,3.3-1.2c0.8-0.8,1.2-1.9,1.2-3.3c0-2.3-1.3-3.5-3.9-3.5H184
		V103.4z"/>
	<path class="st0" d="M226.4,122.5l-1.7-6.5h-11.2l-1.7,6.5h-10.3l11.3-34.7h12.5l11.4,34.7H226.4z M222.8,108.3l-1.5-5.7
		c-0.3-1.3-0.8-2.9-1.3-4.9c-0.5-2-0.8-3.4-1-4.3c-0.1,0.8-0.4,2.1-0.8,4c-0.4,1.8-1.3,5.5-2.8,10.9H222.8z"/>
	<path class="st0" d="M249.7,109.9v12.6h-9.3V87.9h11.3c9.4,0,14.1,3.4,14.1,10.2c0,4-2,7.1-5.9,9.3l10.1,15.1h-10.6l-7.3-12.6
		H249.7z M249.7,102.9h1.7c3.3,0,4.9-1.4,4.9-4.3c0-2.4-1.6-3.6-4.8-3.6h-1.8V102.9z"/>
	<path class="st0" d="M293.7,122.5h-20.5V87.9h20.5v7.5h-11.2v5.4h10.4v7.5h-10.4v6.5h11.2V122.5z"/>
	<path class="st0" d="M299.7,122.5V87.9h9.3v27h13.3v7.5H299.7z"/>
	<path class="st0" d="M363.1,112c0,2.1-0.5,4-1.6,5.7c-1.1,1.7-2.7,3-4.7,3.9s-4.5,1.4-7.2,1.4c-2.3,0-4.2-0.2-5.8-0.5
		c-1.6-0.3-3.2-0.9-4.9-1.7v-8.3c1.8,0.9,3.6,1.6,5.6,2.1c1.9,0.5,3.7,0.8,5.3,0.8c1.4,0,2.4-0.2,3-0.7s1-1.1,1-1.9
		c0-0.5-0.1-0.9-0.4-1.2c-0.3-0.4-0.7-0.7-1.3-1.1c-0.6-0.4-2.1-1.1-4.6-2.2c-2.3-1-3.9-2-5.1-3c-1.1-1-2-2.1-2.5-3.3
		c-0.5-1.2-0.8-2.7-0.8-4.4c0-3.2,1.2-5.7,3.5-7.4c2.3-1.8,5.5-2.7,9.5-2.7c3.6,0,7.2,0.8,10.9,2.5l-2.9,7.2c-3.2-1.5-6-2.2-8.4-2.2
		c-1.2,0-2.1,0.2-2.6,0.6c-0.6,0.4-0.8,1-0.8,1.6c0,0.7,0.4,1.3,1.1,1.8c0.7,0.5,2.6,1.5,5.7,2.9c3,1.3,5,2.8,6.2,4.3
		S363.1,109.6,363.1,112z"/>
	<path class="st0" d="M383.8,95.1c-2.2,0-4,0.9-5.2,2.7c-1.2,1.8-1.9,4.3-1.9,7.5c0,6.7,2.5,10,7.6,10c1.5,0,3-0.2,4.4-0.6
		c1.4-0.4,2.9-0.9,4.3-1.5v7.9c-2.9,1.3-6.1,1.9-9.8,1.9c-5.2,0-9.2-1.5-12-4.5c-2.8-3-4.2-7.4-4.2-13.1c0-3.6,0.7-6.7,2-9.4
		c1.3-2.7,3.3-4.8,5.8-6.3c2.5-1.5,5.5-2.2,8.9-2.2c3.7,0,7.3,0.8,10.7,2.4l-2.9,7.4c-1.3-0.6-2.6-1.1-3.8-1.5
		S385.3,95.1,383.8,95.1z"/>
	<path class="st0" d="M409.2,109.9v12.6h-9.3V87.9h11.3c9.4,0,14.1,3.4,14.1,10.2c0,4-2,7.1-5.9,9.3l10.1,15.1h-10.6l-7.3-12.6
		H409.2z M409.2,102.9h1.7c3.3,0,4.9-1.4,4.9-4.3c0-2.4-1.6-3.6-4.8-3.6h-1.8V102.9z"/>
	<path class="st0" d="M453.1,122.5h-20.5V87.9h20.5v7.5h-11.2v5.4h10.4v7.5h-10.4v6.5h11.2V122.5z"/>
	<path class="st0" d="M479.7,122.5h-20.5V87.9h20.5v7.5h-11.2v5.4h10.4v7.5h-10.4v6.5h11.2V122.5z"/>
	<path class="st0" d="M518.6,122.5h-12.2l-12.6-24.3h-0.2c0.3,3.8,0.4,6.8,0.4,8.8v15.6h-8.3V87.9h12.2l12.6,24h0.1
		c-0.2-3.5-0.3-6.3-0.3-8.4V87.9h8.3V122.5z"/>
	<path class="st0" d="M551.2,98.9c0,3.9-1.1,6.8-3.4,8.9c-2.3,2.1-5.5,3.2-9.7,3.2h-2.6v11.5h-9.3V87.9h12c4.4,0,7.6,1,9.8,2.9
		C550.1,92.7,551.2,95.4,551.2,98.9z M535.4,103.4h1.7c1.4,0,2.5-0.4,3.3-1.2c0.8-0.8,1.2-1.9,1.2-3.3c0-2.3-1.3-3.5-3.9-3.5h-2.4
		V103.4z"/>
	<path class="st0" d="M566,109.9v12.6h-9.3V87.9H568c9.4,0,14.1,3.4,14.1,10.2c0,4-2,7.1-5.9,9.3l10.1,15.1h-10.6l-7.3-12.6H566z
		 M566,102.9h1.7c3.3,0,4.9-1.4,4.9-4.3c0-2.4-1.6-3.6-4.8-3.6H566V102.9z"/>
	<path class="st0" d="M589.5,122.5V87.9h9.4v34.6H589.5z"/>
	<path class="st0" d="M639.2,122.5H627l-12.6-24.3h-0.2c0.3,3.8,0.4,6.8,0.4,8.8v15.6h-8.3V87.9h12.2l12.6,24h0.1
		c-0.2-3.5-0.3-6.3-0.3-8.4V87.9h8.3V122.5z"/>
	<path class="st0" d="M661.9,122.5h-9.3V95.5h-8.4v-7.6h26.2v7.6h-8.4V122.5z"/>
	<path class="st0" d="M675.3,122.5V87.9h9.4v34.6H675.3z"/>
	<path class="st0" d="M725,122.5h-12.2l-12.6-24.3H700c0.3,3.8,0.4,6.8,0.4,8.8v15.6h-8.3V87.9h12.2l12.6,24h0.1
		c-0.2-3.5-0.3-6.3-0.3-8.4V87.9h8.3V122.5z"/>
	<path class="st0" d="M746.4,102.2h14.9v18.6c-4.1,1.4-8.5,2.1-13.4,2.1c-5.3,0-9.4-1.5-12.4-4.6s-4.4-7.5-4.4-13.2
		c0-5.6,1.6-9.9,4.8-13c3.2-3.1,7.6-4.7,13.4-4.7c2.2,0,4.2,0.2,6.2,0.6c1.9,0.4,3.6,0.9,5,1.6l-3,7.3c-2.5-1.2-5.2-1.8-8.2-1.8
		c-2.7,0-4.8,0.9-6.3,2.7c-1.5,1.8-2.2,4.3-2.2,7.6c0,3.2,0.7,5.7,2,7.4c1.3,1.7,3.3,2.5,5.8,2.5c1.4,0,2.7-0.1,3.8-0.4v-5.4h-6.2
		V102.2z"/>
</g>
</svg>
