<?xml version="1.0" encoding="utf-8"?>
<!-- Generator: Adobe Illustrator 20.0.0, SVG Export Plug-In . SVG Version: 6.00 Build 0)  -->
<svg version="1.1" id="Layer_1" xmlns="http://www.w3.org/2000/svg" xmlns:xlink="http://www.w3.org/1999/xlink" x="0px" y="0px"
	 viewBox="0 0 394.5 444.9" style="enable-background:new 0 0 394.5 444.9;" xml:space="preserve">
<style type="text/css">
	.st0{fill:#2A9ACC;}
	.st1{fill:#FFFFFF;}
</style>
<rect class="st0" width="394.5" height="444.9"/>
<g>
	<path class="st1" d="M72.5,407.1c-5,0-8.6,3.9-8.6,8.5v0c0,4.6,3.5,8.4,8.5,8.4c5,0,8.6-3.9,8.6-8.5v0
		C81,411,77.5,407.1,72.5,407.1z M78,415.7c0,3.2-2.3,5.8-5.5,5.8c-3.3,0-5.6-2.6-5.6-5.8v0c0-3.2,2.3-5.8,5.5-5.8
		C75.7,409.8,78,412.4,78,415.7L78,415.7z"/>
	<polygon class="st1" points="251,419.6 247,407.4 244.6,407.4 240.6,419.6 236.6,407.4 233.5,407.4 239.2,423.9 241.7,423.9 
		245.8,412.2 249.8,423.9 252.3,423.9 258,407.4 255,407.4 	"/>
	<polygon class="st1" points="264.3,407.4 261.4,407.4 261.4,423.8 272.9,423.8 272.9,421.2 264.3,421.2 	"/>
	<path class="st1" d="M208.4,415.3c1.2-0.6,2.3-1.7,2.3-3.7v0c0-1.1-0.4-2-1.1-2.7c-0.9-0.9-2.4-1.5-4.3-1.5H198v16.4h7.6
		c3.7,0,6.1-1.6,6.1-4.5v0C211.6,417,210.3,415.9,208.4,415.3z M200.8,410h4.1c1.9,0,2.9,0.8,2.9,2.1v0c0,1.5-1.2,2.2-3.1,2.2h-3.9
		V410z M208.7,419c0,1.5-1.2,2.2-3.2,2.2h-4.8v-4.5h4.6C207.6,416.8,208.7,417.6,208.7,419L208.7,419z"/>
	<path class="st1" d="M223.2,407.1c-5,0-8.6,3.9-8.6,8.5v0c0,4.6,3.5,8.4,8.5,8.4c5,0,8.6-3.9,8.6-8.5v0
		C231.7,411,228.2,407.1,223.2,407.1z M228.7,415.7c0,3.2-2.3,5.8-5.5,5.8c-3.3,0-5.6-2.6-5.6-5.8v0c0-3.2,2.3-5.8,5.5-5.8
		C226.4,409.8,228.7,412.4,228.7,415.7L228.7,415.7z"/>
	<rect x="276.5" y="407.4" class="st1" width="2.9" height="16.4"/>
	<path class="st1" d="M185,133h-24.1v-7.1h6.1c-0.5-0.6-0.8-1.3-1.1-2.2c0-0.1,0-0.2,0.2-0.2c0.1,0,0.3,0.1,0.4,0.1
		c0.4,0.7,1,1.3,1.6,2c0.1,0.1,0.1,0.2,0.2,0.3h14.2V116h-9.3c0,0,0,0,0,0c-0.1,0.3-0.4,0.5-0.7,0.4c-0.2,0-0.2-0.2-0.1-0.3
		c0,0,0,0,0-0.1h-11.4v-6.8h9.2c0,0,0.1-0.1,0.2-0.1c0.1,0,0.1,0.1,0.2,0.1h14.2V98.7H177c0,0,0,0.1-0.1,0.1
		c-0.2,0.3-0.5,0.4-0.9,0.2c-0.1-0.1-0.2-0.2-0.2-0.3h-27.2v44.9H185V133z M174.6,116.4c0.3,0,0.6,0.2,0.4,0.6
		c-0.1,0.3-0.3,0.3-0.6,0.2c-0.2-0.1-0.4-0.2-0.4-0.5C174.2,116.5,174.4,116.4,174.6,116.4z M170.6,119.2c0.2-0.2,0.3-0.4,0.3-0.7
		c-0.3-1.2,0.6-1.2,1-1.2c0.8-0.1,0.9,0.2,0.8,0.5c-0.3,0.8-0.8,1.5-1.4,2c-0.2,0.2-0.5,0.3-0.8,0
		C170.3,119.6,170.4,119.4,170.6,119.2z M167.3,121.9c0.2-0.8,0.9-1.4,1.6-1.6c0.5-0.1,0.3,0.4,0.2,0.6c-0.5,0.6-0.8,1.3-0.8,2.1
		c0,0,0,0,0,0c0,0,0,0,0,0c0,0,0.1,0,0.1,0c0.4,0,0.9-0.1,1.1,0.4c0,0.1-0.1,0.2-0.1,0.2c-0.6,0.2-0.9-0.2-1-0.7c0,0,0,0,0,0
		c0,0,0,0,0,0C167.9,122.7,167.1,122.7,167.3,121.9z M173.3,106.5c0.7-0.4,1.2-0.9,0.7-1.8c-0.1-0.2,0.1-0.4,0.3-0.4
		c0.7-0.1,0.8-0.6,0.9-1.2c0.1-0.4,0.4-0.6,0.8-0.5c0.4,0.1,0.6,0.5,0.5,0.8c-0.2,0.8-0.9,1.5-0.3,2.3c0,0,0,0.1-0.1,0.1
		c-0.6,0-1.1,0.4-1.6,0.7c0.1,0.1,0.2,0.1,0.2,0.2c0.1,0.2-0.1,0.2-0.3,0.2c-0.1-0.1-0.2-0.1-0.2-0.2c-0.3,0.1-0.5,0.3-0.9,0.3
		c-0.1,0-0.3-0.1-0.3-0.2C173.1,106.8,173.2,106.5,173.3,106.5z M167.1,99.4c0.3-0.1,0.4,0.2,0.6,0.4c0.2,0.5,0.8,0.9,0.5,1.6
		c-0.1,0.2-0.3,0.3-0.5,0.2c-0.6-0.3-0.4-1-0.6-1.4C167,100,166.7,99.6,167.1,99.4z M153,138.2c-0.1,0.2-0.3,0.2-0.5,0
		c-0.1-0.2-0.1-0.5,0.1-0.7c0.1-0.1,0.3-0.1,0.4,0C153.2,137.7,153.2,138,153,138.2z M155.5,122.6c-0.3,0.2-0.7,0.3-0.9,0
		c-0.3-0.5,0.2-0.8,0.5-1c0.3-0.2,0.6-0.3,0.9,0C156.3,122.1,155.9,122.3,155.5,122.6z M156.8,127.6c-0.2,0.1-0.5,0.2-0.5,0
		c0-0.3,0.2-0.6,0.3-0.9c0.2-0.2,0.4-0.2,0.4,0C157.3,127.1,157.1,127.4,156.8,127.6z M162.5,137.4c0,0.1-0.2,0.1-0.2,0.1
		c-0.1-0.1-0.1-0.2-0.1-0.2c0-0.1,0.1-0.2,0.2-0.2C162.5,137.1,162.6,137.2,162.5,137.4z M165.4,140.9c-0.2,0.1-0.5,0-0.7,0
		c-0.2-0.1-0.1-0.2,0-0.3c0.2-0.1,0.5-0.1,0.7,0C165.5,140.7,165.6,140.8,165.4,140.9z M166.9,140.8c0,0.3-0.2,0.6-0.6,0.5
		c-0.4,0-0.4-0.3-0.4-0.7c0.1-0.3,0.2-0.7,0.6-0.6C166.9,140.1,166.9,140.5,166.9,140.8z M175.6,142.7c-0.1,0.1-0.3,0.1-0.4-0.1
		c0-0.1,0-0.2,0.1-0.2c0.1-0.1,0.2-0.2,0.4,0C175.8,142.5,175.7,142.6,175.6,142.7z M179.5,143.3c-0.7,0-1.4,0.1-2-0.3
		c0,0,0,0.1,0,0.1c-0.1,0.2-0.2,0.2-0.4,0.1c-0.2-0.1-0.4-0.2-0.2-0.4c0.1-0.1,0.3,0,0.3-0.1c0.1,0,0.1,0.1,0.1,0.1
		c-0.1-0.2-0.1-0.4,0.1-0.5c0.8-0.3,1.4,0.2,2,0.5C179.7,143,179.7,143.3,179.5,143.3z"/>
	<path class="st1" d="M194.2,316.3c-0.1-0.9-0.1-1.6-1.1-2.1c-0.4-0.2-0.2-0.6,0.2-0.7c-0.9-1.1-2-1.8-3.4-1.8c-3,0-4.9,3-4.9,7.1
		v0.1c0,4.1,2,7.2,5,7.2c3,0,4.9-3,4.9-7.1v-0.1c0-0.7-0.1-1.4-0.2-2.1C194.5,316.7,194.3,316.6,194.2,316.3z M188.2,317.9
		c-0.3,0.3-0.7,0.3-1,0c-0.2-0.2-0.1-0.5,0.1-0.7c0.3-0.1,0.7-0.4,1.1-0.1C188.6,317.4,188.5,317.7,188.2,317.9z M191.4,317.6
		c-0.1,0.1-0.2,0-0.3-0.1c-0.1,0-0.1,0.1-0.2,0.1c-0.3,0.2-0.7,0.3-1.1,0.3c-0.4,0-0.7-0.1-0.6-0.6c0.1-0.4,0.1-0.8,0.7-0.6
		c0.2,0.1,0.5,0.1,0.7,0.1c0.3,0,0.7-0.5,0.8,0.1c0,0.1,0,0.1,0,0.2c0,0,0,0,0,0C191.5,317.3,191.5,317.5,191.4,317.6z"/>
	<path class="st1" d="M240.6,184v8.8c0.2,0.1,0.4,0.3,0.4,0.7c0.1,0.7,0.2,0.9,0.9,0.8c0.7,0,1.5,0.4,1.3,1.4
		c-0.2,1.4,0.2,2.4,1.2,3.3c0.5,0.5,1,0.9,0.1,1.4c0,0.1,0,0.3-0.1,0.4h4.1c0-0.1-0.1-0.2-0.1-0.3c-0.1-0.2-0.1-0.4,0.1-0.5
		c0.2-0.1,0.4,0,0.6,0.1c0.2,0.2,0.4,0.5,0.5,0.7h3.3v-14.4c-0.1,0.4-0.2,0.7-0.7,0.8c-0.3,0-0.4-0.2-0.3-0.4c0.2-0.4,0.2-1,0.8-1.2
		c0.1,0,0.2,0,0.3,0.1v-1.9l17.1-27.9h-13.9l-2.3,4c0.4,1.1,0.6,2.2,0.6,3.4c0,0.9-0.4,0.3-0.7,0.2c-1.1,0.3-1-0.4-1-1
		c0-0.2,0-0.3,0-0.5l-1.1,1.9c0,0.2,0,0.3-0.2,0.4l-4.5,8l-2.7-4.8c-0.1,0-0.2-0.1-0.2-0.2c0,0,0-0.1,0-0.1l-2.3-4.1
		c-0.1,0.1-0.1,0.1-0.3,0.1c-0.4,0-0.5-0.4-0.5-0.8c0-0.2,0-0.3,0.1-0.5l-3.4-6h-14.2L240.6,184z M261.5,162.9
		c0.1-0.1,0.2-0.2,0.4-0.1c0.1,0.1,0.1,0.3-0.1,0.4c-0.1,0.1-0.3,0.2-0.4,0.1C261.4,163.1,261.4,163,261.5,162.9z M255.2,176.9
		c0.3,0,0.5,0.3,0.5,0.6c0,0.3-0.2,0.6-0.6,0.5c-0.3,0-0.5-0.3-0.5-0.6C254.7,177.1,254.8,176.9,255.2,176.9z M248.6,196.4
		c-0.1,0-0.3,0-0.4,0c-0.1-0.1,0-0.3,0.1-0.4c0.1-0.1,0.3-0.1,0.4,0C248.8,196.2,248.8,196.3,248.6,196.4z M250.8,166.2
		c0.2-0.1,0.4,0.1,0.5,0.3c0.1,0.2,0.2,0.3,0.3,0.5c0.3,0.7,0.7,1.4,0.4,2.2c0,0-0.3,0-0.4-0.1c-0.7-0.7-1.1-1.5-1.1-2.4
		C250.5,166.4,250.5,166.3,250.8,166.2z M248.9,183.3c0.3-0.1,0.7,0,0.9,0.3c0.1,0.2,0,0.3-0.1,0.4c-0.4,0.1-0.8,0.1-1-0.3
		C248.5,183.5,248.7,183.4,248.9,183.3z M248.4,194.6c0.3,0.1,0.7,0.1,0.9,0.4c0.1,0.3-0.2,0.3-0.4,0.3c-0.3,0-0.7-0.1-0.9-0.4
		C247.9,194.6,248.2,194.6,248.4,194.6z M246.7,196.1c0.4-0.1,0.8,0.2,1,0.7c0.2,0.5-0.1,0.9-0.3,1.3c0,0,0,0,0,0c0.1,0,0.3,0,0.4,0
		c0.2,0,0.6,0,0.4,0.4c-0.1,0.2-0.4,0.1-0.5,0c-0.1-0.1-0.2-0.3-0.3-0.4c0,0,0,0,0,0c0,0,0,0,0,0c0,0,0,0,0,0c-0.2,0-0.2,0-0.3-0.1
		c0.1,0.1,0.1,0.2,0.1,0.2c0.1,0.2,0.2,0.3,0.3,0.5c0,0,0,0,0,0c0.2,0.2,0.4,0.5,0.5,0.7c0.1,0.1,0.1,0.3,0,0.4
		c-0.1,0-0.3,0-0.4-0.1c-0.4-0.3-0.7-0.6-1.1-1c-0.2-0.2-0.3-0.6,0-0.8c0.1-0.1,0.2-0.1,0.2-0.1c-0.1-0.2-0.1-0.6-0.2-0.9
		C246.5,196.8,246,196.3,246.7,196.1z M242.7,165.9c0.2-0.1,0.4-0.1,0.5,0.1c0.1,0.2-0.1,0.3-0.3,0.4c-0.2,0.1-0.4,0.1-0.4-0.2
		C242.5,166.1,242.6,165.9,242.7,165.9z M242.2,175.4c0.4,0,0.4,0.4,0.4,0.7c0,0.4,0,0.8-0.5,0.8c-0.4,0-0.4-0.4-0.4-0.6
		C241.8,175.9,241.8,175.4,242.2,175.4z M240.5,179.6c0.1-0.2,0.3-0.2,0.5-0.1c0.1,0.1,0.2,0.2,0.2,0.3c0,0.2-0.2,0.3-0.4,0.2
		C240.6,179.9,240.3,179.9,240.5,179.6z M239.5,180.7c0.1,0,0.1,0.1,0.1,0.2c0,0.2-0.1,0.2-0.3,0.2c-0.1,0-0.1-0.1-0.1-0.2
		C239.2,180.8,239.3,180.7,239.5,180.7z M234.8,169.7c0.2,0,0.4,0.2,0.3,0.4c-0.3,0.3-0.7,0.3-1,0.3c-0.1,0-0.2-0.2-0.1-0.4
		C234.1,169.7,234.4,169.6,234.8,169.7z"/>
	<path class="st1" d="M97.2,283.1h-7.1v8h7.6c3.4,0,5.6-1.5,5.6-4V287C103.2,284.6,101.2,283.1,97.2,283.1z"/>
	<polygon class="st1" points="340.2,414.7 335.6,407.4 332.2,407.4 338.7,417.3 338.7,423.8 341.6,423.8 341.6,417.3 348.1,407.4 
		344.8,407.4 	"/>
	<path class="st1" d="M102,276.9L102,276.9c0-2.3-1.8-3.7-5-3.7h-6.9v7.8h6.7C99.8,280.9,102,279.5,102,276.9z"/>
	<path class="st1" d="M127.7,200.8h17.1c6.3,0,11.5-1.5,15.6-4c0-0.1,0-0.3,0.1-0.4c0.2-0.5,0.6-0.6,1.1-0.4
		c5.7-4,8.8-10.4,8.8-17.8v-0.1c0-2.1-0.3-4.1-0.8-6c-0.1,0-0.2,0-0.3,0c-0.2-0.1-0.2-0.2-0.1-0.3c0.1-0.1,0.2-0.2,0.3-0.2
		c-1.4-4.9-4.4-8.9-8.8-11.6c-0.3,0.2-0.5,0.4-0.9,0.5c-0.2,0.1-0.5-0.2-0.4-0.5c0.1-0.2,0.2-0.4,0.4-0.5c-3.9-2.2-8.9-3.5-14.8-3.5
		h-17.3V200.8z M168.6,179.8c0.2-0.2,0.3-0.7,0.8-0.4c0.2,0.1,0,0.4-0.1,0.5c-0.2,0.2-0.4,0.4-0.6,0.5
		C168.4,180.2,168.5,180,168.6,179.8z M167.5,185.8c0.2,0,0.3,0.1,0.3,0.2c0,0.1,0,0.3-0.1,0.4c-0.2,0-0.3-0.1-0.3-0.2
		C167.3,186,167.3,185.8,167.5,185.8z M134.3,190.8c-0.2,0.1-0.4,0-0.4-0.3c0-0.2,0.1-0.3,0.2-0.3c0.2,0,0.3,0.1,0.3,0.2
		C134.5,190.6,134.4,190.7,134.3,190.8z M150.6,189.9c-0.3,0.3-0.6,0.5-1,0.2c-0.2-0.2-0.3-0.4-0.1-0.6c0.3-0.3,0.6-0.4,1-0.2
		C150.8,189.5,150.8,189.7,150.6,189.9z M151.7,189.2c-0.2,0.1-0.3,0.2-0.5,0c-0.1-0.2,0-0.4,0.2-0.5c0.1-0.1,0.3-0.1,0.4,0
		C152,188.9,151.9,189.1,151.7,189.2z M153.4,189.2c0,0.1-0.1,0.1-0.2,0.1c0,0.1,0,0.2,0,0.3c-0.1,0.2-0.2,0.2-0.3,0.1
		c-0.1-0.1-0.1-0.1-0.1-0.2c-0.1,0-0.3,0-0.4-0.1c-0.3-0.1-0.3-0.3-0.2-0.6c0.3-0.3,0.7-0.3,1-0.1
		C153.5,188.8,153.6,189,153.4,189.2z M154.7,187.3c-0.1,0.1-0.3,0.1-0.4,0.1c-0.2,0-0.2-0.2-0.1-0.3c0.1-0.1,0.3-0.1,0.4-0.1
		C154.8,187.1,154.8,187.2,154.7,187.3z M159.4,162.1c0.1-0.3,0.1-0.6,0.5-0.6c0.2,0,0.3,0.2,0.3,0.4c0,0.3-0.3,0.5-0.6,0.6
		C159.3,162.5,159.3,162.3,159.4,162.1z M158.4,161.6c0,0.1-0.1,0.3-0.3,0.2c-0.1,0-0.1-0.2-0.1-0.3c0-0.1,0-0.3,0.2-0.3
		C158.4,161.3,158.4,161.4,158.4,161.6z M158,159.6c0.1,0,0.2,0,0.3,0c0.1,0,0,0.2,0.1,0.2c-0.1,0-0.2,0.1-0.2,0.1
		C157.9,159.9,157.9,159.8,158,159.6z M140.1,166.9h1.2c0-0.1,0-0.1,0-0.2c0-0.1,0.1-0.3,0.2-0.3c0.2-0.1,0.3,0.1,0.4,0.3
		c0,0.1,0,0.2,0,0.2h3.3c7.4,0,12.4,4.2,12.4,11.3v0.1c0,7.2-4.9,11.3-12.4,11.3h-5.1V166.9z M139.1,163.2c0.2,0,0.4,0.1,0.4,0.3
		c0,0.2,0,0.3-0.2,0.3c-0.2,0-0.3-0.1-0.4-0.2C138.9,163.3,139,163.2,139.1,163.2z M137.5,167.1c0.3-0.2,0.7-0.4,0.9,0
		c0.3,0.3-0.1,0.5-0.3,0.7c-0.1,0-0.1,0.1-0.2,0.1c0,0,0.1,0,0.1,0.1c0.1,0.4,0.2,0.8-0.1,1.1c-0.2,0.2-0.3-0.1-0.4-0.3
		c-0.1-0.3-0.1-0.6,0.1-0.8c-0.1,0-0.3,0-0.4-0.2C136.9,167.5,137.3,167.3,137.5,167.1z M135.7,162.2c0.2-0.1,0,0.6,0.1,0.9
		c-0.1,0.4,0.3,1.2-0.5,1.3c-0.4,0.1-0.6-0.4-0.5-0.7C134.8,163.1,135.1,162.5,135.7,162.2z M134.3,166.8c-0.1,0-0.2-0.2-0.2-0.3
		c0.1-0.1,0.1-0.2,0.2-0.2c0.1,0.1,0.2,0.2,0.3,0.3C134.6,166.7,134.5,166.8,134.3,166.8z M134.1,164.3c0.4,0.1,0.5,0.4,0.5,0.8
		c0,0.2-0.2,0.5-0.3,0.3c-0.2-0.2-0.3-0.6-0.4-0.8C133.8,164.4,133.9,164.3,134.1,164.3z M131,162.7c0.3,0,0.6,0.1,0.6,0.5
		c0,0.3-0.2,0.5-0.6,0.5c-0.3,0-0.6-0.1-0.6-0.5C130.4,162.9,130.7,162.7,131,162.7z M128.9,162.1c0.1-0.3,0.2-0.7,0.6-0.7
		c0.6,0.3,0.5,0.7,0.5,1.2c-0.1,0.4-0.3,0.7-0.7,0.6C128.8,163.1,128.9,162.6,128.9,162.1z"/>
	<polygon class="st1" points="324.9,407.4 322,407.4 322,423.8 333.5,423.8 333.5,421.2 324.9,421.2 	"/>
	<path class="st1" d="M194.7,121.2c0,1.6,0.1,3.1,0.4,4.6c0.3,0.2,0.5,0.5,0.5,0.8c0,0.2-0.1,0.3-0.2,0.3
		c2.5,10.4,11.6,17.4,22.5,17.4c9.9,0,15.6-4.3,19.9-10.1l-9.4-6.7c-2.7,3.3-5.4,5.4-10.1,5.4c-4.7,0-8.3-2.9-9.9-7.2
		c-0.1,0-0.1,0.1-0.2,0c-0.4,0-0.4-0.4-0.4-0.7c0-0.4,0-0.7,0.1-1.1c-0.2-1-0.3-2-0.3-3V121c0-6.5,4.4-11.9,10.7-11.9
		c4.3,0,7.2,2.1,9.8,5.3l9.4-7.2c-1.1-1.5-2.3-2.9-3.7-4.1c0,0,0,0.1,0,0.1c-0.1,0.2-0.3,0.3-0.4,0.1c-0.1-0.2-0.2-0.4-0.1-0.7
		c-3.7-2.9-8.4-4.8-14.7-4.8c-13.6,0-23.7,10.3-23.7,23.3V121.2z M234,133.3c0.1,0,0.2,0,0.2,0.1c0,0.1,0,0.2-0.1,0.2
		c-0.1,0.1-0.3,0.1-0.3-0.1C233.8,133.4,233.9,133.3,234,133.3z M232.8,136.6c0.1-0.1,0.3-0.2,0.5-0.1c0,0.1,0,0.2,0,0.2
		c-0.1,0.1-0.3,0.2-0.5,0.1C232.7,136.9,232.7,136.7,232.8,136.6z M231.4,132.2c0.2,0.1,0.3,0.2,0.3,0.5c0,0.2-0.2,0.1-0.3,0.1
		c-0.1-0.1-0.3-0.2-0.3-0.4C231.1,132.2,231.2,132.2,231.4,132.2z M230.8,138.7c0.4-0.3,1-0.7,1.4-0.1c0.5,0.7-0.4,0.8-0.8,1.1
		c-0.4,0.2-0.8,1-1.3,0.3C229.8,139.4,230.4,139,230.8,138.7z M223,134.9c0.4-0.3,1-0.8,1.6,0.3c0.1,0.2,0.4,0.3,0.6,0.4
		c0.3,0.1,0.5,0.2,0.5,0.5c0,0.4-0.3,0.5-0.6,0.5c-0.8-0.1-1.6-0.3-2.3-0.8C222.4,135.6,222.3,135.2,223,134.9z M207.7,108.9
		c0.1-0.4,0.2-0.9,0.6-0.8c0.6,0.1,0.3,0.7,0.3,1.1c0,0.4-0.1,0.9-0.7,0.7C207.5,109.8,207.7,109.3,207.7,108.9z M203.6,110.9
		c0.4,0,0.5,0.4,0.6,0.7c0,0.2,0,0.4-0.3,0.4c-0.3-0.1-0.6-0.4-0.6-0.7C203.3,111.1,203.4,110.9,203.6,110.9z M203.3,114.9
		c0.1-0.2,0.1-0.4,0.4-0.3c0.2,0.1,0.2,0.3,0.2,0.5c0,0.2-0.1,0.4-0.4,0.3C203.3,115.3,203.3,115.1,203.3,114.9z M199,108.8
		c0.4-0.2,0.8-0.5,1.2-0.7c0.4-0.1,0.7-0.9,1.1-0.4c0.3,0.5,0.3,1.2-0.2,1.6c-0.7,0.6-1.5,0.3-2.3,0.5c-0.2,0-0.3-0.2-0.3-0.4
		C198.4,109.1,198.7,108.9,199,108.8z"/>
	<path class="st1" d="M98.8,105.9c0.4,0,0.6,0.2,0.7,0.7c-0.1,0.4-0.3,0.7-0.7,0.7v2.3h13.5v34h12.4V128c0,0-0.1,0-0.1,0
		c-0.6-0.5-1.2-1-1.8-1.5c-0.2-0.2-0.3-0.5-0.1-0.8c0.1-0.2,0.3-0.4,0.6-0.4c0.3,0,0.9,0.7,1.4,1.3v-17h0.4c0,0,0-0.1,0.1-0.2
		c0,0,0.2-0.1,0.3,0c0.1,0,0.1,0.1,0.1,0.2h12.6V98.7H98.7L98.8,105.9C98.7,105.9,98.7,105.9,98.8,105.9z M124.9,104.7
		c-0.1,0-0.1-0.2-0.2-0.3c0.1-0.1,0.2-0.3,0.3-0.3c0.2-0.1,0.2,0.1,0.2,0.2C125.2,104.5,125.1,104.7,124.9,104.7z M125.1,100.9
		c0.3,0,0.3,0.2,0.3,0.4c0,0.3-0.1,0.6-0.5,0.6c-0.2,0-0.3-0.2-0.3-0.4C124.6,101.1,124.7,100.9,125.1,100.9z M122.3,123.9
		c0.2-0.3,0.3-0.7,0.8-0.8c0.2,0,0.3,0.2,0.3,0.4c-0.1,0.4-0.4,0.7-0.8,0.8C122.4,124.4,122.3,124.1,122.3,123.9z M120.9,138.4
		c0.1-0.3,0.4-0.2,0.7-0.2c0.5,0.2,1.2,0,1.5,0.7c0.1,0.2,0,0.4-0.2,0.5c-0.6,0.2-1-0.4-1.4-0.5
		C121.2,138.8,120.7,138.8,120.9,138.4z M119.9,129.5c0.1-0.4-0.1-1,0.6-1.1c0.3-0.1,0.5,0.2,0.4,0.5c-0.1,0.5-0.3,1-0.8,1.1
		C119.6,130.2,119.9,129.7,119.9,129.5z M118.7,132.9c0-0.1,0.1-0.2,0.3-0.1c0.2,0,0.3,0.1,0.3,0.3c0,0.2-0.2,0.2-0.3,0.2
		C118.7,133.3,118.6,133.2,118.7,132.9z M113.3,139.4c0.1-0.3,0.2-0.6,0.6-0.6c0.4,0,0.4,0.4,0.3,0.7c0,0.3-0.2,0.6-0.6,0.5
		C113.3,139.9,113.3,139.7,113.3,139.4z M102.2,106.2c-0.1,0.2-0.2,0.2-0.3,0.1c-0.1,0-0.3-0.1-0.2-0.3c0-0.2,0.2-0.2,0.3-0.1
		C102.2,105.9,102.3,106,102.2,106.2z M101.7,104.2c0.2,0,0.4,0.1,0.3,0.4c-0.1,0.4-0.3,0.6-0.6,0.7c-0.3,0-0.3-0.2-0.3-0.4
		C101.1,104.5,101.2,104.2,101.7,104.2z"/>
	<path class="st1" d="M215.6,178C215.6,178,215.6,178,215.6,178c-0.2,0-0.3-0.1-0.2-0.3c0,0,0-0.1,0.1-0.1l-5.2-12.4
		c-0.1,0.1-0.2,0.1-0.3,0.2c0,0-0.1,0-0.1-0.1c-0.2-0.3-0.1-0.6,0.1-0.8c0,0,0,0,0-0.1l-0.8-2c-0.2,0.1-0.5,0.2-0.7-0.1
		c-0.1-0.1,0-0.4,0.2-0.5c0.1-0.1,0.2-0.1,0.3-0.2l-2.6-6.2h-10.4c0,0.2-0.1,0.3-0.3,0.3c-0.2,0-0.3-0.1-0.3-0.3h-1l-2,4.6
		c0.4,1,0.9,2,1.4,3c0.2,0.6,0.3,1.3-0.1,1.7c-1.1,1.2-0.8,2.5-0.5,3.8c0.2,0.8,0.4,1.6-0.9,1.1c-0.3-0.1-0.5,0.1-0.7,0.2
		c-0.5,0.4-0.7,0.1-0.4-0.3c0.9-1.8,0.6-3.8,1.4-5.6c0.3-0.6-0.4-1.2-1-0.9c-0.2,0.1-0.4,0.2-0.5,0.2l-5.8,13.8
		c0.3-0.1,0.6,0,0.7,0.3c0.2,0.8-0.5,1.2-0.8,1.7c-0.3,0.1-0.6,0.2-0.7,0.1l-9.1,21.4h13.1l3.2-8h4.3c0,0,0,0,0,0c0,0,0,0,0,0h12.9
		l0.9,2.1c0.4,0.2,0.8,0.4,1.1,0.6c0.6,0.4,0.8,1,0.5,1.6c-0.1,0.3-0.4,0.4-0.6,0.4l1.4,3.3h13.3L215.6,178z M206,165.1
		c0.2,0.4-0.1,0.6-0.3,0.7c-0.2,0.2-0.5,0.5-0.8,0.2c-0.3-0.3,0.1-0.5,0.3-0.7C205.5,165.1,205.7,164.9,206,165.1z M204.2,156.6
		c0.2-0.3,0.6,0.1,0.8,0.4c0.2,0.6,0.3,1.2,0.2,1.7c-0.6,0.1-1.2,0.1-1.3-0.3C203.6,157.8,203.9,157.1,204.2,156.6z M203,162.5
		c0.2-0.7,0.7-1.3,0.8-1.9c0.3-0.2,0.4-0.2,0.5,0c0.2,0.7,0.3,1.3,0.4,2c0,0.5-0.1,0.9-0.7,0.8C203.4,163.4,202.8,163.1,203,162.5z
		 M201.4,167.1c0.1-0.1,0.3,0,0.4,0.1c0.1,0.1,0.1,0.3-0.1,0.4c-0.1,0.1-0.3,0.1-0.4-0.1C201.2,167.3,201.3,167.2,201.4,167.1z
		 M197.3,157.3c0.7,0.1,1.3-0.3,1.8-0.1c0.7,0.2,1.9,0.4,1.9,1.1c0,0.8-1.2,0.5-1.9,0.6c-0.3,0.1-0.7,0.1-1.1,0.1
		c-0.6-0.1-0.9-0.6-1.1-1.1C196.9,157.6,197.1,157.2,197.3,157.3z M195.8,162.4c0.1,0,0.1,0.2,0.1,0.3c-0.1,0-0.1,0.1-0.2,0.1
		c-0.1,0-0.2-0.1-0.2-0.2C195.6,162.5,195.6,162.3,195.8,162.4z M195,164.6c0.3,0,0.6,0.2,0.6,0.5c0,0.3-0.1,0.5-0.4,0.5
		c-0.4,0-0.7-0.2-0.7-0.6C194.5,164.8,194.7,164.7,195,164.6z M195.1,166.4c-0.1,0.2-0.2,0.3-0.4,0.1c-0.2-0.1-0.2-0.3-0.1-0.4
		c0.1-0.2,0.2-0.2,0.4-0.2C195.1,166.1,195.2,166.2,195.1,166.4z M194.1,159c0.2,0,0.2,0.2,0.2,0.3c0,0.2-0.2,0.2-0.3,0.2
		c-0.2,0-0.2-0.2-0.2-0.3C193.8,159,193.9,159,194.1,159z M193.6,162.9c-0.2-0.2-0.3-0.5-0.2-0.8c0-0.2,0.2-0.2,0.4,0
		c0,0.2,0.1,0.5,0.1,0.8C193.9,163,193.7,163,193.6,162.9z M190.2,165.5c0.1-0.2,0.1-0.7,0.3-0.6c0.6,0.2,0.5,0.9,0.6,1.4
		c0,0.2-0.1,0.6-0.4,0.4C190.1,166.5,190.2,165.9,190.2,165.5z M187.8,178.6c-0.4-0.1-0.7-0.4-0.6-0.9c0.1-0.5,0.5-0.4,0.8-0.2
		c0.6,0.3,1.2,0.2,1.7-0.1c0.2-0.1,0.6-0.4,0.8,0c0.2,0.4-0.2,0.6-0.5,0.8C189.3,178.5,188.6,178.8,187.8,178.6z M190.6,192.5
		c-0.2,0.4-0.5,0.8-1.1,0.7c-0.3-0.3-0.2-0.6-0.1-0.9c0.2-0.4,0.4-0.9,1-0.7C190.9,191.7,190.8,192.1,190.6,192.5z M191.5,176.6
		c-0.3,0.2-0.6,0.1-0.9-0.2c-0.1-0.3,0-0.5,0.2-0.6c0.3-0.2,0.6-0.2,0.8,0.1C191.7,176.1,191.7,176.4,191.5,176.6z M191.8,172.7
		c-0.7-0.1-0.5-0.4-0.1-0.5c1.2-0.4,2.2-1.1,3.2-1.8c-0.1,0-0.2,0-0.3-0.1c-0.5,0.1-0.8,0.1-0.8-0.3c-0.1,0-0.1-0.1-0.1-0.1
		c-0.1-0.4,0.1-0.7,0.3-0.9c-0.1-0.2-0.3-0.4-0.3-0.6c-0.1-0.4-0.2-0.8,0.2-1.1c0.5-0.2,1.1-0.1,1.6,0.1c0.4,0.2,0.3,0.6,0.1,0.9
		c-0.2,0.4-0.4,0.7-0.1,1.1c0.1,0.2,0.2,0.3,0.2,0.5c0.3-0.2,0.6-0.4,1-0.5c0.6-0.2,0.7-1.1,0-1.3c-1.7-0.6-0.6-1.2-0.1-1.8
		c0.3-0.3,0.6-0.5,1.1-0.9c0.1-0.1,0.3-0.3,0.5-0.5c0.5-0.4,0.9-0.2,1.4,0c0.5,0.3,0.6,0.8,0.3,1.1c-0.7,1.1-1.1,2.4-1.6,3.6
		c-0.2,0.4-0.4,0.7-0.7,0.9c-0.1,0.3-0.1,0.8-0.6,0.8c-0.3,0-0.4-0.3-0.4-0.5c-1.3,0.2-2,1.1-2.7,2c0,0,0,0.1,0,0.1
		c0,0.3-0.2,0.4-0.4,0.5c-0.4,0.5-0.7,0.7-1.1-0.3C192.3,172.8,192.1,172.7,191.8,172.7z M198.3,172.4c-0.2,0.2-0.4,0.2-0.6,0
		c-0.3-0.3-0.3-0.6,0-0.9c0.2-0.2,0.5-0.1,0.7,0.1C198.5,171.9,198.5,172.2,198.3,172.4z M193,176.1c-0.1,0-0.2,0-0.2-0.1
		c-0.1-0.1-0.1-0.3,0.1-0.3c0.1,0,0.2,0,0.2,0.1C193.2,175.9,193.2,176,193,176.1z M194,174.3c0.5-0.1,0.4-0.7,0.7-1.1
		c0.2-0.3,0.5-0.7,0.9-0.5c0.5,0.2,0.8,0.7,1,1.2c0.2,0.4-0.2,0.6-0.6,0.7c-0.4,0.1-0.8,0.2-0.9,0.7c-0.4,1.6-0.8,0.7-1.3,0
		C193.3,174.9,193,174.5,194,174.3z M195.8,175.3c-0.1,0-0.2,0-0.2,0c-0.1-0.1-0.1-0.3,0.1-0.3c0,0,0.2,0,0.2,0
		C195.9,175,195.9,175.2,195.8,175.3z M194.2,189c-0.1,0-0.2,0-0.3,0c0-0.1,0-0.2,0-0.3c0.1,0,0.2,0,0.3,0
		C194.2,188.8,194.3,189,194.2,189z M194,190.4c-0.1-0.1-0.1-0.3-0.1-0.4c0-0.2,0.2-0.3,0.3-0.2c0.2,0.1,0.2,0.3,0.2,0.5
		C194.3,190.5,194.1,190.5,194,190.4z M194.7,177.7c-0.3-0.3,0.1-0.6,0.4-0.8c0.3-0.2,0.7-0.5,1-0.1c0.3,0.4-0.1,0.6-0.4,0.8
		C195.4,177.6,195,178.1,194.7,177.7z M195,183.1l2.4-6c-0.1,0-0.2,0-0.3,0c-0.2-0.1-0.3-0.3-0.2-0.5c0.1-0.2,0.3-0.1,0.5,0
		c0,0.1,0.1,0.1,0.1,0.2l2.6-6.4l0.1,0.3c0.1-0.1,0.2-0.1,0.2,0.1c0,0.1-0.1,0.2-0.1,0.3l4.8,12.1H195z M205.3,170.8
		c-0.3-0.2-0.5-0.5-0.8-0.7c-0.4-0.5-0.2-1,0.1-1.6c0.1-0.2,0.5-0.3,0.6-0.1c0.3,0.6,1.1,0.7,1.3,1.3c0.3,0.7,1,1.7,0.5,2.1
		C206.4,172.3,205.9,171.2,205.3,170.8z M207.1,179.9c0-0.1,0-0.2-0.1-0.3c0.1,0,0.2-0.1,0.2-0.1c0,0.1,0.1,0.2,0.1,0.3
		C207.3,179.8,207.1,179.8,207.1,179.9z M211.1,177.7c-0.2,0.2-0.4,0.3-0.7,0.2c-0.2,0-0.2-0.2-0.1-0.3c0.2-0.2,0.5-0.3,0.8-0.3
		C211.3,177.5,211.3,177.6,211.1,177.7z M212.7,182.7c0-0.1-0.1-0.2,0-0.3c0,0,0.2,0,0.2-0.1c0,0.1,0,0.2,0,0.3
		C212.8,182.6,212.8,182.6,212.7,182.7z M213.7,178.6c-0.1,0.1-0.2,0.2-0.3,0.1c-0.2-0.1-0.2-0.3-0.2-0.5c0.1-0.2,0.2-0.2,0.3-0.1
		C213.7,178.2,213.7,178.4,213.7,178.6z"/>
	<polygon class="st1" points="295.7,418.8 286.9,407.4 284.2,407.4 284.2,423.8 287.1,423.8 287.1,412.2 296.1,423.8 298.5,423.8 
		298.5,407.4 295.7,407.4 	"/>
	<path class="st1" d="M310.8,417.2h4.2v3.1c-1,0.7-2.4,1.2-4,1.2c-3.3,0-5.6-2.5-5.6-5.9v0c0-3.1,2.3-5.8,5.3-5.8
		c2.1,0,3.3,0.7,4.6,1.8l1.8-2.2c-1.7-1.4-3.4-2.2-6.3-2.2c-4.9,0-8.5,3.9-8.5,8.5v0c0,4.8,3.4,8.4,8.5,8.4c2.9,0,5.2-1.2,6.8-2.6
		v-6.9h-7V417.2z"/>
	<path class="st1" d="M248.2,127.4c0.2,0,0.2,0.2,0.2,0.3c0,0.2-0.1,0.3-0.3,0.3v14.8c0.3-0.1,0.5-0.2,0.7,0.1
		c0.2,0.3,0.1,0.4,0,0.6h11.8v-17.1h16v17.1h2.1c0-0.1,0-0.1,0.1-0.2c0.1-0.3,0.5-0.7,0.8-0.4c0.1,0.2,0.2,0.4,0.3,0.6h9.2v-20.9
		c-0.3,0.5-0.4,1.2-0.8,1.6c-0.4,0.4-0.6-0.5-1-0.6c-0.1,0-0.3,0.1-0.4,0.1c0,0,0,0,0,0c0.1,0.1,0.2,0.2,0.2,0.4c0,0.1,0,0.4,0,0.4
		c-0.3,0.1-0.3-0.2-0.3-0.4c0-0.1,0.1-0.3,0.1-0.4c0,0,0,0,0,0c0,0,0,0,0,0c0,0,0,0,0,0c-0.3,0-0.9-0.3-0.7-0.4
		c1.1-0.5-0.1-1.9,0.8-2c0.7,0,1.4,0.6,2,1V98.7h-12.4v16.8h-1.6c0,0,0,0,0,0c-0.1,0.1-0.3,0.1-0.4,0c0,0,0,0,0,0h-13.9v-15
		c-0.1-0.1-0.2-0.3-0.3-0.4c0-0.3,0.1-0.3,0.3-0.2v-1.2h-12.4L248.2,127.4C248.1,127.4,248.2,127.4,248.2,127.4z M286.7,120.4
		c0.2-0.4,0.6-0.1,0.9-0.1c0.3,0.2,0.5,0.4,0.2,0.7c-0.2,0.3-0.5,0.3-0.8,0.1C286.8,121,286.6,120.7,286.7,120.4z M280.6,119.8
		c-0.2-0.1-0.3-0.3-0.3-0.5c0-0.2,0.2-0.2,0.3-0.1c0.1,0.1,0.2,0.2,0.2,0.4C280.9,119.7,280.8,119.8,280.6,119.8z M286.1,126.8
		c-0.1,0.1-0.3,0.1-0.4,0c-0.1-0.1-0.1-0.3,0-0.3c0.1-0.1,0.2,0,0.3-0.1C286.3,126.6,286.3,126.7,286.1,126.8z M285.9,125.5
		c0.2-0.1,0.4,0.1,0.3,0.3c0,0.2-0.2,0.3-0.4,0.3c-0.2,0-0.3-0.1-0.3-0.3C285.6,125.7,285.7,125.6,285.9,125.5z M281.5,101.7
		c0,0,0.1,0,0.2,0c0.5,0.2,0.9,0.6,0.8,1.2c0,0.2-0.2,0.5-0.3,0.7c-0.3,0.3,0.2,1.2-0.4,1c-0.6-0.2-1.1-1-1.2-1.8
		C280.6,102.2,281,101.9,281.5,101.7z M280.2,100.6c0.3-0.1,0.3,0.3,0.4,0.5c0,0.5-0.2,0.8-0.7,0.8c-0.2,0-0.4-0.1-0.4-0.4
		C279.7,101.1,279.9,100.7,280.2,100.6z M278,134.9c0-0.1,0.1-0.3,0.3-0.3c0.2,0,0.2,0.1,0.2,0.3c0,0.2-0.1,0.4-0.3,0.4
		C278,135.3,277.9,135.1,278,134.9z M256.1,129.4c-0.1,0-0.1-0.1-0.2-0.1c0.1-0.1,0.1-0.2,0.2-0.2c0.1,0,0.1,0.1,0.2,0.1
		C256.2,129.2,256.2,129.4,256.1,129.4z M256.4,121.2c0,0,0.2-0.1,0.2-0.1c0.1,0.1,0.1,0.2,0.1,0.4c-0.1,0-0.2,0.1-0.2,0.1
		C256.5,121.4,256.4,121.3,256.4,121.2z M256.7,126.8c0.1-0.1,0.2-0.2,0.4-0.1c0.2,0.1,0.2,0.2,0.1,0.3c0,0.1-0.2,0.1-0.3,0.1
		C256.7,127.1,256.6,127,256.7,126.8z M265.7,118.9c0.1,0,0.2,0.1,0.2,0.2c0,0.2-0.1,0.2-0.3,0.2c-0.1-0.1-0.2-0.1-0.2-0.2
		C265.4,119,265.6,118.9,265.7,118.9z M264.2,121.8c0,0.1,0.1,0.1,0.1,0.2c-0.1,0-0.2,0.1-0.2,0.1c-0.1,0-0.1-0.1-0.1-0.2
		C264,121.9,264.1,121.8,264.2,121.8z M263.1,116.7c0.1,0,0.2,0.1,0.2,0.1c0,0.1,0,0.3,0,0.4c-0.1-0.1-0.2-0.1-0.3-0.1
		C263.1,117,263.1,116.8,263.1,116.7z M263.1,117.9c0.1,0,0.1,0.1,0.2,0.2c0,0.2-0.1,0.2-0.3,0.2c-0.1-0.1-0.2-0.1-0.2-0.2
		C262.8,118,262.9,117.9,263.1,117.9z M261.4,116c0.1-0.1,0.3-0.1,0.3,0c0,0.1,0,0.2-0.1,0.2c-0.1,0.1-0.3,0.1-0.3,0
		C261.3,116.1,261.4,116,261.4,116z M260.4,122.9c0.2,0,0.2,0.2,0.2,0.3c-0.1,0.2-0.4,0.3-0.6,0.3c-0.2,0-0.3-0.1-0.3-0.3
		C259.9,123,260.1,122.9,260.4,122.9z M259.1,119.8c0.2-0.1,0.3-0.4,0.6-0.2c0.1,0.3-0.1,0.6-0.3,0.8c-0.2,0.1-0.4,0.2-0.5,0
		C258.7,120.2,258.9,120,259.1,119.8z M258.9,125.3c0.2,0.1,0.3,0.3,0.3,0.5c0,0.2-0.2,0.2-0.3,0.2c-0.2-0.1-0.3-0.2-0.3-0.5
		C258.6,125.3,258.8,125.3,258.9,125.3z M257.8,132.5c-0.2,0.2-0.4,0.3-0.6,0.1c-0.3-0.3-0.4-0.6-0.3-1c0.1-0.3,0.4-0.3,0.6-0.1
		C257.9,131.7,258,132.1,257.8,132.5z M252.8,101.9c0.2-0.4,0.5-0.5,0.9-0.3c0.5,0.3,0.9,0.6,1.5,0.2c0.2-0.1,0.4-0.1,0.5,0.1
		c0.4,1,1.1,0.9,1.8,0.7c0.1,0,0.3,0,0.4,0.1c0,0.1-0.1,0.3-0.1,0.3c-0.8,0.8-2,0.4-2.7,1.2c0,0-0.1,0-0.1,0c-0.2-1.1-1.2-1-1.9-1.4
		C252.8,102.6,252.7,102.3,252.8,101.9z M251.7,120c0.2-0.1,0.5,0.1,0.6,0.2c0.2,0.1,0.3,0.3,0.1,0.5c-0.3,0.1-0.6,0-0.8-0.2
		C251.5,120.3,251.5,120.1,251.7,120z M251.5,124.9c0.4-0.6,1-0.2,1.4,0.1c0.4,0.3,1,0.7,0.7,1.3c-0.5,0.8-0.9-0.1-1.3-0.3
		C251.9,125.7,251,125.6,251.5,124.9z M250.9,123.2c-0.2,0.1-0.4,0-0.5-0.1c0,0,0-0.2,0-0.2c0.2-0.1,0.4,0,0.5,0.1
		C251,123,251,123.2,250.9,123.2z M250.2,115.8c0.2-0.1,0.3-0.1,0.4,0c0.2,0.3,0.2,0.7,0,1c-0.1,0.2-0.4,0.1-0.4-0.1
		C250,116.5,250,116.1,250.2,115.8z M249.7,119.6c0.1,0,0.1,0.2,0.1,0.2c0,0.2-0.2,0.2-0.3,0.1c-0.1,0,0-0.2-0.1-0.2
		C249.6,119.6,249.7,119.6,249.7,119.6z"/>
	<path class="st1" d="M91.2,414.3c-3.1-0.7-3.9-1.3-3.9-2.6v0c0-1.1,1-1.9,2.7-1.9c1.5,0,3,0.6,4.4,1.7l1.5-2.2
		c-1.7-1.3-3.6-2.1-5.9-2.1c-3.3,0-5.6,1.9-5.6,4.8v0c0,3,2,4.1,5.5,4.9c3,0.7,3.7,1.3,3.7,2.5v0c0,1.2-1.1,2.1-2.9,2.1
		c-2,0-3.6-0.8-5.2-2.1l-1.7,2.1c2,1.8,4.3,2.6,6.8,2.6c3.4,0,5.9-1.8,5.9-4.9v0C96.4,416.4,94.6,415.1,91.2,414.3z"/>
	<path class="st1" d="M225.9,319.6c-2.5,0-3.9,1.4-3.9,3.3v0.1c0,1.9,1.5,3.4,3.9,3.4c2.5,0,3.9-1.4,3.9-3.3v-0.1
		C229.8,321,228.4,319.6,225.9,319.6z"/>
	<polygon class="st1" points="173.7,410.1 178.9,410.1 178.9,423.8 181.8,423.8 181.8,410.1 187,410.1 187,407.4 173.7,407.4 	"/>
	<path class="st1" d="M247.1,283.1H240v8h7.6c3.4,0,5.6-1.5,5.6-4V287C253.1,284.6,251.1,283.1,247.1,283.1z"/>
	<polygon class="st1" points="98.8,410.1 104,410.1 104,423.8 106.9,423.8 106.9,410.1 112.1,410.1 112.1,407.4 98.8,407.4 	"/>
	<polygon class="st1" points="57.1,414.2 49.2,414.2 49.2,407.4 46.4,407.4 46.4,423.8 49.2,423.8 49.2,416.9 57.1,416.9 
		57.1,423.8 59.9,423.8 59.9,407.4 57.1,407.4 	"/>
	<path class="st1" d="M238.4,374.4c0.2-0.3,0.6-0.1,1,0.2c0,0.4,0.1,0.8,0,1.2c16.6-4,32.3-10.3,46.8-18.5c0-0.1,0-0.1-0.1-0.2
		c0.1-0.2,0.2-0.3,0.4-0.2c0,0,0.1,0.1,0.1,0.1c35.5-20.3,63.4-52.4,78.5-90.8c0,0,0,0-0.1,0c-0.3-0.4,0-0.9,0.1-1.4
		c0.1-0.2,0.3-0.2,0.5-0.1c0,0,0,0,0,0c3.6-9.3,6.4-19,8.3-29c1.6-8.1,2.6-16.4,3.1-24.8c-0.3,0.2-0.8,0.2-1,0c-0.9-0.9-2-1.1-3-1.4
		c-0.3-0.1-0.5-0.3-0.6-0.6c0,0,0-0.1,0.1-0.1c1.1,0.1,1.2-0.6,1.3-1.4c0,0,0.2-0.1,0.3,0c0.5,0.4,1.4,0.3,1.5,1
		c0.1,0.8,0.7,1,1.1,1.5c0.1,0.1,0.3,0.2,0.4,0.3c0.2-3.1,0.2-6.2,0.2-9.3c0-3-0.1-5.9-0.2-8.8c-0.1,0.3-0.2,0.5-0.4,0.8
		c-0.5,0.6-1,0-1.5-0.3c0,0,0,0,0,0c0,0,0,0,0,0c-0.5,0.1-1,0.1-1.1-0.5c0-0.1,0.1-0.2,0.1-0.2c0.6-0.1,0.7,0.4,0.9,0.7
		c0,0,0,0.1,0,0.1c0,0,0,0,0,0c0,0,0,0,0,0c0.7-0.4,1.1-1,1.4-1.8c0.1-0.1,0.2-0.4,0.4-0.4c-0.7-11.7-2.5-23.2-5.3-34.2
		c-0.5,0.1-0.9-0.1-1.2-0.6c-0.6-1.2-1.7-1.8-2.9-2c-0.7-0.1-1.4-0.1-0.9-1.1c-0.1-0.2-0.3-0.5-0.2-0.6c-0.2,0.1-0.4,0.2-0.7,0
		c-0.4-0.4,0-0.7,0.3-0.9c0.3-0.2,0.7-0.8,1.1-0.3c0.3,0.4-0.1,0.7-0.4,1c-0.1,0.1-0.2,0.1-0.3,0.2c0.1,0,0.2,0,0.4,0
		c1.4,0.2,2.8,0.6,4,1.3c-3.8-13.8-9.2-26.9-16-39.1c0,0.1-0.1,0.2-0.2,0.3c-0.1-0.1-0.1-0.2-0.1-0.3c0-0.1,0.1-0.2,0.2-0.3
		c-0.2-0.4-0.5-0.9-0.7-1.3c0,0-0.1,0-0.1,0c-0.2,0-0.3-0.1-0.2-0.3c0,0,0.1-0.1,0.1-0.1c-5.2-9.2-11.2-17.8-17.9-25.9
		c0,0.1-0.1,0.1-0.1,0.2c-0.2,0.1-0.4,0.1-0.5-0.1c-0.2-0.3-0.1-0.6,0.1-0.8c-33-39.4-82.6-64.5-138-64.5
		c-70,0-130.7,40.1-160.5,98.6c0,0,0.1,0,0.2,0c0.4,0.1,0.7,0.4,0.7,0.8c0,0.2-0.2,0.3-0.4,0.3c-0.3-0.1-0.6-0.2-0.7-0.5
		c-12.3,24.3-19.2,51.8-19.2,80.8c0,10.6,0.9,21,2.7,31.2c1,6,2.4,11.8,4,17.6c0.3,0.3,0.7,0.5,0.6,0.9c0,0.1-0.2,0.1-0.3,0.1
		c1.1,3.9,2.4,7.8,3.8,11.6c0,0,0,0,0.1,0c0,0,0,0,0,0c14.1,38.6,41,71.1,75.6,92.2c0,0,0,0,0,0c0.2-0.1,0.3,0,0.4,0.1
		c0,0.1,0,0.1,0,0.2c27.2,16.5,59.1,26,93.1,26c14.2,0,28-1.7,41.2-4.8C238.2,375.5,238,375,238.4,374.4z M374,211.4
		c0.2-0.1,0.4,0.1,0.3,0.3c-0.1,0.4-0.5,0.6-0.9,0.6c-0.2,0-0.5-0.1-0.4-0.3C373.1,211.5,373.6,211.6,374,211.4z M239.1,351.8
		c0,0.2-0.2,0.1-0.3,0c-0.1-0.2-0.2-0.5,0-0.7c0.1-0.1,0.3-0.2,0.3,0C239.2,351.3,239.2,351.5,239.1,351.8z M239.7,339.1
		c0.1-0.2,0.2-0.3,0.4-0.3c0.2,0.1,0.2,0.2,0.1,0.4c-0.1,0.2-0.2,0.4-0.4,0.2C239.7,339.4,239.7,339.2,239.7,339.1z M240.5,356.3
		c-0.3,0.1-0.5-0.1-0.6-0.3c-0.1-0.2-0.1-0.4,0.1-0.5c0.3-0.2,0.5,0,0.7,0.3C240.8,356.1,240.7,356.2,240.5,356.3z M241.6,329.9
		c-0.2,0.1-0.4,0.1-0.5,0c-0.2-0.2-0.2-0.4,0-0.6c0.2-0.2,0.4-0.1,0.7,0.1C241.8,329.5,241.8,329.7,241.6,329.9z M242.2,307.8
		c-0.2,0.1-0.3,0-0.4-0.1c-0.1-0.1-0.2-0.3,0-0.4c0.1-0.1,0.3,0,0.4,0.1C242.2,307.5,242.3,307.7,242.2,307.8z M243.2,342.7
		c-0.2-0.1-0.3-0.2-0.2-0.5c0.2-0.2,0.4-0.4,0.7-0.3c0.2,0.1,0.2,0.3,0.1,0.5C243.6,342.6,243.4,342.7,243.2,342.7z M244,352.7
		c0,0.1,0,0.3-0.1,0.3c-0.2,0.1-0.3-0.1-0.4-0.2c0-0.1,0-0.3,0.1-0.4C243.8,352.4,243.9,352.5,244,352.7z M244.4,364.3
		c-0.2,0.3-0.5,0.3-0.8,0.3c-0.2,0-0.2-0.2-0.2-0.3c0.2-0.3,0.5-0.3,0.8-0.3C244.4,364,244.5,364.1,244.4,364.3z M244.9,365.4
		c-0.1,0.1-0.3,0.2-0.3,0c-0.1-0.2,0-0.5,0-0.7c0.1-0.2,0.2-0.1,0.3,0C245.1,365,245,365.2,244.9,365.4z M248.4,345.6
		c-0.3,0.3-0.7,0.2-1.1,0.1c-0.2-0.1-0.4-0.3-0.2-0.5c0.3-0.5,0.7-0.1,1,0C248.3,345.3,248.6,345.4,248.4,345.6z M248.5,343.7
		c-0.2,0.3-0.6,0.4-0.9,0.3c-0.2-0.1-0.2-0.3-0.1-0.5c0.2-0.3,0.5-0.5,0.9-0.3C248.5,343.3,248.6,343.6,248.5,343.7z M249.1,330.9
		c0.2-0.6,0.7-0.6,1.2-0.5c0.2,0,0.4-0.2,0.7-0.3c0.3-0.1,0.6-0.3,0.8,0c0.3,0.3-0.2,0.5-0.3,0.7c-0.2,0.3-0.4,0.5-0.8,0.9
		c-0.2,0.1,0,1.3-0.9,0.4C249.5,331.7,248.8,331.5,249.1,330.9z M249.9,356.9c-0.1,0.1-0.3,0.1-0.4,0.1c-0.2,0-0.3-0.2-0.2-0.3
		c0.1-0.2,0.3-0.2,0.5-0.1C250,356.7,250.1,356.8,249.9,356.9z M251,355.7c-0.1,0.2-0.3,0.2-0.5,0.1c-0.4-0.2-0.5-0.6-0.5-1
		c0.2-0.2,0.4-0.2,0.5-0.1C250.8,355,251.2,355.2,251,355.7z M250.9,339c-0.4-0.2-0.2-0.6-0.1-0.9c0.1-0.3,0.2-0.7,0.4-0.8
		c1.2-0.3,1.2-1.2,1.2-2.2c0-0.3,0.2-0.9,0.7-0.9c0.6,0,0.4,0.6,0.5,0.9c0,0.7,0,1.4-0.3,2.1c-0.5,0.5-1,0.9-1.5,1.4
		C251.5,338.8,251.3,339.2,250.9,339z M253.8,347.1c-0.2,0.4-0.6,0.3-0.9,0.1c-0.2-0.1-0.3-0.2-0.2-0.5c0.3-0.3,0.6-0.3,0.9-0.1
		C253.8,346.7,253.9,346.9,253.8,347.1z M254.2,340.9c-0.1,1.2-1,1.7-2,2.2c-0.3,0.2-0.7,0.6-1,0.1c-0.2-0.4,0.3-0.6,0.5-0.8
		c0.5-0.4,1.1-0.7,0.7-1.4c-0.3-0.5-1-1-0.5-1.5c0.5-0.6,0.9,0.6,1.5,0.4c0.1,0,0.3,0,0.4,0.1C254.3,340.2,254.2,340.6,254.2,340.9z
		 M255.7,287.2c0,3.9-3.3,6.2-8.2,6.2h-10v-22.6h9.6c2.6,0,4.6,0.7,5.9,2c0.9,1,1.5,2.2,1.5,3.6v0.1c0,2.9-1.8,4.5-3.6,5.2
		C253.5,282.5,255.7,284.1,255.7,287.2L255.7,287.2z M240,248.8c0.4,0.4,0.2,0.8-0.2,1.2c-0.3,0.1-0.7,0.5-1.1,0
		c-0.3-0.4-0.1-0.8,0.3-1.1C239.3,248.6,239.7,248.4,240,248.8z M239.1,243.5c-0.2-0.2-0.2-0.5,0-0.6c0.3-0.3,0.7-0.2,0.9,0.1
		c0.2,0.2,0,0.5-0.1,0.6C239.6,243.7,239.3,243.7,239.1,243.5z M240.8,249.9c0.5-0.3,1.1-0.1,1.6,0.2c0.2,0.2,0.3,0.5,0.1,0.6
		c-0.6,0.3-0.8,1-1.4,1.2c-0.7,0.2-1.8,0.9-2.2,0.3c-0.5-0.7,0.7-1.1,1.1-1.6C240.2,250.4,240.5,250.2,240.8,249.9z M240.3,245.7
		c0-0.1,0-0.2,0.1-0.2c0.1,0,0.2,0,0.2,0.1c0.1,0.1,0.1,0.3-0.1,0.3C240.5,245.8,240.4,245.7,240.3,245.7z M243.8,247
		c0.1-0.1,0.3,0,0.4,0.1c0.1,0.2,0,0.3-0.1,0.4c-0.1,0.1-0.3,0-0.4-0.1C243.6,247.3,243.6,247.1,243.8,247z M244.7,250.5
		c0,0-0.2,0-0.2,0c-0.1-0.1-0.1-0.3,0.1-0.4c0,0,0.2,0,0.2,0C244.9,250.2,244.9,250.4,244.7,250.5z M245.5,251.2
		c0.2,0.2,0.4,0.5,0.1,0.8c-0.4,0.1-0.6-0.1-0.7-0.4c-0.1-0.2-0.4-0.6-0.1-0.8C245.1,250.6,245.3,250.9,245.5,251.2z M244.8,255.8
		c0,0,0-0.1,0.1-0.1c0.3-0.2,0.6,0,0.8,0.2c0.8,0.7,1.6,1.6,2.8,1.9c0.4,0.1,0.7,0.7,0.5,1.1c-0.3,0.6-0.8,0.1-1.1,0
		c-0.6-0.1-1.1-0.6-1.8-0.2c-0.6,0.3-1.1-0.6-1.7-0.8c-0.1,0-0.1-0.2-0.1-0.2C245,257.2,245.5,256.7,244.8,255.8z M246.5,255.4
		c0.1,0,0.2,0,0.3,0c0,0,0,0.2,0,0.3c-0.1,0-0.2,0-0.3-0.1C246.4,255.6,246.5,255.5,246.5,255.4z M248.2,250.8
		c-0.5,0-0.9-0.2-0.8-0.8c0.1-0.5,0.5-1,1-0.8c0.7,0.2,1.2,0.8,1.8,1c0.2,0.3,0.2,0.5-0.1,0.5C249.6,250.7,248.9,250.8,248.2,250.8z
		 M248.9,255.2c-0.1,0-0.1,0.1-0.2,0.1c0,0.2,0,0.4-0.2,0.6c-0.2,0.2-0.4,0.1-0.4-0.1c-0.1-0.4-0.4-0.8,0-1.2c0.1-0.1,0.3,0,0.4,0.1
		c0.2-0.1,0.5-0.2,0.8,0C249.3,255,249,255,248.9,255.2z M246.7,262.3c-0.2,0.2-0.4,0-0.5-0.1c-0.2-0.3-0.2-0.5,0-0.8
		c0.3-0.1,0.4,0.1,0.4,0.2C246.7,261.8,246.9,262.1,246.7,262.3z M252.6,252.1c0,0,0-0.2-0.1-0.3c0.2,0.1,0.3,0.1,0.4,0.2
		c0,0,0,0.2,0.1,0.2C252.8,252.2,252.7,252.1,252.6,252.1z M253,253.7c0.1,0,0.2,0,0.2,0c0.1,0.1,0.1,0.3-0.1,0.3
		c-0.1,0-0.2,0.1-0.2,0C252.9,253.9,252.9,253.8,253,253.7z M254.8,276.1c0.1-0.1,0.3-0.1,0.4,0c0.1,0,0.1,0.2,0.1,0.2
		c-0.1,0.1-0.3,0.1-0.4,0C254.8,276.3,254.7,276.1,254.8,276.1z M258.1,320.8c-0.2,0.3-0.5,0.3-0.8,0.3c-0.2,0-0.2-0.1-0.1-0.4
		c0.2-0.1,0.5-0.2,0.7-0.2C258.1,320.5,258.2,320.7,258.1,320.8z M257.2,250.6c0.1-0.1,0.2-0.2,0.3-0.2c0.1,0,0.2,0.2,0.1,0.3
		c-0.1,0.1-0.2,0.2-0.5,0.1C257.2,250.8,257.2,250.7,257.2,250.6z M259.2,272.2c-0.4-0.3-1.1-0.8-0.1-1.6c0.2-0.2,0.2-0.4,0.2-0.7
		c0-0.3,0-0.5,0.3-0.6c0.3-0.1,0.6,0.2,0.6,0.5c0.1,0.8,0.1,1.7-0.1,2.5C260,272.6,259.7,272.8,259.2,272.2z M259.9,339.1
		c0.1,0.2,0,0.3-0.2,0.3c-0.1,0-0.2-0.1-0.2-0.2c-0.1-0.2,0-0.3,0.2-0.3C259.7,339,259.9,339,259.9,339.1z M259.1,246
		c-0.2,0.2-0.5,0.1-0.6-0.1c-0.3-0.5-0.4-1,0-1.4c0.3-0.3,0.3,0.2,0.4,0.3C259,245.2,259.5,245.5,259.1,246z M258.5,356.5
		c0,0-0.1-0.2,0-0.3c0-0.1,0.1-0.1,0.2-0.1c0,0.1,0.1,0.2,0.1,0.2C258.8,356.6,258.6,356.6,258.5,356.5z M258.8,343
		c-0.5-0.4-0.4-1.1-0.5-1.6c-0.2-1,0.5-1.6,1.4-1.4c0.5,0.1,0.8,0.4,0.2,0.7c-0.7,0.4-0.5,0.7,0,1.1c0.4,0.3,0.5,0.6,0.1,1
		C259.7,343,259.3,343.2,258.8,343z M260.6,347.3c-0.1,0.2-0.3,0.4-0.6,0.2c-0.3-0.2-0.3-0.5-0.2-0.8c0.1-0.2,0.3-0.3,0.6-0.2
		C260.7,346.7,260.8,347,260.6,347.3z M260.4,258.9c-0.1-0.6-0.1-1.4,0.3-1.9c0.3-0.4,0.8-0.1,1.3,0.2c-0.1,0.6-0.3,1.1-0.8,1.6
		C261,259.1,260.5,259.3,260.4,258.9z M260.8,255.2c-0.1,0.1-0.3,0.1-0.3,0c0-0.1,0-0.3,0.1-0.4c0,0,0.2,0,0.2,0
		C260.9,254.9,260.9,255.1,260.8,255.2z M261.3,256.4c0,0.2-0.1,0.4-0.3,0.4c-0.2,0-0.4,0-0.5-0.3c-0.1-0.2,0-0.4,0.3-0.4
		C261.1,256.1,261.3,256.2,261.3,256.4z M261.7,319.3c-0.1,0.2-0.3,0.2-0.4,0.2c-0.2-0.1-0.3-0.2-0.2-0.3c0.1-0.2,0.3-0.3,0.5-0.3
		C261.7,318.9,261.8,319.1,261.7,319.3z M267.9,338.8c-0.2,0-0.2-0.2-0.1-0.3c0,0,0.2-0.1,0.2,0c0.1,0,0.1,0.1,0.1,0.2
		C268,338.7,268,338.8,267.9,338.8z M269.7,344c0,0.2-0.2,0.2-0.3,0.1c-0.2-0.2-0.4-0.3-0.3-0.6c0.1-0.1,0.2-0.2,0.4-0.1
		C269.7,343.5,269.8,343.8,269.7,344z M271,302.6c-0.3-0.2-0.4-0.4-0.3-0.7c0.1-0.2,0.2-0.2,0.4,0c0.2,0.2,0.3,0.4,0.3,0.6
		C271.3,302.6,271.2,302.7,271,302.6z M271.1,299.4c0.1-0.2,0.3-0.2,0.5-0.2c0.1,0.1,0.2,0.2,0.1,0.3c-0.1,0.2-0.3,0.3-0.5,0.2
		C271.1,299.7,271.1,299.5,271.1,299.4z M271.4,316.1c-0.3-0.1-0.1-0.3-0.1-0.5c0.1-0.1,0.3-0.3,0.5-0.2c0.1,0.1,0.1,0.3,0,0.4
		C271.8,316,271.6,316.2,271.4,316.1z M271.9,336.5c0.2,0.1,0.2,0.3,0.2,0.5c0,0-0.2,0.1-0.2,0.1c-0.2-0.1-0.2-0.3-0.2-0.5
		C271.6,336.6,271.8,336.6,271.9,336.5z M272,340.2c-0.2,0.2-0.3,0-0.4-0.2c-0.1-0.2-0.2-0.5,0-0.7c0.2-0.2,0.3,0.1,0.4,0.2
		C272.2,339.7,272.2,340,272,340.2z M273.5,336.3c-0.2,0.1-0.4,0.4-0.7,0.2c-0.2-0.1-0.1-0.3,0-0.5c0.2-0.2,0.4-0.3,0.6-0.2
		C273.8,335.9,273.7,336.1,273.5,336.3z M274,332.2c-0.2,0.2-0.4,0.5-0.6,0.2c-0.2-0.3-0.1-0.8,0-1.1c0.2-0.2,0.4-0.2,0.5-0.1
		C274.4,331.5,274.3,331.8,274,332.2z M273.2,305.5c0.1,0,0.2-0.1,0.2-0.1c0.1,0,0.1,0.1,0.1,0.2c-0.1,0-0.2,0.1-0.2,0.1
		C273.3,305.7,273.3,305.6,273.2,305.5z M276.8,331.2c0,0.2,0,0.5-0.1,0.7c-0.3,0.5-0.8,0.6-1.4,0.4c-0.1-0.1-0.1-0.1-0.1-0.1
		c-0.3-0.4-0.4-1-0.1-1.4c0.5-0.5,1.4-0.9,2-0.7C277.7,330.3,276.8,330.8,276.8,331.2z M275.5,299.6c0.1,0,0.2,0,0.3-0.1
		c0,0.1,0,0.2,0.1,0.2c-0.1,0-0.2,0.1-0.2,0C275.5,299.8,275.5,299.7,275.5,299.6z M281.6,293.4l-2.6-6h-12.3l-2.7,6h-2.6l6.5-14.3
		c-0.1-0.2-0.1-0.4,0.3-0.6l3.6-7.9h2.4l2.3,5.1c0.2,0.1,0.3,0.3,0.5,0.4c0.1,0.1,0.2,0.3,0.1,0.4c0,0.1-0.1,0.1-0.2,0.1l7.6,16.8
		H281.6z M263.4,274c0.2,0.2,0.1,0.5-0.2,0.6c-0.4,0.1-0.8,0-1-0.4c-0.2-0.2-0.1-0.5,0.2-0.6C262.9,273.5,263.2,273.7,263.4,274z
		 M264.1,249c0.3-0.1,0.7-0.1,0.5,0.4c-0.3,0.7-0.7,1.4-1.1,2.1c-0.1,0.1-0.2,0.2-0.3,0.3c-0.2,0-0.3-0.1-0.4-0.2
		C262.7,250.9,263.6,249.1,264.1,249z M265.4,275.7c0-0.1,0.1-0.1,0.2-0.1c0,0.1,0.1,0.2,0.1,0.2c0,0.1-0.1,0.1-0.2,0.1
		C265.5,275.8,265.4,275.8,265.4,275.7z M272.2,245.9c0.1,0.1,0.1,0.2,0,0.3c0,0.1,0,0.1,0,0.2c-0.1,0.2-0.2,0.3-0.4,0.3
		c-0.2,0-0.2-0.2-0.2-0.3c0-0.1,0.1-0.2,0.1-0.2c0-0.1,0-0.3,0.1-0.4C271.9,245.8,272.1,245.8,272.2,245.9z M272,243.1
		c0.1-0.1,0.2-0.1,0.4,0c0,0.1,0,0.2,0,0.4c-0.1,0.2-0.2,0.2-0.3,0C272,243.3,271.9,243.2,272,243.1z M273.6,244.4
		c0.1,0,0.2-0.1,0.2-0.1c0.2,0.1,0.1,0.2,0,0.4c-0.1,0.1-0.2,0.1-0.2,0.1C273.5,244.7,273.5,244.6,273.6,244.4z M277.2,265.1
		c0.1-0.4,0.4-0.3,0.7-0.3c0.9,0,1.8,0.7,2,1.5c0.1,0.3,0,0.6-0.3,0.7c-0.3,0.1-0.5,0-0.6-0.3c-0.3-0.6-0.8-0.9-1.3-1.1
		C277.4,265.6,277.1,265.4,277.2,265.1z M277.5,269.9c0,0.2-0.1,0.3-0.2,0.2c-0.1,0-0.1-0.1-0.2-0.2c0-0.2,0.1-0.3,0.2-0.2
		C277.3,269.8,277.4,269.9,277.5,269.9z M278,235.4c-0.1,0.1-0.2,0.1-0.3-0.1c-0.1-0.2-0.1-0.4,0.1-0.5c0.2-0.1,0.4-0.1,0.4,0.1
		C278.2,235,278.1,235.2,278,235.4z M277.4,246.1c-0.3,0.1-0.5-0.2-0.7-0.4c-0.2-0.3-0.2-0.6,0.1-0.8c0.3-0.2,0.6,0,0.7,0.3
		C277.6,245.6,277.9,245.9,277.4,246.1z M276.7,267.2c0,0.1-0.1,0.3-0.3,0.2c-0.1,0-0.1-0.1-0.1-0.2c0-0.1,0.1-0.3,0.3-0.2
		C276.6,267,276.7,267.1,276.7,267.2z M282.1,271.8c0-0.2,0-0.4,0.2-0.5c0.2-0.1,0.2,0.1,0.2,0.3c0,0.2,0,0.4-0.2,0.5
		C282.2,272.1,282.1,271.9,282.1,271.8z M284.4,258c0.1-0.4,0.4-0.3,0.7-0.3c1,0,1.8,0.5,2.6,1.2c0,0,0.1,0.2,0,0.3
		c-0.1,0.1-0.3,0.2-0.4,0.1c-0.8-0.3-1.6-0.5-2.4-0.6C284.6,258.6,284.3,258.3,284.4,258z M287.7,263.7
		C287.7,263.7,287.7,263.6,287.7,263.7c0-0.2,0-0.3,0-0.4c0-0.2,0-0.6,0.4-0.5c0.2,0.1,0.2,0.3,0.1,0.5
		C288,263.4,287.9,263.5,287.7,263.7C287.7,263.7,287.7,263.7,287.7,263.7C287.7,263.7,287.7,263.7,287.7,263.7
		C287.7,263.7,287.7,263.7,287.7,263.7c0.1,0.9-0.7,0.7-1.1,0.9c-0.3,0.1-0.7,0.7-0.9,0c-0.1-0.4,0.2-0.8,0.6-1.1
		c0.2-0.1,0.4-0.1,0.7-0.1c-0.1-0.1-0.1-0.3-0.1-0.4c0-0.8-0.2-1.5-0.7-2.2c0,0,0,0,0,0c0,0,0,0,0,0c0,0,0,0-0.1,0.1
		c-0.3,0.2-0.6,0.7-1.1,0.3c-0.1,0-0.1-0.2,0-0.3c0.4-0.5,0.8-0.4,1.2-0.1c0,0,0,0,0,0c0,0,0,0,0,0c0.5-0.1,1.2-0.5,1.5,0.3
		c0.3,0.7,0.1,1.6-0.4,2.3c0,0.1-0.1,0.1-0.1,0.1C287.4,263.5,287.5,263.6,287.7,263.7z M288.1,253.1c0.2-0.2,0.4,0,0.5,0.1
		c0.2,0.3,0.3,0.6,0,0.9c-0.2,0.1-0.4,0.1-0.5-0.1C287.9,253.7,288,253.4,288.1,253.1z M285.4,317.5c-0.1,0.1-0.2,0.2-0.4,0.2
		c-0.2,0-0.3-0.1-0.2-0.3c0.1-0.2,0.3-0.3,0.5-0.2C285.5,317.3,285.5,317.4,285.4,317.5z M290.6,300.6c-0.2,0.1-0.4,0.2-0.5,0.4
		c0,0,0,0,0,0c0.1,0.2,0.1,0.3-0.1,0.4c-0.1,0-0.2,0-0.3,0c-0.2,0.4-0.2,0.8-0.3,1.3c-0.1,0.5-0.6,0.6-1,0.5
		c-0.4-0.2-0.7-0.5-0.4-0.9c0.4-0.5,0.5-1.2,0.8-1.7c0.4-0.6,0.9-0.9,1.5-0.7C290.7,299.9,291,300.4,290.6,300.6z M289.4,291.7
		c-0.2,0.2-0.4,0.1-0.5-0.1c-0.2-0.3-0.1-0.5,0.1-0.8c0.1-0.1,0.2-0.1,0.3,0.1C289.4,291.1,289.6,291.4,289.4,291.7z M289.5,297.4
		c0.1,0.1,0.1,0.3,0,0.3c-0.1,0.1-0.3,0.1-0.4,0c-0.1-0.1-0.1-0.2,0-0.4C289.3,297.4,289.4,297.4,289.5,297.4z M293.7,320.2
		c-0.8-0.1-1.9,0.1-2.4-0.4c-0.7-0.6,1.2-1.1,0.6-2.1c-0.1-0.2,0.5-0.1,0.8,0.1c0,0,0,0,0,0c0,0,0,0,0,0c0,0,0,0,0,0
		c0-0.1,0.1-0.3,0.1-0.4c0.1-0.2,0.2-0.4,0.4-0.1c0,0-0.1,0.3-0.2,0.3c-0.1,0.1-0.2,0.1-0.4,0.2c0,0,0,0,0,0
		c0.1,0.1,0.2,0.2,0.3,0.3c0.4,0.2,1.1-0.4,1.1,0.1C294.1,318.8,293.7,319.5,293.7,320.2z M293.9,304.3c-0.4,0-0.8-0.1-1.1-0.3
		c0,0-0.1-0.1-0.2-0.1c-0.1,0.1-0.2,0.2-0.3,0.1c-0.2-0.1-0.1-0.3-0.1-0.4c0,0,0,0,0,0c0-0.1,0-0.1,0-0.2c0.2-0.6,0.5-0.1,0.8-0.1
		c0.2,0,0.5,0,0.7-0.1c0.6-0.2,0.6,0.2,0.7,0.6C294.6,304.2,294.3,304.3,293.9,304.3z M296.5,304.3c-0.3,0.4-0.7,0.3-1,0
		c-0.2-0.2-0.4-0.5-0.1-0.8c0.4-0.4,0.7-0.1,1.1,0.1C296.6,303.8,296.7,304,296.5,304.3z M301.5,286.7c-0.1,0.1-0.3,0.1-0.4-0.1
		c-0.1-0.2-0.2-0.3-0.1-0.5c0.1-0.2,0.2-0.1,0.3,0.1C301.5,286.3,301.6,286.5,301.5,286.7z M305.2,319.2c-0.6-0.2-0.9-0.7-1.2-1.1
		c0.1-0.5,0.3-0.9,0.7-0.8c0.7,0.2,0.8,0.9,1,1.5C305.7,319.1,305.5,319.2,305.2,319.2z M304.4,275.2c0.1-0.1,0.2-0.2,0.3-0.2
		c0.2,0,0.2,0.2,0.1,0.3c-0.1,0.1-0.2,0.1-0.3,0.2C304.4,275.5,304.3,275.3,304.4,275.2z M305.1,287.4c0.1-0.1,0.2-0.1,0.4,0
		c0,0.1,0.1,0.2,0,0.2c-0.1,0.1-0.2,0.1-0.3,0C305.1,287.6,305.1,287.5,305.1,287.4z M297.5,284.4v9h-2.6v-8.9l-9.4-13.7h3.1
		l7.6,11.3l7.7-11.3h3L297.5,284.4z M289.9,251c-0.3,0.2-0.6,0.2-0.9-0.1c-0.2-0.5-0.1-0.9,0.3-1.2c0.3-0.3,0.7-0.2,0.9,0.1
		C290.5,250.3,290.3,250.7,289.9,251z M291.7,260.3c0.1,0,0.4,0.1,0.4,0.1c-0.3,0.8-1,1.1-1.7,1.5c-0.2,0.1-0.3,0.2-0.5,0.3
		c-0.2,0.1-0.4,0.1-0.5-0.1c-0.1-0.2-0.1-0.4,0-0.6C289.9,260.9,290.7,260.4,291.7,260.3z M293,272.9c0,0.1-0.1,0.2-0.1,0.2
		c-0.2,0.1-0.3,0-0.3-0.2c0-0.1,0.1-0.2,0.1-0.2C292.9,272.6,293,272.7,293,272.9z M292.9,269.8c0.2-0.2,0.4-0.1,0.5,0
		c0.1,0.1,0.2,0.2,0.1,0.4c-0.1,0.2-0.4,0.2-0.5,0.1C292.7,270.2,292.7,270,292.9,269.8z M294.1,220.2c0-0.2,0-0.4,0.4-0.5
		c0.2,0.2,0.2,0.5,0.2,0.8c0,0.2,0,0.5-0.2,0.5C293.9,221,294.1,220.5,294.1,220.2z M294.3,221.3c0.2-0.2,0.5,0,0.6,0.1
		c0.2,0.2,0.4,0.4,0.6,0.3c1.2-0.1,1.2,0.7,1.1,1.2c0.1,0.8-0.2,0.9-0.5,0.7c-0.8-0.4-1.4-0.9-1.9-1.6
		C294,221.9,294,221.5,294.3,221.3z M297,268.4c0.3,0.1,0.1,0.5,0.1,0.8c-0.1,0.4-0.3,0.7-0.5,1c-0.3,0.3-0.5,0.4-0.8,0
		c-0.2-0.3-0.6-0.6,0-0.9c0.2-0.1,0.4-0.3,0.6-0.4C296.6,268.8,296.4,268.1,297,268.4z M296.8,214.5c0.1-0.1,0.2-0.1,0.4,0
		c0.1,0.2,0,0.3-0.1,0.4c-0.1,0.1-0.3,0.1-0.4,0C296.6,214.7,296.7,214.5,296.8,214.5z M295.5,271.4c0,0.5-0.3,0.8-0.7,0.7
		c-0.3,0-0.4-0.2-0.4-0.5c0.1-0.3,0.2-0.8,0.7-0.8C295.4,270.8,295.5,271.1,295.5,271.4z M296.1,231.3c0.2-0.1,0.4-0.1,0.4,0.1
		c0,0.1-0.1,0.3-0.1,0.4c-0.1,0.1-0.3,0.2-0.5,0C295.9,231.5,296,231.4,296.1,231.3z M296.1,229.7c0.1,0,0.3,0,0.4,0.1
		c0.1,0.1,0.1,0.2-0.1,0.3c-0.2,0.1-0.4,0-0.5-0.1C295.9,229.8,296,229.7,296.1,229.7z M298.2,229.9c0,0,0-0.1,0.1-0.1
		c0.1,0,0.2,0,0.2,0c0,0.1-0.1,0.2-0.1,0.2C298.3,230.1,298.2,230,298.2,229.9z M299.2,212.9c-0.1,0.1-0.3,0-0.4-0.1
		c-0.1-0.1-0.2-0.2-0.1-0.4c0.1-0.1,0.3,0,0.4,0.1C299.2,212.6,299.3,212.7,299.2,212.9z M300,255.3c0.3,0.2,0.3,0.5,0.1,0.7
		c-0.2,0.3-0.5,0.4-0.8,0.2c-0.3-0.2-0.3-0.5-0.1-0.8C299.4,255.2,299.7,255.1,300,255.3z M302.3,221.9c0.2-0.2,0.4-0.2,0.7-0.1
		c0.2,0.2,0.2,0.4,0.1,0.6c-0.1,0.1-0.3,0.2-0.4,0.1c0,0.1-0.1,0.3-0.3,0.3c0-0.1-0.1-0.2-0.1-0.2c0-0.1,0-0.1,0.1-0.2
		C302.1,222.3,302.1,222.1,302.3,221.9z M307.1,226.7c-0.1,0.1-0.2,0.3-0.3,0.3c-0.2,0-0.2-0.1-0.1-0.3c0.1-0.1,0.2-0.2,0.3-0.2
		C307.1,226.4,307.2,226.5,307.1,226.7z M308.7,283.3c-0.2,0.2-0.4,0.2-0.5-0.1c-0.1-0.2,0.1-0.4,0.3-0.5c0.1-0.1,0.3-0.1,0.4,0.1
		C308.9,283,308.8,283.2,308.7,283.3z M310.3,312.6c-0.5,0.1-0.7-0.3-0.9-0.6c-0.3-0.5-0.2-1.1,0.1-1.6c0.1-0.2,0.2-0.4,0.4-0.4
		c0.4-0.1,0.3,0.3,0.5,0.6c0.1,0.3,0.2,0.7,0.3,1C310.7,312,310.9,312.5,310.3,312.6z M311.2,225c0.1-0.2,0.2-0.3,0.4-0.3
		c0.2,0,0.4,0.1,0.3,0.3c0,0.1-0.2,0.2-0.3,0.2C311.4,225.3,311.2,225.2,311.2,225z M311.9,323.7c0-0.1-0.1-0.2-0.1-0.2
		c0,0,0.1-0.1,0.1-0.1c0.1,0,0.2,0.1,0.2,0.2C312.1,323.6,312,323.6,311.9,323.7z M311.8,250.6c-0.2-0.1-0.3-0.3-0.1-0.5
		c0.4-0.2,0.7-0.1,1.1,0.1c0.1,0.1,0.1,0.2,0,0.4C312.4,250.9,312.1,250.8,311.8,250.6z M312.6,249.1c0.4,0,0.6,0.4,0.8,0.8
		c0.1,0.1-0.1,0.3-0.2,0.3c-0.4,0-0.6-0.3-0.7-0.6C312.3,249.4,312.4,249.1,312.6,249.1z M313.1,320c-0.1,0.1-0.3,0.1-0.4,0
		c0-0.1,0-0.3,0.1-0.4c0.2-0.3,0.5-0.6,0.7-0.9c0.2-0.3,0.4-0.7-0.1-1c-0.4-0.2-0.5-0.5-0.3-0.8c0.2-0.4,0.1-1.1,0.5-1.1
		c0.3-0.1,0.3,0.7,0.6,0.9C315.2,318,314.8,319.4,313.1,320z M315.4,302.7c-0.1,0.1-0.3,0.2-0.5,0.2c-0.2,0-0.3-0.2-0.1-0.4
		c0.1-0.2,0.3-0.2,0.5-0.1C315.4,302.5,315.5,302.6,315.4,302.7z M316.7,267.3c-0.1-0.1-0.3-0.2-0.2-0.3c0-0.1,0.2-0.1,0.2-0.1
		c0.1,0.1,0.3,0.2,0.3,0.3C317,267.3,316.8,267.3,316.7,267.3z M319.5,308.9c-0.3,0.1-0.6-0.1-0.8-0.3c-0.2-0.2-0.1-0.4,0.1-0.4
		c0.3-0.1,0.6,0.1,0.7,0.4C319.7,308.7,319.6,308.8,319.5,308.9z M319,281.6c0.1-0.2,0.2-0.2,0.3-0.2c0.2,0.1,0.2,0.2,0.1,0.4
		c-0.1,0.2-0.2,0.2-0.3,0.2C319,281.9,319,281.7,319,281.6z M319,233.2c0-0.1,0.1-0.1,0.1-0.2c0.1,0,0.2,0.1,0.2,0.1
		c0,0.1-0.1,0.2-0.1,0.2C319.2,233.3,319.1,233.3,319,233.2z M319.1,285.1c0.1,0,0.1,0.2,0.1,0.2c-0.1,0-0.2,0.1-0.2,0
		c-0.1,0-0.1-0.2-0.1-0.2C318.9,285.1,319,285.1,319.1,285.1z M320.7,235.6c-0.1,0.1-0.3,0-0.3-0.1c-0.1-0.2-0.2-0.5,0.1-0.6
		c0.1-0.1,0.3,0,0.4,0.2C320.9,235.2,320.9,235.4,320.7,235.6z M321.9,306.8c0,0,0-0.1,0-0.2c0.1,0,0.2,0,0.3,0c0,0.1,0,0.2,0,0.2
		C322.1,306.8,322,306.8,321.9,306.8z M322.9,295.8c-0.1,0.1-0.3,0.1-0.4,0c-0.1-0.2,0-0.3,0.1-0.4c0.1-0.1,0.3-0.1,0.4,0
		C323.1,295.5,323.1,295.7,322.9,295.8z M322.8,282.7c-0.1-0.1-0.6-0.1-0.4-0.4c0.4-0.4,0.9-0.3,1.4-0.1c0.3,0.1,0.4,0.4,0.2,0.6
		C323.6,283.2,323.2,282.8,322.8,282.7z M323.1,263.9c-0.2,0.2-0.3,0.1-0.4-0.1c-0.1-0.2,0-0.4,0.2-0.5c0.1-0.1,0.3,0,0.4,0.2
		C323.2,263.5,323.2,263.7,323.1,263.9z M323.4,264.8c0.1-0.1,0.3-0.3,0.5-0.1c0.1,0.4-0.3,0.6-0.4,0.8c-0.1,0.1-0.3,0.4-0.4,0.2
		C322.9,265.3,323.2,265,323.4,264.8z M324.2,297.7c-0.1,0.1-0.3,0.1-0.4,0c0,0,0.1-0.2,0.1-0.2c0.1-0.1,0.3-0.2,0.4,0
		C324.4,297.5,324.3,297.6,324.2,297.7z M323.9,262.6c-0.4,0-0.7-0.2-0.7-0.6c0-0.4,0.4-0.4,0.6-0.5c0.4,0,0.7,0.1,0.7,0.5
		C324.5,262.5,324.3,262.7,323.9,262.6z M324.7,252.4c-0.1,0-0.2,0-0.3,0c0-0.1,0-0.2,0.1-0.2c0.1,0,0.2-0.1,0.3-0.1
		C324.9,252.3,324.8,252.4,324.7,252.4z M328.6,265.8c-0.1,0-0.3,0-0.4-0.1c-0.1-0.2-0.2-0.4,0-0.5c0.1-0.1,0.3,0,0.4,0.1
		C328.7,265.4,328.8,265.6,328.6,265.8z M328.8,245.9c-0.2,0-0.3-0.1-0.2-0.3c0-0.1,0.1-0.2,0.2-0.2c0.2-0.1,0.3,0,0.3,0.3
		C329,245.7,328.9,245.9,328.8,245.9z M329.3,276.1c-0.1-0.1-0.1-0.2-0.2-0.4c0.1,0,0.3,0,0.3,0c0.1,0.1,0.1,0.2,0.2,0.4
		C329.5,276.1,329.3,276.1,329.3,276.1z M332.2,312.9c-0.3,0.4-0.7,0.6-1.1,0.4c-0.4-0.2-0.4-0.5-0.2-0.9c0.3-0.4,0.6-0.6,1.1-0.4
		C332.3,312.3,332.4,312.6,332.2,312.9z M331.9,265.6c-0.1,0.1-0.2,0.2-0.4,0.2c-0.1,0-0.1-0.1-0.1-0.3c0.1-0.2,0.2-0.3,0.4-0.2
		C331.9,265.3,331.9,265.5,331.9,265.6z M332,271.1c0.3,0.2,0.2,0.4,0,0.6c-0.1,0.2-0.1,0.5-0.5,0.4c-0.3-0.3-0.2-0.6,0-0.8
		C331.6,271.1,331.8,271,332,271.1z M331.4,275.9c0,0,0,0.2,0,0.2c-0.1,0.1-0.2,0.2-0.3,0.1c0,0,0-0.2,0-0.2
		C331.1,275.8,331.2,275.8,331.4,275.9z M332.3,249.9c-0.1,0.1-0.2,0.1-0.3,0c-0.1-0.2-0.2-0.3,0-0.5c0,0,0.2,0.1,0.4,0.1
		C332.3,249.6,332.4,249.8,332.3,249.9z M333.7,251.6c0.2-0.1,0.4,0,0.5,0.2c0.2,0.3,0.2,0.6-0.1,0.8c-0.2,0.2-0.4,0-0.5-0.2
		C333.5,252.1,333.3,251.8,333.7,251.6z M333.7,269.3c0.1-0.1,0.1-0.1,0.2-0.2c0.1,0.1,0.2,0.2,0.2,0.3c0,0-0.1,0.2-0.2,0.1
		C333.7,269.6,333.7,269.4,333.7,269.3z M335.1,311.3c-0.2,0.3-0.6,0.3-0.9,0.1c-0.2-0.1-0.3-0.2-0.2-0.5c0.3-0.2,0.6-0.3,0.9-0.1
		C335.2,310.9,335.2,311.2,335.1,311.3z M336.3,262.8c-0.2,0.2-0.4,0-0.5-0.1c-0.1-0.1-0.2-0.3-0.1-0.5c0.2-0.1,0.4,0,0.5,0.1
		C336.4,262.5,336.5,262.7,336.3,262.8z M337.8,242.3c0.1,0,0.2-0.1,0.2-0.1c0.2,0,0.2,0.1,0.1,0.3c0,0.1-0.2,0.1-0.2,0.1
		C337.9,242.5,337.8,242.3,337.8,242.3z M338.9,268.8c-0.2,0.2-0.5,0.1-0.7,0c-0.2,0-0.4-0.1-0.3-0.4c0.2-0.3,0.5-0.2,0.8-0.1
		C338.9,268.4,339.1,268.6,338.9,268.8z M342.5,283.5c-0.1,0.1-0.3,0.1-0.4-0.1c0-0.1-0.1-0.2,0-0.3c0.1-0.2,0.2-0.2,0.3-0.1
		C342.6,283.2,342.6,283.3,342.5,283.5z M343,244.8c-0.1,0-0.3,0-0.4,0c0,0,0-0.2,0-0.2c0.1-0.1,0.3-0.1,0.4,0
		C343.2,244.6,343.2,244.7,343,244.8z M345.1,283.2c-0.1,0.1-0.3,0-0.4,0c-0.1,0-0.1-0.1-0.1-0.2c0.1,0,0.2-0.1,0.4,0
		C345.2,283,345.3,283.1,345.1,283.2z M350.9,282.9c-0.2,0.3-0.4,0.6-0.8,0.6c-0.3-0.1-0.2-0.4-0.1-0.6c0.2-0.3,0.4-0.5,0.8-0.5
		C351.1,282.6,351,282.8,350.9,282.9z M350.9,267.7c-0.2,0.2-0.4,0.5-0.7,0.3c-0.3-0.3-0.1-0.6,0.1-0.9c0.2-0.2,0.4-0.6,0.7-0.3
		C351.4,267.1,351.2,267.4,350.9,267.7z M351.1,261.7c0-0.1,0.2-0.1,0.2-0.1c0.1,0.1,0.2,0.2,0.1,0.3c-0.1,0-0.2,0.1-0.2,0.1
		C351.1,262,351,261.9,351.1,261.7z M352.1,263.8c0,0.1-0.2,0.2-0.4,0.1c-0.2,0-0.4-0.2-0.3-0.4c0-0.3,0.3-0.2,0.5-0.2
		C352,263.5,352.2,263.6,352.1,263.8z M353.1,271.7c-0.2-0.1-0.6-0.3-0.7-0.5c-0.1-0.2,0.2-0.3,0.4-0.3c0.4,0,0.7,0.2,0.7,0.6
		C353.4,271.6,353.3,271.7,353.1,271.7z M355,276.7c-0.4,0-1,0.1-1.1-0.5c-0.1-0.4,0.3-0.6,0.7-0.6c0.4,0,0.9,0,1.1,0.6
		C355.7,276.6,355.4,276.7,355,276.7z M355.5,264c-0.2,0-0.3-0.1-0.3-0.2c0-0.1,0.1-0.2,0.3-0.3c0.1-0.1,0.3,0,0.3,0.1
		C355.8,263.9,355.7,264,355.5,264z M356.6,243.6c-0.2-0.1,0-0.3,0.1-0.5c0.3-0.2,0.6-0.3,0.9,0c0.1,0.1,0.1,0.3-0.1,0.4
		C357.3,243.6,356.9,243.7,356.6,243.6z M357.9,246.2c0.1-0.3,0.3-0.5,0.6-0.5c0.2,0,0.4,0.1,0.4,0.4c0,0.4-0.4,0.4-0.7,0.4
		C358,246.5,357.8,246.5,357.9,246.2z M358.6,247.9c-0.1,0-0.2-0.1-0.2-0.1c-0.1-0.2,0.1-0.3,0.2-0.3c0.1,0,0.3,0,0.3,0.2
		C358.9,247.9,358.8,247.9,358.6,247.9z M358.5,244.6c-0.2-0.2-0.5-0.1-0.7-0.1c-0.3,0-0.5,0-0.6-0.3c-0.1-0.3,0.1-0.6,0.4-0.7
		c0.8-0.2,1.6-0.3,2.5-0.1c0.3,0.1,0.5,0.3,0,0.9C359.9,244.8,359.4,245.5,358.5,244.6z M360.9,254.2c-0.1,0.1-0.3,0-0.3-0.1
		c0-0.1,0-0.2,0.1-0.2c0.1-0.1,0.3,0,0.3,0.1C361,254,360.9,254.1,360.9,254.2z M362.2,246.4c-0.3,0.3-0.7,0.7-1.2,0.2
		c-0.1-0.1-0.1-0.2-0.1-0.2c-0.1,0.1-0.3,0.2-0.5,0.3c-0.3,0.1-0.5-0.2-0.4-0.5c0.2-0.7,0.8-1.1,1.4-1.5c0.2-0.1,0.3,0.1,0.3,0.4
		c-0.1,0.1-0.1,0.3-0.2,0.4c0.3-0.2,0.6-0.3,0.9,0C362.7,245.9,362.4,246.2,362.2,246.4z M364.6,248.2c0,0.1-0.2,0.1-0.2,0.1
		c-0.1-0.1-0.1-0.2-0.1-0.4c0-0.1,0.2-0.1,0.2-0.1C364.7,248,364.7,248.1,364.6,248.2z M364.4,237.6c-0.2-0.3-0.5-0.5-0.5-0.9
		c0.1-0.3,0.3-0.1,0.4,0c0.2,0.2,0.5,0.5,0.5,0.9C364.8,237.9,364.5,237.7,364.4,237.6z M365.6,225.7c-0.3,0.4-0.8,0.3-1.2,0
		c-0.3-0.2-0.6-0.6-0.3-1c0.3-0.4,0.7-0.4,1.2-0.1C365.5,224.9,366,225.2,365.6,225.7z M364.1,219.8c0.1-0.1,0.3-0.1,0.4,0
		c0,0,0,0.2,0,0.2c-0.1,0.1-0.3,0.1-0.4,0C364.1,220,364,219.8,364.1,219.8z M366.3,169c-0.4,0.3-1,0.8-1.4,0.3
		c-0.6-0.7,0.3-0.8,0.6-1.1c0.4-0.3,0.7-1.1,1.3-0.5C367.3,168.2,366.7,168.6,366.3,169z M367,183.3c0,0.1,0.1,0.2,0.1,0.2
		c0,0.1-0.2,0.1-0.2,0.1c0-0.1-0.1-0.2-0.1-0.2C366.8,183.4,366.9,183.3,367,183.3z M366.9,209.2c0,0.2-0.3,0.4-0.6,0.3
		c-0.6-0.2-1-0.6-1-1.2c0.1-0.4,0.1-0.8,0.2-1.1c0.2-0.7,0-1.8,0.8-1.8c0.7,0,0.7,1.3,0.9,2C367.3,208,366.8,208.6,366.9,209.2z
		 M369,216.7c0,0.1-0.2,0-0.2,0.1c0-0.1-0.1-0.2,0-0.3c0,0,0.2,0,0.2-0.1C369,216.5,369,216.6,369,216.7z M370.7,247.7
		c0,0.2-0.1,0.3-0.3,0.1c-0.1-0.1-0.1-0.3-0.1-0.4c0.1-0.1,0.2-0.3,0.3-0.2C370.7,247.4,370.7,247.6,370.7,247.7z M373,195.3
		c0,0-0.2,0.1-0.2,0c-0.1-0.1-0.1-0.2-0.1-0.3c0.1,0,0.2-0.1,0.2,0C373.1,195,373.1,195.2,373,195.3z M373.1,193.9
		c0.8,0.1,1.6,0.4,2.5,0.3c0.1,0,0.3,0.1,0.3,0.3c0.1,0.1,0,0.3-0.1,0.3c-1,0.3-1.9,0.4-2.9,0.1c-0.3-0.1-0.6-0.2-0.6-0.6
		C372.4,194,372.8,193.9,373.1,193.9z M372.1,167.1c0.1,0,0.2,0,0.3,0c0,0.1,0,0.2,0,0.2c-0.1,0.1-0.2,0.1-0.2,0.1
		C372,167.4,372,167.2,372.1,167.1z M369.8,157.4c0.1-0.7,0.7-1.1,1.3-1.1c0.6,0.1,0.2,0.7,0.2,1.1c0.1,0.4,0,0.9,0,1.3
		c0,0.3,0,0.6-0.2,0.8c-0.2,0.2-0.5,0.1-0.5,0C370.3,158.9,369.6,158.3,369.8,157.4z M370.7,197c0,0.1-0.2,0.1-0.2,0.1
		c-0.1-0.1-0.1-0.2-0.1-0.3c0.1,0,0.2-0.1,0.2-0.1C370.8,196.8,370.8,196.9,370.7,197z M369.9,214.1c0.4,0.6,0.6,1.2,0.9,1.8
		c0.1,0.2,0,0.4-0.4,0.3c-0.5-0.5-1.2-0.6-1.8-1.1c-0.4-0.4-0.2-0.9,0.2-1.3C369.2,213.5,369.6,213.7,369.9,214.1z M369.5,211.3
		c-0.1,0.4-0.5,0.3-0.8,0.3c-0.3,0-0.7,0-0.7-0.4c0-0.4,0.4-0.3,0.7-0.3C369.1,210.9,369.4,210.9,369.5,211.3z M368.8,167.1
		c0.1,0,0.2,0,0.2,0c0,0.2-0.1,0.4-0.3,0.5c-0.1,0-0.2,0-0.2,0C368.5,167.4,368.7,167.2,368.8,167.1z M368.3,202.4
		c-0.5,0.3-1.3,0.5-1.9,0.2c-0.4-0.2-0.3-0.8-0.2-1.4c0.6-0.1,1.2,0,1.7,0.3C368.3,201.8,368.6,202.2,368.3,202.4z M365.1,155.6
		c0.2,0,0.3,0.1,0.5,0.1c0,0,0,0,0,0c0,0,0,0,0,0c0,0,0,0,0,0c0.4-0.4,0.6-0.2,0.8,0c0.2,0,0.4,0,0.6,0.2c0.1,0.1,0,0.2,0,0.3
		c0.3,0.1,0.7,0.3,0.3,0.7c-0.3,0.3-0.8,0.3-1.2,0c-0.5-0.3-0.5-0.8-0.6-1.3c0,0,0,0,0,0c-0.1,0.1-0.2,0.2-0.3,0.2
		c-0.2,0.1-0.5,0.3-0.6-0.1C364.6,155.7,364.9,155.6,365.1,155.6z M364.6,212c0.2,0,0.3,0.1,0.3,0.2c0,0.2-0.1,0.3-0.2,0.3
		c-0.2,0-0.3-0.1-0.3-0.3C364.3,212.1,364.4,212,364.6,212z M363.9,157.9c0.2,0.2,0.1,0.3,0,0.5c-0.2,0.1-0.3,0.3-0.5,0.1
		c-0.2-0.2-0.1-0.3,0-0.5C363.5,157.8,363.7,157.7,363.9,157.9z M361.3,152c0.3,0.2,0.7,0.3,0.6,0.7c0,0.3-0.4,0.2-0.6,0.1
		c-0.3-0.2-0.6-0.4-0.5-0.8C361,151.8,361.2,151.9,361.3,152z M360.6,153.7c0.8-0.2,1.5,0.3,2.2,0.6c0.2,0.1,0.3,0.2,0.5,0.3
		c0.2,0.1,0.3,0.3,0.2,0.5c-0.1,0.2-0.3,0.3-0.6,0.3c-0.9-0.2-1.6-0.6-2.2-1.4C360.6,154,360.6,153.7,360.6,153.7z M362.3,158.1
		c0,0.1-0.1,0.2-0.2,0.1c0-0.1-0.1-0.2-0.1-0.4c0-0.1,0.1-0.3,0.2-0.1C362.3,157.8,362.3,158,362.3,158.1z M361.4,210.4
		c-0.1,0-0.2-0.1-0.2-0.2c0-0.1,0.1-0.1,0.1-0.2c0.1,0.1,0.2,0.1,0.3,0.1C361.7,210.4,361.6,210.4,361.4,210.4z M360.7,202.9
		c0.2-0.2,0.5-0.4,0.8-0.1c0.4,0.3,0,0.6-0.2,0.9c-0.3,0.2-0.5,0.4-0.8,0C360.3,203.4,360.4,203.1,360.7,202.9z M357.8,171.1
		c0.3-0.2,0.7-0.2,1.1,0c0.2,0.2,0.2,0.4-0.1,0.6c-0.3,0.2-0.7,0.3-1.1,0C357.6,171.5,357.6,171.2,357.8,171.1z M355.1,147.8
		c0.2-0.3,0.5-0.1,0.8,0.1c0.2,0.3,0.2,0.7-0.1,1c-0.2,0.2-0.5,0.1-0.6-0.1C354.9,148.5,354.8,148.1,355.1,147.8z M353.5,128.8
		c0.2-0.1,0.2,0.1,0.3,0.2c0,0.1,0,0.3-0.2,0.3c-0.1,0-0.2-0.1-0.2-0.2C353.4,129.1,353.4,128.9,353.5,128.8z M352.7,149.1
		c0.2,0,0.4,0.1,0.5,0.3c0-0.1,0-0.1,0.1-0.2c0.1,0,0.2,0,0.3,0c0,0.1,0,0.2,0,0.2c0,0.1-0.2,0.1-0.2,0c-0.1,0-0.1-0.1-0.1-0.1
		c0,0.1,0,0.1,0,0.2c0,0.4-0.2,0.5-0.6,0.5c-0.3,0-0.6-0.2-0.6-0.5C352.1,149.2,352.3,149,352.7,149.1z M351.2,132.4
		c0.1-0.1,0.3-0.1,0.4,0.1c0.1,0.2,0,0.3-0.2,0.3c-0.1,0.1-0.3,0.1-0.4,0C350.9,132.6,351,132.5,351.2,132.4z M349.6,113.6
		c0.2,0,0.5-0.1,0.6,0.2c-0.1,0.4-0.4,0.4-0.7,0.5c-0.2,0-0.4-0.1-0.4-0.3C349.1,113.6,349.4,113.6,349.6,113.6z M346.1,101.6
		c0.3-0.2,0.6-0.1,0.8,0c0.1,0.1,0.2,0.2-0.1,0.4c-0.2,0-0.5,0-0.8-0.1C345.9,101.8,345.9,101.7,346.1,101.6z M346.9,113.1
		c0.1,0.1,0,0.3-0.1,0.3c-0.1,0-0.2-0.1-0.2-0.1c0.1-0.1,0.1-0.2,0.2-0.3C346.7,113,346.9,113.1,346.9,113.1z M343.6,109.2
		c0.3,0,0.3,0.3,0.4,0.6c0.1,0.2,0.1,0.4-0.2,0.5c-0.3-0.1-0.5-0.3-0.5-0.6C343.3,109.4,343.4,109.2,343.6,109.2z M342.2,101.7
		c0.2-0.1,0.4-0.1,0.5,0c0.2,0.1,0.2,0.3,0.1,0.4c-0.1,0.1-0.3,0.2-0.5,0.1C342,102,342,101.8,342.2,101.7z M340.2,93.8
		c0.1-0.3,0.2-0.6,0.6-0.5c0.4,0.1,0.4,0.4,0.3,0.7c-0.1,0.3-0.2,0.8-0.7,0.7C340.1,94.6,340.2,94.1,340.2,93.8z M332.5,85
		c0.1-0.2,0.2-0.5,0.4-0.6c0.5-0.3,1-0.3,1.4,0.1c0,0.1,0.1,0.1,0.1,0.2c0.1,0.5,0,1.1-0.4,1.3c-0.7,0.3-1.6,0.3-2.1-0.1
		C331.3,85.5,332.3,85.4,332.5,85z M333.5,90.1c0,0.2-0.1,0.3-0.4,0.2c-0.1,0-0.2-0.1-0.2-0.3c0-0.2,0.1-0.3,0.2-0.3
		C333.4,89.7,333.5,89.9,333.5,90.1z M331.4,101.1c0.1-0.1,0.3-0.2,0.5-0.1c0.2,0.2,0,0.3-0.1,0.5c-0.2,0.1-0.3,0.2-0.5,0
		C331.3,101.4,331.4,101.2,331.4,101.1z M326.3,78.7c0.3-0.4,0.7-0.4,1-0.1c0.5,0.3,0.6,0.6,0.3,1.2c-0.3,0.3-0.6,0.4-1,0.1
		C326.3,79.5,325.9,79.2,326.3,78.7z M321.7,81c0.2-0.3,0.5-0.2,0.8,0c0.2,0.2,0.4,0.4,0.2,0.6c-0.2,0.3-0.5,0.3-0.7,0.1
		C321.8,81.5,321.5,81.3,321.7,81z M316,86.2c0.2-0.2,0.3-0.5,0.6-0.4c0.4,0.2,0.1,0.5,0,0.7c-0.2,0.5,0,1.1-0.6,1.4
		c-0.2,0.1-0.4,0-0.5-0.2C315.2,87.1,315.8,86.7,316,86.2z M303.8,77.1c0.3-0.3,0.7-0.1,1.1,0c0.2,0.1,0.3,0.3,0.1,0.5
		c-0.3,0.3-0.8,0.2-1.1,0C303.8,77.4,303.7,77.2,303.8,77.1z M288.7,65.4c0.1,0,0.3,0,0.4,0c0,0.1,0.1,0.3,0.1,0.4
		c-0.2,0.1-0.3,0-0.5-0.1C288.5,65.7,288.5,65.5,288.7,65.4z M286.2,63.4c0.3-0.3,0.5-0.2,0.8,0c0.2,0.2,0.3,0.3,0.1,0.5
		c-0.3,0.3-0.5,0.1-0.8-0.1C286.1,63.7,286,63.5,286.2,63.4z M282.4,47.6c0.1-0.1,0.2-0.2,0.3,0c0,0.1-0.1,0.2-0.1,0.2
		c-0.1,0-0.2,0-0.3,0C282.4,47.8,282.4,47.7,282.4,47.6z M276.9,40.9c0.1-0.2,0.2-0.3,0.4-0.3c0.1,0.1,0.2,0.2,0.1,0.3
		c-0.1,0.1-0.2,0.2-0.3,0.2C277,41.2,276.9,41.1,276.9,40.9z M275.8,56.9c0.3,0.1,0.4,0.4,0.4,0.7c0,0.2-0.2,0.2-0.3,0.2
		c-0.2-0.2-0.5-0.4-0.4-0.7C275.5,56.9,275.6,56.8,275.8,56.9z M270.2,53.3c0.3,0,0.5,0.1,0.5,0.4c0.1,0.2-0.1,0.4-0.3,0.4
		c-0.3,0-0.4-0.2-0.5-0.5C270,53.4,270.1,53.3,270.2,53.3z M240.3,37.5c0.1-0.1,0.3-0.1,0.4,0c0.1,0.1,0.1,0.3-0.1,0.4
		c-0.1,0.1-0.3,0.1-0.4,0C240.1,37.7,240.1,37.6,240.3,37.5z M233.2,41.2c0,0,0,0.2,0,0.2c0,0-0.2,0-0.2,0.1c0-0.1-0.1-0.2-0.1-0.2
		C233,41.1,233.1,41.1,233.2,41.2z M123.1,50.3c0.1,0,0.2,0.1,0.2,0.2c0,0.1-0.1,0.1-0.1,0.2c-0.1,0-0.2-0.1-0.2-0.1
		C122.8,50.4,122.9,50.3,123.1,50.3z M106.3,60.8c0.2-0.1,0.4,0,0.4,0.2c0,0.2-0.1,0.3-0.2,0.3c-0.2,0-0.3,0-0.4-0.2
		C106.1,61,106.1,60.9,106.3,60.8z M99.2,50.3c0.2,0,0.3,0.1,0.3,0.3c0,0.2-0.1,0.2-0.3,0.2c-0.2,0-0.3-0.1-0.3-0.3
		C99,50.3,99.1,50.2,99.2,50.3z M85.8,73.4c0.1,0,0.3,0,0.4,0.1c0.1,0.1,0.1,0.3-0.1,0.3c-0.1,0-0.2-0.1-0.4-0.1
		C85.8,73.6,85.8,73.5,85.8,73.4z M85.9,79c0.1,0,0.3,0,0.4,0.2c0.1,0.2,0,0.3-0.2,0.3c-0.2,0.1-0.4,0-0.5-0.2
		C85.5,79.2,85.6,79.1,85.9,79z M83.8,75.4c0.3-0.2,0.7-0.3,0.9,0.1c0.3,0.8-0.6,0.7-0.9,1.1c-0.3,0.1-0.8,0.6-0.8,0.4
		C82.9,76.3,83.3,75.7,83.8,75.4z M71.8,83.9c0.1,0,0.1,0.1,0.2,0.2c-0.1,0.1-0.1,0.1-0.2,0.2c-0.1,0-0.2-0.1-0.2-0.1
		C71.5,83.9,71.7,83.8,71.8,83.9z M41.3,128.7c0.2-0.1,0.3,0,0.4,0.1c0,0.1,0,0.2-0.1,0.2c-0.1,0.1-0.3,0-0.3-0.1
		C41.2,128.9,41.2,128.8,41.3,128.7z M39.9,143.3c0.3,0.1,0.4,0.3,0.4,0.6c0,0.2-0.1,0.2-0.3,0.2c-0.3-0.1-0.4-0.3-0.4-0.6
		C39.6,143.4,39.8,143.3,39.9,143.3z M37.2,122.1c0.1,0,0.2,0.2,0.3,0.3c0,0.2-0.1,0.3-0.3,0.2c-0.1-0.1-0.2-0.2-0.2-0.3
		C36.9,122.1,37.1,122,37.2,122.1z M36.1,152.3c0.5-0.1,0.7,0,0.8,0.6c0.1,0.6,0.2,1,0.9,0.5c0.6-0.3,0.7,0.1,0.5,0.6
		c-0.3,0.9-1.2,1.2-1.9,0.5c-0.4-0.4-1-0.6-1.2-1.3C35.3,152.8,35.6,152.5,36.1,152.3z M32.5,149.5c0.3,0,0.5,0.2,0.6,0.5
		c0,0.3-0.2,0.4-0.5,0.4c-0.3-0.1-0.6-0.2-0.6-0.5C32,149.6,32.2,149.5,32.5,149.5z M29.1,155.4c0.2,0,0.3,0.2,0.3,0.4
		c0,0.4-0.2,0.6-0.6,0.7c-0.3,0-0.3-0.2-0.3-0.4C28.6,155.8,28.7,155.4,29.1,155.4z M29.2,161.7c0.2,0,0.3,0.2,0.3,0.4
		c0,0.4-0.3,0.6-0.7,0.6c-0.2,0-0.4-0.1-0.4-0.4C28.6,162,28.9,161.7,29.2,161.7z M25.6,202.5c-0.3,0-0.5-0.1-0.6-0.4
		c-0.1-0.3,0.2-0.3,0.4-0.2c0.2,0.1,0.5,0.1,0.6,0.3C26,202.5,25.8,202.5,25.6,202.5z M27,161.7c0.1-0.4,0.2-0.8,0.6-0.9
		c0.3,0,0.2,0.2,0.2,0.4c-0.1,0.3,0,0.8-0.5,0.9C27,162.1,26.9,161.9,27,161.7z M28.3,258.7c-0.1,0.3-0.4,0.4-0.7,0.5
		c-0.2,0-0.3-0.1-0.3-0.3c0.1-0.3,0.4-0.4,0.7-0.5C28.2,258.4,28.3,258.5,28.3,258.7z M27.7,167.2c-0.2,0-0.4-0.2-0.3-0.4
		c0.1-0.3,0.3-0.4,0.5-0.4c0.2,0,0.4,0.1,0.4,0.3C28.3,167.1,28,167.2,27.7,167.2z M28.4,171.4c0-0.3,0.2-0.3,0.4-0.2
		c0.1,0,0.3,0.1,0.2,0.3c0,0.2-0.2,0.2-0.4,0.2C28.6,171.6,28.4,171.5,28.4,171.4z M31.3,250c-0.1,0.4-0.4,0.1-0.7,0.1
		c-0.3-0.1-0.7-0.1-1.1-0.3c-0.4-0.1-0.9-0.2-0.7-0.8c0.1-0.4,0.6-0.5,1-0.5c0.6,0,1,0.4,1.3,0.9C31.3,249.7,31.4,249.9,31.3,250z
		 M33.6,159.7c-0.4-0.7-1-0.4-1.6-0.1c-0.3,0.1-0.7,0.4-0.9,0.1c-0.3-0.5,0.3-0.6,0.6-0.8c0.9-0.5,1.8-1,2.9-0.5
		c0.3,0.1,0.7,0.2,0.6,0.7c0,0.1-0.1,0.3-0.2,0.4c-0.4,0.5,0.4,1.4-0.4,1.5C34,161,33.9,160.2,33.6,159.7z M55.1,263.3
		c-0.2-0.1-0.3-0.2-0.3-0.4c0-0.2,0.1-0.4,0.3-0.3c0.2,0.1,0.3,0.3,0.3,0.5C55.4,263.1,55.3,263.3,55.1,263.3z M56.9,250.8
		c-0.1,0-0.1-0.2-0.1-0.2c0.1-0.2,0.2-0.2,0.3-0.2c0.1,0,0.1,0.2,0.1,0.2C57.2,250.8,57.1,250.9,56.9,250.8z M57.6,242
		c-0.1-0.2,0.1-0.3,0.3-0.3c0.3,0,0.5,0.2,0.6,0.5c0,0.2,0,0.3-0.2,0.3C58.1,242.3,57.7,242.3,57.6,242z M58.6,297.3
		c-0.2,0.1-0.4,0-0.5-0.2c-0.1-0.2,0.2-0.3,0.4-0.3c0.2,0,0.4,0,0.5,0.2C59,297.2,58.8,297.2,58.6,297.3z M60,289.2
		c-0.2,0-0.4,0-0.4-0.3c0-0.1,0.2-0.2,0.3-0.3c0.2,0,0.4,0,0.4,0.3C60.3,289.2,60.2,289.2,60,289.2z M63,285.5
		c-0.4-0.1-0.3-0.5-0.5-0.8c-0.1-0.1-0.2-0.5,0.1-0.4c0.4,0,0.5,0.4,0.5,0.7C63.2,285.2,63.2,285.4,63,285.5z M64.3,285.5
		c-0.1,0-0.2-0.1-0.3-0.3c0-0.2,0.1-0.3,0.3-0.3c0.2,0,0.3,0.2,0.3,0.4C64.7,285.4,64.6,285.6,64.3,285.5z M68.7,301
		c-0.3,0-0.6-0.1-0.7-0.5c0-0.3,0.2-0.3,0.4-0.3c0.3,0,0.6,0,0.7,0.4C69.1,300.8,69,300.9,68.7,301z M69.1,252c-0.1,0-0.3,0-0.4-0.1
		c-0.5-0.6-1-1.1-1.9-0.6c-0.2,0.1-0.4,0-0.5-0.2c-0.2-0.7-0.7-0.7-1.3-0.8c-0.4,0-0.6-0.3-0.5-0.7c0.1-0.4,0.4-0.6,0.8-0.6
		c0.8,0.1,1.5,0.8,2.3,0c0,0,0.1,0,0.1,0c0.1,1,1.3,1.5,1.4,2.6C69.2,251.8,69.2,252,69.1,252z M49.8,242.3c-3.6,0-7.1-0.4-10.4-1.2
		c-3.3-12.9-5.1-26.4-5.1-40.4c0-13,1.5-25.7,4.5-37.9c0,0-0.1,0-0.1-0.1c-0.8-0.5-1.6-0.9-2.5-0.1c-0.1,0.1-0.6,0-0.9-0.1
		c-0.3-0.1-0.7-0.1-0.8-0.6c0-0.5,0.4-0.5,0.7-0.5c0.7-0.2,1.3-0.3,2-0.5c0.7,0,1.2,0.4,1.8,0.7C56.6,90.7,120.8,37.9,197.2,37.9
		c10,0,19.8,0.9,29.3,2.6c0.1-0.4,0.5-0.7,0.8-1c0.2-0.2,0.5,0,0.6,0.2c0.1,0.4,0,0.7-0.1,1c28.4,5.4,54.3,18.2,75.4,36.4
		c0,0,0-0.1,0-0.1c0-0.2,0.2-0.2,0.3-0.1c0.1,0.1,0.2,0.2,0.2,0.3c0,0.1-0.1,0.2-0.2,0.2c0.6,0.5,1.1,1,1.7,1.5c0-0.2,0-0.3,0.1-0.3
		c0.2-0.2,0.4-0.3,0.7-0.2c0.3,0.1,0.5,0.3,0.5,0.6c0,0.3,0,0.7,0,1c32.9,29.8,53.6,72.9,53.6,120.7c0,3.8-0.1,7.5-0.4,11.2
		c0.3,0,0.6,0.1,0.8,0.3c1.2,0.7,2.2,1.5,3.5,1.9c0.4,0.2,0.7,0.6,0.4,1.1c-0.2,0.5-0.4,0.9-1.1,0.8c-0.3,0-0.6-0.1-0.7-0.1
		c-0.6,0-1,0-1.4-0.1c-0.8-0.2-2.1,0.1-1-1.5c0.4-0.6-0.1-1.2-0.7-1.1c-0.8,9.8-2.4,19.4-4.8,28.6c-1.7,0.2-3.3,0.3-5.1,0.3
		c-10.6,0-20-3.8-27.5-8.8c-0.2,0.1-0.4,0-0.5-0.2c0-0.1,0-0.1,0-0.2c-0.6-0.4-1.3-0.9-1.9-1.3c-0.8-0.2-1.9-0.5-2-0.7
		c-0.1-0.3-0.1-0.6,0.2-0.6c-6.5-5.3-11-11.3-12.6-15.8c-0.1,0.2-0.5,0.1-0.7,0.2c-0.2,0-0.4,0-0.5-0.3c0.2-0.2,0.5-0.2,0.8-0.3
		c0.1,0,0.2,0,0.3,0c-1-2.2-3.1-3.7-5.5-3.7c-1.3,0-2.5,0.4-3.5,1.1c-1,0.7-1.8,1.7-2.2,2.9c-3.1,8.8-17.4,23.6-36.5,26.9
		c-0.1,0-0.1,0-0.2,0c-2.5,0.4-5,0.7-7.6,0.7c-1.6,0-3.2-0.1-4.8-0.3c0.1,0.2,0.3,0.4,0.4,0.5c0.3,0.3,0.5,0.6,0.8,1.1
		c0.1,0.1,0.3,0.3,0.4,0.5c0.4,0.5,0.1,0.9-0.2,1.3c-0.3,0.5-0.8,0.5-1.2,0.2c-1.1-0.8-2.3-1.3-3.5-2c-0.5-0.3-1-0.8-1-1.4
		c0-0.4,0-0.7-0.1-1c-0.6-0.1-1.2-0.3-1.9-0.4c-0.3,0.4-0.7,0.6-1.2,0.7c-0.5,0.1-0.6-0.3-0.6-0.6c-0.1-0.2-0.1-0.4-0.2-0.6
		c-0.7-0.2-1.3-0.4-2-0.6c0,0,0,0,0,0c0.1,0.3,0.4,0.8,0,1.1c0,0,0,0,0,0c0.1,0,0.2,0.1,0.2,0.1c0.1-0.1,0.3-0.2,0.4-0.1
		c0.5,0.4,0.1,0.8,0,1.2c-0.1,0.2-0.3,0.3-0.4,0.1c-0.2-0.2-0.2-0.4-0.2-0.6c-0.1,0-0.1-0.1-0.2-0.1c-0.2-0.1-0.5-0.2-0.4-0.5
		c0.1-0.1,0.1,0,0.2-0.1c-0.2-0.1-0.3-0.3-0.4-0.5c-0.1-0.3-0.3-0.6-0.2-0.9c-1-0.4-2-0.8-3-1.2c0,0,0,0,0,0
		c-0.1,0.1-0.3,0.1-0.4,0.1c0-0.1,0-0.2,0.1-0.2c0,0,0.1,0,0.1,0c-13.4-5.8-22.9-16.6-25.4-23.5c-0.7-1.9-2.2-3.3-4.1-3.8
		c-0.3,0.3-0.6,0.5-0.6,0.9c0,0.2-0.4,0.1-0.4-0.1c-0.2-0.4-0.2-0.7,0-1c-0.2,0-0.3,0-0.5,0c-1.3,0-2.5,0.4-3.5,1.1
		c-1,0.7-1.8,1.7-2.2,2.9c-2.3,6.5-10.8,16.3-22.7,22.3c0.1,0,0.1,0.1,0.1,0.1c0,0.2-0.1,0.3-0.3,0.4c-0.2,0-0.3-0.1-0.3-0.2
		c0,0,0-0.1,0.1-0.1c-6.2,3.1-13.4,5.1-21.2,5.1c-6.1,0-11.8-1.3-17-3.3c0.1,0.3,0.2,0.7,0.2,1c0,0.3,0,0.6-0.4,0.7
		c-0.4,0.1-0.5-0.2-0.6-0.5c-0.1-0.6-0.3-1.1-0.9-1.4c-0.2-0.1-0.3-0.3-0.2-0.5c-6.1-2.7-11.4-6.3-15.6-10.2
		c0.1,0.3,0.1,0.6-0.2,0.8c-0.5,0.4-1.3,0.6-1.8,1.1c-0.3,0-0.5-0.1-0.4-0.3c0.3-0.6,0.5-1.3,0.9-1.8c0.2-0.3,0.4-0.5,0.7-0.4
		c-1.4-1.4-2.8-2.8-3.9-4.2c-1,0.3-2,0.6-2.8,1.4c-0.3,0.3-1,0.2-1.2-0.1c-0.4-0.5,0.3-0.7,0.6-1c0.4-0.4,1-0.6,1.1-1.5
		c0-0.5,0.5-0.6,0.9-0.7c-1.7-2.3-2.9-4.5-3.6-6.5c-0.9-2.4-3.2-4.1-5.7-4.1c-1.3,0-2.5,0.4-3.5,1.1c-1,0.7-1.8,1.7-2.2,2.9
		C90.5,224.6,72.7,242.3,49.8,242.3z M230.7,240.4c0,0-0.2,0-0.2,0c-0.1-0.1-0.2-0.2-0.1-0.3c0,0,0.2,0,0.2,0
		C230.8,240.1,230.8,240.3,230.7,240.4z M228.4,245.8c-0.3,0.2-0.6,0.4-1,0.2c-0.3-0.2,0-0.3,0.1-0.4c0.3-0.1,0.6-0.4,1-0.2
		C228.8,245.5,228.6,245.7,228.4,245.8z M226.5,237.2c-0.3,0.1-0.4,0-0.5-0.1c-0.1-0.1,0-0.3,0.1-0.3c0.2-0.1,0.3,0,0.3,0.2
		C226.5,237.1,226.5,237.2,226.5,237.2z M222.9,268.5c0.1,0,0.2,0,0.2,0c0.1,0.1,0.1,0.3,0.1,0.4c-0.1,0.2-0.2,0.2-0.3,0
		C222.8,268.7,222.8,268.6,222.9,268.5z M222.6,243.2c-0.2,0-0.3-0.2-0.3-0.4c0.1-0.2,0.3-0.3,0.5-0.2c0.2,0,0.3,0.2,0.3,0.4
		C223,243.1,222.8,243.2,222.6,243.2z M219.5,304.6c0.1-0.1,0.3,0,0.3,0c0.2,0.4,0.1,0.5-0.1,0.6c-0.1,0.1-0.3,0-0.4-0.1
		C219.2,304.9,219.3,304.7,219.5,304.6z M219.1,235.7c-0.2-0.4,0.2-0.5,0.5-0.4c0.6,0.2,1.4,1.9,1.2,2.5c-0.1,0.2-0.1,0.2-0.4,0.2
		c-0.1-0.1-0.2-0.1-0.3-0.3C219.8,237.1,219.4,236.4,219.1,235.7z M219.8,298.5c0-0.1,0-0.2,0-0.3c0.1-0.1,0.3,0,0.4,0.1
		c0,0.1,0,0.2,0,0.3C220.1,298.7,219.9,298.6,219.8,298.5z M220.1,264.1c0-0.1,0.1-0.2,0.1-0.2c0.1,0,0.2,0,0.2,0.1
		c0,0.1,0,0.2,0,0.2C220.2,264.3,220.1,264.3,220.1,264.1z M220.3,260.4c0.2-0.3,0.6-0.5,1-0.4c0.2,0.2,0.3,0.4,0.2,0.6
		c-0.2,0.3-0.6,0.5-1,0.4C220.1,260.9,220.1,260.6,220.3,260.4z M214.3,265.7c0.3-0.4,0.6-1.1,1.2-0.8c0.8,0.4,0,0.9-0.2,1.3
		c-0.3,0.4-0.2,1.3-1,0.9C213.7,266.8,214,266.1,214.3,265.7z M214.3,251.9c0.1,0,0.2,0,0.3,0.1c0.1,0.1,0.1,0.2,0,0.3
		c-0.2,0.1-0.3,0-0.4-0.1C214.1,252.1,214.1,251.9,214.3,251.9z M214.9,238.4c0.2-0.6,0.5-1.1,0.9-1c0.6,0.2,1.1,0.7,1.4,1.3
		c0.2,0.4-0.4,0.5-0.7,0.4C215.9,239,215.3,238.8,214.9,238.4z M212.7,268.3c0,0.1-0.2,0-0.2,0.1c-0.1-0.2,0-0.4,0.1-0.6
		c0,0,0.2-0.1,0.2,0C212.9,268,212.8,268.2,212.7,268.3z M211.5,259.5c0.1-0.1,0.2-0.1,0.4,0c0.2,0.1,0.2,0.3,0.1,0.5
		c-0.1,0.2-0.3,0.2-0.5,0.1C211.4,259.9,211.4,259.7,211.5,259.5z M211.3,257c0-0.1,0-0.3,0-0.4c0.2-0.1,0.3-0.1,0.4,0
		c0,0.1,0,0.3-0.1,0.4C211.6,257.2,211.4,257.2,211.3,257z M210,231.2c-0.1,0-0.2,0-0.2-0.1c-0.1-0.1-0.1-0.3,0-0.4
		c0.1,0,0.2,0.1,0.2,0.1C210.2,230.9,210.2,231.1,210,231.2z M208,226.4c-0.1,0.1-0.2,0.1-0.3,0c0-0.1-0.1-0.2,0-0.2
		c0.1-0.1,0.2-0.1,0.3,0C208,226.2,208,226.4,208,226.4z M205.7,226.2c0.1-0.2,0.3-0.3,0.5-0.2c0.2,0.1,0.1,0.3,0,0.5
		c-0.1,0.2-0.3,0.3-0.5,0.1C205.7,226.5,205.7,226.3,205.7,226.2z M205.5,221.2c0-0.2,0.3-0.2,0.4-0.1c0.1,0.1,0.1,0.3,0.1,0.5
		c-0.1,0.2-0.2,0.2-0.3,0.1C205.6,221.6,205.5,221.4,205.5,221.2z M206.1,231.6c0.1-0.3,0.4-0.5,0.7-0.3c0.3,0.2,0.3,0.5,0.1,0.8
		c-0.2,0.3-0.4,0.6-0.7,0.4C205.8,232.3,206.1,231.9,206.1,231.6z M205,259.7c0,0.2-0.2,0.2-0.4,0.1c-0.2-0.1-0.5-0.2-0.5-0.5
		c0-0.3,0.2-0.2,0.4-0.2C204.7,259.3,205,259.4,205,259.7z M203.1,224.8c-0.4,0.2-0.7-0.1-0.8-0.4c-0.2-0.2-0.4-0.6-0.1-0.8
		c0.4-0.2,0.6,0.1,0.9,0.4C203.2,224.3,203.5,224.5,203.1,224.8z M198.6,256.2c-0.2-0.1-0.4-0.3-0.3-0.6c0.2-0.2,0.4-0.2,0.6-0.2
		c0.3,0.1,0.4,0.3,0.3,0.5C199.2,256.4,198.9,256.4,198.6,256.2z M199,258.5c-0.2,0.3-0.4,0.2-0.6,0.1c-0.3-0.2-0.7-0.4-0.6-0.7
		c0.1-0.3,0.4-0.2,0.6-0.1C198.7,257.9,199.1,258,199,258.5z M197.6,247.2C197.6,247.2,197.6,247.2,197.6,247.2
		C197.5,247.2,197.5,247.2,197.6,247.2c-0.1,0-0.1-0.1-0.1-0.1c-0.1,0.1-0.1,0.2-0.2,0.4c0.1,0.1,0.2,0.2,0.3,0.3
		c0.3,0.3,0.3,0.8,0,1.1c-0.3,0.3-0.5,0.1-0.7-0.1c0,0.2-0.1,0.4-0.1,0.6c0,0.2-0.2,0.8-0.5,0.4c-0.4-0.5-0.5-1.3-0.4-1.9
		c-0.2-0.1-0.4-0.2-0.6-0.2c-0.3,0-0.7-0.1-0.6-0.5c0.1-0.4,0.5-0.4,0.9-0.3c0.2,0.1,0.5,0.1,0.7,0.2c0.3-0.1,0.8,0.1,1.1,0.1
		c0,0,0,0,0,0C197.5,247.2,197.5,247.2,197.6,247.2c0.4-0.3,0.8-0.5,1.2,0c0,0.1,0,0.2,0,0.3C198.3,247.9,198,247.5,197.6,247.2z
		 M197.2,255.6c0,0.2-0.2,0.4-0.4,0.2c-0.3-0.2-0.3-0.5-0.2-0.8c0.1-0.2,0.2-0.2,0.3-0.2C197.1,255,197.2,255.3,197.2,255.6z
		 M194.7,237.3c-0.3,0.3-0.6,0.4-0.9,0.1c-0.4-0.3-0.6-0.7-0.3-1.2c0.2-0.3,0.6-0.4,0.9-0.1C194.8,236.4,195,236.8,194.7,237.3z
		 M195.1,239.6c0.1-0.2,0.3-0.3,0.5-0.1c0.2,0.3,0.2,0.6,0,1c-0.1,0.2-0.3,0.2-0.5,0.1C194.8,240.2,194.9,239.9,195.1,239.6z
		 M196.4,245.6c-0.1,0-0.3,0-0.4-0.1c-0.1-0.1-0.1-0.3,0-0.3c0.8-0.6,1.6-1.1,2.6-1.2c0.3,0,0.7,0,0.7,0.3c0,0.3-0.3,0.6-0.5,0.6
		C198,245.2,197.2,245.3,196.4,245.6z M198.8,213.9c-0.2-0.3-0.1-0.6,0.1-0.8c0.3-0.2,0.7-0.3,0.9,0.1c0.2,0.3-0.1,0.5-0.2,0.7
		C199.3,214.1,199,214.1,198.8,213.9z M199.9,238.2c0.5-0.2,0.9,0.2,1.3,0.5c0.2,0.1,0.2,0.3,0,0.5c-0.5,0.3-0.9-0.1-1.3-0.4
		C199.7,238.6,199.7,238.3,199.9,238.2z M191.1,259.3c0,0.2-0.2,0.2-0.3,0.2c0-0.1-0.1-0.2-0.1-0.2c0-0.2,0.2-0.2,0.3-0.1
		C191.1,259.1,191.1,259.2,191.1,259.3z M189.2,234.7c-0.2,0-0.2-0.3-0.2-0.5c0-0.3,0-0.6,0.2-0.8c0.3,0.1,0.4,0.3,0.4,0.5
		C189.6,234.2,189.8,234.6,189.2,234.7z M187,228.5c-0.1,0.1-0.3,0.1-0.4,0c-0.1-0.1-0.2-0.2-0.1-0.4c0.1-0.1,0.3-0.1,0.4,0
		C187,228.2,187.1,228.3,187,228.5z M181.4,236.2c-0.2,0.2-0.5,0.1-0.7-0.1c-0.2-0.2-0.2-0.5,0.1-0.6c0.2-0.2,0.5-0.1,0.7,0.1
		C181.6,235.8,181.6,236,181.4,236.2z M175.5,269.6c-0.1,0.3-0.3,0.3-0.5,0.1c-0.1-0.1-0.3-0.3-0.2-0.5c0.1-0.2,0.3-0.1,0.4-0.1
		C175.4,269.2,175.5,269.4,175.5,269.6z M173.9,296.4c0.2,0,0.3,0.3,0.4,0.4c0.2,0.5,0.4,1,0.1,1.6c-0.2,0.3-0.5,0.7-0.9,0.6
		c-0.5-0.1-0.4-0.6-0.3-1c0.1-0.4,0.2-0.8,0.3-1C173.6,296.7,173.5,296.3,173.9,296.4z M169.5,302.9c0.3-0.2,0.3-0.9,0.6-0.9
		c0.4,0.1,0.3,0.7,0.5,1.1c0.2,0.4,0.1,0.6-0.3,0.8c-0.5,0.3-0.3,0.7-0.1,1c0.2,0.3,0.5,0.6,0.7,0.9c0.1,0.1,0.1,0.3,0.1,0.4
		c-0.1,0.2-0.2,0.1-0.4,0C168.9,305.7,168.5,304.4,169.5,302.9z M168.8,282.9c0-0.1,0.1-0.3,0.3-0.2c0.2,0.1,0.2,0.2,0.1,0.3
		c0,0.1-0.1,0.2-0.2,0.2C168.9,283.2,168.8,283.1,168.8,282.9z M170.6,263.8c-0.2,0-0.3-0.2-0.2-0.3c0.1-0.4,0.4-0.7,0.8-0.8
		c0.2,0,0.2,0.3,0.2,0.4C171.2,263.5,171,263.8,170.6,263.8z M171.3,255.6c-0.4,0.1-0.5-0.4-0.4-0.8c0.2-0.6,0.4-1.1,0.9-1.5
		c0.5,0.3,1,0.6,0.9,1C172.5,254.9,171.9,255.4,171.3,255.6z M172.1,238.3c0.2,0,0.4,0.1,0.4,0.3c0,0.2-0.2,0.3-0.4,0.3
		c-0.1,0-0.3-0.1-0.3-0.2C171.7,238.4,171.9,238.3,172.1,238.3z M167,280.9c-0.1,0-0.3,0.1-0.3-0.1c0-0.1,0.2-0.2,0.3-0.3
		c0.1,0,0.2,0,0.2,0.1C167.3,280.8,167.1,280.9,167,280.9z M160.3,251.1c0.2,0.2,0.5,0.5,0.4,0.9c-0.1,0.2-0.3,0-0.4-0.2
		c-0.2-0.3-0.5-0.4-0.4-0.8C160,250.8,160.2,251,160.3,251.1z M159.8,249c-0.3,0-0.6-0.1-0.6-0.5c0.1-0.4,0.3-0.6,0.7-0.5
		c0.3,0,0.7,0.1,0.6,0.5C160.5,248.8,160.1,249,159.8,249z M160.6,250.2c-0.1-0.1-0.2-0.3-0.1-0.4c0.1-0.2,0.3-0.3,0.4-0.2
		c0.2,0.1,0.2,0.3,0.2,0.5C161,250.3,160.8,250.4,160.6,250.2z M161.1,255.8c0.1,0,0.2-0.1,0.2,0c0.1,0.1,0.1,0.3,0,0.4
		c-0.1,0-0.2,0.1-0.2,0C160.9,256.1,161,255.9,161.1,255.8z M155.1,252.1c-0.2-0.1-0.1-0.3,0-0.5c0.1-0.1,0.2-0.2,0.4-0.1
		c0.2,0.1,0.2,0.3,0,0.5C155.4,252.1,155.2,252.2,155.1,252.1z M155.1,253.1c-0.2,0.1-0.4,0.1-0.5,0c-0.1-0.1-0.2-0.3,0-0.3
		c0.1,0,0.3,0,0.4,0C155.1,252.9,155.2,253,155.1,253.1z M153.9,248.2c-0.1,0-0.3,0-0.4-0.1c-0.1-0.1-0.1-0.3,0.1-0.3
		c0.1,0,0.3,0,0.4,0C154.1,248,154.1,248.2,153.9,248.2z M152.4,251.8c0,0.1,0,0.3-0.1,0.3c-0.3,0.1-0.4,0-0.4-0.2
		c-0.1-0.1,0-0.3,0.1-0.4C152.1,251.5,152.3,251.6,152.4,251.8z M151.1,248.1c-0.1,0.2-0.3,0.2-0.5,0.1c-0.2-0.1-0.2-0.3,0-0.5
		c0.2-0.1,0.3-0.1,0.5,0C151.2,247.8,151.2,248,151.1,248.1z M132.6,280.4c0.3-0.3,0.5,0.1,0.7,0.3c0.2,0.3,0.4,0.6,0.1,0.9
		c-0.3,0.3-0.5-0.1-0.7-0.3C132.5,281.1,132.3,280.7,132.6,280.4z M132.5,275.7c-0.1,0-0.2,0-0.2-0.1c-0.1-0.1,0-0.3,0.1-0.3
		c0.1,0,0.2,0,0.2,0.1C132.7,275.5,132.6,275.7,132.5,275.7z M128.4,250.2c0,0.2-0.1,0.3-0.3,0.2c-0.2-0.1-0.3-0.2-0.3-0.4
		c0.1-0.2,0.2-0.2,0.3-0.1C128.3,250,128.4,250.1,128.4,250.2z M124.8,259.7c0-0.2,0.2-0.4,0.4-0.4c0.3,0,0.6,0.2,0.6,0.5
		c0.1,0.3-0.2,0.3-0.4,0.3C125.2,260,124.8,260.1,124.8,259.7z M125.3,261.4c0,0.1-0.2,0.1-0.2,0.1c-0.1,0-0.3,0-0.3-0.2
		c0-0.2,0.2-0.2,0.3-0.2C125.2,261.2,125.4,261.2,125.3,261.4z M125.2,258.3c-0.9,0.9-1.4,0.2-1.6-0.3c-0.5-0.6-0.3-0.8,0-0.9
		c0.8-0.2,1.7-0.1,2.5,0.1c0.3,0.1,0.5,0.3,0.4,0.7c-0.1,0.3-0.3,0.3-0.6,0.3C125.7,258.1,125.4,258.1,125.2,258.3z M123.7,259.9
		c0.1,0.2-0.2,0.5-0.4,0.5c-0.8-0.2-1-1-1.3-1.6c0-0.3,0.2-0.5,0.3-0.4C122.9,258.8,123.5,259.2,123.7,259.9z M122.7,240.3
		c0-0.2,0.2-0.2,0.3-0.1c0.1,0,0.1,0.2,0.1,0.2c0,0.2-0.2,0.2-0.3,0.1C122.8,240.4,122.7,240.4,122.7,240.3z M119.3,251.2
		c-0.2,0.1-0.4,0.3-0.4,0c-0.1-0.4,0.2-0.6,0.5-0.9c0.1-0.1,0.4-0.3,0.4,0C119.9,250.7,119.5,251,119.3,251.2z M119.3,262
		c0,0-0.2,0-0.2-0.1c-0.1-0.1-0.1-0.3,0-0.4c0.1,0,0.2,0,0.2,0.1C119.4,261.7,119.4,261.9,119.3,262z M119.6,238.4
		c0.3,0.4,0,0.7-0.3,1c-0.4,0.3-0.8,0.4-1.2,0c-0.4-0.5,0.1-0.8,0.3-1C118.9,238,119.3,238,119.6,238.4z M119.2,233.6
		c0-0.1,0-0.2,0-0.2c0.1-0.1,0.3-0.1,0.4,0c0,0,0,0.2,0,0.2C119.5,233.8,119.3,233.8,119.2,233.6z M114.9,230.4
		c-0.1,0-0.2,0-0.2-0.1c0-0.1,0-0.2,0-0.3c0.1,0,0.2,0,0.2,0.1C115,230.2,114.9,230.3,114.9,230.4z M113.4,261.1
		c0,0.1,0,0.3-0.1,0.4c-0.1,0.1-0.3,0-0.3-0.1c0-0.1,0-0.3,0-0.4C113.2,260.8,113.3,260.9,113.4,261.1z M110.7,225.7
		c0,0.2-0.2,0.3-0.4,0.3c-0.4,0-0.8-0.2-0.9-0.6c-0.1-0.2,0.1-0.4,0.3-0.3C110.1,225.2,110.6,225.1,110.7,225.7z M104.1,255.4
		c0,0.4-0.3,0.5-0.6,0.4c-0.3-0.1-0.8-0.1-0.7-0.6c0.1-0.4,0.4-0.4,0.7-0.4C103.8,254.8,104.1,255,104.1,255.4z M102.8,235.9
		c-0.1,0.2-0.2,0.3-0.5,0.3c-0.2-0.1-0.3-0.2-0.2-0.5c0.1-0.2,0.2-0.3,0.5-0.3C102.8,235.5,102.8,235.7,102.8,235.9z M96,221.9
		c-0.3,0.1-0.4-0.3-0.6-0.6c-0.2-0.4-0.2-0.7-0.2-1.1c0-0.4,0.2-0.7,0.6-0.5c0.4,0.1,0.8,0.1,0.5,0.8c-0.1,0.2-0.2,0.5-0.2,0.7
		C96.2,221.3,96.6,221.8,96,221.9z M95.5,217.6c0.2-0.2,0.5-0.1,0.6,0.2c0.1,0.3,0.3,0.8,0,1.1c-0.3,0.2-0.6,0-0.8-0.2
		C95.1,218.2,95.1,217.8,95.5,217.6z M93.9,233.2c-0.1,0-0.2,0-0.3,0c-0.1-0.1-0.1-0.3,0.1-0.3c0.1-0.1,0.3-0.1,0.4,0
		C94.2,233.1,94,233.2,93.9,233.2z M89.3,253.9c-0.3,0-0.5-0.3-0.6-0.5c-0.1-0.1-0.1-0.3,0.1-0.4c0.3,0,0.5,0.2,0.7,0.5
		C89.5,253.6,89.6,253.9,89.3,253.9z M86.9,228.2c-0.1,0.4-0.4,0.6-0.8,0.6c-0.3,0-0.5-0.1-0.4-0.4c0.1-0.4,0.4-0.6,0.8-0.7
		C86.8,227.7,86.9,227.9,86.9,228.2z M71.6,300.5c-0.1-0.1-0.3-0.1-0.4-0.2c-0.1-0.2,0.1-0.3,0.2-0.3c0.2,0,0.4,0,0.4,0.2
		C72,300.3,71.8,300.5,71.6,300.5z M71.8,254.8c-0.1,0-0.1-0.1-0.2-0.2c0-0.2,0.1-0.3,0.3-0.2c0.1,0,0.1,0.1,0.1,0.2
		C72.1,254.8,72,254.9,71.8,254.8z M75.6,323.2c-0.2,0-0.2-0.2-0.2-0.3c0-0.1,0.1-0.3,0.3-0.2c0.2,0.1,0.2,0.2,0.2,0.3
		C75.9,323.1,75.8,323.3,75.6,323.2z M76.6,299.7c-0.1,0-0.1-0.2-0.1-0.3c0.1-0.2,0.2-0.2,0.4,0c0.1,0.1,0.1,0.2,0.1,0.3
		C77,299.7,76.9,299.8,76.6,299.7z M77.1,248.9c0,0.2,0,0.6-0.4,0.5c-0.4-0.1-0.4-0.5-0.3-0.9c0-0.2,0.1-0.5,0.4-0.5
		C77.2,248.2,77.1,248.6,77.1,248.9z M78.4,251.9c-0.3-0.1-0.5-0.3-0.5-0.6c0-0.2,0.2-0.3,0.4-0.2c0.3,0.1,0.5,0.3,0.4,0.6
		C78.7,251.9,78.6,252,78.4,251.9z M79.3,249.7c-0.1,0.2-0.2,0.5-0.5,0.5c-0.3-0.1-0.4-0.3-0.4-0.6c0-0.3,0.2-0.6,0.5-0.5
		C79.3,249.2,79.4,249.4,79.3,249.7z M84.1,334.5c-0.3,0.7-1,0.7-1.6,0.8c-0.3,0-0.4-0.3-0.3-0.5c0.2-0.6,0.8-0.8,1.2-1
		C83.8,333.9,84.2,334.2,84.1,334.5z M85.7,255.2C85.7,255.2,85.7,255.2,85.7,255.2c-0.3,0.5-0.2,1.3-1.1,1.2
		c-0.8-0.2-1.4-0.7-1.8-1.5c-0.2-0.5,0.4-0.4,0.6-0.2C84.1,255.1,84.9,255.2,85.7,255.2C85.7,255.2,85.7,255.2,85.7,255.2
		C85.7,255.1,85.7,255.1,85.7,255.2c0-0.1,0-0.1,0-0.1c0-0.4-0.2-0.9,0.3-1.1c0.1,0,0.2,0,0.2,0.1C86.5,254.6,86.1,254.9,85.7,255.2
		C85.7,255.1,85.7,255.2,85.7,255.2z M86.3,257.3c0-0.1,0-0.3,0.1-0.4c0.7-0.5,1.2-1.1,1.8-1.8c0.2-0.2,0.6-0.3,0.8-0.1
		c0.3,0.2,0.1,0.6-0.1,0.8c-0.5,0.8-1.4,1.3-2.3,1.7C86.5,257.5,86.4,257.5,86.3,257.3z M89.9,298.1c-0.1,0-0.4-0.1-0.4-0.4
		c0-0.2,0.2-0.2,0.3-0.2c0.2,0,0.5,0.1,0.5,0.4C90.3,298,90.2,298.1,89.9,298.1z M91.3,312.4c-0.1,0.1-0.3,0.1-0.4-0.1
		c0,0,0.1-0.2,0.1-0.2c0.1-0.1,0.3-0.1,0.4,0.1C91.4,312.2,91.4,312.4,91.3,312.4z M91.3,300.9c-0.4-0.1-0.8-0.2-0.9-0.7
		c0-0.2,0.2-0.4,0.4-0.3c0.4,0.1,0.8,0.3,0.9,0.7C91.8,300.8,91.5,300.9,91.3,300.9z M92.4,319.5c-0.1,0.1-0.3,0.1-0.3-0.1
		c-0.1-0.2,0-0.4,0.1-0.5c0.2-0.1,0.3,0.1,0.3,0.2C92.5,319.2,92.5,319.4,92.4,319.5z M92.3,297.9c0-0.1-0.1-0.2-0.1-0.2
		c0-0.1,0.1-0.1,0.2-0.2c0,0.1,0.1,0.1,0.1,0.2C92.5,297.8,92.4,297.9,92.3,297.9z M95.1,298.3c-0.4,0.7-0.9,1.3-1.4,1.9
		c-0.2,0.2-0.5,0.3-0.8,0.2c-0.3-0.1-0.4-0.3-0.4-0.5c0-0.5,1.8-2.2,2.2-2.2C95.1,297.7,95.3,297.9,95.1,298.3z M97.6,293.4h-10
		v-22.6h9.6c2.6,0,4.6,0.7,5.9,2c0.9,1,1.5,2.2,1.5,3.6v0.1c0,2.9-1.8,4.5-3.6,5.2c2.7,0.8,4.8,2.4,4.8,5.5v0.1
		C105.8,291.1,102.6,293.4,97.6,293.4z M105.4,321.4c-0.1,0.1-0.3,0.1-0.3,0c0-0.1,0-0.3,0-0.4c0.1-0.1,0.2-0.1,0.4,0.1
		C105.4,321.2,105.5,321.3,105.4,321.4z M106.3,300.3c-0.1,0.2,0,0.7-0.5,0.6c-0.3-0.1-0.3-0.4-0.2-0.7c0.2-0.5-0.1-1.2,0.6-1.6
		c0.2-0.1,0.4-0.1,0.5,0.1C107,299.4,106.5,299.7,106.3,300.3z M107.7,308.3c-0.3-0.1-0.6-0.1-0.6-0.5c0-0.4,0.4-0.4,0.6-0.4
		c0.3,0,0.6,0.2,0.5,0.5C108.2,308.2,107.9,308.3,107.7,308.3z M109.2,261.9c0.1-0.1,0.2,0,0.3,0.1c0,0.1,0.1,0.2,0,0.3
		c-0.1,0.1-0.2,0.2-0.4,0C109.1,262.2,109.1,262.1,109.2,261.9z M110.1,313.1c-0.5,0-0.8-0.2-0.8-0.7c0-0.6,0.5-0.7,0.9-0.7
		c0.5,0,0.7,0.3,0.7,0.6C111,312.9,110.7,313.1,110.1,313.1z M119.3,290.1c-0.3,0.3-0.7,0-0.9-0.2c-0.3-0.5-0.5-1.2-0.2-1.7
		c0.1-0.2,0.4,0.4,0.7,0.7C119.1,289.2,119.9,289.5,119.3,290.1z M120.8,309c-0.2-0.1-0.3-0.2-0.3-0.4c0-0.3,0.2-0.4,0.5-0.4
		c0.3,0.1,0.4,0.3,0.4,0.5C121.3,309,121.1,309.1,120.8,309z M128.7,290.4c-0.3,0-0.7-0.1-0.7-0.5c0.2-0.6,0.7-0.6,1.1-0.6
		c0.4,0,0.8,0.2,0.7,0.6C129.6,290.4,129.1,290.4,128.7,290.4z M131.4,284.8c-0.2,0.2-0.5,0.4-0.7,0.5c-0.3,0-0.4-0.1-0.4-0.3
		c0.1-0.4,0.4-0.6,0.7-0.6C131.2,284.5,131.5,284.6,131.4,284.8z M122.1,284.4v2.3c0.1,0.1,0.1,0.2,0,0.3c0,0,0,0,0,0v6.3h-2.6v-8.9
		l-9.4-13.7h3.1l5.1,7.5c0.2-0.1,0.4,0,0.4,0.2c0.1,0.3,0.2,0.5,0.2,0.8l1.9,2.8l7.7-11.3h3L122.1,284.4z M132,277.6
		c-0.1,0-0.3,0-0.4-0.1c-0.1-0.2,0-0.3,0.2-0.4c0.2,0,0.4-0.1,0.5,0.2C132.4,277.4,132.2,277.6,132,277.6z M132.6,284.2
		c0.1-0.1,0.3,0,0.4,0.1c0.1,0.1,0.1,0.3,0,0.4c-0.1,0.1-0.3,0.1-0.4,0C132.4,284.5,132.4,284.3,132.6,284.2z M133.1,366.8
		c-0.1,0.1-0.2,0.2-0.4,0.1c-0.1-0.1-0.2-0.2-0.1-0.4c0-0.1,0.1-0.1,0.3-0.1C133.1,366.4,133.2,366.6,133.1,366.8z M133.5,297.1
		c-0.4,0.1-0.6-0.3-0.8-0.6c-0.1-0.1-0.2-0.3,0-0.5c0.4-0.1,0.6,0.2,0.8,0.5C133.7,296.7,133.8,297,133.5,297.1z M134.5,311.6
		c-0.1,0.2-0.3,0.2-0.5,0c-0.1-0.1-0.1-0.3,0-0.4c0.1-0.1,0.3-0.1,0.4,0C134.5,311.3,134.5,311.5,134.5,311.6z M135.3,243.6
		c-0.1,0.1-0.3,0-0.3-0.2c-0.1-0.2-0.2-0.5,0-0.8c0.2-0.2,0.3,0,0.4,0.2C135.5,243.1,135.6,243.4,135.3,243.6z M136.9,359.9
		c-0.3-0.1-0.5-0.3-0.4-0.7c0.1-0.3,0.2-0.7,0.6-0.7c0.4,0,0.4,0.4,0.4,0.7C137.5,359.6,137.3,359.9,136.9,359.9z M139,296.8
		c-0.1,0-0.3,0.1-0.4,0c-0.2-0.1-0.1-0.2,0.1-0.3c0.1,0,0.3,0,0.4,0C139.1,296.7,139.1,296.8,139,296.8z M141.1,258.4
		c-0.1,0-0.3,0.1-0.4,0c-0.1-0.1-0.2-0.2,0-0.3c0.1-0.1,0.3-0.1,0.4,0C141.1,258.2,141.1,258.4,141.1,258.4z M141.5,269.8
		c-0.1,0.1-0.2,0.2-0.4,0.1c-0.1-0.1-0.1-0.3,0-0.4c0.1-0.1,0.3-0.1,0.3,0.1C141.6,269.6,141.6,269.7,141.5,269.8z M145.4,282.5
		c-0.2,0.1-0.5,0.2-0.7,0c-0.2-0.2,0-0.4,0.2-0.5c0.3-0.1,0.6-0.2,0.8,0.1C145.8,282.3,145.6,282.4,145.4,282.5z M145.8,256.1
		c-0.1,0-0.2,0-0.2-0.1c-0.1-0.1-0.1-0.3,0.1-0.3c0.1,0,0.2,0.1,0.2,0.1C145.8,256,145.8,256.1,145.8,256.1z M146.9,361.1
		c-0.1,0.1-0.3,0-0.3-0.1c0-0.1,0-0.2,0.1-0.3c0.1,0,0.2,0.1,0.2,0.1C146.8,360.9,146.9,361.1,146.9,361.1z M147.9,249.1
		c-0.1,0.2-0.3,0.3-0.5,0.1c-0.2-0.2-0.1-0.4,0.1-0.5c0.1-0.1,0.3-0.3,0.5-0.1C148.1,248.8,148,248.9,147.9,249.1z M149.5,325.1
		c-0.3,0.2-0.6,0.2-0.9-0.1c-0.1-0.2-0.1-0.4,0.1-0.5c0.3-0.1,0.7-0.1,0.9,0.1C149.8,324.9,149.7,325,149.5,325.1z M149.8,283.2
		c-0.1,0-0.2-0.1-0.2-0.1c0-0.1,0.1-0.2,0.2-0.3c0.1,0.1,0.1,0.1,0.2,0.2C150,283.1,150,283.2,149.8,283.2z M152.7,327
		c-0.5,0.3-0.9,0-1.1-0.4c-0.2-0.3-0.1-0.7,0.2-0.9c0.5-0.2,0.9,0,1.1,0.4C153.1,326.4,153,326.8,152.7,327z M151.7,284.7
		c0.2-0.1,0.4,0,0.5,0.2c0.1,0.3,0.2,0.6,0,0.8c-0.3,0.1-0.4-0.2-0.5-0.4C151.5,285.1,151.3,284.8,151.7,284.7z M152.3,289.5
		c0.1-0.1,0.3,0,0.3,0.1c0,0.1,0,0.2,0,0.2c-0.1,0.1-0.3,0-0.3-0.1C152.3,289.7,152.3,289.6,152.3,289.5z M155.8,301.6
		c-0.7-0.4-1.3-0.8-2-1.3c-0.1-0.1-0.2-0.2-0.2-0.3c0-0.2,0.1-0.3,0.3-0.3c0.6-0.1,2.2,0.9,2.3,1.5
		C156.3,301.5,156.2,301.8,155.8,301.6z M154.2,289.7c0-0.1,0.1-0.3,0.2-0.4c0,0,0.2,0,0.3,0c-0.1,0.1-0.1,0.3-0.2,0.4
		C154.4,289.7,154.2,289.7,154.2,289.7z M155.1,294.1c0,0,0.1-0.1,0.3,0c0.1,0.1,0.2,0.2,0.1,0.3c-0.1,0.1-0.2,0.2-0.3,0.1
		C155,294.5,154.9,294.4,155.1,294.1z M148.8,273.2v-2.4h17.8v2.4H159v20.2h-2.6v-20.2H148.8z M164.7,295.2c0.1,0.1,0.1,0.3-0.2,0.4
		c-0.1,0-0.2,0-0.3-0.2c0-0.1,0-0.1,0-0.2c-0.1-0.1-0.2-0.2-0.1-0.3c0.2-0.3,0.4-0.4,0.7-0.4c0.3,0,0.3,0.2,0.1,0.4
		C164.9,295.1,164.8,295.1,164.7,295.2C164.7,295.2,164.7,295.2,164.7,295.2z M164.9,298.8c0,0.1,0,0.2-0.1,0.2c0,0-0.2,0-0.2,0
		c0-0.1,0-0.2,0.1-0.2C164.7,298.7,164.8,298.8,164.9,298.8z M161.8,292.9c0,0.1,0,0.2,0,0.2c-0.1,0-0.2,0-0.3,0c0-0.1,0-0.2,0-0.2
		C161.6,292.9,161.7,292.9,161.8,292.9z M160.9,296.3c-0.4,0.2-0.8,0.6-1.2,0.1c-0.2-0.2-0.1-0.5,0.2-0.6c0.5-0.2,1-0.3,1.4,0.1
		C161.6,296.2,161.1,296.2,160.9,296.3z M160.9,309.7c-0.1,0.1-0.3,0.1-0.4-0.1c0-0.1,0-0.2,0-0.3c0.2-0.1,0.3-0.1,0.4,0.1
		C161,309.5,161,309.7,160.9,309.7z M159.5,311.3c-0.1-0.1-0.1-0.2-0.1-0.3c0.1-0.2,0.2-0.1,0.4,0c0,0.1,0.1,0.2,0.1,0.2
		C159.7,311.5,159.6,311.4,159.5,311.3z M160.2,324.4c0.3,0.2,0.2,0.6-0.1,0.8c-0.5,0.3-0.8-0.1-1.1-0.4c-0.2-0.3-0.4-0.6-0.1-0.8
		C159.5,323.6,159.9,324.1,160.2,324.4z M160.7,281.8c0.1-0.1,0.3-0.1,0.4,0c0.1,0.1,0.2,0.2,0.1,0.4c-0.1,0.1-0.3,0.1-0.4,0
		C160.6,282,160.6,281.9,160.7,281.8z M158.6,374.5c-0.4-0.1-0.6-0.4-0.8-0.7c0.1-0.3,0.2-0.4,0.4-0.4c0.4,0,0.8,0.2,0.8,0.7
		C159.1,374.5,158.9,374.6,158.6,374.5z M166.4,332c-0.3,0-0.7-0.1-1-0.4c-0.2-0.2-0.2-0.5,0.1-0.6c0.4-0.2,0.8,0.1,1,0.4
		C166.6,331.6,166.7,331.8,166.4,332z M167.8,376.4c-0.4-0.1-0.9-0.1-0.9-0.7c0-0.3,0.3-0.6,0.6-0.5c0.4,0.1,1,0.3,1,0.9
		C168.5,376.4,168.1,376.4,167.8,376.4z M171.7,337.3c-0.1-0.1-0.2-0.1-0.2-0.2c0-0.1,0-0.2,0.2-0.2c0,0,0.1,0.1,0.1,0.1
		C171.8,337.2,171.8,337.3,171.7,337.3z M172.6,367.4c-0.2,0-0.3-0.1-0.2-0.4c0,0,0.1-0.2,0.3-0.2c0.2,0,0.3,0.1,0.3,0.3
		C172.9,367.3,172.7,367.4,172.6,367.4z M176.4,330.2h-16.7v-3.9l7.5-6.2c2.8-2.3,3.9-3.5,3.9-5.4c0-1.9-1.3-2.9-3-2.9
		c-1.7,0-2.9,1-4.6,3l-3.5-2.8c2.2-3,4.4-4.7,8.4-4.7c4.7,0,7.8,2.7,7.8,7v0.1c0,3.8-1.9,5.6-5.9,8.7l-3.7,2.8h9.8V330.2z
		 M162.4,319.2c0.2-0.2,0.4-0.2,0.7,0c0.2,0.1,0.2,0.3,0.1,0.5c-0.2,0.2-0.4,0.2-0.6,0C162.3,319.6,162.3,319.4,162.4,319.2z
		 M164.3,315.6c0.1-0.1,0.3-0.1,0.4,0.1c0.1,0.1,0,0.3,0,0.3c-0.2,0.2-0.4,0.1-0.5,0C164.1,315.8,164.2,315.7,164.3,315.6z
		 M168.5,316c0.2-0.1,0.4,0,0.5,0.1c0.1,0.2,0.1,0.4-0.1,0.4c-0.2,0-0.4-0.1-0.5-0.2C168.2,316.2,168.3,316.1,168.5,316z
		 M176.5,293.4h-2.5v-22.6h2.5v10h13v-10h2.5v22.6h-2.5v-10.2h-13V293.4z M181.2,300.4c-0.2,0.2-0.5,0.2-0.8,0.1
		c-0.1,0-0.3-0.1-0.2-0.3c0.2-0.2,0.5-0.2,0.8-0.2C181.2,300.1,181.4,300.2,181.2,300.4z M178.6,301.3c-0.1,0.1-0.3,0.1-0.3,0
		c0-0.1,0-0.2,0-0.2c0.1-0.1,0.3-0.1,0.4,0C178.6,301.1,178.6,301.3,178.6,301.3z M177,303.7c-0.1,0.1-0.2,0.1-0.3,0
		c0-0.1,0-0.2,0-0.2c0.1-0.1,0.3-0.1,0.3,0C177.1,303.5,177.1,303.6,177,303.7z M178.5,305.5c-0.3,0.1-0.6-0.1-0.5-0.4
		c0.1-0.6,0.3-1.3,1-1.5c0.4-0.1,0.6,0.3,0.7,0.8C179.4,304.9,179.1,305.4,178.5,305.5z M179.9,367.2c-0.2,0-0.3-0.1-0.3-0.3
		c0-0.1,0.1-0.2,0.2-0.2c0.2,0,0.3,0.1,0.3,0.3C180,367.1,180,367.2,179.9,367.2z M185.9,349.6c-0.2,0.2-0.3,0.2-0.4,0.1
		c-0.1-0.1-0.2-0.2-0.1-0.3c0.1-0.2,0.3-0.2,0.5-0.1C185.9,349.4,185.9,349.5,185.9,349.6z M190,342.6c-0.2,0.2-0.5,0.2-0.8,0
		c-0.2-0.4-0.1-0.7,0.3-0.9c0.2-0.2,0.6-0.3,0.8,0C190.4,342,190.2,342.3,190,342.6z M192.4,333.4c-0.5,0.5-1.6,0.3-2.4,0.4
		c0-0.7-0.4-1.4-0.4-2c0.1-0.6,0.8,0.1,1.1-0.1c0.1-0.1,0.2-0.2,0.3-0.3c0,0,0,0,0,0c-0.1-0.1-0.3-0.1-0.4-0.2
		c-0.1-0.1-0.2-0.3-0.2-0.3c0.2-0.2,0.3,0,0.4,0.1c0.1,0.1,0.1,0.2,0.1,0.4c0,0,0,0,0,0c0,0,0,0,0,0c0,0,0,0,0,0
		c0.3-0.2,0.9-0.3,0.8-0.1C191.3,332.3,193.2,332.8,192.4,333.4z M194.6,375.6c-0.2,0.2-0.5,0.1-0.6-0.2c-0.2-0.4,0-0.8,0.3-1
		c0.2-0.2,0.5-0.1,0.6,0.1C195.1,375,195,375.3,194.6,375.6z M195.6,372.9c-0.3,0.1-0.5,0-0.6-0.3c-0.1-0.4,0-0.8,0.4-1
		c0.2-0.1,0.4,0,0.5,0.2C195.9,372.3,195.9,372.6,195.6,372.9z M196.3,344.8c-0.2,0.3-0.4,0.4-0.7,0.2c-0.3-0.3-0.3-0.6-0.2-0.9
		c0.1-0.3,0.4-0.3,0.6-0.1C196.4,344.1,196.5,344.4,196.3,344.8z M197.2,373.8c-0.1,0-0.1-0.1-0.2-0.1c0-0.1,0.1-0.2,0.1-0.2
		c0.1,0,0.1,0.1,0.2,0.1C197.3,373.7,197.3,373.8,197.2,373.8z M197.5,371.1c-0.1,0.1-0.3,0-0.3-0.1c0-0.1,0-0.3,0.1-0.4
		c0.1-0.1,0.3,0,0.4,0.2C197.6,370.9,197.6,371,197.5,371.1z M198.7,376.3c-0.5,0-0.7-0.4-0.9-0.7c-0.1-0.2-0.1-0.5,0.1-0.5
		c0.5,0,0.7,0.4,1,0.7C199,376,198.9,376.2,198.7,376.3z M198.7,331.3c-0.1,0-0.3-0.1-0.4-0.2c-0.1-0.1-0.1-0.3,0.1-0.3
		c0.2,0,0.4,0,0.5,0.2C199,331.2,198.9,331.4,198.7,331.3z M200,318.9c0,6.6-4,11.7-10.1,11.7s-10-5.1-10-11.6v-0.1
		c0-6.6,4.1-11.7,10.1-11.7C196,307.2,200,312.2,200,318.9L200,318.9z M201,249.6c-0.3,0.6-0.8,1.1-1.6,1c-0.4,0-0.9-0.3-0.7-0.8
		c0.3-0.7,1.1-0.7,1.7-0.9C200.8,249.2,201.1,249.3,201,249.6z M201,270.8h16.3v2.3h-13.8v7.7h12.3v2.3h-12.3v7.9h13.9v2.3H201
		V270.8z M215.8,352.4c-0.1,0-0.2-0.1-0.2-0.1c0-0.1,0-0.2,0.1-0.2c0.1,0,0.2,0,0.2,0C216,352.2,216,352.4,215.8,352.4z
		 M205.8,378.9c-0.1,0-0.3-0.1-0.4-0.2c-0.1-0.1,0-0.3,0.1-0.3c0.2,0,0.4,0,0.5,0.2C206.1,378.8,206,378.9,205.8,378.9z
		 M208.5,345.8c0,0-0.1,0.1-0.1,0.1c-0.5,0.2-1,0.1-1.4-0.4c-0.1-0.2-0.2-0.5-0.1-0.7c0-0.4-0.9-0.8-0.2-1c0.6-0.2,1.5,0.2,2,0.7
		C209,344.9,208.8,345.4,208.5,345.8z M209.7,345.8c-0.3-0.3-0.3-0.7,0.1-1c0.2-0.1,0.4-0.1,0.5,0.1c0.1,0.4,0.2,0.8,0,1.1
		C210.1,346.3,209.8,346,209.7,345.8z M210.8,350.1c-0.3,0.2-0.5-0.1-0.7-0.2c-0.2-0.2-0.2-0.4,0-0.5c0.2-0.1,0.5,0,0.6,0.2
		C210.9,349.8,211,350,210.8,350.1z M211.9,350.8c0,0-0.2,0-0.2-0.1c-0.1-0.2,0-0.4,0.2-0.5c0.1,0,0.2,0,0.2,0.1
		C212.1,350.5,212.1,350.6,211.9,350.8z M212.3,329.7C212.3,329.7,212.3,329.7,212.3,329.7l0,0.4h-4.9v-17.7l-3.9,1l-1-4.1l6.5-1.9
		h3.4v5.4c0.1,0,0.2,0.1,0.3,0.2c0.1,0.1,0,0.3-0.1,0.3c-0.1,0-0.1,0-0.1,0v15.8c0,0,0.1,0.1,0.1,0.1
		C212.5,329.4,212.6,329.6,212.3,329.7z M212.7,316.2c-0.1,0.1-0.3,0-0.3-0.2c0-0.3,0.1-0.5,0.3-0.6c0.1-0.1,0.3-0.1,0.4,0
		C213,315.8,212.9,316.1,212.7,316.2z M213.1,311.2c-0.2,0-0.3,0-0.3-0.2c0-0.1,0.1-0.2,0.2-0.2c0.1-0.1,0.3-0.1,0.4,0.1
		C213.3,311,213.3,311.2,213.1,311.2z M214.3,357.8c-0.1,0.1-0.3,0-0.3-0.1c-0.1-0.3,0-0.5,0.3-0.6c0.1-0.1,0.3,0,0.4,0.1
		C214.7,357.5,214.5,357.6,214.3,357.8z M215.7,378.1c-0.1,0-0.2-0.2-0.2-0.3c0-0.2,0.1-0.2,0.3-0.2c0.2,0,0.3,0.1,0.3,0.3
		C216.1,378.1,216,378.2,215.7,378.1z M222.5,333.1c-0.1,0-0.3,0-0.4-0.2c-0.1-0.2,0-0.4,0.2-0.4c0.2,0,0.4,0.1,0.5,0.3
		C222.7,332.9,222.7,333.1,222.5,333.1z M223.7,361.1c-0.2,0.1-0.5,0-0.6-0.2c-0.2-0.3-0.1-0.6,0.2-0.7c0.2-0.2,0.5-0.1,0.6,0.2
		C223.9,360.6,224,360.9,223.7,361.1z M225.2,370.1c-0.1,0.1-0.3,0.1-0.3-0.1c0-0.1,0.1-0.2,0.1-0.2c0.1,0,0.2,0,0.2,0.1
		C225.2,370,225.2,370.1,225.2,370.1z M225.4,355c-0.1,0.6,0,1.2-0.5,1.6c-0.5,0.2-0.9,0-1.2-0.3c-0.4-0.3-0.3-0.7,0.1-1
		c0.5-0.3,0.7-0.6,0-1.1c-0.6-0.3-0.3-0.6,0.2-0.7C224.9,353.4,225.6,354,225.4,355z M223.8,352.7c0-0.1,0.1-0.1,0.2-0.1
		c0.2,0,0.3,0.1,0.2,0.3c0,0.1-0.1,0.1-0.2,0.2C223.9,353,223.8,352.9,223.8,352.7z M225.3,339c-0.1,0-0.1-0.1-0.1-0.2
		c0-0.1,0.1-0.3,0.3-0.2c0.1,0,0.1,0.1,0.1,0.2C225.5,338.9,225.4,339,225.3,339z M226.4,334.7c-0.3,0.1-0.6,0-0.8-0.3
		c-0.1-0.1-0.1-0.3,0.1-0.3c0.3,0,0.5,0.2,0.7,0.2C226.7,334.6,226.6,334.7,226.4,334.7z M230.8,360.8c-0.3,0.2-0.7,0.2-0.9-0.1
		c-0.1-0.2,0-0.4,0.2-0.5c0.3-0.2,0.6-0.2,0.9,0.1C231.1,360.6,231,360.7,230.8,360.8z M232.4,356.8c-0.3,0.5-0.7,0.1-1-0.1
		c-0.9-0.5-1.8-1-2-2.2c0-0.3-0.1-0.7,0.3-0.9c0.1,0,0.3-0.1,0.4-0.1c0.6,0.1,1-1,1.5-0.4c0.5,0.5-0.2,1-0.5,1.5
		c-0.4,0.7,0.2,1.1,0.7,1.4C232.2,356.3,232.6,356.5,232.4,356.8z M232,352.2c-0.5-0.5-1-1-1.5-1.4c-0.4-0.7-0.3-1.4-0.3-2.1
		c0-0.4-0.1-0.9,0.5-0.9c0.4,0,0.7,0.5,0.7,0.9c0,1,0.1,1.8,1.2,2.2c0.2,0.1,0.3,0.5,0.4,0.8c0.1,0.3,0.3,0.7-0.1,0.9
		C232.4,352.9,232.2,352.5,232,352.2z M231,342.5c0.1-0.2,0.2-0.2,0.3-0.1c0.1,0.1,0.2,0.2,0.2,0.3c0,0.2-0.1,0.2-0.3,0.2
		C231.1,342.8,231,342.7,231,342.5z M233.2,369.4c-0.2,0.1-0.4,0.1-0.5-0.1c-0.2-0.5,0.2-0.7,0.5-0.9c0.2-0.1,0.4-0.2,0.5,0.1
		C233.7,368.9,233.6,369.2,233.2,369.4z M234.2,370.6c-0.1,0-0.3,0-0.4-0.1c-0.2-0.1-0.1-0.2,0.1-0.3c0.2-0.1,0.4-0.1,0.5,0.1
		C234.5,370.5,234.4,370.6,234.2,370.6z M233.9,345.7c-0.8,0.9-0.7-0.3-0.9-0.4c-0.3-0.4-0.6-0.7-0.8-0.9c-0.2-0.2-0.6-0.3-0.3-0.7
		c0.2-0.2,0.6-0.1,0.8,0c0.2,0.1,0.5,0.3,0.7,0.3c0.5-0.1,1-0.1,1.2,0.5C234.8,345.2,234.2,345.4,233.9,345.7z M234.8,322.7
		c0,4.6-3.7,7.8-8.6,7.8c-2.9,0-4.9-0.8-6.5-2.4c-1.6-1.6-2.7-4.1-2.7-8.6v-0.1c0-7,3.2-12.3,9.9-12.3c3.1,0,5.1,0.9,7.1,2.5
		l-2.6,3.8c-1.5-1.1-2.7-1.8-4.6-1.8c-2.8,0-4.2,2.3-4.5,5.2c1.1-0.7,2.5-1.5,4.7-1.5C231.3,315.5,234.8,318,234.8,322.7
		L234.8,322.7z M234.7,245.2c-0.2-0.4,0.1-1,0.5-1.1c1.2-0.3,1.9-1.1,2.8-1.9c0.2-0.2,0.5-0.3,0.8-0.2c0,0,0.1,0.1,0.1,0.1
		c-0.6,0.8-0.2,1.4,0.5,1.8c0,0,0,0.2-0.1,0.2c-0.6,0.2-1,1.1-1.7,0.8c-0.7-0.4-1.2,0.1-1.8,0.2
		C235.4,245.3,234.9,245.8,234.7,245.2z M235.4,356.9c0.4-0.2,0.7,0,0.9,0.3c0.1,0.2,0.1,0.4-0.1,0.5c-0.4,0.1-0.7,0-0.9-0.3
		C235.1,357.2,235.2,357,235.4,356.9z M236.4,359.3c-0.4,0.1-0.8,0.3-1.1-0.1c-0.2-0.2,0.1-0.3,0.3-0.4c0.3-0.1,0.7-0.4,1,0
		C236.7,359.1,236.6,359.3,236.4,359.3z M237,248c0.1-0.2,0.2-0.4,0.4-0.2c0.2,0.3,0.2,0.5,0,0.8c-0.1,0.2-0.3,0.3-0.5,0.1
		C236.8,248.4,237,248.2,237,248z M237.7,364.2c-0.2,0.2-0.5,0.2-0.7,0c-0.1-0.1-0.1-0.3,0-0.4c0.2-0.2,0.4-0.2,0.7-0.1
		C237.9,363.8,237.9,364,237.7,364.2z"/>
	<path class="st1" d="M242.3,242.3c0.1,0.6,1,0.8,1.3,0.1c0.1-0.2,0.2-0.4,0.3-0.5c-0.6-0.1-1.2-0.2-1.8-0.3
		C242.2,241.9,242.3,242.1,242.3,242.3z"/>
	<path class="st1" d="M137.8,407.4h-6.1v16.4h6.1c5.2,0,8.7-3.6,8.7-8.2v0C146.5,411,143,407.4,137.8,407.4z M143.5,415.7
		c0,3.2-2.2,5.5-5.7,5.5h-3.2V410h3.2C141.3,410,143.5,412.4,143.5,415.7L143.5,415.7z"/>
	<path class="st1" d="M251.9,276.9L251.9,276.9c0-2.3-1.8-3.7-5-3.7H240v7.8h6.7C249.7,280.9,251.9,279.5,251.9,276.9z"/>
	<polygon class="st1" points="118.5,416.8 126.7,416.8 126.7,414.3 118.5,414.3 118.5,410 127.7,410 127.7,407.4 115.6,407.4 
		115.6,423.8 127.8,423.8 127.8,421.2 118.5,421.2 	"/>
	<path class="st1" d="M267.7,285.1H278l-5.1-11.5L267.7,285.1z M273.2,277.3c0.1-0.1,0.2-0.2,0.3-0.1c0.1,0.1,0.1,0.3,0.1,0.4
		c0,0.1-0.2,0.2-0.3,0.1C273.1,277.5,273.1,277.4,273.2,277.3z"/>
	<path class="st1" d="M240.7,196.7C240.7,196.7,240.7,196.7,240.7,196.7l0,4.1h3.3c-1.1-1-1.9-2.2-2.5-3.6
		C241.4,197,242,195.3,240.7,196.7z"/>
	<path class="st1" d="M163.8,407.3l-7.2,16.5h3l1.7-4h7.8l1.7,4h3l-7.2-16.5H163.8z M162.3,417.3l2.8-6.6l2.8,6.6H162.3z"/>
</g>
</svg>
